<svg width="46" height="21" viewBox="0 0 46 21" fill="none" xmlns="http://www.w3.org/2000/svg">
<g filter="url(#filter0_d_17_114)">
<rect x="5.00391" y="1.00391" width="35" height="10" rx="1" fill="#8C0D10" fill-opacity="0.67" style="mix-blend-mode:darken" shape-rendering="crispEdges"/>
<rect x="4.50391" y="0.503906" width="36" height="11" rx="1.5" stroke="#8C0D10" shape-rendering="crispEdges"/>
</g>
<path d="M8.94891 5.65891C9.04557 5.52557 9.17724 5.41724 9.34391 5.33391C9.51391 5.24724 9.70224 5.20391 9.90891 5.20391C10.1522 5.20391 10.3722 5.26224 10.5689 5.37891C10.7656 5.49557 10.9206 5.66224 11.0339 5.87891C11.1472 6.09224 11.2039 6.33724 11.2039 6.61391C11.2039 6.89057 11.1472 7.13891 11.0339 7.35891C10.9206 7.57557 10.7639 7.74557 10.5639 7.86891C10.3672 7.98891 10.1489 8.04891 9.90891 8.04891C9.69557 8.04891 9.50557 8.00724 9.33891 7.92391C9.17557 7.84057 9.04557 7.73391 8.94891 7.60391V8.00391H8.37891V4.30391H8.94891V5.65891ZM10.6239 6.61391C10.6239 6.42391 10.5839 6.26057 10.5039 6.12391C10.4272 5.98391 10.3239 5.87891 10.1939 5.80891C10.0672 5.73557 9.93057 5.69891 9.78391 5.69891C9.64057 5.69891 9.50391 5.73557 9.37391 5.80891C9.24724 5.88224 9.14391 5.98891 9.06391 6.12891C8.98724 6.26891 8.94891 6.43391 8.94891 6.62391C8.94891 6.81391 8.98724 6.98057 9.06391 7.12391C9.14391 7.26391 9.24724 7.37057 9.37391 7.44391C9.50391 7.51724 9.64057 7.55391 9.78391 7.55391C9.93057 7.55391 10.0672 7.51724 10.1939 7.44391C10.3239 7.36724 10.4272 7.25724 10.5039 7.11391C10.5839 6.97057 10.6239 6.80391 10.6239 6.61391ZM12.3376 5.64891C12.4209 5.50891 12.5309 5.40057 12.6676 5.32391C12.8076 5.24391 12.9726 5.20391 13.1626 5.20391V5.79391H13.0176C12.7942 5.79391 12.6242 5.85057 12.5076 5.96391C12.3942 6.07724 12.3376 6.27391 12.3376 6.55391V8.00391H11.7676V5.24891H12.3376V5.64891ZM16.2115 6.55891C16.2115 6.66224 16.2049 6.75557 16.1915 6.83891H14.0865C14.1032 7.05891 14.1849 7.23557 14.3315 7.36891C14.4782 7.50224 14.6582 7.56891 14.8715 7.56891C15.1782 7.56891 15.3949 7.44057 15.5215 7.18391H16.1365C16.0532 7.43724 15.9015 7.64557 15.6815 7.80891C15.4649 7.96891 15.1949 8.04891 14.8715 8.04891C14.6082 8.04891 14.3715 7.99057 14.1615 7.87391C13.9549 7.75391 13.7915 7.58724 13.6715 7.37391C13.5549 7.15724 13.4965 6.90724 13.4965 6.62391C13.4965 6.34057 13.5532 6.09224 13.6665 5.87891C13.7832 5.66224 13.9449 5.49557 14.1515 5.37891C14.3615 5.26224 14.6015 5.20391 14.8715 5.20391C15.1315 5.20391 15.3632 5.26057 15.5665 5.37391C15.7699 5.48724 15.9282 5.64724 16.0415 5.85391C16.1549 6.05724 16.2115 6.29224 16.2115 6.55891ZM15.6165 6.37891C15.6132 6.16891 15.5382 6.00057 15.3915 5.87391C15.2449 5.74724 15.0632 5.68391 14.8465 5.68391C14.6499 5.68391 14.4815 5.74724 14.3415 5.87391C14.2015 5.99724 14.1182 6.16557 14.0915 6.37891H15.6165ZM16.5825 6.61391C16.5825 6.33724 16.6391 6.09224 16.7525 5.87891C16.8691 5.66557 17.0258 5.50057 17.2225 5.38391C17.4225 5.26391 17.6425 5.20391 17.8825 5.20391C18.0991 5.20391 18.2875 5.24724 18.4475 5.33391C18.6108 5.41724 18.7408 5.52224 18.8375 5.64891V5.24891H19.4125V8.00391H18.8375V7.59391C18.7408 7.72391 18.6091 7.83224 18.4425 7.91891C18.2758 8.00557 18.0858 8.04891 17.8725 8.04891C17.6358 8.04891 17.4191 7.98891 17.2225 7.86891C17.0258 7.74557 16.8691 7.57557 16.7525 7.35891C16.6391 7.13891 16.5825 6.89057 16.5825 6.61391ZM18.8375 6.62391C18.8375 6.43391 18.7975 6.26891 18.7175 6.12891C18.6408 5.98891 18.5391 5.88224 18.4125 5.80891C18.2858 5.73557 18.1491 5.69891 18.0025 5.69891C17.8558 5.69891 17.7191 5.73557 17.5925 5.80891C17.4658 5.87891 17.3625 5.98391 17.2825 6.12391C17.2058 6.26057 17.1675 6.42391 17.1675 6.61391C17.1675 6.80391 17.2058 6.97057 17.2825 7.11391C17.3625 7.25724 17.4658 7.36724 17.5925 7.44391C17.7225 7.51724 17.8591 7.55391 18.0025 7.55391C18.1491 7.55391 18.2858 7.51724 18.4125 7.44391C18.5391 7.37057 18.6408 7.26391 18.7175 7.12391C18.7975 6.98057 18.8375 6.81391 18.8375 6.62391ZM21.2511 6.62891L22.5211 8.00391H21.7511L20.7311 6.81891V8.00391H20.1611V4.30391H20.7311V6.45391L21.7311 5.24891H22.5211L21.2511 6.62891ZM23.2197 4.88391C23.1164 4.88391 23.0297 4.84891 22.9597 4.77891C22.8897 4.70891 22.8547 4.62224 22.8547 4.51891C22.8547 4.41557 22.8897 4.32891 22.9597 4.25891C23.0297 4.18891 23.1164 4.15391 23.2197 4.15391C23.3197 4.15391 23.4047 4.18891 23.4747 4.25891C23.5447 4.32891 23.5797 4.41557 23.5797 4.51891C23.5797 4.62224 23.5447 4.70891 23.4747 4.77891C23.4047 4.84891 23.3197 4.88391 23.2197 4.88391ZM23.4997 5.24891V8.00391H22.9297V5.24891H23.4997ZM25.638 5.20391C25.8547 5.20391 26.048 5.24891 26.218 5.33891C26.3914 5.42891 26.5264 5.56224 26.623 5.73891C26.7197 5.91557 26.768 6.12891 26.768 6.37891V8.00391H26.203V6.46391C26.203 6.21724 26.1414 6.02891 26.018 5.89891C25.8947 5.76557 25.7264 5.69891 25.513 5.69891C25.2997 5.69891 25.1297 5.76557 25.003 5.89891C24.8797 6.02891 24.818 6.21724 24.818 6.46391V8.00391H24.248V5.24891H24.818V5.56391C24.9114 5.45057 25.0297 5.36224 25.173 5.29891C25.3197 5.23557 25.4747 5.20391 25.638 5.20391ZM28.6051 5.20391C28.8185 5.20391 29.0068 5.24724 29.1701 5.33391C29.3368 5.41724 29.4668 5.52224 29.5601 5.64891V5.24891H30.1351V8.04891C30.1351 8.30224 30.0818 8.52724 29.9751 8.72391C29.8685 8.92391 29.7135 9.08057 29.5101 9.19391C29.3101 9.30724 29.0701 9.36391 28.7901 9.36391C28.4168 9.36391 28.1068 9.27557 27.8601 9.09891C27.6135 8.92557 27.4735 8.68891 27.4401 8.38891H28.0051C28.0485 8.53224 28.1401 8.64724 28.2801 8.73391C28.4235 8.82391 28.5935 8.86891 28.7901 8.86891C29.0201 8.86891 29.2051 8.79891 29.3451 8.65891C29.4885 8.51891 29.5601 8.31557 29.5601 8.04891V7.58891C29.4635 7.71891 29.3318 7.82891 29.1651 7.91891C29.0018 8.00557 28.8151 8.04891 28.6051 8.04891C28.3651 8.04891 28.1451 7.98891 27.9451 7.86891C27.7485 7.74557 27.5918 7.57557 27.4751 7.35891C27.3618 7.13891 27.3051 6.89057 27.3051 6.61391C27.3051 6.33724 27.3618 6.09224 27.4751 5.87891C27.5918 5.66557 27.7485 5.50057 27.9451 5.38391C28.1451 5.26391 28.3651 5.20391 28.6051 5.20391ZM29.5601 6.62391C29.5601 6.43391 29.5201 6.26891 29.4401 6.12891C29.3635 5.98891 29.2618 5.88224 29.1351 5.80891C29.0085 5.73557 28.8718 5.69891 28.7251 5.69891C28.5785 5.69891 28.4418 5.73557 28.3151 5.80891C28.1885 5.87891 28.0851 5.98391 28.0051 6.12391C27.9285 6.26057 27.8901 6.42391 27.8901 6.61391C27.8901 6.80391 27.9285 6.97057 28.0051 7.11391C28.0851 7.25724 28.1885 7.36724 28.3151 7.44391C28.4451 7.51724 28.5818 7.55391 28.7251 7.55391C28.8718 7.55391 29.0085 7.51724 29.1351 7.44391C29.2618 7.37057 29.3635 7.26391 29.4401 7.12391C29.5201 6.98057 29.5601 6.81391 29.5601 6.62391Z" fill="black"/>
<defs>
<filter id="filter0_d_17_114" x="0.00390625" y="0.00390625" width="45" height="20" filterUnits="userSpaceOnUse" color-interpolation-filters="sRGB">
<feFlood flood-opacity="0" result="BackgroundImageFix"/>
<feColorMatrix in="SourceAlpha" type="matrix" values="0 0 0 0 0 0 0 0 0 0 0 0 0 0 0 0 0 0 127 0" result="hardAlpha"/>
<feOffset dy="4"/>
<feGaussianBlur stdDeviation="2"/>
<feComposite in2="hardAlpha" operator="out"/>
<feColorMatrix type="matrix" values="0 0 0 0 0 0 0 0 0 0 0 0 0 0 0 0 0 0 0.25 0"/>
<feBlend mode="normal" in2="BackgroundImageFix" result="effect1_dropShadow_17_114"/>
<feBlend mode="normal" in="SourceGraphic" in2="effect1_dropShadow_17_114" result="shape"/>
</filter>
</defs>
</svg>
