<svg width="61" height="20" viewBox="0 0 61 20" fill="none" xmlns="http://www.w3.org/2000/svg">
<g filter="url(#filter0_d_27_273)">
<rect x="5" y="1" width="51" height="10" rx="1" fill="#C2E1A2" fill-opacity="0.67" style="mix-blend-mode:darken" shape-rendering="crispEdges"/>
<rect x="4.5" y="0.5" width="52" height="11" rx="1.5" stroke="#C2E1A2" shape-rendering="crispEdges"/>
</g>
<path d="M8.945 5.65C9.04167 5.52333 9.17333 5.41667 9.34 5.33C9.50667 5.24333 9.695 5.2 9.905 5.2C10.145 5.2 10.3633 5.26 10.56 5.38C10.76 5.49667 10.9167 5.66167 11.03 5.875C11.1433 6.08833 11.2 6.33333 11.2 6.61C11.2 6.88667 11.1433 7.135 11.03 7.355C10.9167 7.57167 10.76 7.74167 10.56 7.865C10.3633 7.985 10.145 8.045 9.905 8.045C9.695 8.045 9.50833 8.00333 9.345 7.92C9.18167 7.83333 9.04833 7.72667 8.945 7.6V9.31H8.375V5.245H8.945V5.65ZM10.62 6.61C10.62 6.42 10.58 6.25667 10.5 6.12C10.4233 5.98 10.32 5.875 10.19 5.805C10.0633 5.73167 9.92667 5.695 9.78 5.695C9.63667 5.695 9.5 5.73167 9.37 5.805C9.24333 5.87833 9.14 5.985 9.06 6.125C8.98333 6.265 8.945 6.43 8.945 6.62C8.945 6.81 8.98333 6.97667 9.06 7.12C9.14 7.26 9.24333 7.36667 9.37 7.44C9.5 7.51333 9.63667 7.55 9.78 7.55C9.92667 7.55 10.0633 7.51333 10.19 7.44C10.32 7.36333 10.4233 7.25333 10.5 7.11C10.58 6.96667 10.62 6.8 10.62 6.61ZM12.3337 5.645C12.417 5.505 12.527 5.39667 12.6637 5.32C12.8037 5.24 12.9687 5.2 13.1587 5.2V5.79H13.0137C12.7903 5.79 12.6203 5.84667 12.5037 5.96C12.3903 6.07333 12.3337 6.27 12.3337 6.55V8H11.7637V5.245H12.3337V5.645ZM13.9726 4.88C13.8693 4.88 13.7826 4.845 13.7126 4.775C13.6426 4.705 13.6076 4.61833 13.6076 4.515C13.6076 4.41167 13.6426 4.325 13.7126 4.255C13.7826 4.185 13.8693 4.15 13.9726 4.15C14.0726 4.15 14.1576 4.185 14.2276 4.255C14.2976 4.325 14.3326 4.41167 14.3326 4.515C14.3326 4.61833 14.2976 4.705 14.2276 4.775C14.1576 4.845 14.0726 4.88 13.9726 4.88ZM14.2526 5.245V8H13.6826V5.245H14.2526ZM16.196 8.045C15.936 8.045 15.701 7.98667 15.491 7.87C15.281 7.75 15.116 7.58333 14.996 7.37C14.876 7.15333 14.816 6.90333 14.816 6.62C14.816 6.34 14.8776 6.09167 15.001 5.875C15.1243 5.65833 15.2926 5.49167 15.506 5.375C15.7193 5.25833 15.9576 5.2 16.221 5.2C16.4843 5.2 16.7226 5.25833 16.936 5.375C17.1493 5.49167 17.3176 5.65833 17.441 5.875C17.5643 6.09167 17.626 6.34 17.626 6.62C17.626 6.9 17.5626 7.14833 17.436 7.365C17.3093 7.58167 17.136 7.75 16.916 7.87C16.6993 7.98667 16.4593 8.045 16.196 8.045ZM16.196 7.55C16.3426 7.55 16.4793 7.515 16.606 7.445C16.736 7.375 16.841 7.27 16.921 7.13C17.001 6.99 17.041 6.82 17.041 6.62C17.041 6.42 17.0026 6.25167 16.926 6.115C16.8493 5.975 16.7476 5.87 16.621 5.8C16.4943 5.73 16.3576 5.695 16.211 5.695C16.0643 5.695 15.9276 5.73 15.801 5.8C15.6776 5.87 15.5793 5.975 15.506 6.115C15.4326 6.25167 15.396 6.42 15.396 6.62C15.396 6.91667 15.471 7.14667 15.621 7.31C15.7743 7.47 15.966 7.55 16.196 7.55ZM18.7595 5.645C18.8428 5.505 18.9528 5.39667 19.0895 5.32C19.2295 5.24 19.3945 5.2 19.5845 5.2V5.79H19.4395C19.2161 5.79 19.0461 5.84667 18.9295 5.96C18.8161 6.07333 18.7595 6.27 18.7595 6.55V8H18.1895V5.245H18.7595V5.645ZM20.3984 4.88C20.2951 4.88 20.2084 4.845 20.1384 4.775C20.0684 4.705 20.0334 4.61833 20.0334 4.515C20.0334 4.41167 20.0684 4.325 20.1384 4.255C20.2084 4.185 20.2951 4.15 20.3984 4.15C20.4984 4.15 20.5834 4.185 20.6534 4.255C20.7234 4.325 20.7584 4.41167 20.7584 4.515C20.7584 4.61833 20.7234 4.705 20.6534 4.775C20.5834 4.845 20.4984 4.88 20.3984 4.88ZM20.6784 5.245V8H20.1084V5.245H20.6784ZM22.0918 5.71V7.235C22.0918 7.33833 22.1151 7.41333 22.1618 7.46C22.2118 7.50333 22.2951 7.525 22.4118 7.525H22.7618V8H22.3118C22.0551 8 21.8584 7.94 21.7218 7.82C21.5851 7.7 21.5168 7.505 21.5168 7.235V5.71H21.1918V5.245H21.5168V4.56H22.0918V5.245H22.7618V5.71H22.0918ZM25.7671 5.245L24.0771 9.295H23.4871L24.0471 7.955L22.9621 5.245H23.5971L24.3721 7.345L25.1771 5.245H25.7671ZM27.7261 8.035C27.6228 8.035 27.5361 8 27.4661 7.93C27.3961 7.86 27.3611 7.77333 27.3611 7.67C27.3611 7.56667 27.3961 7.48 27.4661 7.41C27.5361 7.34 27.6228 7.305 27.7261 7.305C27.8261 7.305 27.9111 7.34 27.9811 7.41C28.0511 7.48 28.0861 7.56667 28.0861 7.67C28.0861 7.77333 28.0511 7.86 27.9811 7.93C27.9111 8 27.8261 8.035 27.7261 8.035ZM27.7261 5.935C27.6228 5.935 27.5361 5.9 27.4661 5.83C27.3961 5.76 27.3611 5.67333 27.3611 5.57C27.3611 5.46667 27.3961 5.38 27.4661 5.31C27.5361 5.24 27.6228 5.205 27.7261 5.205C27.8261 5.205 27.9111 5.24 27.9811 5.31C28.0511 5.38 28.0861 5.46667 28.0861 5.57C28.0861 5.67333 28.0511 5.76 27.9811 5.83C27.9111 5.9 27.8261 5.935 27.7261 5.935ZM29.8305 6.61C29.8305 6.33333 29.8872 6.08833 30.0005 5.875C30.1172 5.66167 30.2738 5.49667 30.4705 5.38C30.6705 5.26 30.8922 5.2 31.1355 5.2C31.3155 5.2 31.4922 5.24 31.6655 5.32C31.8422 5.39667 31.9822 5.5 32.0855 5.63V4.3H32.6605V8H32.0855V7.585C31.9922 7.71833 31.8622 7.82833 31.6955 7.915C31.5322 8.00167 31.3438 8.045 31.1305 8.045C30.8905 8.045 30.6705 7.985 30.4705 7.865C30.2738 7.74167 30.1172 7.57167 30.0005 7.355C29.8872 7.135 29.8305 6.88667 29.8305 6.61ZM32.0855 6.62C32.0855 6.43 32.0455 6.265 31.9655 6.125C31.8888 5.985 31.7872 5.87833 31.6605 5.805C31.5338 5.73167 31.3972 5.695 31.2505 5.695C31.1038 5.695 30.9672 5.73167 30.8405 5.805C30.7138 5.875 30.6105 5.98 30.5305 6.12C30.4538 6.25667 30.4155 6.42 30.4155 6.61C30.4155 6.8 30.4538 6.96667 30.5305 7.11C30.6105 7.25333 30.7138 7.36333 30.8405 7.44C30.9705 7.51333 31.1072 7.55 31.2505 7.55C31.3972 7.55 31.5338 7.51333 31.6605 7.44C31.7872 7.36667 31.8888 7.26 31.9655 7.12C32.0455 6.97667 32.0855 6.81 32.0855 6.62ZM34.6042 8.045C34.3442 8.045 34.1092 7.98667 33.8992 7.87C33.6892 7.75 33.5242 7.58333 33.4042 7.37C33.2842 7.15333 33.2242 6.90333 33.2242 6.62C33.2242 6.34 33.2858 6.09167 33.4092 5.875C33.5325 5.65833 33.7008 5.49167 33.9142 5.375C34.1275 5.25833 34.3658 5.2 34.6292 5.2C34.8925 5.2 35.1308 5.25833 35.3442 5.375C35.5575 5.49167 35.7258 5.65833 35.8492 5.875C35.9725 6.09167 36.0342 6.34 36.0342 6.62C36.0342 6.9 35.9708 7.14833 35.8442 7.365C35.7175 7.58167 35.5442 7.75 35.3242 7.87C35.1075 7.98667 34.8675 8.045 34.6042 8.045ZM34.6042 7.55C34.7508 7.55 34.8875 7.515 35.0142 7.445C35.1442 7.375 35.2492 7.27 35.3292 7.13C35.4092 6.99 35.4492 6.82 35.4492 6.62C35.4492 6.42 35.4108 6.25167 35.3342 6.115C35.2575 5.975 35.1558 5.87 35.0292 5.8C34.9025 5.73 34.7658 5.695 34.6192 5.695C34.4725 5.695 34.3358 5.73 34.2092 5.8C34.0858 5.87 33.9875 5.975 33.9142 6.115C33.8408 6.25167 33.8042 6.42 33.8042 6.62C33.8042 6.91667 33.8792 7.14667 34.0292 7.31C34.1825 7.47 34.3742 7.55 34.6042 7.55ZM40.2977 5.245L39.4427 8H38.8427L38.2877 5.965L37.7327 8H37.1327L36.2727 5.245H36.8527L37.4277 7.46L38.0127 5.245H38.6077L39.1677 7.45L39.7377 5.245H40.2977ZM42.1136 5.2C42.3303 5.2 42.5236 5.245 42.6936 5.335C42.867 5.425 43.002 5.55833 43.0986 5.735C43.1953 5.91167 43.2436 6.125 43.2436 6.375V8H42.6786V6.46C42.6786 6.21333 42.617 6.025 42.4936 5.895C42.3703 5.76167 42.202 5.695 41.9886 5.695C41.7753 5.695 41.6053 5.76167 41.4786 5.895C41.3553 6.025 41.2936 6.21333 41.2936 6.46V8H40.7236V5.245H41.2936V5.56C41.387 5.44667 41.5053 5.35833 41.6486 5.295C41.7953 5.23167 41.9503 5.2 42.1136 5.2ZM44.6357 5.71V7.235C44.6357 7.33833 44.659 7.41333 44.7057 7.46C44.7557 7.50333 44.839 7.525 44.9557 7.525H45.3057V8H44.8557C44.599 8 44.4024 7.94 44.2657 7.82C44.129 7.7 44.0607 7.505 44.0607 7.235V5.71H43.7357V5.245H44.0607V4.56H44.6357V5.245H45.3057V5.71H44.6357ZM46.1211 4.88C46.0177 4.88 45.9311 4.845 45.8611 4.775C45.7911 4.705 45.7561 4.61833 45.7561 4.515C45.7561 4.41167 45.7911 4.325 45.8611 4.255C45.9311 4.185 46.0177 4.15 46.1211 4.15C46.2211 4.15 46.3061 4.185 46.3761 4.255C46.4461 4.325 46.4811 4.41167 46.4811 4.515C46.4811 4.61833 46.4461 4.705 46.3761 4.775C46.3061 4.845 46.2211 4.88 46.1211 4.88ZM46.4011 5.245V8H45.8311V5.245H46.4011ZM50.4844 5.2C50.7011 5.2 50.8944 5.245 51.0644 5.335C51.2377 5.425 51.3727 5.55833 51.4694 5.735C51.5694 5.91167 51.6194 6.125 51.6194 6.375V8H51.0544V6.46C51.0544 6.21333 50.9927 6.025 50.8694 5.895C50.7461 5.76167 50.5777 5.695 50.3644 5.695C50.1511 5.695 49.9811 5.76167 49.8544 5.895C49.7311 6.025 49.6694 6.21333 49.6694 6.46V8H49.1044V6.46C49.1044 6.21333 49.0427 6.025 48.9194 5.895C48.7961 5.76167 48.6277 5.695 48.4144 5.695C48.2011 5.695 48.0311 5.76167 47.9044 5.895C47.7811 6.025 47.7194 6.21333 47.7194 6.46V8H47.1494V5.245H47.7194V5.56C47.8127 5.44667 47.9311 5.35833 48.0744 5.295C48.2177 5.23167 48.3711 5.2 48.5344 5.2C48.7544 5.2 48.9511 5.24667 49.1244 5.34C49.2977 5.43333 49.4311 5.56833 49.5244 5.745C49.6077 5.57833 49.7377 5.44667 49.9144 5.35C50.0911 5.25 50.2811 5.2 50.4844 5.2ZM54.8697 6.555C54.8697 6.65833 54.8631 6.75167 54.8497 6.835H52.7447C52.7614 7.055 52.8431 7.23167 52.9897 7.365C53.1364 7.49833 53.3164 7.565 53.5297 7.565C53.8364 7.565 54.0531 7.43667 54.1797 7.18H54.7947C54.7114 7.43333 54.5597 7.64167 54.3397 7.805C54.1231 7.965 53.8531 8.045 53.5297 8.045C53.2664 8.045 53.0297 7.98667 52.8197 7.87C52.6131 7.75 52.4497 7.58333 52.3297 7.37C52.2131 7.15333 52.1547 6.90333 52.1547 6.62C52.1547 6.33667 52.2114 6.08833 52.3247 5.875C52.4414 5.65833 52.6031 5.49167 52.8097 5.375C53.0197 5.25833 53.2597 5.2 53.5297 5.2C53.7897 5.2 54.0214 5.25667 54.2247 5.37C54.4281 5.48333 54.5864 5.64333 54.6997 5.85C54.8131 6.05333 54.8697 6.28833 54.8697 6.555ZM54.2747 6.375C54.2714 6.165 54.1964 5.99667 54.0497 5.87C53.9031 5.74333 53.7214 5.68 53.5047 5.68C53.3081 5.68 53.1397 5.74333 52.9997 5.87C52.8597 5.99333 52.7764 6.16167 52.7497 6.375H54.2747Z" fill="black"/>
<defs>
<filter id="filter0_d_27_273" x="0" y="0" width="61" height="20" filterUnits="userSpaceOnUse" color-interpolation-filters="sRGB">
<feFlood flood-opacity="0" result="BackgroundImageFix"/>
<feColorMatrix in="SourceAlpha" type="matrix" values="0 0 0 0 0 0 0 0 0 0 0 0 0 0 0 0 0 0 127 0" result="hardAlpha"/>
<feOffset dy="4"/>
<feGaussianBlur stdDeviation="2"/>
<feComposite in2="hardAlpha" operator="out"/>
<feColorMatrix type="matrix" values="0 0 0 0 0 0 0 0 0 0 0 0 0 0 0 0 0 0 0.25 0"/>
<feBlend mode="normal" in2="BackgroundImageFix" result="effect1_dropShadow_27_273"/>
<feBlend mode="normal" in="SourceGraphic" in2="effect1_dropShadow_27_273" result="shape"/>
</filter>
</defs>
</svg>
