<svg width="150" height="50" viewBox="0 0 150 50" fill="none" xmlns="http://www.w3.org/2000/svg">
<rect width="150" height="50" fill="#FBC901"/>
<path d="M60.3819 25.532C60.3819 25.78 60.3659 26.004 60.3339 26.204H55.2819C55.3219 26.732 55.5179 27.156 55.8699 27.476C56.2219 27.796 56.6539 27.956 57.1659 27.956C57.9019 27.956 58.4219 27.648 58.7259 27.032H60.2019C60.0019 27.64 59.6379 28.14 59.1099 28.532C58.5899 28.916 57.9419 29.108 57.1659 29.108C56.5339 29.108 55.9659 28.968 55.4619 28.688C54.9659 28.4 54.5739 28 54.2859 27.488C54.0059 26.968 53.8659 26.368 53.8659 25.688C53.8659 25.008 54.0019 24.412 54.2739 23.9C54.5539 23.38 54.9419 22.98 55.4379 22.7C55.9419 22.42 56.5179 22.28 57.1659 22.28C57.7899 22.28 58.3459 22.416 58.8339 22.688C59.3219 22.96 59.7019 23.344 59.9739 23.84C60.2459 24.328 60.3819 24.892 60.3819 25.532ZM58.9539 25.1C58.9459 24.596 58.7659 24.192 58.4139 23.888C58.0619 23.584 57.6259 23.432 57.1059 23.432C56.6339 23.432 56.2299 23.584 55.8939 23.888C55.5579 24.184 55.3579 24.588 55.2939 25.1H58.9539ZM64.5001 23.504H63.2761V29H61.8961V23.504H61.1161V22.388H61.8961V21.92C61.8961 21.16 62.0961 20.608 62.4961 20.264C62.9041 19.912 63.5401 19.736 64.4041 19.736V20.876C63.9881 20.876 63.6961 20.956 63.5281 21.116C63.3601 21.268 63.2761 21.536 63.2761 21.92V22.388H64.5001V23.504ZM68.4845 23.504H67.2605V29H65.8805V23.504H65.1005V22.388H65.8805V21.92C65.8805 21.16 66.0805 20.608 66.4805 20.264C66.8885 19.912 67.5245 19.736 68.3885 19.736V20.876C67.9725 20.876 67.6805 20.956 67.5125 21.116C67.3445 21.268 67.2605 21.536 67.2605 21.92V22.388H68.4845V23.504ZM72.5649 29.108C71.9409 29.108 71.3769 28.968 70.8729 28.688C70.3689 28.4 69.9729 28 69.6849 27.488C69.3969 26.968 69.2529 26.368 69.2529 25.688C69.2529 25.016 69.4009 24.42 69.6969 23.9C69.9929 23.38 70.3969 22.98 70.9089 22.7C71.4209 22.42 71.9929 22.28 72.6249 22.28C73.2569 22.28 73.8289 22.42 74.3409 22.7C74.8529 22.98 75.2569 23.38 75.5529 23.9C75.8489 24.42 75.9969 25.016 75.9969 25.688C75.9969 26.36 75.8449 26.956 75.5409 27.476C75.2369 27.996 74.8209 28.4 74.2929 28.688C73.7729 28.968 73.1969 29.108 72.5649 29.108ZM72.5649 27.92C72.9169 27.92 73.2449 27.836 73.5489 27.668C73.8609 27.5 74.1129 27.248 74.3049 26.912C74.4969 26.576 74.5929 26.168 74.5929 25.688C74.5929 25.208 74.5009 24.804 74.3169 24.476C74.1329 24.14 73.8889 23.888 73.5849 23.72C73.2809 23.552 72.9529 23.468 72.6009 23.468C72.2489 23.468 71.9209 23.552 71.6169 23.72C71.3209 23.888 71.0849 24.14 70.9089 24.476C70.7329 24.804 70.6449 25.208 70.6449 25.688C70.6449 26.4 70.8249 26.952 71.1849 27.344C71.5529 27.728 72.0129 27.92 72.5649 27.92ZM78.7172 23.348C78.9172 23.012 79.1812 22.752 79.5092 22.568C79.8452 22.376 80.2412 22.28 80.6972 22.28V23.696H80.3492C79.8132 23.696 79.4052 23.832 79.1252 24.104C78.8532 24.376 78.7172 24.848 78.7172 25.52V29H77.3492V22.388H78.7172V23.348ZM83.5507 23.504V27.164C83.5507 27.412 83.6067 27.592 83.7187 27.704C83.8387 27.808 84.0387 27.86 84.3187 27.86H85.1587V29H84.0787C83.4627 29 82.9907 28.856 82.6627 28.568C82.3347 28.28 82.1707 27.812 82.1707 27.164V23.504H81.3907V22.388H82.1707V20.744H83.5507V22.388H85.1587V23.504H83.5507ZM90.0887 29.084C89.8407 29.084 89.6327 29 89.4647 28.832C89.2967 28.664 89.2127 28.456 89.2127 28.208C89.2127 27.96 89.2967 27.752 89.4647 27.584C89.6327 27.416 89.8407 27.332 90.0887 27.332C90.3287 27.332 90.5327 27.416 90.7007 27.584C90.8687 27.752 90.9527 27.96 90.9527 28.208C90.9527 28.456 90.8687 28.664 90.7007 28.832C90.5327 29 90.3287 29.084 90.0887 29.084ZM90.0887 24.044C89.8407 24.044 89.6327 23.96 89.4647 23.792C89.2967 23.624 89.2127 23.416 89.2127 23.168C89.2127 22.92 89.2967 22.712 89.4647 22.544C89.6327 22.376 89.8407 22.292 90.0887 22.292C90.3287 22.292 90.5327 22.376 90.7007 22.544C90.8687 22.712 90.9527 22.92 90.9527 23.168C90.9527 23.416 90.8687 23.624 90.7007 23.792C90.5327 23.96 90.3287 24.044 90.0887 24.044Z" fill="#010101"/>
</svg>
