<svg width="40" height="21" viewBox="0 0 40 21" fill="none" xmlns="http://www.w3.org/2000/svg">
<g filter="url(#filter0_d_17_133)">
<rect x="5.00391" y="1.00391" width="29" height="10" rx="1" fill="#FBC901" fill-opacity="0.67" style="mix-blend-mode:darken" shape-rendering="crispEdges"/>
<rect x="4.50391" y="0.503906" width="30" height="11" rx="1.5" stroke="#FBC901" shape-rendering="crispEdges"/>
</g>
<path d="M10.9039 6.55891C10.9039 6.66224 10.8972 6.75557 10.8839 6.83891H8.77891C8.79557 7.05891 8.87724 7.23557 9.02391 7.36891C9.17057 7.50224 9.35057 7.56891 9.56391 7.56891C9.87057 7.56891 10.0872 7.44057 10.2139 7.18391H10.8289C10.7456 7.43724 10.5939 7.64557 10.3739 7.80891C10.1572 7.96891 9.88724 8.04891 9.56391 8.04891C9.30057 8.04891 9.06391 7.99057 8.85391 7.87391C8.64724 7.75391 8.48391 7.58724 8.36391 7.37391C8.24724 7.15724 8.18891 6.90724 8.18891 6.62391C8.18891 6.34057 8.24557 6.09224 8.35891 5.87891C8.47557 5.66224 8.63724 5.49557 8.84391 5.37891C9.05391 5.26224 9.29391 5.20391 9.56391 5.20391C9.82391 5.20391 10.0556 5.26057 10.2589 5.37391C10.4622 5.48724 10.6206 5.64724 10.7339 5.85391C10.8472 6.05724 10.9039 6.29224 10.9039 6.55891ZM10.3089 6.37891C10.3056 6.16891 10.2306 6.00057 10.0839 5.87391C9.93724 5.74724 9.75557 5.68391 9.53891 5.68391C9.34224 5.68391 9.17391 5.74724 9.03391 5.87391C8.89391 5.99724 8.81057 6.16557 8.78391 6.37891H10.3089ZM12.6198 5.71391H12.1098V8.00391H11.5348V5.71391H11.2098V5.24891H11.5348V5.05391C11.5348 4.73724 11.6182 4.50724 11.7848 4.36391C11.9548 4.21724 12.2198 4.14391 12.5798 4.14391V4.61891C12.4065 4.61891 12.2848 4.65224 12.2148 4.71891C12.1448 4.78224 12.1098 4.89391 12.1098 5.05391V5.24891H12.6198V5.71391ZM14.28 5.71391H13.77V8.00391H13.195V5.71391H12.87V5.24891H13.195V5.05391C13.195 4.73724 13.2783 4.50724 13.445 4.36391C13.615 4.21724 13.88 4.14391 14.24 4.14391V4.61891C14.0667 4.61891 13.945 4.65224 13.875 4.71891C13.805 4.78224 13.77 4.89391 13.77 5.05391V5.24891H14.28V5.71391ZM15.9802 8.04891C15.7202 8.04891 15.4852 7.99057 15.2752 7.87391C15.0652 7.75391 14.9002 7.58724 14.7802 7.37391C14.6602 7.15724 14.6002 6.90724 14.6002 6.62391C14.6002 6.34391 14.6618 6.09557 14.7852 5.87891C14.9085 5.66224 15.0768 5.49557 15.2902 5.37891C15.5035 5.26224 15.7418 5.20391 16.0052 5.20391C16.2685 5.20391 16.5068 5.26224 16.7202 5.37891C16.9335 5.49557 17.1018 5.66224 17.2252 5.87891C17.3485 6.09557 17.4102 6.34391 17.4102 6.62391C17.4102 6.90391 17.3468 7.15224 17.2202 7.36891C17.0935 7.58557 16.9202 7.75391 16.7002 7.87391C16.4835 7.99057 16.2435 8.04891 15.9802 8.04891ZM15.9802 7.55391C16.1268 7.55391 16.2635 7.51891 16.3902 7.44891C16.5202 7.37891 16.6252 7.27391 16.7052 7.13391C16.7852 6.99391 16.8252 6.82391 16.8252 6.62391C16.8252 6.42391 16.7868 6.25557 16.7102 6.11891C16.6335 5.97891 16.5318 5.87391 16.4052 5.80391C16.2785 5.73391 16.1418 5.69891 15.9952 5.69891C15.8485 5.69891 15.7118 5.73391 15.5852 5.80391C15.4618 5.87391 15.3635 5.97891 15.2902 6.11891C15.2168 6.25557 15.1802 6.42391 15.1802 6.62391C15.1802 6.92057 15.2552 7.15057 15.4052 7.31391C15.5585 7.47391 15.7502 7.55391 15.9802 7.55391ZM18.5436 5.64891C18.627 5.50891 18.737 5.40057 18.8736 5.32391C19.0136 5.24391 19.1786 5.20391 19.3686 5.20391V5.79391H19.2236C19.0003 5.79391 18.8303 5.85057 18.7136 5.96391C18.6003 6.07724 18.5436 6.27391 18.5436 6.55391V8.00391H17.9736V5.24891H18.5436V5.64891ZM20.5576 5.71391V7.23891C20.5576 7.34224 20.5809 7.41724 20.6276 7.46391C20.6776 7.50724 20.7609 7.52891 20.8776 7.52891H21.2276V8.00391H20.7776C20.5209 8.00391 20.3242 7.94391 20.1876 7.82391C20.0509 7.70391 19.9826 7.50891 19.9826 7.23891V5.71391H19.6576V5.24891H19.9826V4.56391H20.5576V5.24891H21.2276V5.71391H20.5576ZM23.2818 8.03891C23.1784 8.03891 23.0918 8.00391 23.0218 7.93391C22.9518 7.86391 22.9168 7.77724 22.9168 7.67391C22.9168 7.57057 22.9518 7.48391 23.0218 7.41391C23.0918 7.34391 23.1784 7.30891 23.2818 7.30891C23.3818 7.30891 23.4668 7.34391 23.5368 7.41391C23.6068 7.48391 23.6418 7.57057 23.6418 7.67391C23.6418 7.77724 23.6068 7.86391 23.5368 7.93391C23.4668 8.00391 23.3818 8.03891 23.2818 8.03891ZM23.2818 5.93891C23.1784 5.93891 23.0918 5.90391 23.0218 5.83391C22.9518 5.76391 22.9168 5.67724 22.9168 5.57391C22.9168 5.47057 22.9518 5.38391 23.0218 5.31391C23.0918 5.24391 23.1784 5.20891 23.2818 5.20891C23.3818 5.20891 23.4668 5.24391 23.5368 5.31391C23.6068 5.38391 23.6418 5.47057 23.6418 5.57391C23.6418 5.67724 23.6068 5.76391 23.5368 5.83391C23.4668 5.90391 23.3818 5.93891 23.2818 5.93891ZM25.4262 4.87891V4.35891H26.4662V8.00391H25.8912V4.87891H25.4262ZM27.2392 5.25891C27.2592 4.94891 27.3776 4.70724 27.5942 4.53391C27.8142 4.36057 28.0942 4.27391 28.4342 4.27391C28.6676 4.27391 28.8692 4.31557 29.0392 4.39891C29.2092 4.48224 29.3376 4.59557 29.4242 4.73891C29.5109 4.88224 29.5542 5.04391 29.5542 5.22391C29.5542 5.43057 29.4992 5.60724 29.3892 5.75391C29.2792 5.90057 29.1476 5.99891 28.9942 6.04891V6.06891C29.1909 6.12891 29.3442 6.23891 29.4542 6.39891C29.5642 6.55557 29.6192 6.75724 29.6192 7.00391C29.6192 7.20057 29.5742 7.37557 29.4842 7.52891C29.3942 7.68224 29.2609 7.80391 29.0842 7.89391C28.9076 7.98057 28.6959 8.02391 28.4492 8.02391C28.0892 8.02391 27.7926 7.93224 27.5592 7.74891C27.3292 7.56224 27.2059 7.29557 27.1892 6.94891H27.7392C27.7526 7.12557 27.8209 7.27057 27.9442 7.38391C28.0676 7.49391 28.2342 7.54891 28.4442 7.54891C28.6476 7.54891 28.8042 7.49391 28.9142 7.38391C29.0242 7.27057 29.0792 7.12557 29.0792 6.94891C29.0792 6.71557 29.0042 6.55057 28.8542 6.45391C28.7076 6.35391 28.4809 6.30391 28.1742 6.30391H28.0442V5.83391H28.1792C28.4492 5.83057 28.6542 5.78557 28.7942 5.69891C28.9376 5.61224 29.0092 5.47557 29.0092 5.28891C29.0092 5.12891 28.9576 5.00224 28.8542 4.90891C28.7509 4.81224 28.6042 4.76391 28.4142 4.76391C28.2276 4.76391 28.0826 4.81224 27.9792 4.90891C27.8759 5.00224 27.8142 5.11891 27.7942 5.25891H27.2392Z" fill="black"/>
<defs>
<filter id="filter0_d_17_133" x="0.00390625" y="0.00390625" width="39" height="20" filterUnits="userSpaceOnUse" color-interpolation-filters="sRGB">
<feFlood flood-opacity="0" result="BackgroundImageFix"/>
<feColorMatrix in="SourceAlpha" type="matrix" values="0 0 0 0 0 0 0 0 0 0 0 0 0 0 0 0 0 0 127 0" result="hardAlpha"/>
<feOffset dy="4"/>
<feGaussianBlur stdDeviation="2"/>
<feComposite in2="hardAlpha" operator="out"/>
<feColorMatrix type="matrix" values="0 0 0 0 0 0 0 0 0 0 0 0 0 0 0 0 0 0 0.25 0"/>
<feBlend mode="normal" in2="BackgroundImageFix" result="effect1_dropShadow_17_133"/>
<feBlend mode="normal" in="SourceGraphic" in2="effect1_dropShadow_17_133" result="shape"/>
</filter>
</defs>
</svg>
