<svg width="141" height="159" viewBox="0 0 141 159" fill="none" xmlns="http://www.w3.org/2000/svg">
<rect width="141" height="23" fill="#FEF2C0"/>
<path d="M50.8171 11.8919C50.8171 12.1399 50.8011 12.3639 50.7691 12.5639H45.7171C45.7571 13.0919 45.9531 13.5159 46.3051 13.8359C46.6571 14.1559 47.0891 14.3159 47.6011 14.3159C48.3371 14.3159 48.8571 14.0079 49.1611 13.3919H50.6371C50.4371 13.9999 50.0731 14.4999 49.5451 14.8919C49.0251 15.2759 48.3771 15.4679 47.6011 15.4679C46.9691 15.4679 46.4011 15.3279 45.8971 15.0479C45.4011 14.7599 45.0091 14.3599 44.7211 13.8479C44.4411 13.3279 44.3011 12.7279 44.3011 12.0479C44.3011 11.3679 44.4371 10.7719 44.7091 10.2599C44.9891 9.73986 45.3771 9.33986 45.8731 9.05986C46.3771 8.77986 46.9531 8.63986 47.6011 8.63986C48.2251 8.63986 48.7811 8.77586 49.2691 9.04786C49.7571 9.31986 50.1371 9.70386 50.4091 10.1999C50.6811 10.6879 50.8171 11.2519 50.8171 11.8919ZM49.3891 11.4599C49.3811 10.9559 49.2011 10.5519 48.8491 10.2479C48.4971 9.94386 48.0611 9.79186 47.5411 9.79186C47.0691 9.79186 46.6651 9.94386 46.3291 10.2479C45.9931 10.5439 45.7931 10.9479 45.7291 11.4599H49.3891ZM54.9354 9.86386H53.7114V15.3599H52.3314V9.86386H51.5514V8.74786H52.3314V8.27986C52.3314 7.51986 52.5314 6.96786 52.9314 6.62386C53.3394 6.27186 53.9754 6.09586 54.8394 6.09586V7.23586C54.4234 7.23586 54.1314 7.31586 53.9634 7.47586C53.7954 7.62786 53.7114 7.89586 53.7114 8.27986V8.74786H54.9354V9.86386ZM58.9197 9.86386H57.6957V15.3599H56.3157V9.86386H55.5357V8.74786H56.3157V8.27986C56.3157 7.51986 56.5157 6.96786 56.9157 6.62386C57.3237 6.27186 57.9597 6.09586 58.8237 6.09586V7.23586C58.4077 7.23586 58.1157 7.31586 57.9477 7.47586C57.7797 7.62786 57.6957 7.89586 57.6957 8.27986V8.74786H58.9197V9.86386ZM63.0001 15.4679C62.3761 15.4679 61.8121 15.3279 61.3081 15.0479C60.8041 14.7599 60.4081 14.3599 60.1201 13.8479C59.8321 13.3279 59.6881 12.7279 59.6881 12.0479C59.6881 11.3759 59.8361 10.7799 60.1321 10.2599C60.4281 9.73986 60.8321 9.33986 61.3441 9.05986C61.8561 8.77986 62.4281 8.63986 63.0601 8.63986C63.6921 8.63986 64.2641 8.77986 64.7761 9.05986C65.2881 9.33986 65.6921 9.73986 65.9881 10.2599C66.2841 10.7799 66.4321 11.3759 66.4321 12.0479C66.4321 12.7199 66.2801 13.3159 65.9761 13.8359C65.6721 14.3559 65.2561 14.7599 64.7281 15.0479C64.2081 15.3279 63.6321 15.4679 63.0001 15.4679ZM63.0001 14.2799C63.3521 14.2799 63.6801 14.1959 63.9841 14.0279C64.2961 13.8599 64.5481 13.6079 64.7401 13.2719C64.9321 12.9359 65.0281 12.5279 65.0281 12.0479C65.0281 11.5679 64.9361 11.1639 64.7521 10.8359C64.5681 10.4999 64.3241 10.2479 64.0201 10.0799C63.7161 9.91186 63.3881 9.82786 63.0361 9.82786C62.6841 9.82786 62.3561 9.91186 62.0521 10.0799C61.7561 10.2479 61.5201 10.4999 61.3441 10.8359C61.1681 11.1639 61.0801 11.5679 61.0801 12.0479C61.0801 12.7599 61.2601 13.3119 61.6201 13.7039C61.9881 14.0879 62.4481 14.2799 63.0001 14.2799ZM69.1525 9.70786C69.3525 9.37186 69.6165 9.11186 69.9445 8.92786C70.2805 8.73586 70.6765 8.63986 71.1325 8.63986V10.0559H70.7845C70.2485 10.0559 69.8405 10.1919 69.5605 10.4639C69.2885 10.7359 69.1525 11.2079 69.1525 11.8799V15.3599H67.7845V8.74786H69.1525V9.70786ZM73.9859 9.86386V13.5239C73.9859 13.7719 74.0419 13.9519 74.1539 14.0639C74.2739 14.1679 74.4739 14.2199 74.7539 14.2199H75.5939V15.3599H74.5139C73.8979 15.3599 73.4259 15.2159 73.0979 14.9279C72.7699 14.6399 72.6059 14.1719 72.6059 13.5239V9.86386H71.8259V8.74786H72.6059V7.10386H73.9859V8.74786H75.5939V9.86386H73.9859ZM80.524 15.4439C80.276 15.4439 80.068 15.3599 79.9 15.1919C79.732 15.0239 79.648 14.8159 79.648 14.5679C79.648 14.3199 79.732 14.1119 79.9 13.9439C80.068 13.7759 80.276 13.6919 80.524 13.6919C80.764 13.6919 80.968 13.7759 81.136 13.9439C81.304 14.1119 81.388 14.3199 81.388 14.5679C81.388 14.8159 81.304 15.0239 81.136 15.1919C80.968 15.3599 80.764 15.4439 80.524 15.4439ZM80.524 10.4039C80.276 10.4039 80.068 10.3199 79.9 10.1519C79.732 9.98386 79.648 9.77586 79.648 9.52786C79.648 9.27986 79.732 9.07186 79.9 8.90386C80.068 8.73586 80.276 8.65186 80.524 8.65186C80.764 8.65186 80.968 8.73586 81.136 8.90386C81.304 9.07186 81.388 9.27986 81.388 9.52786C81.388 9.77586 81.304 9.98386 81.136 10.1519C80.968 10.3199 80.764 10.4039 80.524 10.4039ZM87.3266 10.7879C86.4946 10.3719 86.0786 9.71586 86.0786 8.81986C86.0786 8.38786 86.1866 7.99186 86.4026 7.63186C86.6186 7.27186 86.9426 6.98786 87.3746 6.77986C87.8066 6.56386 88.3346 6.45586 88.9586 6.45586C89.5746 6.45586 90.0986 6.56386 90.5306 6.77986C90.9706 6.98786 91.2986 7.27186 91.5146 7.63186C91.7306 7.99186 91.8386 8.38786 91.8386 8.81986C91.8386 9.26786 91.7226 9.66386 91.4906 10.0079C91.2666 10.3439 90.9666 10.6039 90.5906 10.7879C91.0466 10.9559 91.4066 11.2319 91.6706 11.6159C91.9346 11.9919 92.0666 12.4359 92.0666 12.9479C92.0666 13.4679 91.9346 13.9279 91.6706 14.3279C91.4066 14.7279 91.0386 15.0359 90.5666 15.2519C90.0946 15.4679 89.5586 15.5759 88.9586 15.5759C88.3586 15.5759 87.8226 15.4679 87.3506 15.2519C86.8866 15.0359 86.5226 14.7279 86.2586 14.3279C85.9946 13.9279 85.8626 13.4679 85.8626 12.9479C85.8626 12.4279 85.9946 11.9799 86.2586 11.6039C86.5226 11.2279 86.8786 10.9559 87.3266 10.7879ZM90.5306 8.98786C90.5306 8.53986 90.3906 8.19586 90.1106 7.95586C89.8306 7.71586 89.4466 7.59586 88.9586 7.59586C88.4786 7.59586 88.0986 7.71586 87.8186 7.95586C87.5386 8.19586 87.3986 8.54386 87.3986 8.99986C87.3986 9.39986 87.5426 9.72786 87.8306 9.98386C88.1266 10.2319 88.5026 10.3559 88.9586 10.3559C89.4146 10.3559 89.7906 10.2279 90.0866 9.97186C90.3826 9.71586 90.5306 9.38786 90.5306 8.98786ZM88.9586 11.3879C88.4306 11.3879 87.9986 11.5199 87.6626 11.7839C87.3346 12.0399 87.1706 12.4119 87.1706 12.8999C87.1706 13.3559 87.3306 13.7279 87.6506 14.0159C87.9706 14.2959 88.4066 14.4359 88.9586 14.4359C89.5026 14.4359 89.9306 14.2919 90.2426 14.0039C90.5626 13.7159 90.7226 13.3479 90.7226 12.8999C90.7226 12.4199 90.5586 12.0479 90.2306 11.7839C89.9106 11.5199 89.4866 11.3879 88.9586 11.3879Z" fill="#010101"/>
<rect y="32" width="141" height="23" fill="#5EBEFF"/>
<path d="M30.3375 41.8639V45.5239C30.3375 45.7719 30.3935 45.9519 30.5055 46.0639C30.6255 46.1679 30.8255 46.2199 31.1055 46.2199H31.9455V47.3599H30.8655C30.2495 47.3599 29.7775 47.2159 29.4495 46.9279C29.1215 46.6399 28.9575 46.1719 28.9575 45.5239V41.8639H28.1775V40.7479H28.9575V39.1039H30.3375V40.7479H31.9455V41.8639H30.3375ZM39.1583 40.7479L35.1023 50.4679H33.6863L35.0303 47.2519L32.4263 40.7479H33.9503L35.8103 45.7879L37.7423 40.7479H39.1583ZM41.5587 41.7199C41.7907 41.4159 42.1067 41.1599 42.5067 40.9519C42.9067 40.7439 43.3587 40.6399 43.8627 40.6399C44.4387 40.6399 44.9627 40.7839 45.4347 41.0719C45.9147 41.3519 46.2907 41.7479 46.5627 42.2599C46.8347 42.7719 46.9707 43.3599 46.9707 44.0239C46.9707 44.6879 46.8347 45.2839 46.5627 45.8119C46.2907 46.3319 45.9147 46.7399 45.4347 47.0359C44.9627 47.3239 44.4387 47.4679 43.8627 47.4679C43.3587 47.4679 42.9107 47.3679 42.5187 47.1679C42.1267 46.9599 41.8067 46.7039 41.5587 46.3999V50.5039H40.1907V40.7479H41.5587V41.7199ZM45.5787 44.0239C45.5787 43.5679 45.4827 43.1759 45.2907 42.8479C45.1067 42.5119 44.8587 42.2599 44.5467 42.0919C44.2427 41.9159 43.9147 41.8279 43.5627 41.8279C43.2187 41.8279 42.8907 41.9159 42.5787 42.0919C42.2747 42.2679 42.0267 42.5239 41.8347 42.8599C41.6507 43.1959 41.5587 43.5919 41.5587 44.0479C41.5587 44.5039 41.6507 44.9039 41.8347 45.2479C42.0267 45.5839 42.2747 45.8399 42.5787 46.0159C42.8907 46.1919 43.2187 46.2799 43.5627 46.2799C43.9147 46.2799 44.2427 46.1919 44.5467 46.0159C44.8587 45.8319 45.1067 45.5679 45.2907 45.2239C45.4827 44.8799 45.5787 44.4799 45.5787 44.0239ZM54.3835 43.8919C54.3835 44.1399 54.3675 44.3639 54.3355 44.5639H49.2835C49.3235 45.0919 49.5195 45.5159 49.8715 45.8359C50.2235 46.1559 50.6555 46.3159 51.1675 46.3159C51.9035 46.3159 52.4235 46.0079 52.7275 45.3919H54.2035C54.0035 45.9999 53.6395 46.4999 53.1115 46.8919C52.5915 47.2759 51.9435 47.4679 51.1675 47.4679C50.5355 47.4679 49.9675 47.3279 49.4635 47.0479C48.9675 46.7599 48.5755 46.3599 48.2875 45.8479C48.0075 45.3279 47.8675 44.7279 47.8675 44.0479C47.8675 43.3679 48.0035 42.7719 48.2755 42.2599C48.5555 41.7399 48.9435 41.3399 49.4395 41.0599C49.9435 40.7799 50.5195 40.6399 51.1675 40.6399C51.7915 40.6399 52.3475 40.7759 52.8355 41.0479C53.3235 41.3199 53.7035 41.7039 53.9755 42.1999C54.2475 42.6879 54.3835 43.2519 54.3835 43.8919ZM52.9555 43.4599C52.9475 42.9559 52.7675 42.5519 52.4155 42.2479C52.0635 41.9439 51.6275 41.7919 51.1075 41.7919C50.6355 41.7919 50.2315 41.9439 49.8955 42.2479C49.5595 42.5439 49.3595 42.9479 49.2955 43.4599H52.9555ZM59.399 47.4439C59.151 47.4439 58.943 47.3599 58.775 47.1919C58.607 47.0239 58.523 46.8159 58.523 46.5679C58.523 46.3199 58.607 46.1119 58.775 45.9439C58.943 45.7759 59.151 45.6919 59.399 45.6919C59.639 45.6919 59.843 45.7759 60.011 45.9439C60.179 46.1119 60.263 46.3199 60.263 46.5679C60.263 46.8159 60.179 47.0239 60.011 47.1919C59.843 47.3599 59.639 47.4439 59.399 47.4439ZM59.399 42.4039C59.151 42.4039 58.943 42.3199 58.775 42.1519C58.607 41.9839 58.523 41.7759 58.523 41.5279C58.523 41.2799 58.607 41.0719 58.775 40.9039C58.943 40.7359 59.151 40.6519 59.399 40.6519C59.639 40.6519 59.843 40.7359 60.011 40.9039C60.179 41.0719 60.263 41.2799 60.263 41.5279C60.263 41.7759 60.179 41.9839 60.011 42.1519C59.843 42.3199 59.639 42.4039 59.399 42.4039ZM67.6776 41.8639H66.4536V47.3599H65.0736V41.8639H64.2936V40.7479H65.0736V40.2799C65.0736 39.5199 65.2736 38.9679 65.6736 38.6239C66.0816 38.2719 66.7176 38.0959 67.5816 38.0959V39.2359C67.1656 39.2359 66.8736 39.3159 66.7056 39.4759C66.5376 39.6279 66.4536 39.8959 66.4536 40.2799V40.7479H67.6776V41.8639ZM74.9499 43.8919C74.9499 44.1399 74.9339 44.3639 74.9019 44.5639H69.8499C69.8899 45.0919 70.0859 45.5159 70.4379 45.8359C70.7899 46.1559 71.2219 46.3159 71.7339 46.3159C72.4699 46.3159 72.9899 46.0079 73.2939 45.3919H74.7699C74.5699 45.9999 74.2059 46.4999 73.6779 46.8919C73.1579 47.2759 72.5099 47.4679 71.7339 47.4679C71.1019 47.4679 70.5339 47.3279 70.0299 47.0479C69.5339 46.7599 69.1419 46.3599 68.8539 45.8479C68.5739 45.3279 68.4339 44.7279 68.4339 44.0479C68.4339 43.3679 68.5699 42.7719 68.8419 42.2599C69.1219 41.7399 69.5099 41.3399 70.0059 41.0599C70.5099 40.7799 71.0859 40.6399 71.7339 40.6399C72.3579 40.6399 72.9139 40.7759 73.4019 41.0479C73.8899 41.3199 74.2699 41.7039 74.5419 42.1999C74.8139 42.6879 74.9499 43.2519 74.9499 43.8919ZM73.5219 43.4599C73.5139 42.9559 73.3339 42.5519 72.9819 42.2479C72.6299 41.9439 72.1939 41.7919 71.6739 41.7919C71.2019 41.7919 70.7979 41.9439 70.4619 42.2479C70.1259 42.5439 69.9259 42.9479 69.8619 43.4599H73.5219ZM75.8402 44.0239C75.8402 43.3599 75.9762 42.7719 76.2482 42.2599C76.5282 41.7479 76.9042 41.3519 77.3762 41.0719C77.8562 40.7839 78.3842 40.6399 78.9602 40.6399C79.4802 40.6399 79.9322 40.7439 80.3162 40.9519C80.7082 41.1519 81.0202 41.4039 81.2522 41.7079V40.7479H82.6322V47.3599H81.2522V46.3759C81.0202 46.6879 80.7042 46.9479 80.3042 47.1559C79.9042 47.3639 79.4482 47.4679 78.9362 47.4679C78.3682 47.4679 77.8482 47.3239 77.3762 47.0359C76.9042 46.7399 76.5282 46.3319 76.2482 45.8119C75.9762 45.2839 75.8402 44.6879 75.8402 44.0239ZM81.2522 44.0479C81.2522 43.5919 81.1562 43.1959 80.9642 42.8599C80.7802 42.5239 80.5362 42.2679 80.2322 42.0919C79.9282 41.9159 79.6002 41.8279 79.2482 41.8279C78.8962 41.8279 78.5682 41.9159 78.2642 42.0919C77.9602 42.2599 77.7122 42.5119 77.5202 42.8479C77.3362 43.1759 77.2442 43.5679 77.2442 44.0239C77.2442 44.4799 77.3362 44.8799 77.5202 45.2239C77.7122 45.5679 77.9602 45.8319 78.2642 46.0159C78.5762 46.1919 78.9042 46.2799 79.2482 46.2799C79.6002 46.2799 79.9282 46.1919 80.2322 46.0159C80.5362 45.8399 80.7802 45.5839 80.9642 45.2479C81.1562 44.9039 81.2522 44.5039 81.2522 44.0479ZM86.025 41.8639V45.5239C86.025 45.7719 86.081 45.9519 86.193 46.0639C86.313 46.1679 86.513 46.2199 86.793 46.2199H87.633V47.3599H86.553C85.937 47.3599 85.465 47.2159 85.137 46.9279C84.809 46.6399 84.645 46.1719 84.645 45.5239V41.8639H83.865V40.7479H84.645V39.1039H86.025V40.7479H87.633V41.8639H86.025ZM94.8818 40.7479V47.3599H93.5138V46.5799C93.2978 46.8519 93.0138 47.0679 92.6618 47.2279C92.3178 47.3799 91.9498 47.4559 91.5578 47.4559C91.0378 47.4559 90.5698 47.3479 90.1538 47.1319C89.7458 46.9159 89.4218 46.5959 89.1818 46.1719C88.9498 45.7479 88.8338 45.2359 88.8338 44.6359V40.7479H90.1898V44.4319C90.1898 45.0239 90.3378 45.4799 90.6338 45.7999C90.9298 46.1119 91.3338 46.2679 91.8458 46.2679C92.3578 46.2679 92.7618 46.1119 93.0578 45.7999C93.3618 45.4799 93.5138 45.0239 93.5138 44.4319V40.7479H94.8818ZM98.0548 41.7079C98.2548 41.3719 98.5188 41.1119 98.8468 40.9279C99.1828 40.7359 99.5788 40.6399 100.035 40.6399V42.0559H99.6868C99.1508 42.0559 98.7428 42.1919 98.4628 42.4639C98.1908 42.7359 98.0548 43.2079 98.0548 43.8799V47.3599H96.6868V40.7479H98.0548V41.7079ZM107.352 43.8919C107.352 44.1399 107.336 44.3639 107.304 44.5639H102.252C102.292 45.0919 102.488 45.5159 102.84 45.8359C103.192 46.1559 103.624 46.3159 104.136 46.3159C104.872 46.3159 105.392 46.0079 105.696 45.3919H107.172C106.972 45.9999 106.608 46.4999 106.08 46.8919C105.56 47.2759 104.912 47.4679 104.136 47.4679C103.504 47.4679 102.936 47.3279 102.432 47.0479C101.936 46.7599 101.544 46.3599 101.256 45.8479C100.976 45.3279 100.836 44.7279 100.836 44.0479C100.836 43.3679 100.972 42.7719 101.244 42.2599C101.524 41.7399 101.912 41.3399 102.408 41.0599C102.912 40.7799 103.488 40.6399 104.136 40.6399C104.76 40.6399 105.316 40.7759 105.804 41.0479C106.292 41.3199 106.672 41.7039 106.944 42.1999C107.216 42.6879 107.352 43.2519 107.352 43.8919ZM105.924 43.4599C105.916 42.9559 105.736 42.5519 105.384 42.2479C105.032 41.9439 104.596 41.7919 104.076 41.7919C103.604 41.7919 103.2 41.9439 102.864 42.2479C102.528 42.5439 102.328 42.9479 102.264 43.4599H105.924Z" fill="#010101"/>
<rect y="65" width="141" height="23" fill="#E611B4"/>
<path d="M32.6059 73.7479L30.5539 80.3599H29.1139L27.7819 75.4759L26.4499 80.3599H25.0099L22.9459 73.7479H24.3379L25.7179 79.0639L27.1219 73.7479H28.5499L29.8939 79.0399L31.2619 73.7479H32.6059ZM36.4962 80.4679C35.8722 80.4679 35.3082 80.3279 34.8042 80.0479C34.3002 79.7599 33.9042 79.3599 33.6162 78.8479C33.3282 78.3279 33.1842 77.7279 33.1842 77.0479C33.1842 76.3759 33.3322 75.7799 33.6282 75.2599C33.9242 74.7399 34.3282 74.3399 34.8402 74.0599C35.3522 73.7799 35.9242 73.6399 36.5562 73.6399C37.1882 73.6399 37.7602 73.7799 38.2722 74.0599C38.7842 74.3399 39.1882 74.7399 39.4842 75.2599C39.7802 75.7799 39.9282 76.3759 39.9282 77.0479C39.9282 77.7199 39.7762 78.3159 39.4722 78.8359C39.1682 79.3559 38.7522 79.7599 38.2242 80.0479C37.7042 80.3279 37.1282 80.4679 36.4962 80.4679ZM36.4962 79.2799C36.8482 79.2799 37.1762 79.1959 37.4802 79.0279C37.7922 78.8599 38.0442 78.6079 38.2362 78.2719C38.4282 77.9359 38.5242 77.5279 38.5242 77.0479C38.5242 76.5679 38.4322 76.1639 38.2482 75.8359C38.0642 75.4999 37.8202 75.2479 37.5162 75.0799C37.2122 74.9119 36.8842 74.8279 36.5322 74.8279C36.1802 74.8279 35.8522 74.9119 35.5482 75.0799C35.2522 75.2479 35.0162 75.4999 34.8402 75.8359C34.6642 76.1639 34.5762 76.5679 34.5762 77.0479C34.5762 77.7599 34.7562 78.3119 35.1162 78.7039C35.4842 79.0879 35.9442 79.2799 36.4962 79.2799ZM42.6486 74.7079C42.8486 74.3719 43.1126 74.1119 43.4406 73.9279C43.7766 73.7359 44.1726 73.6399 44.6286 73.6399V75.0559H44.2806C43.7446 75.0559 43.3366 75.1919 43.0566 75.4639C42.7846 75.7359 42.6486 76.2079 42.6486 76.8799V80.3599H41.2806V73.7479H42.6486V74.7079ZM48.502 77.0599L51.55 80.3599H49.702L47.254 77.5159V80.3599H45.886V71.4799H47.254V76.6399L49.654 73.7479H51.55L48.502 77.0599ZM56.1997 80.4439C55.9517 80.4439 55.7437 80.3599 55.5757 80.1919C55.4077 80.0239 55.3237 79.8159 55.3237 79.5679C55.3237 79.3199 55.4077 79.1119 55.5757 78.9439C55.7437 78.7759 55.9517 78.6919 56.1997 78.6919C56.4397 78.6919 56.6437 78.7759 56.8117 78.9439C56.9797 79.1119 57.0637 79.3199 57.0637 79.5679C57.0637 79.8159 56.9797 80.0239 56.8117 80.1919C56.6437 80.3599 56.4397 80.4439 56.1997 80.4439ZM56.1997 75.4039C55.9517 75.4039 55.7437 75.3199 55.5757 75.1519C55.4077 74.9839 55.3237 74.7759 55.3237 74.5279C55.3237 74.2799 55.4077 74.0719 55.5757 73.9039C55.7437 73.7359 55.9517 73.6519 56.1997 73.6519C56.4397 73.6519 56.6437 73.7359 56.8117 73.9039C56.9797 74.0719 57.0637 74.2799 57.0637 74.5279C57.0637 74.7759 56.9797 74.9839 56.8117 75.1519C56.6437 75.3199 56.4397 75.4039 56.1997 75.4039ZM61.2503 77.0479C61.2503 76.3679 61.3863 75.7719 61.6583 75.2599C61.9383 74.7399 62.3223 74.3399 62.8103 74.0599C63.2983 73.7799 63.8583 73.6399 64.4903 73.6399C65.2903 73.6399 65.9503 73.8319 66.4703 74.2159C66.9983 74.5919 67.3543 75.1319 67.5383 75.8359H66.0623C65.9423 75.5079 65.7503 75.2519 65.4863 75.0679C65.2223 74.8839 64.8903 74.7919 64.4903 74.7919C63.9303 74.7919 63.4823 74.9919 63.1463 75.3919C62.8183 75.7839 62.6543 76.3359 62.6543 77.0479C62.6543 77.7599 62.8183 78.3159 63.1463 78.7159C63.4823 79.1159 63.9303 79.3159 64.4903 79.3159C65.2823 79.3159 65.8063 78.9679 66.0623 78.2719H67.5383C67.3463 78.9439 66.9863 79.4799 66.4583 79.8799C65.9303 80.2719 65.2743 80.4679 64.4903 80.4679C63.8583 80.4679 63.2983 80.3279 62.8103 80.0479C62.3223 79.7599 61.9383 79.3599 61.6583 78.8479C61.3863 78.3279 61.2503 77.7279 61.2503 77.0479ZM71.7696 80.4679C71.1456 80.4679 70.5816 80.3279 70.0776 80.0479C69.5736 79.7599 69.1776 79.3599 68.8896 78.8479C68.6016 78.3279 68.4576 77.7279 68.4576 77.0479C68.4576 76.3759 68.6056 75.7799 68.9016 75.2599C69.1976 74.7399 69.6016 74.3399 70.1136 74.0599C70.6256 73.7799 71.1976 73.6399 71.8296 73.6399C72.4616 73.6399 73.0336 73.7799 73.5456 74.0599C74.0576 74.3399 74.4616 74.7399 74.7576 75.2599C75.0536 75.7799 75.2016 76.3759 75.2016 77.0479C75.2016 77.7199 75.0496 78.3159 74.7456 78.8359C74.4416 79.3559 74.0256 79.7599 73.4976 80.0479C72.9776 80.3279 72.4016 80.4679 71.7696 80.4679ZM71.7696 79.2799C72.1216 79.2799 72.4496 79.1959 72.7536 79.0279C73.0656 78.8599 73.3176 78.6079 73.5096 78.2719C73.7016 77.9359 73.7976 77.5279 73.7976 77.0479C73.7976 76.5679 73.7056 76.1639 73.5216 75.8359C73.3376 75.4999 73.0936 75.2479 72.7896 75.0799C72.4856 74.9119 72.1576 74.8279 71.8056 74.8279C71.4536 74.8279 71.1256 74.9119 70.8216 75.0799C70.5256 75.2479 70.2896 75.4999 70.1136 75.8359C69.9376 76.1639 69.8496 76.5679 69.8496 77.0479C69.8496 77.7599 70.0296 78.3119 70.3896 78.7039C70.7576 79.0879 71.2176 79.2799 71.7696 79.2799ZM84.558 73.6399C85.078 73.6399 85.542 73.7479 85.95 73.9639C86.366 74.1799 86.69 74.4999 86.922 74.9239C87.162 75.3479 87.282 75.8599 87.282 76.4599V80.3599H85.926V76.6639C85.926 76.0719 85.778 75.6199 85.482 75.3079C85.186 74.9879 84.782 74.8279 84.27 74.8279C83.758 74.8279 83.35 74.9879 83.046 75.3079C82.75 75.6199 82.602 76.0719 82.602 76.6639V80.3599H81.246V76.6639C81.246 76.0719 81.098 75.6199 80.802 75.3079C80.506 74.9879 80.102 74.8279 79.59 74.8279C79.078 74.8279 78.67 74.9879 78.366 75.3079C78.07 75.6199 77.922 76.0719 77.922 76.6639V80.3599H76.554V73.7479H77.922V74.5039C78.146 74.2319 78.43 74.0199 78.774 73.8679C79.118 73.7159 79.486 73.6399 79.878 73.6399C80.406 73.6399 80.878 73.7519 81.294 73.9759C81.71 74.1999 82.03 74.5239 82.254 74.9479C82.454 74.5479 82.766 74.2319 83.19 73.9999C83.614 73.7599 84.07 73.6399 84.558 73.6399ZM90.3907 74.7199C90.6227 74.4159 90.9387 74.1599 91.3387 73.9519C91.7387 73.7439 92.1907 73.6399 92.6947 73.6399C93.2707 73.6399 93.7947 73.7839 94.2667 74.0719C94.7467 74.3519 95.1227 74.7479 95.3947 75.2599C95.6667 75.7719 95.8027 76.3599 95.8027 77.0239C95.8027 77.6879 95.6667 78.2839 95.3947 78.8119C95.1227 79.3319 94.7467 79.7399 94.2667 80.0359C93.7947 80.3239 93.2707 80.4679 92.6947 80.4679C92.1907 80.4679 91.7427 80.3679 91.3507 80.1679C90.9587 79.9599 90.6387 79.7039 90.3907 79.3999V83.5039H89.0227V73.7479H90.3907V74.7199ZM94.4107 77.0239C94.4107 76.5679 94.3147 76.1759 94.1227 75.8479C93.9387 75.5119 93.6907 75.2599 93.3787 75.0919C93.0747 74.9159 92.7467 74.8279 92.3947 74.8279C92.0507 74.8279 91.7227 74.9159 91.4107 75.0919C91.1067 75.2679 90.8587 75.5239 90.6667 75.8599C90.4827 76.1959 90.3907 76.5919 90.3907 77.0479C90.3907 77.5039 90.4827 77.9039 90.6667 78.2479C90.8587 78.5839 91.1067 78.8399 91.4107 79.0159C91.7227 79.1919 92.0507 79.2799 92.3947 79.2799C92.7467 79.2799 93.0747 79.1919 93.3787 79.0159C93.6907 78.8319 93.9387 78.5679 94.1227 78.2239C94.3147 77.8799 94.4107 77.4799 94.4107 77.0239ZM98.5236 71.4799V80.3599H97.1556V71.4799H98.5236ZM106.38 76.8919C106.38 77.1399 106.364 77.3639 106.332 77.5639H101.28C101.32 78.0919 101.516 78.5159 101.868 78.8359C102.22 79.1559 102.652 79.3159 103.164 79.3159C103.9 79.3159 104.42 79.0079 104.724 78.3919H106.2C106 78.9999 105.636 79.4999 105.108 79.8919C104.588 80.2759 103.94 80.4679 103.164 80.4679C102.532 80.4679 101.964 80.3279 101.46 80.0479C100.964 79.7599 100.572 79.3599 100.284 78.8479C100.004 78.3279 99.8636 77.7279 99.8636 77.0479C99.8636 76.3679 99.9996 75.7719 100.272 75.2599C100.552 74.7399 100.94 74.3399 101.436 74.0599C101.94 73.7799 102.516 73.6399 103.164 73.6399C103.788 73.6399 104.344 73.7759 104.832 74.0479C105.32 74.3199 105.7 74.7039 105.972 75.1999C106.244 75.6879 106.38 76.2519 106.38 76.8919ZM104.952 76.4599C104.944 75.9559 104.764 75.5519 104.412 75.2479C104.06 74.9439 103.624 74.7919 103.104 74.7919C102.632 74.7919 102.228 74.9439 101.892 75.2479C101.556 75.5439 101.356 75.9479 101.292 76.4599H104.952ZM110.558 77.0119L112.694 80.3599H111.146L109.718 78.1159L108.374 80.3599H106.946L109.082 77.1079L106.946 73.7479H108.494L109.922 75.9919L111.266 73.7479H112.694L110.558 77.0119Z" fill="#010101"/>
<rect y="100" width="141" height="23" fill="#EF927B"/>
<path d="M29.3595 109.72C29.5915 109.416 29.9075 109.16 30.3075 108.952C30.7075 108.744 31.1595 108.64 31.6635 108.64C32.2395 108.64 32.7635 108.784 33.2355 109.072C33.7155 109.352 34.0915 109.748 34.3635 110.26C34.6355 110.772 34.7715 111.36 34.7715 112.024C34.7715 112.688 34.6355 113.284 34.3635 113.812C34.0915 114.332 33.7155 114.74 33.2355 115.036C32.7635 115.324 32.2395 115.468 31.6635 115.468C31.1595 115.468 30.7115 115.368 30.3195 115.168C29.9275 114.96 29.6075 114.704 29.3595 114.4V118.504H27.9915V108.748H29.3595V109.72ZM33.3795 112.024C33.3795 111.568 33.2835 111.176 33.0915 110.848C32.9075 110.512 32.6595 110.26 32.3475 110.092C32.0435 109.916 31.7155 109.828 31.3635 109.828C31.0195 109.828 30.6915 109.916 30.3795 110.092C30.0755 110.268 29.8275 110.524 29.6355 110.86C29.4515 111.196 29.3595 111.592 29.3595 112.048C29.3595 112.504 29.4515 112.904 29.6355 113.248C29.8275 113.584 30.0755 113.84 30.3795 114.016C30.6915 114.192 31.0195 114.28 31.3635 114.28C31.7155 114.28 32.0435 114.192 32.3475 114.016C32.6595 113.832 32.9075 113.568 33.0915 113.224C33.2835 112.88 33.3795 112.48 33.3795 112.024ZM37.4923 109.708C37.6923 109.372 37.9563 109.112 38.2843 108.928C38.6203 108.736 39.0163 108.64 39.4723 108.64V110.056H39.1243C38.5883 110.056 38.1803 110.192 37.9003 110.464C37.6283 110.736 37.4923 111.208 37.4923 111.88V115.36H36.1243V108.748H37.4923V109.708ZM41.4258 107.872C41.1778 107.872 40.9698 107.788 40.8018 107.62C40.6338 107.452 40.5498 107.244 40.5498 106.996C40.5498 106.748 40.6338 106.54 40.8018 106.372C40.9698 106.204 41.1778 106.12 41.4258 106.12C41.6658 106.12 41.8698 106.204 42.0378 106.372C42.2058 106.54 42.2898 106.748 42.2898 106.996C42.2898 107.244 42.2058 107.452 42.0378 107.62C41.8698 107.788 41.6658 107.872 41.4258 107.872ZM42.0978 108.748V115.36H40.7298V108.748H42.0978ZM46.7618 115.468C46.1378 115.468 45.5738 115.328 45.0698 115.048C44.5658 114.76 44.1698 114.36 43.8818 113.848C43.5938 113.328 43.4498 112.728 43.4498 112.048C43.4498 111.376 43.5978 110.78 43.8938 110.26C44.1898 109.74 44.5938 109.34 45.1058 109.06C45.6178 108.78 46.1898 108.64 46.8218 108.64C47.4538 108.64 48.0258 108.78 48.5378 109.06C49.0498 109.34 49.4538 109.74 49.7498 110.26C50.0458 110.78 50.1938 111.376 50.1938 112.048C50.1938 112.72 50.0418 113.316 49.7378 113.836C49.4338 114.356 49.0178 114.76 48.4898 115.048C47.9698 115.328 47.3938 115.468 46.7618 115.468ZM46.7618 114.28C47.1138 114.28 47.4418 114.196 47.7458 114.028C48.0578 113.86 48.3098 113.608 48.5018 113.272C48.6938 112.936 48.7898 112.528 48.7898 112.048C48.7898 111.568 48.6978 111.164 48.5138 110.836C48.3298 110.5 48.0858 110.248 47.7818 110.08C47.4778 109.912 47.1498 109.828 46.7978 109.828C46.4458 109.828 46.1178 109.912 45.8138 110.08C45.5178 110.248 45.2818 110.5 45.1058 110.836C44.9298 111.164 44.8418 111.568 44.8418 112.048C44.8418 112.76 45.0218 113.312 45.3818 113.704C45.7498 114.088 46.2098 114.28 46.7618 114.28ZM52.9142 109.708C53.1142 109.372 53.3782 109.112 53.7062 108.928C54.0422 108.736 54.4382 108.64 54.8942 108.64V110.056H54.5462C54.0102 110.056 53.6022 110.192 53.3222 110.464C53.0502 110.736 52.9142 111.208 52.9142 111.88V115.36H51.5462V108.748H52.9142V109.708ZM56.8476 107.872C56.5996 107.872 56.3916 107.788 56.2236 107.62C56.0556 107.452 55.9716 107.244 55.9716 106.996C55.9716 106.748 56.0556 106.54 56.2236 106.372C56.3916 106.204 56.5996 106.12 56.8476 106.12C57.0876 106.12 57.2916 106.204 57.4596 106.372C57.6276 106.54 57.7116 106.748 57.7116 106.996C57.7116 107.244 57.6276 107.452 57.4596 107.62C57.2916 107.788 57.0876 107.872 56.8476 107.872ZM57.5196 108.748V115.36H56.1516V108.748H57.5196ZM60.9117 109.864V113.524C60.9117 113.772 60.9677 113.952 61.0797 114.064C61.1997 114.168 61.3997 114.22 61.6797 114.22H62.5197V115.36H61.4397C60.8237 115.36 60.3517 115.216 60.0237 114.928C59.6957 114.64 59.5317 114.172 59.5317 113.524V109.864H58.7517V108.748H59.5317V107.104H60.9117V108.748H62.5197V109.864H60.9117ZM69.7326 108.748L65.6766 118.468H64.2606L65.6046 115.252L63.0006 108.748H64.5246L66.3846 113.788L68.3166 108.748H69.7326ZM74.4341 115.444C74.1861 115.444 73.9781 115.36 73.8101 115.192C73.6421 115.024 73.5581 114.816 73.5581 114.568C73.5581 114.32 73.6421 114.112 73.8101 113.944C73.9781 113.776 74.1861 113.692 74.4341 113.692C74.6741 113.692 74.8781 113.776 75.0461 113.944C75.2141 114.112 75.2981 114.32 75.2981 114.568C75.2981 114.816 75.2141 115.024 75.0461 115.192C74.8781 115.36 74.6741 115.444 74.4341 115.444ZM74.4341 110.404C74.1861 110.404 73.9781 110.32 73.8101 110.152C73.6421 109.984 73.5581 109.776 73.5581 109.528C73.5581 109.28 73.6421 109.072 73.8101 108.904C73.9781 108.736 74.1861 108.652 74.4341 108.652C74.6741 108.652 74.8781 108.736 75.0461 108.904C75.2141 109.072 75.2981 109.28 75.2981 109.528C75.2981 109.776 75.2141 109.984 75.0461 110.152C74.8781 110.32 74.6741 110.404 74.4341 110.404ZM82.3407 115.468C81.8207 115.468 81.3527 115.376 80.9367 115.192C80.5287 115 80.2047 114.744 79.9647 114.424C79.7247 114.096 79.5967 113.732 79.5807 113.332H80.9967C81.0207 113.612 81.1527 113.848 81.3927 114.04C81.6407 114.224 81.9487 114.316 82.3167 114.316C82.7007 114.316 82.9967 114.244 83.2047 114.1C83.4207 113.948 83.5287 113.756 83.5287 113.524C83.5287 113.276 83.4087 113.092 83.1687 112.972C82.9367 112.852 82.5647 112.72 82.0527 112.576C81.5567 112.44 81.1527 112.308 80.8407 112.18C80.5287 112.052 80.2567 111.856 80.0247 111.592C79.8007 111.328 79.6887 110.98 79.6887 110.548C79.6887 110.196 79.7927 109.876 80.0007 109.588C80.2087 109.292 80.5047 109.06 80.8887 108.892C81.2807 108.724 81.7287 108.64 82.2327 108.64C82.9847 108.64 83.5887 108.832 84.0447 109.216C84.5087 109.592 84.7567 110.108 84.7887 110.764H83.4207C83.3967 110.468 83.2767 110.232 83.0607 110.056C82.8447 109.88 82.5527 109.792 82.1847 109.792C81.8247 109.792 81.5487 109.86 81.3567 109.996C81.1647 110.132 81.0687 110.312 81.0687 110.536C81.0687 110.712 81.1327 110.86 81.2607 110.98C81.3887 111.1 81.5447 111.196 81.7287 111.268C81.9127 111.332 82.1847 111.416 82.5447 111.52C83.0247 111.648 83.4167 111.78 83.7207 111.916C84.0327 112.044 84.3007 112.236 84.5247 112.492C84.7487 112.748 84.8647 113.088 84.8727 113.512C84.8727 113.888 84.7687 114.224 84.5607 114.52C84.3527 114.816 84.0567 115.048 83.6727 115.216C83.2967 115.384 82.8527 115.468 82.3407 115.468ZM89.2189 115.468C88.5949 115.468 88.0309 115.328 87.5269 115.048C87.0229 114.76 86.6269 114.36 86.3389 113.848C86.0509 113.328 85.9069 112.728 85.9069 112.048C85.9069 111.376 86.0549 110.78 86.3509 110.26C86.6469 109.74 87.0509 109.34 87.5629 109.06C88.0749 108.78 88.6469 108.64 89.2789 108.64C89.9109 108.64 90.4829 108.78 90.9949 109.06C91.5069 109.34 91.9109 109.74 92.2069 110.26C92.5029 110.78 92.6509 111.376 92.6509 112.048C92.6509 112.72 92.4989 113.316 92.1949 113.836C91.8909 114.356 91.4749 114.76 90.9469 115.048C90.4269 115.328 89.8509 115.468 89.2189 115.468ZM89.2189 114.28C89.5709 114.28 89.8989 114.196 90.2029 114.028C90.5149 113.86 90.7669 113.608 90.9589 113.272C91.1509 112.936 91.2469 112.528 91.2469 112.048C91.2469 111.568 91.1549 111.164 90.9709 110.836C90.7869 110.5 90.5429 110.248 90.2389 110.08C89.9349 109.912 89.6069 109.828 89.2549 109.828C88.9029 109.828 88.5749 109.912 88.2709 110.08C87.9749 110.248 87.7389 110.5 87.5629 110.836C87.3869 111.164 87.2989 111.568 87.2989 112.048C87.2989 112.76 87.4789 113.312 87.8389 113.704C88.2069 114.088 88.6669 114.28 89.2189 114.28ZM96.8712 115.468C96.2472 115.468 95.6832 115.328 95.1792 115.048C94.6752 114.76 94.2792 114.36 93.9912 113.848C93.7032 113.328 93.5592 112.728 93.5592 112.048C93.5592 111.376 93.7072 110.78 94.0032 110.26C94.2992 109.74 94.7032 109.34 95.2152 109.06C95.7272 108.78 96.2992 108.64 96.9312 108.64C97.5632 108.64 98.1352 108.78 98.6472 109.06C99.1592 109.34 99.5632 109.74 99.8592 110.26C100.155 110.78 100.303 111.376 100.303 112.048C100.303 112.72 100.151 113.316 99.8472 113.836C99.5432 114.356 99.1272 114.76 98.5992 115.048C98.0792 115.328 97.5032 115.468 96.8712 115.468ZM96.8712 114.28C97.2232 114.28 97.5512 114.196 97.8552 114.028C98.1672 113.86 98.4192 113.608 98.6112 113.272C98.8032 112.936 98.8992 112.528 98.8992 112.048C98.8992 111.568 98.8072 111.164 98.6232 110.836C98.4392 110.5 98.1952 110.248 97.8912 110.08C97.5872 109.912 97.2592 109.828 96.9072 109.828C96.5552 109.828 96.2272 109.912 95.9232 110.08C95.6272 110.248 95.3912 110.5 95.2152 110.836C95.0392 111.164 94.9512 111.568 94.9512 112.048C94.9512 112.76 95.1312 113.312 95.4912 113.704C95.8592 114.088 96.3192 114.28 96.8712 114.28ZM104.992 108.64C105.512 108.64 105.976 108.748 106.384 108.964C106.8 109.18 107.124 109.5 107.356 109.924C107.588 110.348 107.704 110.86 107.704 111.46V115.36H106.348V111.664C106.348 111.072 106.2 110.62 105.904 110.308C105.608 109.988 105.204 109.828 104.692 109.828C104.18 109.828 103.772 109.988 103.468 110.308C103.172 110.62 103.024 111.072 103.024 111.664V115.36H101.656V108.748H103.024V109.504C103.248 109.232 103.532 109.02 103.876 108.868C104.228 108.716 104.6 108.64 104.992 108.64Z" fill="#010101"/>
<rect y="136" width="141" height="23" fill="#C2E1A2"/>
<path d="M20.3134 151.468C19.7934 151.468 19.3254 151.376 18.9094 151.192C18.5014 151 18.1774 150.744 17.9374 150.424C17.6974 150.096 17.5694 149.732 17.5534 149.332H18.9694C18.9934 149.612 19.1254 149.848 19.3654 150.04C19.6134 150.224 19.9214 150.316 20.2894 150.316C20.6734 150.316 20.9694 150.244 21.1774 150.1C21.3934 149.948 21.5014 149.756 21.5014 149.524C21.5014 149.276 21.3814 149.092 21.1414 148.972C20.9094 148.852 20.5374 148.72 20.0254 148.576C19.5294 148.44 19.1254 148.308 18.8134 148.18C18.5014 148.052 18.2294 147.856 17.9974 147.592C17.7734 147.328 17.6614 146.98 17.6614 146.548C17.6614 146.196 17.7654 145.876 17.9734 145.588C18.1814 145.292 18.4774 145.06 18.8614 144.892C19.2534 144.724 19.7014 144.64 20.2054 144.64C20.9574 144.64 21.5614 144.832 22.0174 145.216C22.4814 145.592 22.7294 146.108 22.7614 146.764H21.3934C21.3694 146.468 21.2494 146.232 21.0334 146.056C20.8174 145.88 20.5254 145.792 20.1574 145.792C19.7974 145.792 19.5214 145.86 19.3294 145.996C19.1374 146.132 19.0414 146.312 19.0414 146.536C19.0414 146.712 19.1054 146.86 19.2334 146.98C19.3614 147.1 19.5174 147.196 19.7014 147.268C19.8854 147.332 20.1574 147.416 20.5174 147.52C20.9974 147.648 21.3894 147.78 21.6934 147.916C22.0054 148.044 22.2734 148.236 22.4974 148.492C22.7214 148.748 22.8374 149.088 22.8454 149.512C22.8454 149.888 22.7414 150.224 22.5334 150.52C22.3254 150.816 22.0294 151.048 21.6454 151.216C21.2694 151.384 20.8254 151.468 20.3134 151.468ZM25.9195 145.864V149.524C25.9195 149.772 25.9755 149.952 26.0875 150.064C26.2075 150.168 26.4075 150.22 26.6875 150.22H27.5275V151.36H26.4475C25.8315 151.36 25.3595 151.216 25.0315 150.928C24.7035 150.64 24.5395 150.172 24.5395 149.524V145.864H23.7595V144.748H24.5395V143.104H25.9195V144.748H27.5275V145.864H25.9195ZM28.3324 148.024C28.3324 147.36 28.4684 146.772 28.7404 146.26C29.0204 145.748 29.3964 145.352 29.8684 145.072C30.3484 144.784 30.8764 144.64 31.4524 144.64C31.9724 144.64 32.4244 144.744 32.8084 144.952C33.2004 145.152 33.5124 145.404 33.7444 145.708V144.748H35.1244V151.36H33.7444V150.376C33.5124 150.688 33.1964 150.948 32.7964 151.156C32.3964 151.364 31.9404 151.468 31.4284 151.468C30.8604 151.468 30.3404 151.324 29.8684 151.036C29.3964 150.74 29.0204 150.332 28.7404 149.812C28.4684 149.284 28.3324 148.688 28.3324 148.024ZM33.7444 148.048C33.7444 147.592 33.6484 147.196 33.4564 146.86C33.2724 146.524 33.0284 146.268 32.7244 146.092C32.4204 145.916 32.0924 145.828 31.7404 145.828C31.3884 145.828 31.0604 145.916 30.7564 146.092C30.4524 146.26 30.2044 146.512 30.0124 146.848C29.8284 147.176 29.7364 147.568 29.7364 148.024C29.7364 148.48 29.8284 148.88 30.0124 149.224C30.2044 149.568 30.4524 149.832 30.7564 150.016C31.0684 150.192 31.3964 150.28 31.7404 150.28C32.0924 150.28 32.4204 150.192 32.7244 150.016C33.0284 149.84 33.2724 149.584 33.4564 149.248C33.6484 148.904 33.7444 148.504 33.7444 148.048ZM38.5172 145.864V149.524C38.5172 149.772 38.5732 149.952 38.6852 150.064C38.8052 150.168 39.0052 150.22 39.2852 150.22H40.1252V151.36H39.0452C38.4292 151.36 37.9572 151.216 37.6292 150.928C37.3012 150.64 37.1372 150.172 37.1372 149.524V145.864H36.3572V144.748H37.1372V143.104H38.5172V144.748H40.1252V145.864H38.5172ZM47.446 147.892C47.446 148.14 47.43 148.364 47.398 148.564H42.346C42.386 149.092 42.582 149.516 42.934 149.836C43.286 150.156 43.718 150.316 44.23 150.316C44.966 150.316 45.486 150.008 45.79 149.392H47.266C47.066 150 46.702 150.5 46.174 150.892C45.654 151.276 45.006 151.468 44.23 151.468C43.598 151.468 43.03 151.328 42.526 151.048C42.03 150.76 41.638 150.36 41.35 149.848C41.07 149.328 40.93 148.728 40.93 148.048C40.93 147.368 41.066 146.772 41.338 146.26C41.618 145.74 42.006 145.34 42.502 145.06C43.006 144.78 43.582 144.64 44.23 144.64C44.854 144.64 45.41 144.776 45.898 145.048C46.386 145.32 46.766 145.704 47.038 146.2C47.31 146.688 47.446 147.252 47.446 147.892ZM46.018 147.46C46.01 146.956 45.83 146.552 45.478 146.248C45.126 145.944 44.69 145.792 44.17 145.792C43.698 145.792 43.294 145.944 42.958 146.248C42.622 146.544 42.422 146.948 42.358 147.46H46.018ZM52.4615 151.444C52.2135 151.444 52.0055 151.36 51.8375 151.192C51.6695 151.024 51.5855 150.816 51.5855 150.568C51.5855 150.32 51.6695 150.112 51.8375 149.944C52.0055 149.776 52.2135 149.692 52.4615 149.692C52.7015 149.692 52.9055 149.776 53.0735 149.944C53.2415 150.112 53.3255 150.32 53.3255 150.568C53.3255 150.816 53.2415 151.024 53.0735 151.192C52.9055 151.36 52.7015 151.444 52.4615 151.444ZM52.4615 146.404C52.2135 146.404 52.0055 146.32 51.8375 146.152C51.6695 145.984 51.5855 145.776 51.5855 145.528C51.5855 145.28 51.6695 145.072 51.8375 144.904C52.0055 144.736 52.2135 144.652 52.4615 144.652C52.7015 144.652 52.9055 144.736 53.0735 144.904C53.2415 145.072 53.3255 145.28 53.3255 145.528C53.3255 145.776 53.2415 145.984 53.0735 146.152C52.9055 146.32 52.7015 146.404 52.4615 146.404ZM58.6641 143.872C58.4161 143.872 58.2081 143.788 58.0401 143.62C57.8721 143.452 57.7881 143.244 57.7881 142.996C57.7881 142.748 57.8721 142.54 58.0401 142.372C58.2081 142.204 58.4161 142.12 58.6641 142.12C58.9041 142.12 59.1081 142.204 59.2761 142.372C59.4441 142.54 59.5281 142.748 59.5281 142.996C59.5281 143.244 59.4441 143.452 59.2761 143.62C59.1081 143.788 58.9041 143.872 58.6641 143.872ZM59.3361 144.748V151.36H57.9681V144.748H59.3361ZM63.5321 151.468C63.0121 151.468 62.5441 151.376 62.1281 151.192C61.7201 151 61.3961 150.744 61.1561 150.424C60.9161 150.096 60.7881 149.732 60.7721 149.332H62.1881C62.2121 149.612 62.3441 149.848 62.5841 150.04C62.8321 150.224 63.1401 150.316 63.5081 150.316C63.8921 150.316 64.1881 150.244 64.3961 150.1C64.6121 149.948 64.7201 149.756 64.7201 149.524C64.7201 149.276 64.6001 149.092 64.3601 148.972C64.1281 148.852 63.7561 148.72 63.2441 148.576C62.7481 148.44 62.3441 148.308 62.0321 148.18C61.7201 148.052 61.4481 147.856 61.2161 147.592C60.9921 147.328 60.8801 146.98 60.8801 146.548C60.8801 146.196 60.9841 145.876 61.1921 145.588C61.4001 145.292 61.6961 145.06 62.0801 144.892C62.4721 144.724 62.9201 144.64 63.4241 144.64C64.1761 144.64 64.7801 144.832 65.2361 145.216C65.7001 145.592 65.9481 146.108 65.9801 146.764H64.6121C64.5881 146.468 64.4681 146.232 64.2521 146.056C64.0361 145.88 63.7441 145.792 63.3761 145.792C63.0161 145.792 62.7401 145.86 62.5481 145.996C62.3561 146.132 62.2601 146.312 62.2601 146.536C62.2601 146.712 62.3241 146.86 62.4521 146.98C62.5801 147.1 62.7361 147.196 62.9201 147.268C63.1041 147.332 63.3761 147.416 63.7361 147.52C64.2161 147.648 64.6081 147.78 64.9121 147.916C65.2241 148.044 65.4921 148.236 65.7161 148.492C65.9401 148.748 66.0561 149.088 66.0641 149.512C66.0641 149.888 65.9601 150.224 65.7521 150.52C65.5441 150.816 65.2481 151.048 64.8641 151.216C64.4881 151.384 64.0441 151.468 63.5321 151.468ZM69.9423 151.468C69.4223 151.468 68.9543 151.376 68.5383 151.192C68.1303 151 67.8063 150.744 67.5663 150.424C67.3263 150.096 67.1983 149.732 67.1823 149.332H68.5983C68.6223 149.612 68.7543 149.848 68.9943 150.04C69.2423 150.224 69.5503 150.316 69.9183 150.316C70.3023 150.316 70.5983 150.244 70.8063 150.1C71.0223 149.948 71.1303 149.756 71.1303 149.524C71.1303 149.276 71.0103 149.092 70.7703 148.972C70.5383 148.852 70.1663 148.72 69.6543 148.576C69.1583 148.44 68.7543 148.308 68.4423 148.18C68.1303 148.052 67.8583 147.856 67.6263 147.592C67.4023 147.328 67.2903 146.98 67.2903 146.548C67.2903 146.196 67.3943 145.876 67.6023 145.588C67.8103 145.292 68.1063 145.06 68.4903 144.892C68.8823 144.724 69.3303 144.64 69.8343 144.64C70.5863 144.64 71.1903 144.832 71.6463 145.216C72.1103 145.592 72.3583 146.108 72.3903 146.764H71.0223C70.9983 146.468 70.8783 146.232 70.6623 146.056C70.4463 145.88 70.1543 145.792 69.7863 145.792C69.4263 145.792 69.1503 145.86 68.9583 145.996C68.7663 146.132 68.6703 146.312 68.6703 146.536C68.6703 146.712 68.7343 146.86 68.8623 146.98C68.9903 147.1 69.1463 147.196 69.3303 147.268C69.5143 147.332 69.7863 147.416 70.1463 147.52C70.6263 147.648 71.0183 147.78 71.3223 147.916C71.6343 148.044 71.9023 148.236 72.1263 148.492C72.3503 148.748 72.4663 149.088 72.4743 149.512C72.4743 149.888 72.3703 150.224 72.1623 150.52C71.9543 150.816 71.6583 151.048 71.2743 151.216C70.8983 151.384 70.4543 151.468 69.9423 151.468ZM79.9404 144.748V151.36H78.5724V150.58C78.3564 150.852 78.0724 151.068 77.7204 151.228C77.3764 151.38 77.0084 151.456 76.6164 151.456C76.0964 151.456 75.6284 151.348 75.2124 151.132C74.8044 150.916 74.4804 150.596 74.2404 150.172C74.0084 149.748 73.8924 149.236 73.8924 148.636V144.748H75.2484V148.432C75.2484 149.024 75.3964 149.48 75.6924 149.8C75.9884 150.112 76.3924 150.268 76.9044 150.268C77.4164 150.268 77.8204 150.112 78.1164 149.8C78.4204 149.48 78.5724 149.024 78.5724 148.432V144.748H79.9404ZM87.8054 147.892C87.8054 148.14 87.7894 148.364 87.7574 148.564H82.7054C82.7454 149.092 82.9414 149.516 83.2934 149.836C83.6454 150.156 84.0774 150.316 84.5894 150.316C85.3254 150.316 85.8454 150.008 86.1494 149.392H87.6254C87.4254 150 87.0614 150.5 86.5334 150.892C86.0134 151.276 85.3654 151.468 84.5894 151.468C83.9574 151.468 83.3894 151.328 82.8854 151.048C82.3894 150.76 81.9974 150.36 81.7094 149.848C81.4294 149.328 81.2894 148.728 81.2894 148.048C81.2894 147.368 81.4254 146.772 81.6974 146.26C81.9774 145.74 82.3654 145.34 82.8614 145.06C83.3654 144.78 83.9414 144.64 84.5894 144.64C85.2134 144.64 85.7694 144.776 86.2574 145.048C86.7454 145.32 87.1254 145.704 87.3974 146.2C87.6694 146.688 87.8054 147.252 87.8054 147.892ZM86.3774 147.46C86.3694 146.956 86.1894 146.552 85.8374 146.248C85.4854 145.944 85.0494 145.792 84.5294 145.792C84.0574 145.792 83.6534 145.944 83.3174 146.248C82.9814 146.544 82.7814 146.948 82.7174 147.46H86.3774ZM92.8208 151.444C92.5728 151.444 92.3648 151.36 92.1968 151.192C92.0288 151.024 91.9448 150.816 91.9448 150.568C91.9448 150.32 92.0288 150.112 92.1968 149.944C92.3648 149.776 92.5728 149.692 92.8208 149.692C93.0608 149.692 93.2648 149.776 93.4328 149.944C93.6008 150.112 93.6848 150.32 93.6848 150.568C93.6848 150.816 93.6008 151.024 93.4328 151.192C93.2648 151.36 93.0608 151.444 92.8208 151.444ZM92.8208 146.404C92.5728 146.404 92.3648 146.32 92.1968 146.152C92.0288 145.984 91.9448 145.776 91.9448 145.528C91.9448 145.28 92.0288 145.072 92.1968 144.904C92.3648 144.736 92.5728 144.652 92.8208 144.652C93.0608 144.652 93.2648 144.736 93.4328 144.904C93.6008 145.072 93.6848 145.28 93.6848 145.528C93.6848 145.776 93.6008 145.984 93.4328 146.152C93.2648 146.32 93.0608 146.404 92.8208 146.404ZM107.207 144.748L105.155 151.36H103.715L102.383 146.476L101.051 151.36H99.6114L97.5474 144.748H98.9394L100.319 150.064L101.723 144.748H103.151L104.495 150.04L105.863 144.748H107.207ZM108.926 143.872C108.678 143.872 108.47 143.788 108.302 143.62C108.134 143.452 108.05 143.244 108.05 142.996C108.05 142.748 108.134 142.54 108.302 142.372C108.47 142.204 108.678 142.12 108.926 142.12C109.166 142.12 109.37 142.204 109.538 142.372C109.706 142.54 109.79 142.748 109.79 142.996C109.79 143.244 109.706 143.452 109.538 143.62C109.37 143.788 109.166 143.872 108.926 143.872ZM109.598 144.748V151.36H108.23V144.748H109.598ZM112.762 145.72C112.994 145.416 113.31 145.16 113.71 144.952C114.11 144.744 114.562 144.64 115.066 144.64C115.642 144.64 116.166 144.784 116.638 145.072C117.118 145.352 117.494 145.748 117.766 146.26C118.038 146.772 118.174 147.36 118.174 148.024C118.174 148.688 118.038 149.284 117.766 149.812C117.494 150.332 117.118 150.74 116.638 151.036C116.166 151.324 115.642 151.468 115.066 151.468C114.562 151.468 114.114 151.368 113.722 151.168C113.33 150.96 113.01 150.704 112.762 150.4V154.504H111.394V144.748H112.762V145.72ZM116.782 148.024C116.782 147.568 116.686 147.176 116.494 146.848C116.31 146.512 116.062 146.26 115.75 146.092C115.446 145.916 115.118 145.828 114.766 145.828C114.422 145.828 114.094 145.916 113.782 146.092C113.478 146.268 113.23 146.524 113.038 146.86C112.854 147.196 112.762 147.592 112.762 148.048C112.762 148.504 112.854 148.904 113.038 149.248C113.23 149.584 113.478 149.84 113.782 150.016C114.094 150.192 114.422 150.28 114.766 150.28C115.118 150.28 115.446 150.192 115.75 150.016C116.062 149.832 116.31 149.568 116.494 149.224C116.686 148.88 116.782 148.48 116.782 148.024Z" fill="#010101"/>
</svg>
