<svg width="49" height="21" viewBox="0 0 49 21" fill="none" xmlns="http://www.w3.org/2000/svg">
<g filter="url(#filter0_d_17_115)">
<rect x="5.00391" y="1.00391" width="38" height="10" rx="1" fill="#0D8A16" fill-opacity="0.67" style="mix-blend-mode:darken" shape-rendering="crispEdges"/>
<rect x="4.50391" y="0.503906" width="39" height="11" rx="1.5" stroke="#0D8A16" shape-rendering="crispEdges"/>
</g>
<path d="M9.80391 5.20391C10.0139 5.20391 10.2006 5.24891 10.3639 5.33891C10.5306 5.42891 10.6606 5.56224 10.7539 5.73891C10.8506 5.91557 10.8989 6.12891 10.8989 6.37891V8.00391H10.3339V6.46391C10.3339 6.21724 10.2722 6.02891 10.1489 5.89891C10.0256 5.76557 9.85724 5.69891 9.64391 5.69891C9.43057 5.69891 9.26057 5.76557 9.13391 5.89891C9.01057 6.02891 8.94891 6.21724 8.94891 6.46391V8.00391H8.37891V4.30391H8.94891V5.56891C9.04557 5.45224 9.16724 5.36224 9.31391 5.29891C9.46391 5.23557 9.62724 5.20391 9.80391 5.20391ZM14.151 6.55891C14.151 6.66224 14.1443 6.75557 14.131 6.83891H12.026C12.0426 7.05891 12.1243 7.23557 12.271 7.36891C12.4176 7.50224 12.5976 7.56891 12.811 7.56891C13.1176 7.56891 13.3343 7.44057 13.461 7.18391H14.076C13.9926 7.43724 13.841 7.64557 13.621 7.80891C13.4043 7.96891 13.1343 8.04891 12.811 8.04891C12.5476 8.04891 12.311 7.99057 12.101 7.87391C11.8943 7.75391 11.731 7.58724 11.611 7.37391C11.4943 7.15724 11.436 6.90724 11.436 6.62391C11.436 6.34057 11.4926 6.09224 11.606 5.87891C11.7226 5.66224 11.8843 5.49557 12.091 5.37891C12.301 5.26224 12.541 5.20391 12.811 5.20391C13.071 5.20391 13.3026 5.26057 13.506 5.37391C13.7093 5.48724 13.8676 5.64724 13.981 5.85391C14.0943 6.05724 14.151 6.29224 14.151 6.55891ZM13.556 6.37891C13.5526 6.16891 13.4776 6.00057 13.331 5.87391C13.1843 5.74724 13.0026 5.68391 12.786 5.68391C12.5893 5.68391 12.421 5.74724 12.281 5.87391C12.141 5.99724 12.0576 6.16557 12.031 6.37891H13.556ZM15.2819 4.30391V8.00391H14.7119V4.30391H15.2819ZM16.6003 5.65391C16.6969 5.52724 16.8286 5.42057 16.9953 5.33391C17.1619 5.24724 17.3503 5.20391 17.5603 5.20391C17.8003 5.20391 18.0186 5.26391 18.2153 5.38391C18.4153 5.50057 18.5719 5.66557 18.6853 5.87891C18.7986 6.09224 18.8553 6.33724 18.8553 6.61391C18.8553 6.89057 18.7986 7.13891 18.6853 7.35891C18.5719 7.57557 18.4153 7.74557 18.2153 7.86891C18.0186 7.98891 17.8003 8.04891 17.5603 8.04891C17.3503 8.04891 17.1636 8.00724 17.0003 7.92391C16.8369 7.83724 16.7036 7.73057 16.6003 7.60391V9.31391H16.0303V5.24891H16.6003V5.65391ZM18.2753 6.61391C18.2753 6.42391 18.2353 6.26057 18.1553 6.12391C18.0786 5.98391 17.9753 5.87891 17.8453 5.80891C17.7186 5.73557 17.5819 5.69891 17.4353 5.69891C17.2919 5.69891 17.1553 5.73557 17.0253 5.80891C16.8986 5.88224 16.7953 5.98891 16.7153 6.12891C16.6386 6.26891 16.6003 6.43391 16.6003 6.62391C16.6003 6.81391 16.6386 6.98057 16.7153 7.12391C16.7953 7.26391 16.8986 7.37057 17.0253 7.44391C17.1553 7.51724 17.2919 7.55391 17.4353 7.55391C17.5819 7.55391 17.7186 7.51724 17.8453 7.44391C17.9753 7.36724 18.0786 7.25724 18.1553 7.11391C18.2353 6.97057 18.2753 6.80391 18.2753 6.61391ZM21.5339 5.95391V6.43391H19.4789V5.95391H21.5339ZM23.7338 5.20391C23.9504 5.20391 24.1438 5.24891 24.3138 5.33891C24.4871 5.42891 24.6221 5.56224 24.7188 5.73891C24.8154 5.91557 24.8638 6.12891 24.8638 6.37891V8.00391H24.2988V6.46391C24.2988 6.21724 24.2371 6.02891 24.1138 5.89891C23.9904 5.76557 23.8221 5.69891 23.6088 5.69891C23.3954 5.69891 23.2254 5.76557 23.0988 5.89891C22.9754 6.02891 22.9138 6.21724 22.9138 6.46391V8.00391H22.3438V5.24891H22.9138V5.56391C23.0071 5.45057 23.1254 5.36224 23.2688 5.29891C23.4154 5.23557 23.5704 5.20391 23.7338 5.20391ZM28.1158 6.55891C28.1158 6.66224 28.1092 6.75557 28.0958 6.83891H25.9908C26.0075 7.05891 26.0892 7.23557 26.2358 7.36891C26.3825 7.50224 26.5625 7.56891 26.7758 7.56891C27.0825 7.56891 27.2992 7.44057 27.4258 7.18391H28.0408C27.9575 7.43724 27.8058 7.64557 27.5858 7.80891C27.3692 7.96891 27.0992 8.04891 26.7758 8.04891C26.5125 8.04891 26.2758 7.99057 26.0658 7.87391C25.8592 7.75391 25.6958 7.58724 25.5758 7.37391C25.4592 7.15724 25.4008 6.90724 25.4008 6.62391C25.4008 6.34057 25.4575 6.09224 25.5708 5.87891C25.6875 5.66224 25.8492 5.49557 26.0558 5.37891C26.2658 5.26224 26.5058 5.20391 26.7758 5.20391C27.0358 5.20391 27.2675 5.26057 27.4708 5.37391C27.6742 5.48724 27.8325 5.64724 27.9458 5.85391C28.0592 6.05724 28.1158 6.29224 28.1158 6.55891ZM27.5208 6.37891C27.5175 6.16891 27.4425 6.00057 27.2958 5.87391C27.1492 5.74724 26.9675 5.68391 26.7508 5.68391C26.5542 5.68391 26.3858 5.74724 26.2458 5.87391C26.1058 5.99724 26.0225 6.16557 25.9958 6.37891H27.5208ZM31.2018 6.55891C31.2018 6.66224 31.1951 6.75557 31.1818 6.83891H29.0768C29.0934 7.05891 29.1751 7.23557 29.3218 7.36891C29.4684 7.50224 29.6484 7.56891 29.8618 7.56891C30.1684 7.56891 30.3851 7.44057 30.5118 7.18391H31.1268C31.0434 7.43724 30.8918 7.64557 30.6718 7.80891C30.4551 7.96891 30.1851 8.04891 29.8618 8.04891C29.5984 8.04891 29.3618 7.99057 29.1518 7.87391C28.9451 7.75391 28.7818 7.58724 28.6618 7.37391C28.5451 7.15724 28.4868 6.90724 28.4868 6.62391C28.4868 6.34057 28.5434 6.09224 28.6568 5.87891C28.7734 5.66224 28.9351 5.49557 29.1418 5.37891C29.3518 5.26224 29.5918 5.20391 29.8618 5.20391C30.1218 5.20391 30.3534 5.26057 30.5568 5.37391C30.7601 5.48724 30.9184 5.64724 31.0318 5.85391C31.1451 6.05724 31.2018 6.29224 31.2018 6.55891ZM30.6068 6.37891C30.6034 6.16891 30.5284 6.00057 30.3818 5.87391C30.2351 5.74724 30.0534 5.68391 29.8368 5.68391C29.6401 5.68391 29.4718 5.74724 29.3318 5.87391C29.1918 5.99724 29.1084 6.16557 29.0818 6.37891H30.6068ZM31.5727 6.61391C31.5727 6.33724 31.6294 6.09224 31.7427 5.87891C31.8594 5.66557 32.016 5.50057 32.2127 5.38391C32.4127 5.26391 32.6344 5.20391 32.8777 5.20391C33.0577 5.20391 33.2344 5.24391 33.4077 5.32391C33.5844 5.40057 33.7244 5.50391 33.8277 5.63391V4.30391H34.4027V8.00391H33.8277V7.58891C33.7344 7.72224 33.6044 7.83224 33.4377 7.91891C33.2744 8.00557 33.086 8.04891 32.8727 8.04891C32.6327 8.04891 32.4127 7.98891 32.2127 7.86891C32.016 7.74557 31.8594 7.57557 31.7427 7.35891C31.6294 7.13891 31.5727 6.89057 31.5727 6.61391ZM33.8277 6.62391C33.8277 6.43391 33.7877 6.26891 33.7077 6.12891C33.631 5.98891 33.5294 5.88224 33.4027 5.80891C33.276 5.73557 33.1394 5.69891 32.9927 5.69891C32.846 5.69891 32.7094 5.73557 32.5827 5.80891C32.456 5.87891 32.3527 5.98391 32.2727 6.12391C32.196 6.26057 32.1577 6.42391 32.1577 6.61391C32.1577 6.80391 32.196 6.97057 32.2727 7.11391C32.3527 7.25724 32.456 7.36724 32.5827 7.44391C32.7127 7.51724 32.8494 7.55391 32.9927 7.55391C33.1394 7.55391 33.276 7.51724 33.4027 7.44391C33.5294 7.37057 33.631 7.26391 33.7077 7.12391C33.7877 6.98057 33.8277 6.81391 33.8277 6.62391ZM37.6764 6.55891C37.6764 6.66224 37.6697 6.75557 37.6564 6.83891H35.5514C35.568 7.05891 35.6497 7.23557 35.7964 7.36891C35.943 7.50224 36.123 7.56891 36.3364 7.56891C36.643 7.56891 36.8597 7.44057 36.9864 7.18391H37.6014C37.518 7.43724 37.3664 7.64557 37.1464 7.80891C36.9297 7.96891 36.6597 8.04891 36.3364 8.04891C36.073 8.04891 35.8364 7.99057 35.6264 7.87391C35.4197 7.75391 35.2564 7.58724 35.1364 7.37391C35.0197 7.15724 34.9614 6.90724 34.9614 6.62391C34.9614 6.34057 35.018 6.09224 35.1314 5.87891C35.248 5.66224 35.4097 5.49557 35.6164 5.37891C35.8264 5.26224 36.0664 5.20391 36.3364 5.20391C36.5964 5.20391 36.828 5.26057 37.0314 5.37391C37.2347 5.48724 37.393 5.64724 37.5064 5.85391C37.6197 6.05724 37.6764 6.29224 37.6764 6.55891ZM37.0814 6.37891C37.078 6.16891 37.003 6.00057 36.8564 5.87391C36.7097 5.74724 36.528 5.68391 36.3114 5.68391C36.1147 5.68391 35.9464 5.74724 35.8064 5.87391C35.6664 5.99724 35.583 6.16557 35.5564 6.37891H37.0814ZM38.0473 6.61391C38.0473 6.33724 38.104 6.09224 38.2173 5.87891C38.334 5.66557 38.4906 5.50057 38.6873 5.38391C38.8873 5.26391 39.109 5.20391 39.3523 5.20391C39.5323 5.20391 39.709 5.24391 39.8823 5.32391C40.059 5.40057 40.199 5.50391 40.3023 5.63391V4.30391H40.8773V8.00391H40.3023V7.58891C40.209 7.72224 40.079 7.83224 39.9123 7.91891C39.749 8.00557 39.5606 8.04891 39.3473 8.04891C39.1073 8.04891 38.8873 7.98891 38.6873 7.86891C38.4906 7.74557 38.334 7.57557 38.2173 7.35891C38.104 7.13891 38.0473 6.89057 38.0473 6.61391ZM40.3023 6.62391C40.3023 6.43391 40.2623 6.26891 40.1823 6.12891C40.1056 5.98891 40.004 5.88224 39.8773 5.80891C39.7506 5.73557 39.614 5.69891 39.4673 5.69891C39.3206 5.69891 39.184 5.73557 39.0573 5.80891C38.9306 5.87891 38.8273 5.98391 38.7473 6.12391C38.6706 6.26057 38.6323 6.42391 38.6323 6.61391C38.6323 6.80391 38.6706 6.97057 38.7473 7.11391C38.8273 7.25724 38.9306 7.36724 39.0573 7.44391C39.1873 7.51724 39.324 7.55391 39.4673 7.55391C39.614 7.55391 39.7506 7.51724 39.8773 7.44391C40.004 7.37057 40.1056 7.26391 40.1823 7.12391C40.2623 6.98057 40.3023 6.81391 40.3023 6.62391Z" fill="black"/>
<defs>
<filter id="filter0_d_17_115" x="0.00390625" y="0.00390625" width="48" height="20" filterUnits="userSpaceOnUse" color-interpolation-filters="sRGB">
<feFlood flood-opacity="0" result="BackgroundImageFix"/>
<feColorMatrix in="SourceAlpha" type="matrix" values="0 0 0 0 0 0 0 0 0 0 0 0 0 0 0 0 0 0 127 0" result="hardAlpha"/>
<feOffset dy="4"/>
<feGaussianBlur stdDeviation="2"/>
<feComposite in2="hardAlpha" operator="out"/>
<feColorMatrix type="matrix" values="0 0 0 0 0 0 0 0 0 0 0 0 0 0 0 0 0 0 0.25 0"/>
<feBlend mode="normal" in2="BackgroundImageFix" result="effect1_dropShadow_17_115"/>
<feBlend mode="normal" in="SourceGraphic" in2="effect1_dropShadow_17_115" result="shape"/>
</filter>
</defs>
</svg>
