<svg width="150" height="50" viewBox="0 0 150 50" fill="none" xmlns="http://www.w3.org/2000/svg">
<rect width="150" height="50" fill="#C2E1A2"/>
<path d="M45.8895 20.852L46.4295 21.812L44.7855 22.424L46.4295 23.036L45.8775 24.02L44.5095 22.94L44.7615 24.68H43.6575L43.8855 22.94L42.5175 24.044L41.9415 23.024L43.5735 22.412L41.9415 21.824L42.4935 20.84L43.8975 21.92L43.6575 20.168H44.7735L44.5095 21.92L45.8895 20.852ZM51.8016 29.084C51.5536 29.084 51.3456 29 51.1776 28.832C51.0096 28.664 50.9256 28.456 50.9256 28.208C50.9256 27.96 51.0096 27.752 51.1776 27.584C51.3456 27.416 51.5536 27.332 51.8016 27.332C52.0416 27.332 52.2456 27.416 52.4136 27.584C52.5816 27.752 52.6656 27.96 52.6656 28.208C52.6656 28.456 52.5816 28.664 52.4136 28.832C52.2456 29 52.0416 29.084 51.8016 29.084ZM51.8016 24.044C51.5536 24.044 51.3456 23.96 51.1776 23.792C51.0096 23.624 50.9256 23.416 50.9256 23.168C50.9256 22.92 51.0096 22.712 51.1776 22.544C51.3456 22.376 51.5536 22.292 51.8016 22.292C52.0416 22.292 52.2456 22.376 52.4136 22.544C52.5816 22.712 52.6656 22.92 52.6656 23.168C52.6656 23.416 52.5816 23.624 52.4136 23.792C52.2456 23.96 52.0416 24.044 51.8016 24.044ZM58.0042 21.512C57.7562 21.512 57.5482 21.428 57.3802 21.26C57.2122 21.092 57.1282 20.884 57.1282 20.636C57.1282 20.388 57.2122 20.18 57.3802 20.012C57.5482 19.844 57.7562 19.76 58.0042 19.76C58.2442 19.76 58.4482 19.844 58.6162 20.012C58.7842 20.18 58.8682 20.388 58.8682 20.636C58.8682 20.884 58.7842 21.092 58.6162 21.26C58.4482 21.428 58.2442 21.512 58.0042 21.512ZM58.6762 22.388V29H57.3082V22.388H58.6762ZM62.8723 29.108C62.3523 29.108 61.8843 29.016 61.4683 28.832C61.0603 28.64 60.7363 28.384 60.4963 28.064C60.2563 27.736 60.1283 27.372 60.1123 26.972H61.5283C61.5523 27.252 61.6843 27.488 61.9243 27.68C62.1723 27.864 62.4803 27.956 62.8483 27.956C63.2323 27.956 63.5283 27.884 63.7363 27.74C63.9523 27.588 64.0603 27.396 64.0603 27.164C64.0603 26.916 63.9403 26.732 63.7003 26.612C63.4683 26.492 63.0963 26.36 62.5843 26.216C62.0883 26.08 61.6843 25.948 61.3723 25.82C61.0603 25.692 60.7883 25.496 60.5563 25.232C60.3323 24.968 60.2203 24.62 60.2203 24.188C60.2203 23.836 60.3243 23.516 60.5323 23.228C60.7403 22.932 61.0363 22.7 61.4203 22.532C61.8123 22.364 62.2603 22.28 62.7643 22.28C63.5163 22.28 64.1203 22.472 64.5763 22.856C65.0403 23.232 65.2883 23.748 65.3203 24.404H63.9523C63.9283 24.108 63.8083 23.872 63.5923 23.696C63.3763 23.52 63.0843 23.432 62.7163 23.432C62.3563 23.432 62.0803 23.5 61.8883 23.636C61.6963 23.772 61.6003 23.952 61.6003 24.176C61.6003 24.352 61.6643 24.5 61.7923 24.62C61.9203 24.74 62.0763 24.836 62.2603 24.908C62.4443 24.972 62.7163 25.056 63.0763 25.16C63.5563 25.288 63.9483 25.42 64.2523 25.556C64.5643 25.684 64.8323 25.876 65.0563 26.132C65.2803 26.388 65.3963 26.728 65.4043 27.152C65.4043 27.528 65.3003 27.864 65.0923 28.16C64.8843 28.456 64.5883 28.688 64.2043 28.856C63.8283 29.024 63.3843 29.108 62.8723 29.108ZM69.2824 29.108C68.7624 29.108 68.2944 29.016 67.8784 28.832C67.4704 28.64 67.1464 28.384 66.9064 28.064C66.6664 27.736 66.5384 27.372 66.5224 26.972H67.9384C67.9624 27.252 68.0944 27.488 68.3344 27.68C68.5824 27.864 68.8904 27.956 69.2584 27.956C69.6424 27.956 69.9384 27.884 70.1464 27.74C70.3624 27.588 70.4704 27.396 70.4704 27.164C70.4704 26.916 70.3504 26.732 70.1104 26.612C69.8784 26.492 69.5064 26.36 68.9944 26.216C68.4984 26.08 68.0944 25.948 67.7824 25.82C67.4704 25.692 67.1984 25.496 66.9664 25.232C66.7424 24.968 66.6304 24.62 66.6304 24.188C66.6304 23.836 66.7344 23.516 66.9424 23.228C67.1504 22.932 67.4464 22.7 67.8304 22.532C68.2224 22.364 68.6704 22.28 69.1744 22.28C69.9264 22.28 70.5304 22.472 70.9864 22.856C71.4504 23.232 71.6984 23.748 71.7304 24.404H70.3624C70.3384 24.108 70.2184 23.872 70.0024 23.696C69.7864 23.52 69.4944 23.432 69.1264 23.432C68.7664 23.432 68.4904 23.5 68.2984 23.636C68.1064 23.772 68.0104 23.952 68.0104 24.176C68.0104 24.352 68.0744 24.5 68.2024 24.62C68.3304 24.74 68.4864 24.836 68.6704 24.908C68.8544 24.972 69.1264 25.056 69.4864 25.16C69.9664 25.288 70.3584 25.42 70.6624 25.556C70.9744 25.684 71.2424 25.876 71.4664 26.132C71.6904 26.388 71.8064 26.728 71.8144 27.152C71.8144 27.528 71.7104 27.864 71.5024 28.16C71.2944 28.456 70.9984 28.688 70.6144 28.856C70.2384 29.024 69.7944 29.108 69.2824 29.108ZM79.2806 22.388V29H77.9126V28.22C77.6966 28.492 77.4126 28.708 77.0606 28.868C76.7166 29.02 76.3486 29.096 75.9566 29.096C75.4366 29.096 74.9686 28.988 74.5526 28.772C74.1446 28.556 73.8206 28.236 73.5806 27.812C73.3486 27.388 73.2326 26.876 73.2326 26.276V22.388H74.5886V26.072C74.5886 26.664 74.7366 27.12 75.0326 27.44C75.3286 27.752 75.7326 27.908 76.2446 27.908C76.7566 27.908 77.1606 27.752 77.4566 27.44C77.7606 27.12 77.9126 26.664 77.9126 26.072V22.388H79.2806ZM87.1455 25.532C87.1455 25.78 87.1295 26.004 87.0975 26.204H82.0455C82.0855 26.732 82.2815 27.156 82.6335 27.476C82.9855 27.796 83.4175 27.956 83.9295 27.956C84.6655 27.956 85.1855 27.648 85.4895 27.032H86.9655C86.7655 27.64 86.4015 28.14 85.8735 28.532C85.3535 28.916 84.7055 29.108 83.9295 29.108C83.2975 29.108 82.7295 28.968 82.2255 28.688C81.7295 28.4 81.3375 28 81.0495 27.488C80.7695 26.968 80.6295 26.368 80.6295 25.688C80.6295 25.008 80.7655 24.412 81.0375 23.9C81.3175 23.38 81.7055 22.98 82.2015 22.7C82.7055 22.42 83.2815 22.28 83.9295 22.28C84.5535 22.28 85.1095 22.416 85.5975 22.688C86.0855 22.96 86.4655 23.344 86.7375 23.84C87.0095 24.328 87.1455 24.892 87.1455 25.532ZM85.7175 25.1C85.7095 24.596 85.5295 24.192 85.1775 23.888C84.8255 23.584 84.3895 23.432 83.8695 23.432C83.3975 23.432 82.9935 23.584 82.6575 23.888C82.3215 24.184 82.1215 24.588 82.0575 25.1H85.7175ZM92.161 29.084C91.913 29.084 91.705 29 91.537 28.832C91.369 28.664 91.285 28.456 91.285 28.208C91.285 27.96 91.369 27.752 91.537 27.584C91.705 27.416 91.913 27.332 92.161 27.332C92.401 27.332 92.605 27.416 92.773 27.584C92.941 27.752 93.025 27.96 93.025 28.208C93.025 28.456 92.941 28.664 92.773 28.832C92.605 29 92.401 29.084 92.161 29.084ZM92.161 24.044C91.913 24.044 91.705 23.96 91.537 23.792C91.369 23.624 91.285 23.416 91.285 23.168C91.285 22.92 91.369 22.712 91.537 22.544C91.705 22.376 91.913 22.292 92.161 22.292C92.401 22.292 92.605 22.376 92.773 22.544C92.941 22.712 93.025 22.92 93.025 23.168C93.025 23.416 92.941 23.624 92.773 23.792C92.605 23.96 92.401 24.044 92.161 24.044ZM101.472 20.852L102.012 21.812L100.368 22.424L102.012 23.036L101.46 24.02L100.092 22.94L100.344 24.68H99.2396L99.4676 22.94L98.0996 24.044L97.5236 23.024L99.1556 22.412L97.5236 21.824L98.0756 20.84L99.4796 21.92L99.2396 20.168H100.356L100.092 21.92L101.472 20.852Z" fill="#010101"/>
</svg>
