<svg width="150" height="50" viewBox="0 0 150 50" fill="none" xmlns="http://www.w3.org/2000/svg">
<rect width="150" height="50" fill="#11C87B"/>
<path d="M55.1122 20.852L55.6522 21.812L54.0082 22.424L55.6522 23.036L55.1002 24.02L53.7322 22.94L53.9842 24.68H52.8802L53.1082 22.94L51.7402 24.044L51.1642 23.024L52.7962 22.412L51.1642 21.824L51.7162 20.84L53.1202 21.92L52.8802 20.168H53.9962L53.7322 21.92L55.1122 20.852ZM61.0243 29.084C60.7763 29.084 60.5683 29 60.4003 28.832C60.2323 28.664 60.1483 28.456 60.1483 28.208C60.1483 27.96 60.2323 27.752 60.4003 27.584C60.5683 27.416 60.7763 27.332 61.0243 27.332C61.2643 27.332 61.4683 27.416 61.6363 27.584C61.8043 27.752 61.8883 27.96 61.8883 28.208C61.8883 28.456 61.8043 28.664 61.6363 28.832C61.4683 29 61.2643 29.084 61.0243 29.084ZM61.0243 24.044C60.7763 24.044 60.5683 23.96 60.4003 23.792C60.2323 23.624 60.1483 23.416 60.1483 23.168C60.1483 22.92 60.2323 22.712 60.4003 22.544C60.5683 22.376 60.7763 22.292 61.0243 22.292C61.2643 22.292 61.4683 22.376 61.6363 22.544C61.8043 22.712 61.8883 22.92 61.8883 23.168C61.8883 23.416 61.8043 23.624 61.6363 23.792C61.4683 23.96 61.2643 24.044 61.0243 24.044ZM67.8989 23.36C68.1309 23.056 68.4469 22.8 68.8469 22.592C69.2469 22.384 69.6989 22.28 70.2029 22.28C70.7789 22.28 71.3029 22.424 71.7749 22.712C72.2549 22.992 72.6309 23.388 72.9029 23.9C73.1749 24.412 73.3109 25 73.3109 25.664C73.3109 26.328 73.1749 26.924 72.9029 27.452C72.6309 27.972 72.2549 28.38 71.7749 28.676C71.3029 28.964 70.7789 29.108 70.2029 29.108C69.6989 29.108 69.2509 29.008 68.8589 28.808C68.4669 28.6 68.1469 28.344 67.8989 28.04V32.144H66.5309V22.388H67.8989V23.36ZM71.9189 25.664C71.9189 25.208 71.8229 24.816 71.6309 24.488C71.4469 24.152 71.1989 23.9 70.8869 23.732C70.5829 23.556 70.2549 23.468 69.9029 23.468C69.5589 23.468 69.2309 23.556 68.9189 23.732C68.6149 23.908 68.3669 24.164 68.1749 24.5C67.9909 24.836 67.8989 25.232 67.8989 25.688C67.8989 26.144 67.9909 26.544 68.1749 26.888C68.3669 27.224 68.6149 27.48 68.9189 27.656C69.2309 27.832 69.5589 27.92 69.9029 27.92C70.2549 27.92 70.5829 27.832 70.8869 27.656C71.1989 27.472 71.4469 27.208 71.6309 26.864C71.8229 26.52 71.9189 26.12 71.9189 25.664ZM76.0317 23.348C76.2317 23.012 76.4957 22.752 76.8237 22.568C77.1597 22.376 77.5557 22.28 78.0117 22.28V23.696H77.6637C77.1277 23.696 76.7197 23.832 76.4397 24.104C76.1677 24.376 76.0317 24.848 76.0317 25.52V29H74.6637V22.388H76.0317V23.348ZM82.9383 29.084C82.6903 29.084 82.4823 29 82.3143 28.832C82.1463 28.664 82.0623 28.456 82.0623 28.208C82.0623 27.96 82.1463 27.752 82.3143 27.584C82.4823 27.416 82.6903 27.332 82.9383 27.332C83.1783 27.332 83.3823 27.416 83.5503 27.584C83.7183 27.752 83.8023 27.96 83.8023 28.208C83.8023 28.456 83.7183 28.664 83.5503 28.832C83.3823 29 83.1783 29.084 82.9383 29.084ZM82.9383 24.044C82.6903 24.044 82.4823 23.96 82.3143 23.792C82.1463 23.624 82.0623 23.416 82.0623 23.168C82.0623 22.92 82.1463 22.712 82.3143 22.544C82.4823 22.376 82.6903 22.292 82.9383 22.292C83.1783 22.292 83.3823 22.376 83.5503 22.544C83.7183 22.712 83.8023 22.92 83.8023 23.168C83.8023 23.416 83.7183 23.624 83.5503 23.792C83.3823 23.96 83.1783 24.044 82.9383 24.044ZM92.2489 20.852L92.7889 21.812L91.1449 22.424L92.7889 23.036L92.2369 24.02L90.8689 22.94L91.1209 24.68H90.0169L90.2449 22.94L88.8769 24.044L88.3009 23.024L89.9329 22.412L88.3009 21.824L88.8529 20.84L90.2569 21.92L90.0169 20.168H91.1329L90.8689 21.92L92.2489 20.852Z" fill="#010101"/>
</svg>
