<svg width="67" height="20" viewBox="0 0 67 20" fill="none" xmlns="http://www.w3.org/2000/svg">
<g filter="url(#filter0_d_17_136)">
<rect x="5" y="1" width="57" height="10" rx="1" fill="#EF927B" fill-opacity="0.67" style="mix-blend-mode:darken" shape-rendering="crispEdges"/>
<rect x="4.5" y="0.5" width="58" height="11" rx="1.5" stroke="#EF927B" shape-rendering="crispEdges"/>
</g>
<path d="M8.945 5.65C9.04167 5.52333 9.17333 5.41667 9.34 5.33C9.50667 5.24333 9.695 5.2 9.905 5.2C10.145 5.2 10.3633 5.26 10.56 5.38C10.76 5.49667 10.9167 5.66167 11.03 5.875C11.1433 6.08833 11.2 6.33333 11.2 6.61C11.2 6.88667 11.1433 7.135 11.03 7.355C10.9167 7.57167 10.76 7.74167 10.56 7.865C10.3633 7.985 10.145 8.045 9.905 8.045C9.695 8.045 9.50833 8.00333 9.345 7.92C9.18167 7.83333 9.04833 7.72667 8.945 7.6V9.31H8.375V5.245H8.945V5.65ZM10.62 6.61C10.62 6.42 10.58 6.25667 10.5 6.12C10.4233 5.98 10.32 5.875 10.19 5.805C10.0633 5.73167 9.92667 5.695 9.78 5.695C9.63667 5.695 9.5 5.73167 9.37 5.805C9.24333 5.87833 9.14 5.985 9.06 6.125C8.98333 6.265 8.945 6.43 8.945 6.62C8.945 6.81 8.98333 6.97667 9.06 7.12C9.14 7.26 9.24333 7.36667 9.37 7.44C9.5 7.51333 9.63667 7.55 9.78 7.55C9.92667 7.55 10.0633 7.51333 10.19 7.44C10.32 7.36333 10.4233 7.25333 10.5 7.11C10.58 6.96667 10.62 6.8 10.62 6.61ZM12.3337 5.645C12.417 5.505 12.527 5.39667 12.6637 5.32C12.8037 5.24 12.9687 5.2 13.1587 5.2V5.79H13.0137C12.7903 5.79 12.6203 5.84667 12.5037 5.96C12.3903 6.07333 12.3337 6.27 12.3337 6.55V8H11.7637V5.245H12.3337V5.645ZM13.9726 4.88C13.8693 4.88 13.7826 4.845 13.7126 4.775C13.6426 4.705 13.6076 4.61833 13.6076 4.515C13.6076 4.41167 13.6426 4.325 13.7126 4.255C13.7826 4.185 13.8693 4.15 13.9726 4.15C14.0726 4.15 14.1576 4.185 14.2276 4.255C14.2976 4.325 14.3326 4.41167 14.3326 4.515C14.3326 4.61833 14.2976 4.705 14.2276 4.775C14.1576 4.845 14.0726 4.88 13.9726 4.88ZM14.2526 5.245V8H13.6826V5.245H14.2526ZM16.196 8.045C15.936 8.045 15.701 7.98667 15.491 7.87C15.281 7.75 15.116 7.58333 14.996 7.37C14.876 7.15333 14.816 6.90333 14.816 6.62C14.816 6.34 14.8776 6.09167 15.001 5.875C15.1243 5.65833 15.2926 5.49167 15.506 5.375C15.7193 5.25833 15.9576 5.2 16.221 5.2C16.4843 5.2 16.7226 5.25833 16.936 5.375C17.1493 5.49167 17.3176 5.65833 17.441 5.875C17.5643 6.09167 17.626 6.34 17.626 6.62C17.626 6.9 17.5626 7.14833 17.436 7.365C17.3093 7.58167 17.136 7.75 16.916 7.87C16.6993 7.98667 16.4593 8.045 16.196 8.045ZM16.196 7.55C16.3426 7.55 16.4793 7.515 16.606 7.445C16.736 7.375 16.841 7.27 16.921 7.13C17.001 6.99 17.041 6.82 17.041 6.62C17.041 6.42 17.0026 6.25167 16.926 6.115C16.8493 5.975 16.7476 5.87 16.621 5.8C16.4943 5.73 16.3576 5.695 16.211 5.695C16.0643 5.695 15.9276 5.73 15.801 5.8C15.6776 5.87 15.5793 5.975 15.506 6.115C15.4326 6.25167 15.396 6.42 15.396 6.62C15.396 6.91667 15.471 7.14667 15.621 7.31C15.7743 7.47 15.966 7.55 16.196 7.55ZM18.7595 5.645C18.8428 5.505 18.9528 5.39667 19.0895 5.32C19.2295 5.24 19.3945 5.2 19.5845 5.2V5.79H19.4395C19.2161 5.79 19.0461 5.84667 18.9295 5.96C18.8161 6.07333 18.7595 6.27 18.7595 6.55V8H18.1895V5.245H18.7595V5.645ZM20.3984 4.88C20.2951 4.88 20.2084 4.845 20.1384 4.775C20.0684 4.705 20.0334 4.61833 20.0334 4.515C20.0334 4.41167 20.0684 4.325 20.1384 4.255C20.2084 4.185 20.2951 4.15 20.3984 4.15C20.4984 4.15 20.5834 4.185 20.6534 4.255C20.7234 4.325 20.7584 4.41167 20.7584 4.515C20.7584 4.61833 20.7234 4.705 20.6534 4.775C20.5834 4.845 20.4984 4.88 20.3984 4.88ZM20.6784 5.245V8H20.1084V5.245H20.6784ZM22.0918 5.71V7.235C22.0918 7.33833 22.1151 7.41333 22.1618 7.46C22.2118 7.50333 22.2951 7.525 22.4118 7.525H22.7618V8H22.3118C22.0551 8 21.8584 7.94 21.7218 7.82C21.5851 7.7 21.5168 7.505 21.5168 7.235V5.71H21.1918V5.245H21.5168V4.56H22.0918V5.245H22.7618V5.71H22.0918ZM25.7671 5.245L24.0771 9.295H23.4871L24.0471 7.955L22.9621 5.245H23.5971L24.3721 7.345L25.1771 5.245H25.7671ZM27.7261 8.035C27.6228 8.035 27.5361 8 27.4661 7.93C27.3961 7.86 27.3611 7.77333 27.3611 7.67C27.3611 7.56667 27.3961 7.48 27.4661 7.41C27.5361 7.34 27.6228 7.305 27.7261 7.305C27.8261 7.305 27.9111 7.34 27.9811 7.41C28.0511 7.48 28.0861 7.56667 28.0861 7.67C28.0861 7.77333 28.0511 7.86 27.9811 7.93C27.9111 8 27.8261 8.035 27.7261 8.035ZM27.7261 5.935C27.6228 5.935 27.5361 5.9 27.4661 5.83C27.3961 5.76 27.3611 5.67333 27.3611 5.57C27.3611 5.46667 27.3961 5.38 27.4661 5.31C27.5361 5.24 27.6228 5.205 27.7261 5.205C27.8261 5.205 27.9111 5.24 27.9811 5.31C28.0511 5.38 28.0861 5.46667 28.0861 5.57C28.0861 5.67333 28.0511 5.76 27.9811 5.83C27.9111 5.9 27.8261 5.935 27.7261 5.935ZM30.6855 5.71V7.235C30.6855 7.33833 30.7088 7.41333 30.7555 7.46C30.8055 7.50333 30.8888 7.525 31.0055 7.525H31.3555V8H30.9055C30.6488 8 30.4522 7.94 30.3155 7.82C30.1788 7.7 30.1105 7.505 30.1105 7.235V5.71H29.7855V5.245H30.1105V4.56H30.6855V5.245H31.3555V5.71H30.6855ZM33.3059 5.2C33.5159 5.2 33.7025 5.245 33.8659 5.335C34.0325 5.425 34.1625 5.55833 34.2559 5.735C34.3525 5.91167 34.4009 6.125 34.4009 6.375V8H33.8359V6.46C33.8359 6.21333 33.7742 6.025 33.6509 5.895C33.5275 5.76167 33.3592 5.695 33.1459 5.695C32.9325 5.695 32.7625 5.76167 32.6359 5.895C32.5125 6.025 32.4509 6.21333 32.4509 6.46V8H31.8809V4.3H32.4509V5.565C32.5475 5.44833 32.6692 5.35833 32.8159 5.295C32.9659 5.23167 33.1292 5.2 33.3059 5.2ZM35.4179 4.88C35.3146 4.88 35.2279 4.845 35.1579 4.775C35.0879 4.705 35.0529 4.61833 35.0529 4.515C35.0529 4.41167 35.0879 4.325 35.1579 4.255C35.2279 4.185 35.3146 4.15 35.4179 4.15C35.5179 4.15 35.6029 4.185 35.6729 4.255C35.7429 4.325 35.7779 4.41167 35.7779 4.515C35.7779 4.61833 35.7429 4.705 35.6729 4.775C35.6029 4.845 35.5179 4.88 35.4179 4.88ZM35.6979 5.245V8H35.1279V5.245H35.6979ZM37.4463 8.045C37.2296 8.045 37.0346 8.00667 36.8613 7.93C36.6913 7.85 36.5563 7.74333 36.4563 7.61C36.3563 7.47333 36.303 7.32167 36.2963 7.155H36.8863C36.8963 7.27167 36.9513 7.37 37.0513 7.45C37.1546 7.52667 37.283 7.565 37.4363 7.565C37.5963 7.565 37.7196 7.535 37.8063 7.475C37.8963 7.41167 37.9413 7.33167 37.9413 7.235C37.9413 7.13167 37.8913 7.055 37.7913 7.005C37.6946 6.955 37.5396 6.9 37.3263 6.84C37.1196 6.78333 36.9513 6.72833 36.8213 6.675C36.6913 6.62167 36.578 6.54 36.4813 6.43C36.388 6.32 36.3413 6.175 36.3413 5.995C36.3413 5.84833 36.3846 5.715 36.4713 5.595C36.558 5.47167 36.6813 5.375 36.8413 5.305C37.0046 5.235 37.1913 5.2 37.4013 5.2C37.7146 5.2 37.9663 5.28 38.1563 5.44C38.3496 5.59667 38.453 5.81167 38.4663 6.085H37.8963C37.8863 5.96167 37.8363 5.86333 37.7463 5.79C37.6563 5.71667 37.5346 5.68 37.3813 5.68C37.2313 5.68 37.1163 5.70833 37.0363 5.765C36.9563 5.82167 36.9163 5.89667 36.9163 5.99C36.9163 6.06333 36.943 6.125 36.9963 6.175C37.0496 6.225 37.1146 6.265 37.1913 6.295C37.268 6.32167 37.3813 6.35667 37.5313 6.4C37.7313 6.45333 37.8946 6.50833 38.0213 6.565C38.1513 6.61833 38.263 6.69833 38.3563 6.805C38.4496 6.91167 38.498 7.05333 38.5013 7.23C38.5013 7.38667 38.458 7.52667 38.3713 7.65C38.2846 7.77333 38.1613 7.87 38.0013 7.94C37.8446 8.01 37.6596 8.045 37.4463 8.045ZM41.2322 5.95V6.43H39.1772V5.95H41.2322ZM45.377 5.2C45.5937 5.2 45.787 5.245 45.957 5.335C46.1303 5.425 46.2653 5.55833 46.362 5.735C46.462 5.91167 46.512 6.125 46.512 6.375V8H45.947V6.46C45.947 6.21333 45.8853 6.025 45.762 5.895C45.6387 5.76167 45.4703 5.695 45.257 5.695C45.0437 5.695 44.8737 5.76167 44.747 5.895C44.6237 6.025 44.562 6.21333 44.562 6.46V8H43.997V6.46C43.997 6.21333 43.9353 6.025 43.812 5.895C43.6887 5.76167 43.5203 5.695 43.307 5.695C43.0937 5.695 42.9237 5.76167 42.797 5.895C42.6737 6.025 42.612 6.21333 42.612 6.46V8H42.042V5.245H42.612V5.56C42.7053 5.44667 42.8237 5.35833 42.967 5.295C43.1103 5.23167 43.2637 5.2 43.427 5.2C43.647 5.2 43.8437 5.24667 44.017 5.34C44.1903 5.43333 44.3237 5.56833 44.417 5.745C44.5003 5.57833 44.6303 5.44667 44.807 5.35C44.9837 5.25 45.1737 5.2 45.377 5.2ZM48.4323 8.045C48.1723 8.045 47.9373 7.98667 47.7273 7.87C47.5173 7.75 47.3523 7.58333 47.2323 7.37C47.1123 7.15333 47.0523 6.90333 47.0523 6.62C47.0523 6.34 47.114 6.09167 47.2373 5.875C47.3606 5.65833 47.529 5.49167 47.7423 5.375C47.9556 5.25833 48.194 5.2 48.4573 5.2C48.7206 5.2 48.959 5.25833 49.1723 5.375C49.3856 5.49167 49.554 5.65833 49.6773 5.875C49.8006 6.09167 49.8623 6.34 49.8623 6.62C49.8623 6.9 49.799 7.14833 49.6723 7.365C49.5456 7.58167 49.3723 7.75 49.1523 7.87C48.9356 7.98667 48.6956 8.045 48.4323 8.045ZM48.4323 7.55C48.579 7.55 48.7156 7.515 48.8423 7.445C48.9723 7.375 49.0773 7.27 49.1573 7.13C49.2373 6.99 49.2773 6.82 49.2773 6.62C49.2773 6.42 49.239 6.25167 49.1623 6.115C49.0856 5.975 48.984 5.87 48.8573 5.8C48.7306 5.73 48.594 5.695 48.4473 5.695C48.3006 5.695 48.164 5.73 48.0373 5.8C47.914 5.87 47.8156 5.975 47.7423 6.115C47.669 6.25167 47.6323 6.42 47.6323 6.62C47.6323 6.91667 47.7073 7.14667 47.8573 7.31C48.0106 7.47 48.2023 7.55 48.4323 7.55ZM51.8158 5.2C52.0324 5.2 52.2258 5.245 52.3958 5.335C52.5691 5.425 52.7041 5.55833 52.8008 5.735C52.8974 5.91167 52.9458 6.125 52.9458 6.375V8H52.3808V6.46C52.3808 6.21333 52.3191 6.025 52.1958 5.895C52.0724 5.76167 51.9041 5.695 51.6908 5.695C51.4774 5.695 51.3074 5.76167 51.1808 5.895C51.0574 6.025 50.9958 6.21333 50.9958 6.46V8H50.4258V5.245H50.9958V5.56C51.0891 5.44667 51.2074 5.35833 51.3508 5.295C51.4974 5.23167 51.6524 5.2 51.8158 5.2ZM54.3379 5.71V7.235C54.3379 7.33833 54.3612 7.41333 54.4079 7.46C54.4579 7.50333 54.5412 7.525 54.6579 7.525H55.0079V8H54.5579C54.3012 8 54.1045 7.94 53.9679 7.82C53.8312 7.7 53.7629 7.505 53.7629 7.235V5.71H53.4379V5.245H53.7629V4.56H54.3379V5.245H55.0079V5.71H54.3379ZM56.9582 5.2C57.1682 5.2 57.3549 5.245 57.5182 5.335C57.6849 5.425 57.8149 5.55833 57.9082 5.735C58.0049 5.91167 58.0532 6.125 58.0532 6.375V8H57.4882V6.46C57.4882 6.21333 57.4265 6.025 57.3032 5.895C57.1799 5.76167 57.0115 5.695 56.7982 5.695C56.5849 5.695 56.4149 5.76167 56.2882 5.895C56.1649 6.025 56.1032 6.21333 56.1032 6.46V8H55.5332V4.3H56.1032V5.565C56.1999 5.44833 56.3215 5.35833 56.4682 5.295C56.6182 5.23167 56.7815 5.2 56.9582 5.2Z" fill="black"/>
<defs>
<filter id="filter0_d_17_136" x="0" y="0" width="67" height="20" filterUnits="userSpaceOnUse" color-interpolation-filters="sRGB">
<feFlood flood-opacity="0" result="BackgroundImageFix"/>
<feColorMatrix in="SourceAlpha" type="matrix" values="0 0 0 0 0 0 0 0 0 0 0 0 0 0 0 0 0 0 127 0" result="hardAlpha"/>
<feOffset dy="4"/>
<feGaussianBlur stdDeviation="2"/>
<feComposite in2="hardAlpha" operator="out"/>
<feColorMatrix type="matrix" values="0 0 0 0 0 0 0 0 0 0 0 0 0 0 0 0 0 0 0.25 0"/>
<feBlend mode="normal" in2="BackgroundImageFix" result="effect1_dropShadow_17_136"/>
<feBlend mode="normal" in="SourceGraphic" in2="effect1_dropShadow_17_136" result="shape"/>
</filter>
</defs>
</svg>
