<svg width="50" height="20" viewBox="0 0 50 20" fill="none" xmlns="http://www.w3.org/2000/svg">
<g filter="url(#filter0_d_17_139)">
<rect x="5" y="1" width="40" height="10" rx="1" fill="#EF4444" fill-opacity="0.67" style="mix-blend-mode:darken" shape-rendering="crispEdges"/>
<rect x="4.5" y="0.5" width="41" height="11" rx="1.5" stroke="#EF4444" shape-rendering="crispEdges"/>
</g>
<path d="M8.945 5.65C9.04167 5.52333 9.17333 5.41667 9.34 5.33C9.50667 5.24333 9.695 5.2 9.905 5.2C10.145 5.2 10.3633 5.26 10.56 5.38C10.76 5.49667 10.9167 5.66167 11.03 5.875C11.1433 6.08833 11.2 6.33333 11.2 6.61C11.2 6.88667 11.1433 7.135 11.03 7.355C10.9167 7.57167 10.76 7.74167 10.56 7.865C10.3633 7.985 10.145 8.045 9.905 8.045C9.695 8.045 9.50833 8.00333 9.345 7.92C9.18167 7.83333 9.04833 7.72667 8.945 7.6V9.31H8.375V5.245H8.945V5.65ZM10.62 6.61C10.62 6.42 10.58 6.25667 10.5 6.12C10.4233 5.98 10.32 5.875 10.19 5.805C10.0633 5.73167 9.92667 5.695 9.78 5.695C9.63667 5.695 9.5 5.73167 9.37 5.805C9.24333 5.87833 9.14 5.985 9.06 6.125C8.98333 6.265 8.945 6.43 8.945 6.62C8.945 6.81 8.98333 6.97667 9.06 7.12C9.14 7.26 9.24333 7.36667 9.37 7.44C9.5 7.51333 9.63667 7.55 9.78 7.55C9.92667 7.55 10.0633 7.51333 10.19 7.44C10.32 7.36333 10.4233 7.25333 10.5 7.11C10.58 6.96667 10.62 6.8 10.62 6.61ZM12.3337 5.645C12.417 5.505 12.527 5.39667 12.6637 5.32C12.8037 5.24 12.9687 5.2 13.1587 5.2V5.79H13.0137C12.7903 5.79 12.6203 5.84667 12.5037 5.96C12.3903 6.07333 12.3337 6.27 12.3337 6.55V8H11.7637V5.245H12.3337V5.645ZM13.9726 4.88C13.8693 4.88 13.7826 4.845 13.7126 4.775C13.6426 4.705 13.6076 4.61833 13.6076 4.515C13.6076 4.41167 13.6426 4.325 13.7126 4.255C13.7826 4.185 13.8693 4.15 13.9726 4.15C14.0726 4.15 14.1576 4.185 14.2276 4.255C14.2976 4.325 14.3326 4.41167 14.3326 4.515C14.3326 4.61833 14.2976 4.705 14.2276 4.775C14.1576 4.845 14.0726 4.88 13.9726 4.88ZM14.2526 5.245V8H13.6826V5.245H14.2526ZM16.196 8.045C15.936 8.045 15.701 7.98667 15.491 7.87C15.281 7.75 15.116 7.58333 14.996 7.37C14.876 7.15333 14.816 6.90333 14.816 6.62C14.816 6.34 14.8776 6.09167 15.001 5.875C15.1243 5.65833 15.2926 5.49167 15.506 5.375C15.7193 5.25833 15.9576 5.2 16.221 5.2C16.4843 5.2 16.7226 5.25833 16.936 5.375C17.1493 5.49167 17.3176 5.65833 17.441 5.875C17.5643 6.09167 17.626 6.34 17.626 6.62C17.626 6.9 17.5626 7.14833 17.436 7.365C17.3093 7.58167 17.136 7.75 16.916 7.87C16.6993 7.98667 16.4593 8.045 16.196 8.045ZM16.196 7.55C16.3426 7.55 16.4793 7.515 16.606 7.445C16.736 7.375 16.841 7.27 16.921 7.13C17.001 6.99 17.041 6.82 17.041 6.62C17.041 6.42 17.0026 6.25167 16.926 6.115C16.8493 5.975 16.7476 5.87 16.621 5.8C16.4943 5.73 16.3576 5.695 16.211 5.695C16.0643 5.695 15.9276 5.73 15.801 5.8C15.6776 5.87 15.5793 5.975 15.506 6.115C15.4326 6.25167 15.396 6.42 15.396 6.62C15.396 6.91667 15.471 7.14667 15.621 7.31C15.7743 7.47 15.966 7.55 16.196 7.55ZM18.7595 5.645C18.8428 5.505 18.9528 5.39667 19.0895 5.32C19.2295 5.24 19.3945 5.2 19.5845 5.2V5.79H19.4395C19.2161 5.79 19.0461 5.84667 18.9295 5.96C18.8161 6.07333 18.7595 6.27 18.7595 6.55V8H18.1895V5.245H18.7595V5.645ZM20.3984 4.88C20.2951 4.88 20.2084 4.845 20.1384 4.775C20.0684 4.705 20.0334 4.61833 20.0334 4.515C20.0334 4.41167 20.0684 4.325 20.1384 4.255C20.2084 4.185 20.2951 4.15 20.3984 4.15C20.4984 4.15 20.5834 4.185 20.6534 4.255C20.7234 4.325 20.7584 4.41167 20.7584 4.515C20.7584 4.61833 20.7234 4.705 20.6534 4.775C20.5834 4.845 20.4984 4.88 20.3984 4.88ZM20.6784 5.245V8H20.1084V5.245H20.6784ZM22.0918 5.71V7.235C22.0918 7.33833 22.1151 7.41333 22.1618 7.46C22.2118 7.50333 22.2951 7.525 22.4118 7.525H22.7618V8H22.3118C22.0551 8 21.8584 7.94 21.7218 7.82C21.5851 7.7 21.5168 7.505 21.5168 7.235V5.71H21.1918V5.245H21.5168V4.56H22.0918V5.245H22.7618V5.71H22.0918ZM25.7671 5.245L24.0771 9.295H23.4871L24.0471 7.955L22.9621 5.245H23.5971L24.3721 7.345L25.1771 5.245H25.7671ZM27.7261 8.035C27.6228 8.035 27.5361 8 27.4661 7.93C27.3961 7.86 27.3611 7.77333 27.3611 7.67C27.3611 7.56667 27.3961 7.48 27.4661 7.41C27.5361 7.34 27.6228 7.305 27.7261 7.305C27.8261 7.305 27.9111 7.34 27.9811 7.41C28.0511 7.48 28.0861 7.56667 28.0861 7.67C28.0861 7.77333 28.0511 7.86 27.9811 7.93C27.9111 8 27.8261 8.035 27.7261 8.035ZM27.7261 5.935C27.6228 5.935 27.5361 5.9 27.4661 5.83C27.3961 5.76 27.3611 5.67333 27.3611 5.57C27.3611 5.46667 27.3961 5.38 27.4661 5.31C27.5361 5.24 27.6228 5.205 27.7261 5.205C27.8261 5.205 27.9111 5.24 27.9811 5.31C28.0511 5.38 28.0861 5.46667 28.0861 5.57C28.0861 5.67333 28.0511 5.76 27.9811 5.83C27.9111 5.9 27.8261 5.935 27.7261 5.935ZM31.4105 5.2C31.6272 5.2 31.8205 5.245 31.9905 5.335C32.1638 5.425 32.2988 5.55833 32.3955 5.735C32.4922 5.91167 32.5405 6.125 32.5405 6.375V8H31.9755V6.46C31.9755 6.21333 31.9138 6.025 31.7905 5.895C31.6672 5.76167 31.4988 5.695 31.2855 5.695C31.0722 5.695 30.9022 5.76167 30.7755 5.895C30.6522 6.025 30.5905 6.21333 30.5905 6.46V8H30.0205V5.245H30.5905V5.56C30.6838 5.44667 30.8022 5.35833 30.9455 5.295C31.0922 5.23167 31.2472 5.2 31.4105 5.2ZM34.4626 8.045C34.2026 8.045 33.9676 7.98667 33.7576 7.87C33.5476 7.75 33.3826 7.58333 33.2626 7.37C33.1426 7.15333 33.0826 6.90333 33.0826 6.62C33.0826 6.34 33.1442 6.09167 33.2676 5.875C33.3909 5.65833 33.5592 5.49167 33.7726 5.375C33.9859 5.25833 34.2242 5.2 34.4876 5.2C34.7509 5.2 34.9892 5.25833 35.2026 5.375C35.4159 5.49167 35.5842 5.65833 35.7076 5.875C35.8309 6.09167 35.8926 6.34 35.8926 6.62C35.8926 6.9 35.8292 7.14833 35.7026 7.365C35.5759 7.58167 35.4026 7.75 35.1826 7.87C34.9659 7.98667 34.7259 8.045 34.4626 8.045ZM34.4626 7.55C34.6092 7.55 34.7459 7.515 34.8726 7.445C35.0026 7.375 35.1076 7.27 35.1876 7.13C35.2676 6.99 35.3076 6.82 35.3076 6.62C35.3076 6.42 35.2692 6.25167 35.1926 6.115C35.1159 5.975 35.0142 5.87 34.8876 5.8C34.7609 5.73 34.6242 5.695 34.4776 5.695C34.3309 5.695 34.1942 5.73 34.0676 5.8C33.9442 5.87 33.8459 5.975 33.7726 6.115C33.6992 6.25167 33.6626 6.42 33.6626 6.62C33.6626 6.91667 33.7376 7.14667 33.8876 7.31C34.0409 7.47 34.2326 7.55 34.4626 7.55ZM40.1561 5.245L39.3011 8H38.7011L38.1461 5.965L37.5911 8H36.9911L36.1311 5.245H36.7111L37.2861 7.46L37.8711 5.245H38.4661L39.0261 7.45L39.5961 5.245H40.1561Z" fill="black"/>
<defs>
<filter id="filter0_d_17_139" x="0" y="0" width="50" height="20" filterUnits="userSpaceOnUse" color-interpolation-filters="sRGB">
<feFlood flood-opacity="0" result="BackgroundImageFix"/>
<feColorMatrix in="SourceAlpha" type="matrix" values="0 0 0 0 0 0 0 0 0 0 0 0 0 0 0 0 0 0 127 0" result="hardAlpha"/>
<feOffset dy="4"/>
<feGaussianBlur stdDeviation="2"/>
<feComposite in2="hardAlpha" operator="out"/>
<feColorMatrix type="matrix" values="0 0 0 0 0 0 0 0 0 0 0 0 0 0 0 0 0 0 0.25 0"/>
<feBlend mode="normal" in2="BackgroundImageFix" result="effect1_dropShadow_17_139"/>
<feBlend mode="normal" in="SourceGraphic" in2="effect1_dropShadow_17_139" result="shape"/>
</filter>
</defs>
</svg>
