<svg width="150" height="50" viewBox="0 0 150 50" fill="none" xmlns="http://www.w3.org/2000/svg">
<rect width="150" height="50" fill="#EF927B"/>
<path d="M50.352 23.36C50.584 23.056 50.9 22.8 51.3 22.592C51.7 22.384 52.152 22.28 52.656 22.28C53.232 22.28 53.756 22.424 54.228 22.712C54.708 22.992 55.084 23.388 55.356 23.9C55.628 24.412 55.764 25 55.764 25.664C55.764 26.328 55.628 26.924 55.356 27.452C55.084 27.972 54.708 28.38 54.228 28.676C53.756 28.964 53.232 29.108 52.656 29.108C52.152 29.108 51.704 29.008 51.312 28.808C50.92 28.6 50.6 28.344 50.352 28.04V32.144H48.984V22.388H50.352V23.36ZM54.372 25.664C54.372 25.208 54.276 24.816 54.084 24.488C53.9 24.152 53.652 23.9 53.34 23.732C53.036 23.556 52.708 23.468 52.356 23.468C52.012 23.468 51.684 23.556 51.372 23.732C51.068 23.908 50.82 24.164 50.628 24.5C50.444 24.836 50.352 25.232 50.352 25.688C50.352 26.144 50.444 26.544 50.628 26.888C50.82 27.224 51.068 27.48 51.372 27.656C51.684 27.832 52.012 27.92 52.356 27.92C52.708 27.92 53.036 27.832 53.34 27.656C53.652 27.472 53.9 27.208 54.084 26.864C54.276 26.52 54.372 26.12 54.372 25.664ZM58.4848 23.348C58.6848 23.012 58.9488 22.752 59.2768 22.568C59.6128 22.376 60.0088 22.28 60.4648 22.28V23.696H60.1168C59.5808 23.696 59.1728 23.832 58.8928 24.104C58.6208 24.376 58.4848 24.848 58.4848 25.52V29H57.1168V22.388H58.4848V23.348ZM62.4183 21.512C62.1703 21.512 61.9623 21.428 61.7943 21.26C61.6263 21.092 61.5423 20.884 61.5423 20.636C61.5423 20.388 61.6263 20.18 61.7943 20.012C61.9623 19.844 62.1703 19.76 62.4183 19.76C62.6583 19.76 62.8623 19.844 63.0303 20.012C63.1983 20.18 63.2823 20.388 63.2823 20.636C63.2823 20.884 63.1983 21.092 63.0303 21.26C62.8623 21.428 62.6583 21.512 62.4183 21.512ZM63.0903 22.388V29H61.7223V22.388H63.0903ZM67.7543 29.108C67.1303 29.108 66.5663 28.968 66.0623 28.688C65.5583 28.4 65.1623 28 64.8743 27.488C64.5863 26.968 64.4423 26.368 64.4423 25.688C64.4423 25.016 64.5903 24.42 64.8863 23.9C65.1823 23.38 65.5863 22.98 66.0983 22.7C66.6103 22.42 67.1823 22.28 67.8143 22.28C68.4463 22.28 69.0183 22.42 69.5303 22.7C70.0423 22.98 70.4463 23.38 70.7423 23.9C71.0383 24.42 71.1863 25.016 71.1863 25.688C71.1863 26.36 71.0343 26.956 70.7303 27.476C70.4263 27.996 70.0103 28.4 69.4823 28.688C68.9623 28.968 68.3863 29.108 67.7543 29.108ZM67.7543 27.92C68.1063 27.92 68.4343 27.836 68.7383 27.668C69.0503 27.5 69.3023 27.248 69.4943 26.912C69.6863 26.576 69.7823 26.168 69.7823 25.688C69.7823 25.208 69.6903 24.804 69.5063 24.476C69.3223 24.14 69.0783 23.888 68.7743 23.72C68.4703 23.552 68.1423 23.468 67.7903 23.468C67.4383 23.468 67.1103 23.552 66.8063 23.72C66.5103 23.888 66.2743 24.14 66.0983 24.476C65.9223 24.804 65.8343 25.208 65.8343 25.688C65.8343 26.4 66.0143 26.952 66.3743 27.344C66.7423 27.728 67.2023 27.92 67.7543 27.92ZM73.9067 23.348C74.1067 23.012 74.3707 22.752 74.6987 22.568C75.0347 22.376 75.4307 22.28 75.8867 22.28V23.696H75.5387C75.0027 23.696 74.5947 23.832 74.3147 24.104C74.0427 24.376 73.9067 24.848 73.9067 25.52V29H72.5387V22.388H73.9067V23.348ZM77.8401 21.512C77.5921 21.512 77.3841 21.428 77.2161 21.26C77.0481 21.092 76.9641 20.884 76.9641 20.636C76.9641 20.388 77.0481 20.18 77.2161 20.012C77.3841 19.844 77.5921 19.76 77.8401 19.76C78.0801 19.76 78.2841 19.844 78.4521 20.012C78.6201 20.18 78.7041 20.388 78.7041 20.636C78.7041 20.884 78.6201 21.092 78.4521 21.26C78.2841 21.428 78.0801 21.512 77.8401 21.512ZM78.5121 22.388V29H77.1441V22.388H78.5121ZM81.9042 23.504V27.164C81.9042 27.412 81.9602 27.592 82.0722 27.704C82.1922 27.808 82.3922 27.86 82.6722 27.86H83.5122V29H82.4322C81.8162 29 81.3442 28.856 81.0162 28.568C80.6882 28.28 80.5242 27.812 80.5242 27.164V23.504H79.7442V22.388H80.5242V20.744H81.9042V22.388H83.5122V23.504H81.9042ZM90.725 22.388L86.669 32.108H85.253L86.597 28.892L83.993 22.388H85.517L87.377 27.428L89.309 22.388H90.725ZM95.4266 29.084C95.1786 29.084 94.9706 29 94.8026 28.832C94.6346 28.664 94.5506 28.456 94.5506 28.208C94.5506 27.96 94.6346 27.752 94.8026 27.584C94.9706 27.416 95.1786 27.332 95.4266 27.332C95.6666 27.332 95.8706 27.416 96.0386 27.584C96.2066 27.752 96.2906 27.96 96.2906 28.208C96.2906 28.456 96.2066 28.664 96.0386 28.832C95.8706 29 95.6666 29.084 95.4266 29.084ZM95.4266 24.044C95.1786 24.044 94.9706 23.96 94.8026 23.792C94.6346 23.624 94.5506 23.416 94.5506 23.168C94.5506 22.92 94.6346 22.712 94.8026 22.544C94.9706 22.376 95.1786 22.292 95.4266 22.292C95.6666 22.292 95.8706 22.376 96.0386 22.544C96.2066 22.712 96.2906 22.92 96.2906 23.168C96.2906 23.416 96.2066 23.624 96.0386 23.792C95.8706 23.96 95.6666 24.044 95.4266 24.044Z" fill="#010101"/>
</svg>
