<svg width="50" height="20" viewBox="0 0 50 20" fill="none" xmlns="http://www.w3.org/2000/svg">
<g filter="url(#filter0_d_17_136)">
<rect x="5" y="1" width="40" height="10" rx="1" fill="#EF927B" fill-opacity="0.67" style="mix-blend-mode:darken" shape-rendering="crispEdges"/>
<rect x="4.5" y="0.5" width="41" height="11" rx="1.5" stroke="#EF927B" shape-rendering="crispEdges"/>
</g>
<path d="M8.945 5.65C9.04167 5.52333 9.17333 5.41667 9.34 5.33C9.50667 5.24333 9.695 5.2 9.905 5.2C10.145 5.2 10.3633 5.26 10.56 5.38C10.76 5.49667 10.9167 5.66167 11.03 5.875C11.1433 6.08833 11.2 6.33333 11.2 6.61C11.2 6.88667 11.1433 7.135 11.03 7.355C10.9167 7.57167 10.76 7.74167 10.56 7.865C10.3633 7.985 10.145 8.045 9.905 8.045C9.695 8.045 9.50833 8.00333 9.345 7.92C9.18167 7.83333 9.04833 7.72667 8.945 7.6V9.31H8.375V5.245H8.945V5.65ZM10.62 6.61C10.62 6.42 10.58 6.25667 10.5 6.12C10.4233 5.98 10.32 5.875 10.19 5.805C10.0633 5.73167 9.92667 5.695 9.78 5.695C9.63667 5.695 9.5 5.73167 9.37 5.805C9.24333 5.87833 9.14 5.985 9.06 6.125C8.98333 6.265 8.945 6.43 8.945 6.62C8.945 6.81 8.98333 6.97667 9.06 7.12C9.14 7.26 9.24333 7.36667 9.37 7.44C9.5 7.51333 9.63667 7.55 9.78 7.55C9.92667 7.55 10.0633 7.51333 10.19 7.44C10.32 7.36333 10.4233 7.25333 10.5 7.11C10.58 6.96667 10.62 6.8 10.62 6.61ZM12.3337 5.645C12.417 5.505 12.527 5.39667 12.6637 5.32C12.8037 5.24 12.9687 5.2 13.1587 5.2V5.79H13.0137C12.7903 5.79 12.6203 5.84667 12.5037 5.96C12.3903 6.07333 12.3337 6.27 12.3337 6.55V8H11.7637V5.245H12.3337V5.645ZM13.9726 4.88C13.8693 4.88 13.7826 4.845 13.7126 4.775C13.6426 4.705 13.6076 4.61833 13.6076 4.515C13.6076 4.41167 13.6426 4.325 13.7126 4.255C13.7826 4.185 13.8693 4.15 13.9726 4.15C14.0726 4.15 14.1576 4.185 14.2276 4.255C14.2976 4.325 14.3326 4.41167 14.3326 4.515C14.3326 4.61833 14.2976 4.705 14.2276 4.775C14.1576 4.845 14.0726 4.88 13.9726 4.88ZM14.2526 5.245V8H13.6826V5.245H14.2526ZM16.196 8.045C15.936 8.045 15.701 7.98667 15.491 7.87C15.281 7.75 15.116 7.58333 14.996 7.37C14.876 7.15333 14.816 6.90333 14.816 6.62C14.816 6.34 14.8776 6.09167 15.001 5.875C15.1243 5.65833 15.2926 5.49167 15.506 5.375C15.7193 5.25833 15.9576 5.2 16.221 5.2C16.4843 5.2 16.7226 5.25833 16.936 5.375C17.1493 5.49167 17.3176 5.65833 17.441 5.875C17.5643 6.09167 17.626 6.34 17.626 6.62C17.626 6.9 17.5626 7.14833 17.436 7.365C17.3093 7.58167 17.136 7.75 16.916 7.87C16.6993 7.98667 16.4593 8.045 16.196 8.045ZM16.196 7.55C16.3426 7.55 16.4793 7.515 16.606 7.445C16.736 7.375 16.841 7.27 16.921 7.13C17.001 6.99 17.041 6.82 17.041 6.62C17.041 6.42 17.0026 6.25167 16.926 6.115C16.8493 5.975 16.7476 5.87 16.621 5.8C16.4943 5.73 16.3576 5.695 16.211 5.695C16.0643 5.695 15.9276 5.73 15.801 5.8C15.6776 5.87 15.5793 5.975 15.506 6.115C15.4326 6.25167 15.396 6.42 15.396 6.62C15.396 6.91667 15.471 7.14667 15.621 7.31C15.7743 7.47 15.966 7.55 16.196 7.55ZM18.7595 5.645C18.8428 5.505 18.9528 5.39667 19.0895 5.32C19.2295 5.24 19.3945 5.2 19.5845 5.2V5.79H19.4395C19.2161 5.79 19.0461 5.84667 18.9295 5.96C18.8161 6.07333 18.7595 6.27 18.7595 6.55V8H18.1895V5.245H18.7595V5.645ZM20.3984 4.88C20.2951 4.88 20.2084 4.845 20.1384 4.775C20.0684 4.705 20.0334 4.61833 20.0334 4.515C20.0334 4.41167 20.0684 4.325 20.1384 4.255C20.2084 4.185 20.2951 4.15 20.3984 4.15C20.4984 4.15 20.5834 4.185 20.6534 4.255C20.7234 4.325 20.7584 4.41167 20.7584 4.515C20.7584 4.61833 20.7234 4.705 20.6534 4.775C20.5834 4.845 20.4984 4.88 20.3984 4.88ZM20.6784 5.245V8H20.1084V5.245H20.6784ZM22.0918 5.71V7.235C22.0918 7.33833 22.1151 7.41333 22.1618 7.46C22.2118 7.50333 22.2951 7.525 22.4118 7.525H22.7618V8H22.3118C22.0551 8 21.8584 7.94 21.7218 7.82C21.5851 7.7 21.5168 7.505 21.5168 7.235V5.71H21.1918V5.245H21.5168V4.56H22.0918V5.245H22.7618V5.71H22.0918ZM25.7671 5.245L24.0771 9.295H23.4871L24.0471 7.955L22.9621 5.245H23.5971L24.3721 7.345L25.1771 5.245H25.7671ZM27.7261 8.035C27.6228 8.035 27.5361 8 27.4661 7.93C27.3961 7.86 27.3611 7.77333 27.3611 7.67C27.3611 7.56667 27.3961 7.48 27.4661 7.41C27.5361 7.34 27.6228 7.305 27.7261 7.305C27.8261 7.305 27.9111 7.34 27.9811 7.41C28.0511 7.48 28.0861 7.56667 28.0861 7.67C28.0861 7.77333 28.0511 7.86 27.9811 7.93C27.9111 8 27.8261 8.035 27.7261 8.035ZM27.7261 5.935C27.6228 5.935 27.5361 5.9 27.4661 5.83C27.3961 5.76 27.3611 5.67333 27.3611 5.57C27.3611 5.46667 27.3961 5.38 27.4661 5.31C27.5361 5.24 27.6228 5.205 27.7261 5.205C27.8261 5.205 27.9111 5.24 27.9811 5.31C28.0511 5.38 28.0861 5.46667 28.0861 5.57C28.0861 5.67333 28.0511 5.76 27.9811 5.83C27.9111 5.9 27.8261 5.935 27.7261 5.935ZM31.0205 8.045C30.8038 8.045 30.6088 8.00667 30.4355 7.93C30.2655 7.85 30.1305 7.74333 30.0305 7.61C29.9305 7.47333 29.8772 7.32167 29.8705 7.155H30.4605C30.4705 7.27167 30.5255 7.37 30.6255 7.45C30.7288 7.52667 30.8572 7.565 31.0105 7.565C31.1705 7.565 31.2938 7.535 31.3805 7.475C31.4705 7.41167 31.5155 7.33167 31.5155 7.235C31.5155 7.13167 31.4655 7.055 31.3655 7.005C31.2688 6.955 31.1138 6.9 30.9005 6.84C30.6938 6.78333 30.5255 6.72833 30.3955 6.675C30.2655 6.62167 30.1522 6.54 30.0555 6.43C29.9622 6.32 29.9155 6.175 29.9155 5.995C29.9155 5.84833 29.9588 5.715 30.0455 5.595C30.1322 5.47167 30.2555 5.375 30.4155 5.305C30.5788 5.235 30.7655 5.2 30.9755 5.2C31.2888 5.2 31.5405 5.28 31.7305 5.44C31.9238 5.59667 32.0272 5.81167 32.0405 6.085H31.4705C31.4605 5.96167 31.4105 5.86333 31.3205 5.79C31.2305 5.71667 31.1088 5.68 30.9555 5.68C30.8055 5.68 30.6905 5.70833 30.6105 5.765C30.5305 5.82167 30.4905 5.89667 30.4905 5.99C30.4905 6.06333 30.5172 6.125 30.5705 6.175C30.6238 6.225 30.6888 6.265 30.7655 6.295C30.8422 6.32167 30.9555 6.35667 31.1055 6.4C31.3055 6.45333 31.4688 6.50833 31.5955 6.565C31.7255 6.61833 31.8372 6.69833 31.9305 6.805C32.0238 6.91167 32.0722 7.05333 32.0755 7.23C32.0755 7.38667 32.0322 7.52667 31.9455 7.65C31.8588 7.77333 31.7355 7.87 31.5755 7.94C31.4188 8.01 31.2338 8.045 31.0205 8.045ZM33.8864 8.045C33.6264 8.045 33.3914 7.98667 33.1814 7.87C32.9714 7.75 32.8064 7.58333 32.6864 7.37C32.5664 7.15333 32.5064 6.90333 32.5064 6.62C32.5064 6.34 32.5681 6.09167 32.6914 5.875C32.8147 5.65833 32.9831 5.49167 33.1964 5.375C33.4097 5.25833 33.6481 5.2 33.9114 5.2C34.1747 5.2 34.4131 5.25833 34.6264 5.375C34.8397 5.49167 35.0081 5.65833 35.1314 5.875C35.2547 6.09167 35.3164 6.34 35.3164 6.62C35.3164 6.9 35.2531 7.14833 35.1264 7.365C34.9997 7.58167 34.8264 7.75 34.6064 7.87C34.3897 7.98667 34.1497 8.045 33.8864 8.045ZM33.8864 7.55C34.0331 7.55 34.1697 7.515 34.2964 7.445C34.4264 7.375 34.5314 7.27 34.6114 7.13C34.6914 6.99 34.7314 6.82 34.7314 6.62C34.7314 6.42 34.6931 6.25167 34.6164 6.115C34.5397 5.975 34.4381 5.87 34.3114 5.8C34.1847 5.73 34.0481 5.695 33.9014 5.695C33.7547 5.695 33.6181 5.73 33.4914 5.8C33.3681 5.87 33.2697 5.975 33.1964 6.115C33.1231 6.25167 33.0864 6.42 33.0864 6.62C33.0864 6.91667 33.1614 7.14667 33.3114 7.31C33.4647 7.47 33.6564 7.55 33.8864 7.55ZM37.0749 8.045C36.8149 8.045 36.5799 7.98667 36.3699 7.87C36.1599 7.75 35.9949 7.58333 35.8749 7.37C35.7549 7.15333 35.6949 6.90333 35.6949 6.62C35.6949 6.34 35.7565 6.09167 35.8799 5.875C36.0032 5.65833 36.1715 5.49167 36.3849 5.375C36.5982 5.25833 36.8365 5.2 37.0999 5.2C37.3632 5.2 37.6015 5.25833 37.8149 5.375C38.0282 5.49167 38.1965 5.65833 38.3199 5.875C38.4432 6.09167 38.5049 6.34 38.5049 6.62C38.5049 6.9 38.4415 7.14833 38.3149 7.365C38.1882 7.58167 38.0149 7.75 37.7949 7.87C37.5782 7.98667 37.3382 8.045 37.0749 8.045ZM37.0749 7.55C37.2215 7.55 37.3582 7.515 37.4849 7.445C37.6149 7.375 37.7199 7.27 37.7999 7.13C37.8799 6.99 37.9199 6.82 37.9199 6.62C37.9199 6.42 37.8815 6.25167 37.8049 6.115C37.7282 5.975 37.6265 5.87 37.4999 5.8C37.3732 5.73 37.2365 5.695 37.0899 5.695C36.9432 5.695 36.8065 5.73 36.6799 5.8C36.5565 5.87 36.4582 5.975 36.3849 6.115C36.3115 6.25167 36.2749 6.42 36.2749 6.62C36.2749 6.91667 36.3499 7.14667 36.4999 7.31C36.6532 7.47 36.8449 7.55 37.0749 7.55ZM40.4584 5.2C40.675 5.2 40.8684 5.245 41.0384 5.335C41.2117 5.425 41.3467 5.55833 41.4434 5.735C41.54 5.91167 41.5884 6.125 41.5884 6.375V8H41.0234V6.46C41.0234 6.21333 40.9617 6.025 40.8384 5.895C40.715 5.76167 40.5467 5.695 40.3334 5.695C40.12 5.695 39.95 5.76167 39.8234 5.895C39.7 6.025 39.6384 6.21333 39.6384 6.46V8H39.0684V5.245H39.6384V5.56C39.7317 5.44667 39.85 5.35833 39.9934 5.295C40.14 5.23167 40.295 5.2 40.4584 5.2Z" fill="black"/>
<defs>
<filter id="filter0_d_17_136" x="0" y="0" width="50" height="20" filterUnits="userSpaceOnUse" color-interpolation-filters="sRGB">
<feFlood flood-opacity="0" result="BackgroundImageFix"/>
<feColorMatrix in="SourceAlpha" type="matrix" values="0 0 0 0 0 0 0 0 0 0 0 0 0 0 0 0 0 0 127 0" result="hardAlpha"/>
<feOffset dy="4"/>
<feGaussianBlur stdDeviation="2"/>
<feComposite in2="hardAlpha" operator="out"/>
<feColorMatrix type="matrix" values="0 0 0 0 0 0 0 0 0 0 0 0 0 0 0 0 0 0 0.25 0"/>
<feBlend mode="normal" in2="BackgroundImageFix" result="effect1_dropShadow_17_136"/>
<feBlend mode="normal" in="SourceGraphic" in2="effect1_dropShadow_17_136" result="shape"/>
</filter>
</defs>
</svg>
