<svg width="56" height="20" viewBox="0 0 56 20" fill="none" xmlns="http://www.w3.org/2000/svg">
<g filter="url(#filter0_d_17_142)">
<rect x="5" y="1" width="46" height="10" rx="1" fill="#8C0D10" fill-opacity="0.67" style="mix-blend-mode:darken" shape-rendering="crispEdges"/>
<rect x="4.5" y="0.5" width="47" height="11" rx="1.5" stroke="#8C0D10" shape-rendering="crispEdges"/>
</g>
<path d="M8.945 5.65C9.04167 5.52333 9.17333 5.41667 9.34 5.33C9.50667 5.24333 9.695 5.2 9.905 5.2C10.145 5.2 10.3633 5.26 10.56 5.38C10.76 5.49667 10.9167 5.66167 11.03 5.875C11.1433 6.08833 11.2 6.33333 11.2 6.61C11.2 6.88667 11.1433 7.135 11.03 7.355C10.9167 7.57167 10.76 7.74167 10.56 7.865C10.3633 7.985 10.145 8.045 9.905 8.045C9.695 8.045 9.50833 8.00333 9.345 7.92C9.18167 7.83333 9.04833 7.72667 8.945 7.6V9.31H8.375V5.245H8.945V5.65ZM10.62 6.61C10.62 6.42 10.58 6.25667 10.5 6.12C10.4233 5.98 10.32 5.875 10.19 5.805C10.0633 5.73167 9.92667 5.695 9.78 5.695C9.63667 5.695 9.5 5.73167 9.37 5.805C9.24333 5.87833 9.14 5.985 9.06 6.125C8.98333 6.265 8.945 6.43 8.945 6.62C8.945 6.81 8.98333 6.97667 9.06 7.12C9.14 7.26 9.24333 7.36667 9.37 7.44C9.5 7.51333 9.63667 7.55 9.78 7.55C9.92667 7.55 10.0633 7.51333 10.19 7.44C10.32 7.36333 10.4233 7.25333 10.5 7.11C10.58 6.96667 10.62 6.8 10.62 6.61ZM12.3337 5.645C12.417 5.505 12.527 5.39667 12.6637 5.32C12.8037 5.24 12.9687 5.2 13.1587 5.2V5.79H13.0137C12.7903 5.79 12.6203 5.84667 12.5037 5.96C12.3903 6.07333 12.3337 6.27 12.3337 6.55V8H11.7637V5.245H12.3337V5.645ZM13.9726 4.88C13.8693 4.88 13.7826 4.845 13.7126 4.775C13.6426 4.705 13.6076 4.61833 13.6076 4.515C13.6076 4.41167 13.6426 4.325 13.7126 4.255C13.7826 4.185 13.8693 4.15 13.9726 4.15C14.0726 4.15 14.1576 4.185 14.2276 4.255C14.2976 4.325 14.3326 4.41167 14.3326 4.515C14.3326 4.61833 14.2976 4.705 14.2276 4.775C14.1576 4.845 14.0726 4.88 13.9726 4.88ZM14.2526 5.245V8H13.6826V5.245H14.2526ZM16.196 8.045C15.936 8.045 15.701 7.98667 15.491 7.87C15.281 7.75 15.116 7.58333 14.996 7.37C14.876 7.15333 14.816 6.90333 14.816 6.62C14.816 6.34 14.8776 6.09167 15.001 5.875C15.1243 5.65833 15.2926 5.49167 15.506 5.375C15.7193 5.25833 15.9576 5.2 16.221 5.2C16.4843 5.2 16.7226 5.25833 16.936 5.375C17.1493 5.49167 17.3176 5.65833 17.441 5.875C17.5643 6.09167 17.626 6.34 17.626 6.62C17.626 6.9 17.5626 7.14833 17.436 7.365C17.3093 7.58167 17.136 7.75 16.916 7.87C16.6993 7.98667 16.4593 8.045 16.196 8.045ZM16.196 7.55C16.3426 7.55 16.4793 7.515 16.606 7.445C16.736 7.375 16.841 7.27 16.921 7.13C17.001 6.99 17.041 6.82 17.041 6.62C17.041 6.42 17.0026 6.25167 16.926 6.115C16.8493 5.975 16.7476 5.87 16.621 5.8C16.4943 5.73 16.3576 5.695 16.211 5.695C16.0643 5.695 15.9276 5.73 15.801 5.8C15.6776 5.87 15.5793 5.975 15.506 6.115C15.4326 6.25167 15.396 6.42 15.396 6.62C15.396 6.91667 15.471 7.14667 15.621 7.31C15.7743 7.47 15.966 7.55 16.196 7.55ZM18.7595 5.645C18.8428 5.505 18.9528 5.39667 19.0895 5.32C19.2295 5.24 19.3945 5.2 19.5845 5.2V5.79H19.4395C19.2161 5.79 19.0461 5.84667 18.9295 5.96C18.8161 6.07333 18.7595 6.27 18.7595 6.55V8H18.1895V5.245H18.7595V5.645ZM20.3984 4.88C20.2951 4.88 20.2084 4.845 20.1384 4.775C20.0684 4.705 20.0334 4.61833 20.0334 4.515C20.0334 4.41167 20.0684 4.325 20.1384 4.255C20.2084 4.185 20.2951 4.15 20.3984 4.15C20.4984 4.15 20.5834 4.185 20.6534 4.255C20.7234 4.325 20.7584 4.41167 20.7584 4.515C20.7584 4.61833 20.7234 4.705 20.6534 4.775C20.5834 4.845 20.4984 4.88 20.3984 4.88ZM20.6784 5.245V8H20.1084V5.245H20.6784ZM22.0918 5.71V7.235C22.0918 7.33833 22.1151 7.41333 22.1618 7.46C22.2118 7.50333 22.2951 7.525 22.4118 7.525H22.7618V8H22.3118C22.0551 8 21.8584 7.94 21.7218 7.82C21.5851 7.7 21.5168 7.505 21.5168 7.235V5.71H21.1918V5.245H21.5168V4.56H22.0918V5.245H22.7618V5.71H22.0918ZM25.7671 5.245L24.0771 9.295H23.4871L24.0471 7.955L22.9621 5.245H23.5971L24.3721 7.345L25.1771 5.245H25.7671ZM27.7261 8.035C27.6228 8.035 27.5361 8 27.4661 7.93C27.3961 7.86 27.3611 7.77333 27.3611 7.67C27.3611 7.56667 27.3961 7.48 27.4661 7.41C27.5361 7.34 27.6228 7.305 27.7261 7.305C27.8261 7.305 27.9111 7.34 27.9811 7.41C28.0511 7.48 28.0861 7.56667 28.0861 7.67C28.0861 7.77333 28.0511 7.86 27.9811 7.93C27.9111 8 27.8261 8.035 27.7261 8.035ZM27.7261 5.935C27.6228 5.935 27.5361 5.9 27.4661 5.83C27.3961 5.76 27.3611 5.67333 27.3611 5.57C27.3611 5.46667 27.3961 5.38 27.4661 5.31C27.5361 5.24 27.6228 5.205 27.7261 5.205C27.8261 5.205 27.9111 5.24 27.9811 5.31C28.0511 5.38 28.0861 5.46667 28.0861 5.57C28.0861 5.67333 28.0511 5.76 27.9811 5.83C27.9111 5.9 27.8261 5.935 27.7261 5.935ZM32.5155 5.245V8H31.9455V7.675C31.8555 7.78833 31.7372 7.87833 31.5905 7.945C31.4472 8.00833 31.2938 8.04 31.1305 8.04C30.9138 8.04 30.7188 7.995 30.5455 7.905C30.3755 7.815 30.2405 7.68167 30.1405 7.505C30.0438 7.32833 29.9955 7.115 29.9955 6.865V5.245H30.5605V6.78C30.5605 7.02667 30.6222 7.21667 30.7455 7.35C30.8688 7.48 31.0372 7.545 31.2505 7.545C31.4638 7.545 31.6322 7.48 31.7555 7.35C31.8822 7.21667 31.9455 7.02667 31.9455 6.78V5.245H32.5155ZM33.8376 5.645C33.9209 5.505 34.0309 5.39667 34.1676 5.32C34.3076 5.24 34.4726 5.2 34.6626 5.2V5.79H34.5176C34.2942 5.79 34.1242 5.84667 34.0076 5.96C33.8942 6.07333 33.8376 6.27 33.8376 6.55V8H33.2676V5.245H33.8376V5.645ZM36.2965 5.2C36.5099 5.2 36.6982 5.24333 36.8615 5.33C37.0282 5.41333 37.1582 5.51833 37.2515 5.645V5.245H37.8265V8.045C37.8265 8.29833 37.7732 8.52333 37.6665 8.72C37.5599 8.92 37.4049 9.07667 37.2015 9.19C37.0015 9.30333 36.7615 9.36 36.4815 9.36C36.1082 9.36 35.7982 9.27167 35.5515 9.095C35.3049 8.92167 35.1649 8.685 35.1315 8.385H35.6965C35.7399 8.52833 35.8315 8.64333 35.9715 8.73C36.1149 8.82 36.2849 8.865 36.4815 8.865C36.7115 8.865 36.8965 8.795 37.0365 8.655C37.1799 8.515 37.2515 8.31167 37.2515 8.045V7.585C37.1549 7.715 37.0232 7.825 36.8565 7.915C36.6932 8.00167 36.5065 8.045 36.2965 8.045C36.0565 8.045 35.8365 7.985 35.6365 7.865C35.4399 7.74167 35.2832 7.57167 35.1665 7.355C35.0532 7.135 34.9965 6.88667 34.9965 6.61C34.9965 6.33333 35.0532 6.08833 35.1665 5.875C35.2832 5.66167 35.4399 5.49667 35.6365 5.38C35.8365 5.26 36.0565 5.2 36.2965 5.2ZM37.2515 6.62C37.2515 6.43 37.2115 6.265 37.1315 6.125C37.0549 5.985 36.9532 5.87833 36.8265 5.805C36.6999 5.73167 36.5632 5.695 36.4165 5.695C36.2699 5.695 36.1332 5.73167 36.0065 5.805C35.8799 5.875 35.7765 5.98 35.6965 6.12C35.6199 6.25667 35.5815 6.42 35.5815 6.61C35.5815 6.8 35.6199 6.96667 35.6965 7.11C35.7765 7.25333 35.8799 7.36333 36.0065 7.44C36.1365 7.51333 36.2732 7.55 36.4165 7.55C36.5632 7.55 36.6999 7.51333 36.8265 7.44C36.9532 7.36667 37.0549 7.26 37.1315 7.12C37.2115 6.97667 37.2515 6.81 37.2515 6.62ZM41.1002 6.555C41.1002 6.65833 41.0935 6.75167 41.0802 6.835H38.9752C38.9919 7.055 39.0735 7.23167 39.2202 7.365C39.3669 7.49833 39.5469 7.565 39.7602 7.565C40.0669 7.565 40.2835 7.43667 40.4102 7.18H41.0252C40.9419 7.43333 40.7902 7.64167 40.5702 7.805C40.3535 7.965 40.0835 8.045 39.7602 8.045C39.4969 8.045 39.2602 7.98667 39.0502 7.87C38.8435 7.75 38.6802 7.58333 38.5602 7.37C38.4435 7.15333 38.3852 6.90333 38.3852 6.62C38.3852 6.33667 38.4419 6.08833 38.5552 5.875C38.6719 5.65833 38.8335 5.49167 39.0402 5.375C39.2502 5.25833 39.4902 5.2 39.7602 5.2C40.0202 5.2 40.2519 5.25667 40.4552 5.37C40.6585 5.48333 40.8169 5.64333 40.9302 5.85C41.0435 6.05333 41.1002 6.28833 41.1002 6.555ZM40.5052 6.375C40.5019 6.165 40.4269 5.99667 40.2802 5.87C40.1335 5.74333 39.9519 5.68 39.7352 5.68C39.5385 5.68 39.3702 5.74333 39.2302 5.87C39.0902 5.99333 39.0069 6.16167 38.9802 6.375H40.5052ZM43.0511 5.2C43.2678 5.2 43.4611 5.245 43.6311 5.335C43.8045 5.425 43.9395 5.55833 44.0361 5.735C44.1328 5.91167 44.1811 6.125 44.1811 6.375V8H43.6161V6.46C43.6161 6.21333 43.5545 6.025 43.4311 5.895C43.3078 5.76167 43.1395 5.695 42.9261 5.695C42.7128 5.695 42.5428 5.76167 42.4161 5.895C42.2928 6.025 42.2311 6.21333 42.2311 6.46V8H41.6611V5.245H42.2311V5.56C42.3245 5.44667 42.4428 5.35833 42.5861 5.295C42.7328 5.23167 42.8878 5.2 43.0511 5.2ZM45.5732 5.71V7.235C45.5732 7.33833 45.5965 7.41333 45.6432 7.46C45.6932 7.50333 45.7765 7.525 45.8932 7.525H46.2432V8H45.7932C45.5365 8 45.3399 7.94 45.2032 7.82C45.0665 7.7 44.9982 7.505 44.9982 7.235V5.71H44.6732V5.245H44.9982V4.56H45.5732V5.245H46.2432V5.71H45.5732Z" fill="black"/>
<defs>
<filter id="filter0_d_17_142" x="0" y="0" width="56" height="20" filterUnits="userSpaceOnUse" color-interpolation-filters="sRGB">
<feFlood flood-opacity="0" result="BackgroundImageFix"/>
<feColorMatrix in="SourceAlpha" type="matrix" values="0 0 0 0 0 0 0 0 0 0 0 0 0 0 0 0 0 0 127 0" result="hardAlpha"/>
<feOffset dy="4"/>
<feGaussianBlur stdDeviation="2"/>
<feComposite in2="hardAlpha" operator="out"/>
<feColorMatrix type="matrix" values="0 0 0 0 0 0 0 0 0 0 0 0 0 0 0 0 0 0 0.25 0"/>
<feBlend mode="normal" in2="BackgroundImageFix" result="effect1_dropShadow_17_142"/>
<feBlend mode="normal" in="SourceGraphic" in2="effect1_dropShadow_17_142" result="shape"/>
</filter>
</defs>
</svg>
