<svg width="73" height="21" viewBox="0 0 73 21" fill="none" xmlns="http://www.w3.org/2000/svg">
<g filter="url(#filter0_d_30_277)">
<rect x="5.00391" y="1.00391" width="62" height="10" rx="1" fill="#E9F4DC" fill-opacity="0.67" style="mix-blend-mode:darken" shape-rendering="crispEdges"/>
<rect x="4.50391" y="0.503906" width="63" height="11" rx="1.5" stroke="#E9F4DC" shape-rendering="crispEdges"/>
</g>
<path d="M9.37891 8.04891C9.16224 8.04891 8.96724 8.01057 8.79391 7.93391C8.62391 7.85391 8.48891 7.74724 8.38891 7.61391C8.28891 7.47724 8.23557 7.32557 8.22891 7.15891H8.81891C8.82891 7.27557 8.88391 7.37391 8.98391 7.45391C9.08724 7.53057 9.21557 7.56891 9.36891 7.56891C9.52891 7.56891 9.65224 7.53891 9.73891 7.47891C9.82891 7.41557 9.87391 7.33557 9.87391 7.23891C9.87391 7.13557 9.82391 7.05891 9.72391 7.00891C9.62724 6.95891 9.47224 6.90391 9.25891 6.84391C9.05224 6.78724 8.88391 6.73224 8.75391 6.67891C8.62391 6.62557 8.51057 6.54391 8.41391 6.43391C8.32057 6.32391 8.27391 6.17891 8.27391 5.99891C8.27391 5.85224 8.31724 5.71891 8.40391 5.59891C8.49057 5.47557 8.61391 5.37891 8.77391 5.30891C8.93724 5.23891 9.12391 5.20391 9.33391 5.20391C9.64724 5.20391 9.89891 5.28391 10.0889 5.44391C10.2822 5.60057 10.3856 5.81557 10.3989 6.08891H9.82891C9.81891 5.96557 9.76891 5.86724 9.67891 5.79391C9.58891 5.72057 9.46724 5.68391 9.31391 5.68391C9.16391 5.68391 9.04891 5.71224 8.96891 5.76891C8.88891 5.82557 8.84891 5.90057 8.84891 5.99391C8.84891 6.06724 8.87557 6.12891 8.92891 6.17891C8.98224 6.22891 9.04724 6.26891 9.12391 6.29891C9.20057 6.32557 9.31391 6.36057 9.46391 6.40391C9.66391 6.45724 9.82724 6.51224 9.95391 6.56891C10.0839 6.62224 10.1956 6.70224 10.2889 6.80891C10.3822 6.91557 10.4306 7.05724 10.4339 7.23391C10.4339 7.39057 10.3906 7.53057 10.3039 7.65391C10.2172 7.77724 10.0939 7.87391 9.93391 7.94391C9.77724 8.01391 9.59224 8.04891 9.37891 8.04891ZM11.7148 5.71391V7.23891C11.7148 7.34224 11.7381 7.41724 11.7848 7.46391C11.8348 7.50724 11.9181 7.52891 12.0348 7.52891H12.3848V8.00391H11.9348C11.6781 8.00391 11.4815 7.94391 11.3448 7.82391C11.2081 7.70391 11.1398 7.50891 11.1398 7.23891V5.71391H10.8148V5.24891H11.1398V4.56391H11.7148V5.24891H12.3848V5.71391H11.7148ZM12.7202 6.61391C12.7202 6.33724 12.7768 6.09224 12.8902 5.87891C13.0068 5.66557 13.1635 5.50057 13.3602 5.38391C13.5602 5.26391 13.7802 5.20391 14.0202 5.20391C14.2368 5.20391 14.4252 5.24724 14.5852 5.33391C14.7485 5.41724 14.8785 5.52224 14.9752 5.64891V5.24891H15.5502V8.00391H14.9752V7.59391C14.8785 7.72391 14.7468 7.83224 14.5802 7.91891C14.4135 8.00557 14.2235 8.04891 14.0102 8.04891C13.7735 8.04891 13.5568 7.98891 13.3602 7.86891C13.1635 7.74557 13.0068 7.57557 12.8902 7.35891C12.7768 7.13891 12.7202 6.89057 12.7202 6.61391ZM14.9752 6.62391C14.9752 6.43391 14.9352 6.26891 14.8552 6.12891C14.7785 5.98891 14.6768 5.88224 14.5502 5.80891C14.4235 5.73557 14.2868 5.69891 14.1402 5.69891C13.9935 5.69891 13.8568 5.73557 13.7302 5.80891C13.6035 5.87891 13.5002 5.98391 13.4202 6.12391C13.3435 6.26057 13.3052 6.42391 13.3052 6.61391C13.3052 6.80391 13.3435 6.97057 13.4202 7.11391C13.5002 7.25724 13.6035 7.36724 13.7302 7.44391C13.8602 7.51724 13.9968 7.55391 14.1402 7.55391C14.2868 7.55391 14.4235 7.51724 14.5502 7.44391C14.6768 7.37057 14.7785 7.26391 14.8552 7.12391C14.9352 6.98057 14.9752 6.81391 14.9752 6.62391ZM16.9638 5.71391V7.23891C16.9638 7.34224 16.9872 7.41724 17.0338 7.46391C17.0838 7.50724 17.1672 7.52891 17.2838 7.52891H17.6338V8.00391H17.1838C16.9272 8.00391 16.7305 7.94391 16.5938 7.82391C16.4572 7.70391 16.3888 7.50891 16.3888 7.23891V5.71391H16.0638V5.24891H16.3888V4.56391H16.9638V5.24891H17.6338V5.71391H16.9638ZM20.6842 6.55891C20.6842 6.66224 20.6775 6.75557 20.6642 6.83891H18.5592C18.5758 7.05891 18.6575 7.23557 18.8042 7.36891C18.9508 7.50224 19.1308 7.56891 19.3442 7.56891C19.6508 7.56891 19.8675 7.44057 19.9942 7.18391H20.6092C20.5258 7.43724 20.3742 7.64557 20.1542 7.80891C19.9375 7.96891 19.6675 8.04891 19.3442 8.04891C19.0808 8.04891 18.8442 7.99057 18.6342 7.87391C18.4275 7.75391 18.2642 7.58724 18.1442 7.37391C18.0275 7.15724 17.9692 6.90724 17.9692 6.62391C17.9692 6.34057 18.0258 6.09224 18.1392 5.87891C18.2558 5.66224 18.4175 5.49557 18.6242 5.37891C18.8342 5.26224 19.0742 5.20391 19.3442 5.20391C19.6042 5.20391 19.8358 5.26057 20.0392 5.37391C20.2425 5.48724 20.4008 5.64724 20.5142 5.85391C20.6275 6.05724 20.6842 6.29224 20.6842 6.55891ZM20.0892 6.37891C20.0858 6.16891 20.0108 6.00057 19.8642 5.87391C19.7175 5.74724 19.5358 5.68391 19.3192 5.68391C19.1225 5.68391 18.9542 5.74724 18.8142 5.87391C18.6742 5.99724 18.5908 6.16557 18.5642 6.37891H20.0892ZM22.7739 8.03891C22.6706 8.03891 22.5839 8.00391 22.5139 7.93391C22.4439 7.86391 22.4089 7.77724 22.4089 7.67391C22.4089 7.57057 22.4439 7.48391 22.5139 7.41391C22.5839 7.34391 22.6706 7.30891 22.7739 7.30891C22.8739 7.30891 22.9589 7.34391 23.0289 7.41391C23.0989 7.48391 23.1339 7.57057 23.1339 7.67391C23.1339 7.77724 23.0989 7.86391 23.0289 7.93391C22.9589 8.00391 22.8739 8.03891 22.7739 8.03891ZM22.7739 5.93891C22.6706 5.93891 22.5839 5.90391 22.5139 5.83391C22.4439 5.76391 22.4089 5.67724 22.4089 5.57391C22.4089 5.47057 22.4439 5.38391 22.5139 5.31391C22.5839 5.24391 22.6706 5.20891 22.7739 5.20891C22.8739 5.20891 22.9589 5.24391 23.0289 5.31391C23.0989 5.38391 23.1339 5.47057 23.1339 5.57391C23.1339 5.67724 23.0989 5.76391 23.0289 5.83391C22.9589 5.90391 22.8739 5.93891 22.7739 5.93891ZM25.3584 4.88391C25.255 4.88391 25.1684 4.84891 25.0984 4.77891C25.0284 4.70891 24.9934 4.62224 24.9934 4.51891C24.9934 4.41557 25.0284 4.32891 25.0984 4.25891C25.1684 4.18891 25.255 4.15391 25.3584 4.15391C25.4584 4.15391 25.5434 4.18891 25.6134 4.25891C25.6834 4.32891 25.7184 4.41557 25.7184 4.51891C25.7184 4.62224 25.6834 4.70891 25.6134 4.77891C25.5434 4.84891 25.4584 4.88391 25.3584 4.88391ZM25.6384 5.24891V8.00391H25.0684V5.24891H25.6384ZM27.3867 8.04891C27.1701 8.04891 26.9751 8.01057 26.8017 7.93391C26.6317 7.85391 26.4967 7.74724 26.3967 7.61391C26.2967 7.47724 26.2434 7.32557 26.2367 7.15891H26.8267C26.8367 7.27557 26.8917 7.37391 26.9917 7.45391C27.0951 7.53057 27.2234 7.56891 27.3767 7.56891C27.5367 7.56891 27.6601 7.53891 27.7467 7.47891C27.8367 7.41557 27.8817 7.33557 27.8817 7.23891C27.8817 7.13557 27.8317 7.05891 27.7317 7.00891C27.6351 6.95891 27.4801 6.90391 27.2667 6.84391C27.0601 6.78724 26.8917 6.73224 26.7617 6.67891C26.6317 6.62557 26.5184 6.54391 26.4217 6.43391C26.3284 6.32391 26.2817 6.17891 26.2817 5.99891C26.2817 5.85224 26.3251 5.71891 26.4117 5.59891C26.4984 5.47557 26.6217 5.37891 26.7817 5.30891C26.9451 5.23891 27.1317 5.20391 27.3417 5.20391C27.6551 5.20391 27.9067 5.28391 28.0967 5.44391C28.2901 5.60057 28.3934 5.81557 28.4067 6.08891H27.8367C27.8267 5.96557 27.7767 5.86724 27.6867 5.79391C27.5967 5.72057 27.4751 5.68391 27.3217 5.68391C27.1717 5.68391 27.0567 5.71224 26.9767 5.76891C26.8967 5.82557 26.8567 5.90057 26.8567 5.99391C26.8567 6.06724 26.8834 6.12891 26.9367 6.17891C26.9901 6.22891 27.0551 6.26891 27.1317 6.29891C27.2084 6.32557 27.3217 6.36057 27.4717 6.40391C27.6717 6.45724 27.8351 6.51224 27.9617 6.56891C28.0917 6.62224 28.2034 6.70224 28.2967 6.80891C28.3901 6.91557 28.4384 7.05724 28.4417 7.23391C28.4417 7.39057 28.3984 7.53057 28.3117 7.65391C28.2251 7.77724 28.1017 7.87391 27.9417 7.94391C27.7851 8.01391 27.6001 8.04891 27.3867 8.04891ZM30.0576 8.04891C29.841 8.04891 29.646 8.01057 29.4726 7.93391C29.3026 7.85391 29.1676 7.74724 29.0676 7.61391C28.9676 7.47724 28.9143 7.32557 28.9076 7.15891H29.4976C29.5076 7.27557 29.5626 7.37391 29.6626 7.45391C29.766 7.53057 29.8943 7.56891 30.0476 7.56891C30.2076 7.56891 30.331 7.53891 30.4176 7.47891C30.5076 7.41557 30.5526 7.33557 30.5526 7.23891C30.5526 7.13557 30.5026 7.05891 30.4026 7.00891C30.306 6.95891 30.151 6.90391 29.9376 6.84391C29.731 6.78724 29.5626 6.73224 29.4326 6.67891C29.3026 6.62557 29.1893 6.54391 29.0926 6.43391C28.9993 6.32391 28.9526 6.17891 28.9526 5.99891C28.9526 5.85224 28.996 5.71891 29.0826 5.59891C29.1693 5.47557 29.2926 5.37891 29.4526 5.30891C29.616 5.23891 29.8026 5.20391 30.0126 5.20391C30.326 5.20391 30.5776 5.28391 30.7676 5.44391C30.961 5.60057 31.0643 5.81557 31.0776 6.08891H30.5076C30.4976 5.96557 30.4476 5.86724 30.3576 5.79391C30.2676 5.72057 30.146 5.68391 29.9926 5.68391C29.8426 5.68391 29.7276 5.71224 29.6476 5.76891C29.5676 5.82557 29.5276 5.90057 29.5276 5.99391C29.5276 6.06724 29.5543 6.12891 29.6076 6.17891C29.661 6.22891 29.726 6.26891 29.8026 6.29891C29.8793 6.32557 29.9926 6.36057 30.1426 6.40391C30.3426 6.45724 30.506 6.51224 30.6326 6.56891C30.7626 6.62224 30.8743 6.70224 30.9676 6.80891C31.061 6.91557 31.1093 7.05724 31.1126 7.23391C31.1126 7.39057 31.0693 7.53057 30.9826 7.65391C30.896 7.77724 30.7726 7.87391 30.6126 7.94391C30.456 8.01391 30.271 8.04891 30.0576 8.04891ZM34.2235 5.24891V8.00391H33.6535V7.67891C33.5635 7.79224 33.4452 7.88224 33.2985 7.94891C33.1552 8.01224 33.0018 8.04391 32.8385 8.04391C32.6218 8.04391 32.4268 7.99891 32.2535 7.90891C32.0835 7.81891 31.9485 7.68557 31.8485 7.50891C31.7518 7.33224 31.7035 7.11891 31.7035 6.86891V5.24891H32.2685V6.78391C32.2685 7.03057 32.3302 7.22057 32.4535 7.35391C32.5768 7.48391 32.7452 7.54891 32.9585 7.54891C33.1718 7.54891 33.3402 7.48391 33.4635 7.35391C33.5902 7.22057 33.6535 7.03057 33.6535 6.78391V5.24891H34.2235ZM37.5006 6.55891C37.5006 6.66224 37.4939 6.75557 37.4806 6.83891H35.3756C35.3923 7.05891 35.4739 7.23557 35.6206 7.36891C35.7673 7.50224 35.9473 7.56891 36.1606 7.56891C36.4673 7.56891 36.6839 7.44057 36.8106 7.18391H37.4256C37.3423 7.43724 37.1906 7.64557 36.9706 7.80891C36.7539 7.96891 36.4839 8.04891 36.1606 8.04891C35.8973 8.04891 35.6606 7.99057 35.4506 7.87391C35.2439 7.75391 35.0806 7.58724 34.9606 7.37391C34.8439 7.15724 34.7856 6.90724 34.7856 6.62391C34.7856 6.34057 34.8423 6.09224 34.9556 5.87891C35.0723 5.66224 35.2339 5.49557 35.4406 5.37891C35.6506 5.26224 35.8906 5.20391 36.1606 5.20391C36.4206 5.20391 36.6523 5.26057 36.8556 5.37391C37.0589 5.48724 37.2173 5.64724 37.3306 5.85391C37.4439 6.05724 37.5006 6.29224 37.5006 6.55891ZM36.9056 6.37891C36.9023 6.16891 36.8273 6.00057 36.6806 5.87391C36.5339 5.74724 36.3523 5.68391 36.1356 5.68391C35.9389 5.68391 35.7706 5.74724 35.6306 5.87391C35.4906 5.99724 35.4073 6.16557 35.3806 6.37891H36.9056ZM39.5904 8.03891C39.487 8.03891 39.4004 8.00391 39.3304 7.93391C39.2604 7.86391 39.2254 7.77724 39.2254 7.67391C39.2254 7.57057 39.2604 7.48391 39.3304 7.41391C39.4004 7.34391 39.487 7.30891 39.5904 7.30891C39.6904 7.30891 39.7754 7.34391 39.8454 7.41391C39.9154 7.48391 39.9504 7.57057 39.9504 7.67391C39.9504 7.77724 39.9154 7.86391 39.8454 7.93391C39.7754 8.00391 39.6904 8.03891 39.5904 8.03891ZM39.5904 5.93891C39.487 5.93891 39.4004 5.90391 39.3304 5.83391C39.2604 5.76391 39.2254 5.67724 39.2254 5.57391C39.2254 5.47057 39.2604 5.38391 39.3304 5.31391C39.4004 5.24391 39.487 5.20891 39.5904 5.20891C39.6904 5.20891 39.7754 5.24391 39.8454 5.31391C39.9154 5.38391 39.9504 5.47057 39.9504 5.57391C39.9504 5.67724 39.9154 5.76391 39.8454 5.83391C39.7754 5.90391 39.6904 5.93891 39.5904 5.93891ZM42.5498 5.71391V7.23891C42.5498 7.34224 42.5731 7.41724 42.6198 7.46391C42.6698 7.50724 42.7531 7.52891 42.8698 7.52891H43.2198V8.00391H42.7698C42.5131 8.00391 42.3164 7.94391 42.1798 7.82391C42.0431 7.70391 41.9748 7.50891 41.9748 7.23891V5.71391H41.6498V5.24891H41.9748V4.56391H42.5498V5.24891H43.2198V5.71391H42.5498ZM44.3151 5.64891C44.3985 5.50891 44.5085 5.40057 44.6451 5.32391C44.7851 5.24391 44.9501 5.20391 45.1401 5.20391V5.79391H44.9951C44.7718 5.79391 44.6018 5.85057 44.4851 5.96391C44.3718 6.07724 44.3151 6.27391 44.3151 6.55391V8.00391H43.7451V5.24891H44.3151V5.64891ZM45.9541 4.88391C45.8507 4.88391 45.7641 4.84891 45.6941 4.77891C45.6241 4.70891 45.5891 4.62224 45.5891 4.51891C45.5891 4.41557 45.6241 4.32891 45.6941 4.25891C45.7641 4.18891 45.8507 4.15391 45.9541 4.15391C46.0541 4.15391 46.1391 4.18891 46.2091 4.25891C46.2791 4.32891 46.3141 4.41557 46.3141 4.51891C46.3141 4.62224 46.2791 4.70891 46.2091 4.77891C46.1391 4.84891 46.0541 4.88391 45.9541 4.88391ZM46.2341 5.24891V8.00391H45.6641V5.24891H46.2341ZM46.7924 6.61391C46.7924 6.33724 46.8491 6.09224 46.9624 5.87891C47.0791 5.66557 47.2358 5.50057 47.4324 5.38391C47.6324 5.26391 47.8524 5.20391 48.0924 5.20391C48.3091 5.20391 48.4974 5.24724 48.6574 5.33391C48.8208 5.41724 48.9508 5.52224 49.0474 5.64891V5.24891H49.6224V8.00391H49.0474V7.59391C48.9508 7.72391 48.8191 7.83224 48.6524 7.91891C48.4858 8.00557 48.2958 8.04891 48.0824 8.04891C47.8458 8.04891 47.6291 7.98891 47.4324 7.86891C47.2358 7.74557 47.0791 7.57557 46.9624 7.35891C46.8491 7.13891 46.7924 6.89057 46.7924 6.61391ZM49.0474 6.62391C49.0474 6.43391 49.0074 6.26891 48.9274 6.12891C48.8508 5.98891 48.7491 5.88224 48.6224 5.80891C48.4958 5.73557 48.3591 5.69891 48.2124 5.69891C48.0658 5.69891 47.9291 5.73557 47.8024 5.80891C47.6758 5.87891 47.5724 5.98391 47.4924 6.12391C47.4158 6.26057 47.3774 6.42391 47.3774 6.61391C47.3774 6.80391 47.4158 6.97057 47.4924 7.11391C47.5724 7.25724 47.6758 7.36724 47.8024 7.44391C47.9324 7.51724 48.0691 7.55391 48.2124 7.55391C48.3591 7.55391 48.4958 7.51724 48.6224 7.44391C48.7491 7.37057 48.8508 7.26391 48.9274 7.12391C49.0074 6.98057 49.0474 6.81391 49.0474 6.62391ZM51.4811 5.20391C51.6944 5.20391 51.8828 5.24724 52.0461 5.33391C52.2128 5.41724 52.3428 5.52224 52.4361 5.64891V5.24891H53.0111V8.04891C53.0111 8.30224 52.9578 8.52724 52.8511 8.72391C52.7444 8.92391 52.5894 9.08057 52.3861 9.19391C52.1861 9.30724 51.9461 9.36391 51.6661 9.36391C51.2928 9.36391 50.9828 9.27557 50.7361 9.09891C50.4894 8.92557 50.3494 8.68891 50.3161 8.38891H50.8811C50.9244 8.53224 51.0161 8.64724 51.1561 8.73391C51.2994 8.82391 51.4694 8.86891 51.6661 8.86891C51.8961 8.86891 52.0811 8.79891 52.2211 8.65891C52.3644 8.51891 52.4361 8.31557 52.4361 8.04891V7.58891C52.3394 7.71891 52.2078 7.82891 52.0411 7.91891C51.8778 8.00557 51.6911 8.04891 51.4811 8.04891C51.2411 8.04891 51.0211 7.98891 50.8211 7.86891C50.6244 7.74557 50.4678 7.57557 50.3511 7.35891C50.2378 7.13891 50.1811 6.89057 50.1811 6.61391C50.1811 6.33724 50.2378 6.09224 50.3511 5.87891C50.4678 5.66557 50.6244 5.50057 50.8211 5.38391C51.0211 5.26391 51.2411 5.20391 51.4811 5.20391ZM52.4361 6.62391C52.4361 6.43391 52.3961 6.26891 52.3161 6.12891C52.2394 5.98891 52.1378 5.88224 52.0111 5.80891C51.8844 5.73557 51.7478 5.69891 51.6011 5.69891C51.4544 5.69891 51.3178 5.73557 51.1911 5.80891C51.0644 5.87891 50.9611 5.98391 50.8811 6.12391C50.8044 6.26057 50.7661 6.42391 50.7661 6.61391C50.7661 6.80391 50.8044 6.97057 50.8811 7.11391C50.9611 7.25724 51.0644 7.36724 51.1911 7.44391C51.3211 7.51724 51.4578 7.55391 51.6011 7.55391C51.7478 7.55391 51.8844 7.51724 52.0111 7.44391C52.1378 7.37057 52.2394 7.26391 52.3161 7.12391C52.3961 6.98057 52.4361 6.81391 52.4361 6.62391ZM56.2848 6.55891C56.2848 6.66224 56.2781 6.75557 56.2648 6.83891H54.1598C54.1764 7.05891 54.2581 7.23557 54.4048 7.36891C54.5514 7.50224 54.7314 7.56891 54.9448 7.56891C55.2514 7.56891 55.4681 7.44057 55.5948 7.18391H56.2098C56.1264 7.43724 55.9748 7.64557 55.7548 7.80891C55.5381 7.96891 55.2681 8.04891 54.9448 8.04891C54.6814 8.04891 54.4448 7.99057 54.2348 7.87391C54.0281 7.75391 53.8648 7.58724 53.7448 7.37391C53.6281 7.15724 53.5698 6.90724 53.5698 6.62391C53.5698 6.34057 53.6264 6.09224 53.7398 5.87891C53.8564 5.66224 54.0181 5.49557 54.2248 5.37891C54.4348 5.26224 54.6748 5.20391 54.9448 5.20391C55.2048 5.20391 55.4364 5.26057 55.6398 5.37391C55.8431 5.48724 56.0014 5.64724 56.1148 5.85391C56.2281 6.05724 56.2848 6.29224 56.2848 6.55891ZM55.6898 6.37891C55.6864 6.16891 55.6114 6.00057 55.4648 5.87391C55.3181 5.74724 55.1364 5.68391 54.9198 5.68391C54.7231 5.68391 54.5548 5.74724 54.4148 5.87391C54.2748 5.99724 54.1914 6.16557 54.1648 6.37891H55.6898Z" fill="black"/>
<defs>
<filter id="filter0_d_30_277" x="0.00390625" y="0.00390625" width="72" height="20" filterUnits="userSpaceOnUse" color-interpolation-filters="sRGB">
<feFlood flood-opacity="0" result="BackgroundImageFix"/>
<feColorMatrix in="SourceAlpha" type="matrix" values="0 0 0 0 0 0 0 0 0 0 0 0 0 0 0 0 0 0 127 0" result="hardAlpha"/>
<feOffset dy="4"/>
<feGaussianBlur stdDeviation="2"/>
<feComposite in2="hardAlpha" operator="out"/>
<feColorMatrix type="matrix" values="0 0 0 0 0 0 0 0 0 0 0 0 0 0 0 0 0 0 0.25 0"/>
<feBlend mode="normal" in2="BackgroundImageFix" result="effect1_dropShadow_30_277"/>
<feBlend mode="normal" in="SourceGraphic" in2="effect1_dropShadow_30_277" result="shape"/>
</filter>
</defs>
</svg>
