<svg width="75" height="20" viewBox="0 0 75 20" fill="none" xmlns="http://www.w3.org/2000/svg">
<g filter="url(#filter0_d_17_171)">
<rect x="5" y="1" width="65" height="10" rx="1" fill="#D4C4F9" fill-opacity="0.67" style="mix-blend-mode:darken" shape-rendering="crispEdges"/>
<rect x="4.5" y="0.5" width="66" height="11" rx="1.5" stroke="#D4C4F9" shape-rendering="crispEdges"/>
</g>
<path d="M9.375 8.045C9.15833 8.045 8.96333 8.00667 8.79 7.93C8.62 7.85 8.485 7.74333 8.385 7.61C8.285 7.47333 8.23167 7.32167 8.225 7.155H8.815C8.825 7.27167 8.88 7.37 8.98 7.45C9.08333 7.52667 9.21167 7.565 9.365 7.565C9.525 7.565 9.64833 7.535 9.735 7.475C9.825 7.41167 9.87 7.33167 9.87 7.235C9.87 7.13167 9.82 7.055 9.72 7.005C9.62333 6.955 9.46833 6.9 9.255 6.84C9.04833 6.78333 8.88 6.72833 8.75 6.675C8.62 6.62167 8.50667 6.54 8.41 6.43C8.31667 6.32 8.27 6.175 8.27 5.995C8.27 5.84833 8.31333 5.715 8.4 5.595C8.48667 5.47167 8.61 5.375 8.77 5.305C8.93333 5.235 9.12 5.2 9.33 5.2C9.64333 5.2 9.895 5.28 10.085 5.44C10.2783 5.59667 10.3817 5.81167 10.395 6.085H9.825C9.815 5.96167 9.765 5.86333 9.675 5.79C9.585 5.71667 9.46333 5.68 9.31 5.68C9.16 5.68 9.045 5.70833 8.965 5.765C8.885 5.82167 8.845 5.89667 8.845 5.99C8.845 6.06333 8.87167 6.125 8.925 6.175C8.97833 6.225 9.04333 6.265 9.12 6.295C9.19667 6.32167 9.31 6.35667 9.46 6.4C9.66 6.45333 9.82333 6.50833 9.95 6.565C10.08 6.61833 10.1917 6.69833 10.285 6.805C10.3783 6.91167 10.4267 7.05333 10.43 7.23C10.43 7.38667 10.3867 7.52667 10.3 7.65C10.2133 7.77333 10.09 7.87 9.93 7.94C9.77333 8.01 9.58833 8.045 9.375 8.045ZM11.7109 5.71V7.235C11.7109 7.33833 11.7342 7.41333 11.7809 7.46C11.8309 7.50333 11.9142 7.525 12.0309 7.525H12.3809V8H11.9309C11.6742 8 11.4776 7.94 11.3409 7.82C11.2042 7.7 11.1359 7.505 11.1359 7.235V5.71H10.8109V5.245H11.1359V4.56H11.7109V5.245H12.3809V5.71H11.7109ZM12.7163 6.61C12.7163 6.33333 12.7729 6.08833 12.8863 5.875C13.0029 5.66167 13.1596 5.49667 13.3563 5.38C13.5563 5.26 13.7763 5.2 14.0163 5.2C14.2329 5.2 14.4213 5.24333 14.5813 5.33C14.7446 5.41333 14.8746 5.51833 14.9713 5.645V5.245H15.5463V8H14.9713V7.59C14.8746 7.72 14.7429 7.82833 14.5763 7.915C14.4096 8.00167 14.2196 8.045 14.0063 8.045C13.7696 8.045 13.5529 7.985 13.3563 7.865C13.1596 7.74167 13.0029 7.57167 12.8863 7.355C12.7729 7.135 12.7163 6.88667 12.7163 6.61ZM14.9713 6.62C14.9713 6.43 14.9313 6.265 14.8513 6.125C14.7746 5.985 14.6729 5.87833 14.5463 5.805C14.4196 5.73167 14.2829 5.695 14.1363 5.695C13.9896 5.695 13.8529 5.73167 13.7263 5.805C13.5996 5.875 13.4963 5.98 13.4163 6.12C13.3396 6.25667 13.3013 6.42 13.3013 6.61C13.3013 6.8 13.3396 6.96667 13.4163 7.11C13.4963 7.25333 13.5996 7.36333 13.7263 7.44C13.8563 7.51333 13.9929 7.55 14.1363 7.55C14.2829 7.55 14.4196 7.51333 14.5463 7.44C14.6729 7.36667 14.7746 7.26 14.8513 7.12C14.9313 6.97667 14.9713 6.81 14.9713 6.62ZM16.9599 5.71V7.235C16.9599 7.33833 16.9833 7.41333 17.0299 7.46C17.0799 7.50333 17.1633 7.525 17.2799 7.525H17.6299V8H17.1799C16.9233 8 16.7266 7.94 16.5899 7.82C16.4533 7.7 16.3849 7.505 16.3849 7.235V5.71H16.0599V5.245H16.3849V4.56H16.9599V5.245H17.6299V5.71H16.9599ZM20.6803 6.555C20.6803 6.65833 20.6736 6.75167 20.6603 6.835H18.5553C18.5719 7.055 18.6536 7.23167 18.8003 7.365C18.9469 7.49833 19.1269 7.565 19.3403 7.565C19.6469 7.565 19.8636 7.43667 19.9903 7.18H20.6053C20.5219 7.43333 20.3703 7.64167 20.1503 7.805C19.9336 7.965 19.6636 8.045 19.3403 8.045C19.0769 8.045 18.8403 7.98667 18.6303 7.87C18.4236 7.75 18.2603 7.58333 18.1403 7.37C18.0236 7.15333 17.9653 6.90333 17.9653 6.62C17.9653 6.33667 18.0219 6.08833 18.1353 5.875C18.2519 5.65833 18.4136 5.49167 18.6203 5.375C18.8303 5.25833 19.0703 5.2 19.3403 5.2C19.6003 5.2 19.8319 5.25667 20.0353 5.37C20.2386 5.48333 20.3969 5.64333 20.5103 5.85C20.6236 6.05333 20.6803 6.28833 20.6803 6.555ZM20.0853 6.375C20.0819 6.165 20.0069 5.99667 19.8603 5.87C19.7136 5.74333 19.5319 5.68 19.3153 5.68C19.1186 5.68 18.9503 5.74333 18.8103 5.87C18.6703 5.99333 18.5869 6.16167 18.5603 6.375H20.0853ZM22.77 8.035C22.6667 8.035 22.58 8 22.51 7.93C22.44 7.86 22.405 7.77333 22.405 7.67C22.405 7.56667 22.44 7.48 22.51 7.41C22.58 7.34 22.6667 7.305 22.77 7.305C22.87 7.305 22.955 7.34 23.025 7.41C23.095 7.48 23.13 7.56667 23.13 7.67C23.13 7.77333 23.095 7.86 23.025 7.93C22.955 8 22.87 8.035 22.77 8.035ZM22.77 5.935C22.6667 5.935 22.58 5.9 22.51 5.83C22.44 5.76 22.405 5.67333 22.405 5.57C22.405 5.46667 22.44 5.38 22.51 5.31C22.58 5.24 22.6667 5.205 22.77 5.205C22.87 5.205 22.955 5.24 23.025 5.31C23.095 5.38 23.13 5.46667 23.13 5.57C23.13 5.67333 23.095 5.76 23.025 5.83C22.955 5.9 22.87 5.935 22.77 5.935ZM26.4545 5.2C26.6711 5.2 26.8645 5.245 27.0345 5.335C27.2078 5.425 27.3428 5.55833 27.4395 5.735C27.5361 5.91167 27.5845 6.125 27.5845 6.375V8H27.0195V6.46C27.0195 6.21333 26.9578 6.025 26.8345 5.895C26.7111 5.76167 26.5428 5.695 26.3295 5.695C26.1161 5.695 25.9461 5.76167 25.8195 5.895C25.6961 6.025 25.6345 6.21333 25.6345 6.46V8H25.0645V5.245H25.6345V5.56C25.7278 5.44667 25.8461 5.35833 25.9895 5.295C26.1361 5.23167 26.2911 5.2 26.4545 5.2ZM30.8365 6.555C30.8365 6.65833 30.8299 6.75167 30.8165 6.835H28.7115C28.7282 7.055 28.8099 7.23167 28.9565 7.365C29.1032 7.49833 29.2832 7.565 29.4965 7.565C29.8032 7.565 30.0199 7.43667 30.1465 7.18H30.7615C30.6782 7.43333 30.5265 7.64167 30.3065 7.805C30.0899 7.965 29.8199 8.045 29.4965 8.045C29.2332 8.045 28.9965 7.98667 28.7865 7.87C28.5799 7.75 28.4165 7.58333 28.2965 7.37C28.1799 7.15333 28.1215 6.90333 28.1215 6.62C28.1215 6.33667 28.1782 6.08833 28.2915 5.875C28.4082 5.65833 28.5699 5.49167 28.7765 5.375C28.9865 5.25833 29.2265 5.2 29.4965 5.2C29.7565 5.2 29.9882 5.25667 30.1915 5.37C30.3949 5.48333 30.5532 5.64333 30.6665 5.85C30.7799 6.05333 30.8365 6.28833 30.8365 6.555ZM30.2415 6.375C30.2382 6.165 30.1632 5.99667 30.0165 5.87C29.8699 5.74333 29.6882 5.68 29.4715 5.68C29.2749 5.68 29.1065 5.74333 28.9665 5.87C28.8265 5.99333 28.7432 6.16167 28.7165 6.375H30.2415ZM33.9225 6.555C33.9225 6.65833 33.9158 6.75167 33.9025 6.835H31.7975C31.8141 7.055 31.8958 7.23167 32.0425 7.365C32.1891 7.49833 32.3691 7.565 32.5825 7.565C32.8891 7.565 33.1058 7.43667 33.2325 7.18H33.8475C33.7641 7.43333 33.6125 7.64167 33.3925 7.805C33.1758 7.965 32.9058 8.045 32.5825 8.045C32.3191 8.045 32.0825 7.98667 31.8725 7.87C31.6658 7.75 31.5025 7.58333 31.3825 7.37C31.2658 7.15333 31.2075 6.90333 31.2075 6.62C31.2075 6.33667 31.2641 6.08833 31.3775 5.875C31.4941 5.65833 31.6558 5.49167 31.8625 5.375C32.0725 5.25833 32.3125 5.2 32.5825 5.2C32.8425 5.2 33.0741 5.25667 33.2775 5.37C33.4808 5.48333 33.6391 5.64333 33.7525 5.85C33.8658 6.05333 33.9225 6.28833 33.9225 6.555ZM33.3275 6.375C33.3241 6.165 33.2491 5.99667 33.1025 5.87C32.9558 5.74333 32.7741 5.68 32.5575 5.68C32.3608 5.68 32.1925 5.74333 32.0525 5.87C31.9125 5.99333 31.8291 6.16167 31.8025 6.375H33.3275ZM34.2934 6.61C34.2934 6.33333 34.3501 6.08833 34.4634 5.875C34.5801 5.66167 34.7367 5.49667 34.9334 5.38C35.1334 5.26 35.3551 5.2 35.5984 5.2C35.7784 5.2 35.9551 5.24 36.1284 5.32C36.3051 5.39667 36.4451 5.5 36.5484 5.63V4.3H37.1234V8H36.5484V7.585C36.4551 7.71833 36.3251 7.82833 36.1584 7.915C35.9951 8.00167 35.8067 8.045 35.5934 8.045C35.3534 8.045 35.1334 7.985 34.9334 7.865C34.7367 7.74167 34.5801 7.57167 34.4634 7.355C34.3501 7.135 34.2934 6.88667 34.2934 6.61ZM36.5484 6.62C36.5484 6.43 36.5084 6.265 36.4284 6.125C36.3517 5.985 36.2501 5.87833 36.1234 5.805C35.9967 5.73167 35.8601 5.695 35.7134 5.695C35.5667 5.695 35.4301 5.73167 35.3034 5.805C35.1767 5.875 35.0734 5.98 34.9934 6.12C34.9167 6.25667 34.8784 6.42 34.8784 6.61C34.8784 6.8 34.9167 6.96667 34.9934 7.11C35.0734 7.25333 35.1767 7.36333 35.3034 7.44C35.4334 7.51333 35.5701 7.55 35.7134 7.55C35.8601 7.55 35.9967 7.51333 36.1234 7.44C36.2501 7.36667 36.3517 7.26 36.4284 7.12C36.5084 6.97667 36.5484 6.81 36.5484 6.62ZM38.8721 8.045C38.6554 8.045 38.4604 8.00667 38.2871 7.93C38.1171 7.85 37.9821 7.74333 37.8821 7.61C37.7821 7.47333 37.7287 7.32167 37.7221 7.155H38.3121C38.3221 7.27167 38.3771 7.37 38.4771 7.45C38.5804 7.52667 38.7087 7.565 38.8621 7.565C39.0221 7.565 39.1454 7.535 39.2321 7.475C39.3221 7.41167 39.3671 7.33167 39.3671 7.235C39.3671 7.13167 39.3171 7.055 39.2171 7.005C39.1204 6.955 38.9654 6.9 38.7521 6.84C38.5454 6.78333 38.3771 6.72833 38.2471 6.675C38.1171 6.62167 38.0037 6.54 37.9071 6.43C37.8137 6.32 37.7671 6.175 37.7671 5.995C37.7671 5.84833 37.8104 5.715 37.8971 5.595C37.9837 5.47167 38.1071 5.375 38.2671 5.305C38.4304 5.235 38.6171 5.2 38.8271 5.2C39.1404 5.2 39.3921 5.28 39.5821 5.44C39.7754 5.59667 39.8787 5.81167 39.8921 6.085H39.3221C39.3121 5.96167 39.2621 5.86333 39.1721 5.79C39.0821 5.71667 38.9604 5.68 38.8071 5.68C38.6571 5.68 38.5421 5.70833 38.4621 5.765C38.3821 5.82167 38.3421 5.89667 38.3421 5.99C38.3421 6.06333 38.3687 6.125 38.4221 6.175C38.4754 6.225 38.5404 6.265 38.6171 6.295C38.6937 6.32167 38.8071 6.35667 38.9571 6.4C39.1571 6.45333 39.3204 6.50833 39.4471 6.565C39.5771 6.61833 39.6887 6.69833 39.7821 6.805C39.8754 6.91167 39.9237 7.05333 39.9271 7.23C39.9271 7.38667 39.8837 7.52667 39.7971 7.65C39.7104 7.77333 39.5871 7.87 39.4271 7.94C39.2704 8.01 39.0854 8.045 38.8721 8.045ZM42.658 5.95V6.43H40.603V5.95H42.658ZM43.2778 6.61C43.2778 6.33333 43.3344 6.08833 43.4478 5.875C43.5644 5.66167 43.7211 5.49667 43.9178 5.38C44.1178 5.26 44.3394 5.2 44.5828 5.2C44.7628 5.2 44.9394 5.24 45.1128 5.32C45.2894 5.39667 45.4294 5.5 45.5328 5.63V4.3H46.1078V8H45.5328V7.585C45.4394 7.71833 45.3094 7.82833 45.1428 7.915C44.9794 8.00167 44.7911 8.045 44.5778 8.045C44.3378 8.045 44.1178 7.985 43.9178 7.865C43.7211 7.74167 43.5644 7.57167 43.4478 7.355C43.3344 7.135 43.2778 6.88667 43.2778 6.61ZM45.5328 6.62C45.5328 6.43 45.4928 6.265 45.4128 6.125C45.3361 5.985 45.2344 5.87833 45.1078 5.805C44.9811 5.73167 44.8444 5.695 44.6978 5.695C44.5511 5.695 44.4144 5.73167 44.2878 5.805C44.1611 5.875 44.0578 5.98 43.9778 6.12C43.9011 6.25667 43.8628 6.42 43.8628 6.61C43.8628 6.8 43.9011 6.96667 43.9778 7.11C44.0578 7.25333 44.1611 7.36333 44.2878 7.44C44.4178 7.51333 44.5544 7.55 44.6978 7.55C44.8444 7.55 44.9811 7.51333 45.1078 7.44C45.2344 7.36667 45.3361 7.26 45.4128 7.12C45.4928 6.97667 45.5328 6.81 45.5328 6.62ZM47.1464 4.88C47.0431 4.88 46.9564 4.845 46.8864 4.775C46.8164 4.705 46.7814 4.61833 46.7814 4.515C46.7814 4.41167 46.8164 4.325 46.8864 4.255C46.9564 4.185 47.0431 4.15 47.1464 4.15C47.2464 4.15 47.3314 4.185 47.4014 4.255C47.4714 4.325 47.5064 4.41167 47.5064 4.515C47.5064 4.61833 47.4714 4.705 47.4014 4.775C47.3314 4.845 47.2464 4.88 47.1464 4.88ZM47.4264 5.245V8H46.8564V5.245H47.4264ZM49.1748 8.045C48.9581 8.045 48.7631 8.00667 48.5898 7.93C48.4198 7.85 48.2848 7.74333 48.1848 7.61C48.0848 7.47333 48.0315 7.32167 48.0248 7.155H48.6148C48.6248 7.27167 48.6798 7.37 48.7798 7.45C48.8831 7.52667 49.0115 7.565 49.1648 7.565C49.3248 7.565 49.4481 7.535 49.5348 7.475C49.6248 7.41167 49.6698 7.33167 49.6698 7.235C49.6698 7.13167 49.6198 7.055 49.5198 7.005C49.4231 6.955 49.2681 6.9 49.0548 6.84C48.8481 6.78333 48.6798 6.72833 48.5498 6.675C48.4198 6.62167 48.3065 6.54 48.2098 6.43C48.1165 6.32 48.0698 6.175 48.0698 5.995C48.0698 5.84833 48.1131 5.715 48.1998 5.595C48.2865 5.47167 48.4098 5.375 48.5698 5.305C48.7331 5.235 48.9198 5.2 49.1298 5.2C49.4431 5.2 49.6948 5.28 49.8848 5.44C50.0781 5.59667 50.1815 5.81167 50.1948 6.085H49.6248C49.6148 5.96167 49.5648 5.86333 49.4748 5.79C49.3848 5.71667 49.2631 5.68 49.1098 5.68C48.9598 5.68 48.8448 5.70833 48.7648 5.765C48.6848 5.82167 48.6448 5.89667 48.6448 5.99C48.6448 6.06333 48.6715 6.125 48.7248 6.175C48.7781 6.225 48.8431 6.265 48.9198 6.295C48.9965 6.32167 49.1098 6.35667 49.2598 6.4C49.4598 6.45333 49.6231 6.50833 49.7498 6.565C49.8798 6.61833 49.9915 6.69833 50.0848 6.805C50.1781 6.91167 50.2265 7.05333 50.2298 7.23C50.2298 7.38667 50.1865 7.52667 50.0998 7.65C50.0131 7.77333 49.8898 7.87 49.7298 7.94C49.5731 8.01 49.3881 8.045 49.1748 8.045ZM50.6557 6.62C50.6557 6.33667 50.7124 6.08833 50.8257 5.875C50.9424 5.65833 51.1024 5.49167 51.3057 5.375C51.509 5.25833 51.7424 5.2 52.0057 5.2C52.339 5.2 52.614 5.28 52.8307 5.44C53.0507 5.59667 53.199 5.82167 53.2757 6.115H52.6607C52.6107 5.97833 52.5307 5.87167 52.4207 5.795C52.3107 5.71833 52.1724 5.68 52.0057 5.68C51.7724 5.68 51.5857 5.76333 51.4457 5.93C51.309 6.09333 51.2407 6.32333 51.2407 6.62C51.2407 6.91667 51.309 7.14833 51.4457 7.315C51.5857 7.48167 51.7724 7.565 52.0057 7.565C52.3357 7.565 52.554 7.42 52.6607 7.13H53.2757C53.1957 7.41 53.0457 7.63333 52.8257 7.8C52.6057 7.96333 52.3324 8.045 52.0057 8.045C51.7424 8.045 51.509 7.98667 51.3057 7.87C51.1024 7.75 50.9424 7.58333 50.8257 7.37C50.7124 7.15333 50.6557 6.90333 50.6557 6.62ZM56.3388 5.245V8H55.7688V7.675C55.6788 7.78833 55.5604 7.87833 55.4138 7.945C55.2704 8.00833 55.1171 8.04 54.9538 8.04C54.7371 8.04 54.5421 7.995 54.3688 7.905C54.1988 7.815 54.0638 7.68167 53.9638 7.505C53.8671 7.32833 53.8188 7.115 53.8188 6.865V5.245H54.3838V6.78C54.3838 7.02667 54.4454 7.21667 54.5688 7.35C54.6921 7.48 54.8604 7.545 55.0738 7.545C55.2871 7.545 55.4554 7.48 55.5788 7.35C55.7054 7.21667 55.7688 7.02667 55.7688 6.78V5.245H56.3388ZM58.0908 8.045C57.8742 8.045 57.6792 8.00667 57.5058 7.93C57.3358 7.85 57.2008 7.74333 57.1008 7.61C57.0008 7.47333 56.9475 7.32167 56.9408 7.155H57.5308C57.5408 7.27167 57.5958 7.37 57.6958 7.45C57.7992 7.52667 57.9275 7.565 58.0808 7.565C58.2408 7.565 58.3642 7.535 58.4508 7.475C58.5408 7.41167 58.5858 7.33167 58.5858 7.235C58.5858 7.13167 58.5358 7.055 58.4358 7.005C58.3392 6.955 58.1842 6.9 57.9708 6.84C57.7642 6.78333 57.5958 6.72833 57.4658 6.675C57.3358 6.62167 57.2225 6.54 57.1258 6.43C57.0325 6.32 56.9858 6.175 56.9858 5.995C56.9858 5.84833 57.0292 5.715 57.1158 5.595C57.2025 5.47167 57.3258 5.375 57.4858 5.305C57.6492 5.235 57.8358 5.2 58.0458 5.2C58.3592 5.2 58.6108 5.28 58.8008 5.44C58.9942 5.59667 59.0975 5.81167 59.1108 6.085H58.5408C58.5308 5.96167 58.4808 5.86333 58.3908 5.79C58.3008 5.71667 58.1792 5.68 58.0258 5.68C57.8758 5.68 57.7608 5.70833 57.6808 5.765C57.6008 5.82167 57.5608 5.89667 57.5608 5.99C57.5608 6.06333 57.5875 6.125 57.6408 6.175C57.6942 6.225 57.7592 6.265 57.8358 6.295C57.9125 6.32167 58.0258 6.35667 58.1758 6.4C58.3758 6.45333 58.5392 6.50833 58.6658 6.565C58.7958 6.61833 58.9075 6.69833 59.0008 6.805C59.0942 6.91167 59.1425 7.05333 59.1458 7.23C59.1458 7.38667 59.1025 7.52667 59.0158 7.65C58.9292 7.77333 58.8058 7.87 58.6458 7.94C58.4892 8.01 58.3042 8.045 58.0908 8.045ZM60.7617 8.045C60.5451 8.045 60.3501 8.00667 60.1767 7.93C60.0067 7.85 59.8717 7.74333 59.7717 7.61C59.6717 7.47333 59.6184 7.32167 59.6117 7.155H60.2017C60.2117 7.27167 60.2667 7.37 60.3667 7.45C60.4701 7.52667 60.5984 7.565 60.7517 7.565C60.9117 7.565 61.0351 7.535 61.1217 7.475C61.2117 7.41167 61.2567 7.33167 61.2567 7.235C61.2567 7.13167 61.2067 7.055 61.1067 7.005C61.0101 6.955 60.8551 6.9 60.6417 6.84C60.4351 6.78333 60.2667 6.72833 60.1367 6.675C60.0067 6.62167 59.8934 6.54 59.7967 6.43C59.7034 6.32 59.6567 6.175 59.6567 5.995C59.6567 5.84833 59.7001 5.715 59.7867 5.595C59.8734 5.47167 59.9967 5.375 60.1567 5.305C60.3201 5.235 60.5067 5.2 60.7167 5.2C61.0301 5.2 61.2817 5.28 61.4717 5.44C61.6651 5.59667 61.7684 5.81167 61.7817 6.085H61.2117C61.2017 5.96167 61.1517 5.86333 61.0617 5.79C60.9717 5.71667 60.8501 5.68 60.6967 5.68C60.5467 5.68 60.4317 5.70833 60.3517 5.765C60.2717 5.82167 60.2317 5.89667 60.2317 5.99C60.2317 6.06333 60.2584 6.125 60.3117 6.175C60.3651 6.225 60.4301 6.265 60.5067 6.295C60.5834 6.32167 60.6967 6.35667 60.8467 6.4C61.0467 6.45333 61.2101 6.50833 61.3367 6.565C61.4667 6.61833 61.5784 6.69833 61.6717 6.805C61.7651 6.91167 61.8134 7.05333 61.8167 7.23C61.8167 7.38667 61.7734 7.52667 61.6867 7.65C61.6001 7.77333 61.4767 7.87 61.3167 7.94C61.1601 8.01 60.9751 8.045 60.7617 8.045ZM62.7226 4.88C62.6193 4.88 62.5326 4.845 62.4626 4.775C62.3926 4.705 62.3576 4.61833 62.3576 4.515C62.3576 4.41167 62.3926 4.325 62.4626 4.255C62.5326 4.185 62.6193 4.15 62.7226 4.15C62.8226 4.15 62.9076 4.185 62.9776 4.255C63.0476 4.325 63.0826 4.41167 63.0826 4.515C63.0826 4.61833 63.0476 4.705 62.9776 4.775C62.9076 4.845 62.8226 4.88 62.7226 4.88ZM63.0026 5.245V8H62.4326V5.245H63.0026ZM64.946 8.045C64.686 8.045 64.451 7.98667 64.241 7.87C64.031 7.75 63.866 7.58333 63.746 7.37C63.626 7.15333 63.566 6.90333 63.566 6.62C63.566 6.34 63.6276 6.09167 63.751 5.875C63.8743 5.65833 64.0426 5.49167 64.256 5.375C64.4693 5.25833 64.7076 5.2 64.971 5.2C65.2343 5.2 65.4726 5.25833 65.686 5.375C65.8993 5.49167 66.0676 5.65833 66.191 5.875C66.3143 6.09167 66.376 6.34 66.376 6.62C66.376 6.9 66.3126 7.14833 66.186 7.365C66.0593 7.58167 65.886 7.75 65.666 7.87C65.4493 7.98667 65.2093 8.045 64.946 8.045ZM64.946 7.55C65.0926 7.55 65.2293 7.515 65.356 7.445C65.486 7.375 65.591 7.27 65.671 7.13C65.751 6.99 65.791 6.82 65.791 6.62C65.791 6.42 65.7526 6.25167 65.676 6.115C65.5993 5.975 65.4976 5.87 65.371 5.8C65.2443 5.73 65.1076 5.695 64.961 5.695C64.8143 5.695 64.6776 5.73 64.551 5.8C64.4276 5.87 64.3293 5.975 64.256 6.115C64.1826 6.25167 64.146 6.42 64.146 6.62C64.146 6.91667 64.221 7.14667 64.371 7.31C64.5243 7.47 64.716 7.55 64.946 7.55ZM68.3295 5.2C68.5461 5.2 68.7395 5.245 68.9095 5.335C69.0828 5.425 69.2178 5.55833 69.3145 5.735C69.4111 5.91167 69.4595 6.125 69.4595 6.375V8H68.8945V6.46C68.8945 6.21333 68.8328 6.025 68.7095 5.895C68.5861 5.76167 68.4178 5.695 68.2045 5.695C67.9911 5.695 67.8211 5.76167 67.6945 5.895C67.5711 6.025 67.5095 6.21333 67.5095 6.46V8H66.9395V5.245H67.5095V5.56C67.6028 5.44667 67.7211 5.35833 67.8645 5.295C68.0111 5.23167 68.1661 5.2 68.3295 5.2Z" fill="black"/>
<defs>
<filter id="filter0_d_17_171" x="0" y="0" width="75" height="20" filterUnits="userSpaceOnUse" color-interpolation-filters="sRGB">
<feFlood flood-opacity="0" result="BackgroundImageFix"/>
<feColorMatrix in="SourceAlpha" type="matrix" values="0 0 0 0 0 0 0 0 0 0 0 0 0 0 0 0 0 0 127 0" result="hardAlpha"/>
<feOffset dy="4"/>
<feGaussianBlur stdDeviation="2"/>
<feComposite in2="hardAlpha" operator="out"/>
<feColorMatrix type="matrix" values="0 0 0 0 0 0 0 0 0 0 0 0 0 0 0 0 0 0 0.25 0"/>
<feBlend mode="normal" in2="BackgroundImageFix" result="effect1_dropShadow_17_171"/>
<feBlend mode="normal" in="SourceGraphic" in2="effect1_dropShadow_17_171" result="shape"/>
</filter>
</defs>
</svg>
