<svg width="305" height="130" viewBox="0 0 305 130" fill="none" xmlns="http://www.w3.org/2000/svg">
<rect width="305" height="130" fill="white"/>
<path d="M113.245 11.55C113.245 11.0693 113.352 10.64 113.567 10.262C113.786 9.87933 114.083 9.583 114.456 9.373C114.834 9.15833 115.256 9.051 115.723 9.051C116.269 9.051 116.747 9.191 117.158 9.471C117.569 9.751 117.856 10.1383 118.019 10.633H116.892C116.78 10.3997 116.621 10.2247 116.416 10.108C116.215 9.99133 115.982 9.933 115.716 9.933C115.431 9.933 115.177 10.0007 114.953 10.136C114.734 10.2667 114.561 10.4533 114.435 10.696C114.314 10.9387 114.253 11.2233 114.253 11.55C114.253 11.872 114.314 12.1567 114.435 12.404C114.561 12.6467 114.734 12.8357 114.953 12.971C115.177 13.1017 115.431 13.167 115.716 13.167C115.982 13.167 116.215 13.1087 116.416 12.992C116.621 12.8707 116.78 12.6933 116.892 12.46H118.019C117.856 12.9593 117.569 13.349 117.158 13.629C116.752 13.9043 116.274 14.042 115.723 14.042C115.256 14.042 114.834 13.937 114.456 13.727C114.083 13.5123 113.786 13.216 113.567 12.838C113.352 12.46 113.245 12.0307 113.245 11.55ZM119.836 10.724C119.962 10.5187 120.125 10.3577 120.326 10.241C120.531 10.1243 120.765 10.066 121.026 10.066V11.095H120.767C120.459 11.095 120.226 11.1673 120.067 11.312C119.913 11.4567 119.836 11.7087 119.836 12.068V14H118.856V10.122H119.836V10.724ZM125.291 11.977C125.291 12.117 125.282 12.243 125.263 12.355H122.428C122.451 12.635 122.549 12.8543 122.722 13.013C122.895 13.1717 123.107 13.251 123.359 13.251C123.723 13.251 123.982 13.0947 124.136 12.782H125.193C125.081 13.1553 124.866 13.4633 124.549 13.706C124.232 13.944 123.842 14.063 123.38 14.063C123.007 14.063 122.671 13.9813 122.372 13.818C122.078 13.65 121.847 13.4143 121.679 13.111C121.516 12.8077 121.434 12.4577 121.434 12.061C121.434 11.6597 121.516 11.3073 121.679 11.004C121.842 10.7007 122.071 10.4673 122.365 10.304C122.659 10.1407 122.997 10.059 123.38 10.059C123.749 10.059 124.078 10.1383 124.367 10.297C124.661 10.4557 124.887 10.682 125.046 10.976C125.209 11.2653 125.291 11.599 125.291 11.977ZM124.276 11.697C124.271 11.445 124.18 11.2443 124.003 11.095C123.826 10.941 123.609 10.864 123.352 10.864C123.109 10.864 122.904 10.9387 122.736 11.088C122.573 11.2327 122.472 11.4357 122.435 11.697H124.276ZM125.754 12.047C125.754 11.655 125.831 11.3073 125.985 11.004C126.144 10.7007 126.356 10.4673 126.622 10.304C126.893 10.1407 127.194 10.059 127.525 10.059C127.815 10.059 128.067 10.1173 128.281 10.234C128.501 10.3507 128.676 10.4977 128.806 10.675V10.122H129.793V14H128.806V13.433C128.68 13.615 128.505 13.7667 128.281 13.888C128.062 14.0047 127.808 14.063 127.518 14.063C127.192 14.063 126.893 13.979 126.622 13.811C126.356 13.643 126.144 13.4073 125.985 13.104C125.831 12.796 125.754 12.4437 125.754 12.047ZM128.806 12.061C128.806 11.823 128.76 11.62 128.666 11.452C128.573 11.2793 128.447 11.1487 128.288 11.06C128.13 10.9667 127.959 10.92 127.777 10.92C127.595 10.92 127.427 10.9643 127.273 11.053C127.119 11.1417 126.993 11.2723 126.895 11.445C126.802 11.613 126.755 11.8137 126.755 12.047C126.755 12.2803 126.802 12.4857 126.895 12.663C126.993 12.8357 127.119 12.9687 127.273 13.062C127.432 13.1553 127.6 13.202 127.777 13.202C127.959 13.202 128.13 13.1577 128.288 13.069C128.447 12.9757 128.573 12.845 128.666 12.677C128.76 12.5043 128.806 12.299 128.806 12.061ZM131.892 10.927V12.803C131.892 12.9337 131.922 13.0293 131.983 13.09C132.048 13.146 132.155 13.174 132.305 13.174H132.76V14H132.144C131.318 14 130.905 13.5987 130.905 12.796V10.927H130.443V10.122H130.905V9.163H131.892V10.122H132.76V10.927H131.892ZM133.961 9.66C133.789 9.66 133.644 9.60633 133.527 9.499C133.415 9.387 133.359 9.24933 133.359 9.086C133.359 8.92267 133.415 8.78733 133.527 8.68C133.644 8.568 133.789 8.512 133.961 8.512C134.134 8.512 134.276 8.568 134.388 8.68C134.505 8.78733 134.563 8.92267 134.563 9.086C134.563 9.24933 134.505 9.387 134.388 9.499C134.276 9.60633 134.134 9.66 133.961 9.66ZM134.444 10.122V14H133.464V10.122H134.444ZM137.135 14.063C136.761 14.063 136.425 13.9813 136.127 13.818C135.828 13.65 135.592 13.4143 135.42 13.111C135.252 12.8077 135.168 12.4577 135.168 12.061C135.168 11.6643 135.254 11.3143 135.427 11.011C135.604 10.7077 135.844 10.4743 136.148 10.311C136.451 10.143 136.789 10.059 137.163 10.059C137.536 10.059 137.874 10.143 138.178 10.311C138.481 10.4743 138.719 10.7077 138.892 11.011C139.069 11.3143 139.158 11.6643 139.158 12.061C139.158 12.4577 139.067 12.8077 138.885 13.111C138.707 13.4143 138.465 13.65 138.157 13.818C137.853 13.9813 137.513 14.063 137.135 14.063ZM137.135 13.209C137.312 13.209 137.478 13.167 137.632 13.083C137.79 12.9943 137.916 12.8637 138.01 12.691C138.103 12.5183 138.15 12.3083 138.15 12.061C138.15 11.6923 138.052 11.41 137.856 11.214C137.664 11.0133 137.429 10.913 137.149 10.913C136.869 10.913 136.633 11.0133 136.442 11.214C136.255 11.41 136.162 11.6923 136.162 12.061C136.162 12.4297 136.253 12.7143 136.435 12.915C136.621 13.111 136.855 13.209 137.135 13.209ZM142.026 10.066C142.488 10.066 142.861 10.213 143.146 10.507C143.43 10.7963 143.573 11.2023 143.573 11.725V14H142.593V11.858C142.593 11.55 142.516 11.3143 142.362 11.151C142.208 10.983 141.998 10.899 141.732 10.899C141.461 10.899 141.246 10.983 141.088 11.151C140.934 11.3143 140.857 11.55 140.857 11.858V14H139.877V10.122H140.857V10.605C140.987 10.437 141.153 10.3063 141.354 10.213C141.559 10.115 141.783 10.066 142.026 10.066ZM149.175 11.13V11.802H146.298V11.13H149.175ZM153.528 14.063C153.224 14.063 152.951 14.0093 152.709 13.902C152.471 13.79 152.282 13.6407 152.142 13.454C152.002 13.2627 151.927 13.0503 151.918 12.817H152.744C152.758 12.9803 152.835 13.118 152.975 13.23C153.119 13.3373 153.299 13.391 153.514 13.391C153.738 13.391 153.91 13.349 154.032 13.265C154.158 13.1763 154.221 13.0643 154.221 12.929C154.221 12.7843 154.151 12.677 154.011 12.607C153.875 12.537 153.658 12.46 153.36 12.376C153.07 12.2967 152.835 12.2197 152.653 12.145C152.471 12.0703 152.312 11.956 152.177 11.802C152.046 11.648 151.981 11.445 151.981 11.193C151.981 10.9877 152.041 10.801 152.163 10.633C152.284 10.4603 152.457 10.325 152.681 10.227C152.909 10.129 153.171 10.08 153.465 10.08C153.903 10.08 154.256 10.192 154.522 10.416C154.792 10.6353 154.937 10.9363 154.956 11.319H154.158C154.144 11.1463 154.074 11.0087 153.948 10.906C153.822 10.8033 153.651 10.752 153.437 10.752C153.227 10.752 153.066 10.7917 152.954 10.871C152.842 10.9503 152.786 11.0553 152.786 11.186C152.786 11.2887 152.823 11.375 152.898 11.445C152.972 11.515 153.063 11.571 153.171 11.613C153.278 11.6503 153.437 11.6993 153.647 11.76C153.927 11.8347 154.155 11.9117 154.333 11.991C154.515 12.0657 154.671 12.1777 154.802 12.327C154.932 12.4763 155 12.6747 155.005 12.922C155.005 13.1413 154.944 13.3373 154.823 13.51C154.701 13.6827 154.529 13.818 154.305 13.916C154.085 14.014 153.826 14.063 153.528 14.063ZM156.798 10.794V12.929C156.798 13.0737 156.83 13.1787 156.896 13.244C156.966 13.3047 157.082 13.335 157.246 13.335H157.736V14H157.106C156.746 14 156.471 13.916 156.28 13.748C156.088 13.58 155.993 13.307 155.993 12.929V10.794H155.538V10.143H155.993V9.184H156.798V10.143H157.736V10.794H156.798ZM158.205 12.054C158.205 11.6667 158.285 11.3237 158.443 11.025C158.607 10.7263 158.826 10.4953 159.101 10.332C159.381 10.164 159.689 10.08 160.025 10.08C160.329 10.08 160.592 10.1407 160.816 10.262C161.045 10.3787 161.227 10.5257 161.362 10.703V10.143H162.167V14H161.362V13.426C161.227 13.608 161.043 13.7597 160.809 13.881C160.576 14.0023 160.31 14.063 160.011 14.063C159.68 14.063 159.377 13.979 159.101 13.811C158.826 13.6383 158.607 13.4003 158.443 13.097C158.285 12.789 158.205 12.4413 158.205 12.054ZM161.362 12.068C161.362 11.802 161.306 11.571 161.194 11.375C161.087 11.179 160.945 11.0297 160.767 10.927C160.59 10.8243 160.399 10.773 160.193 10.773C159.988 10.773 159.797 10.8243 159.619 10.927C159.442 11.025 159.297 11.172 159.185 11.368C159.078 11.5593 159.024 11.788 159.024 12.054C159.024 12.32 159.078 12.5533 159.185 12.754C159.297 12.9547 159.442 13.1087 159.619 13.216C159.801 13.3187 159.993 13.37 160.193 13.37C160.399 13.37 160.59 13.3187 160.767 13.216C160.945 13.1133 161.087 12.964 161.194 12.768C161.306 12.5673 161.362 12.334 161.362 12.068ZM164.146 10.794V12.929C164.146 13.0737 164.179 13.1787 164.244 13.244C164.314 13.3047 164.431 13.335 164.594 13.335H165.084V14H164.454C164.095 14 163.82 13.916 163.628 13.748C163.437 13.58 163.341 13.307 163.341 12.929V10.794H162.886V10.143H163.341V9.184H164.146V10.143H165.084V10.794H164.146ZM169.355 11.977C169.355 12.1217 169.346 12.2523 169.327 12.369H166.38C166.403 12.677 166.518 12.9243 166.723 13.111C166.928 13.2977 167.18 13.391 167.479 13.391C167.908 13.391 168.212 13.2113 168.389 12.852H169.25C169.133 13.2067 168.921 13.4983 168.613 13.727C168.31 13.951 167.932 14.063 167.479 14.063C167.11 14.063 166.779 13.9813 166.485 13.818C166.196 13.65 165.967 13.4167 165.799 13.118C165.636 12.8147 165.554 12.4647 165.554 12.068C165.554 11.6713 165.633 11.3237 165.792 11.025C165.955 10.7217 166.182 10.4883 166.471 10.325C166.765 10.1617 167.101 10.08 167.479 10.08C167.843 10.08 168.167 10.1593 168.452 10.318C168.737 10.4767 168.958 10.7007 169.117 10.99C169.276 11.2747 169.355 11.6037 169.355 11.977ZM168.522 11.725C168.517 11.431 168.412 11.1953 168.207 11.018C168.002 10.8407 167.747 10.752 167.444 10.752C167.169 10.752 166.933 10.8407 166.737 11.018C166.541 11.1907 166.424 11.4263 166.387 11.725H168.522ZM172.281 14.049C172.136 14.049 172.015 14 171.917 13.902C171.819 13.804 171.77 13.6827 171.77 13.538C171.77 13.3933 171.819 13.272 171.917 13.174C172.015 13.076 172.136 13.027 172.281 13.027C172.421 13.027 172.54 13.076 172.638 13.174C172.736 13.272 172.785 13.3933 172.785 13.538C172.785 13.6827 172.736 13.804 172.638 13.902C172.54 14 172.421 14.049 172.281 14.049ZM172.281 11.109C172.136 11.109 172.015 11.06 171.917 10.962C171.819 10.864 171.77 10.7427 171.77 10.598C171.77 10.4533 171.819 10.332 171.917 10.234C172.015 10.136 172.136 10.087 172.281 10.087C172.421 10.087 172.54 10.136 172.638 10.234C172.736 10.332 172.785 10.4533 172.785 10.598C172.785 10.7427 172.736 10.864 172.638 10.962C172.54 11.06 172.421 11.109 172.281 11.109ZM175.899 9.632C175.754 9.632 175.633 9.583 175.535 9.485C175.437 9.387 175.388 9.26567 175.388 9.121C175.388 8.97633 175.437 8.855 175.535 8.757C175.633 8.659 175.754 8.61 175.899 8.61C176.039 8.61 176.158 8.659 176.256 8.757C176.354 8.855 176.403 8.97633 176.403 9.121C176.403 9.26567 176.354 9.387 176.256 9.485C176.158 9.583 176.039 9.632 175.899 9.632ZM176.291 10.143V14H175.493V10.143H176.291ZM178.738 14.063C178.435 14.063 178.162 14.0093 177.919 13.902C177.681 13.79 177.492 13.6407 177.352 13.454C177.212 13.2627 177.138 13.0503 177.128 12.817H177.954C177.968 12.9803 178.045 13.118 178.185 13.23C178.33 13.3373 178.51 13.391 178.724 13.391C178.948 13.391 179.121 13.349 179.242 13.265C179.368 13.1763 179.431 13.0643 179.431 12.929C179.431 12.7843 179.361 12.677 179.221 12.607C179.086 12.537 178.869 12.46 178.57 12.376C178.281 12.2967 178.045 12.2197 177.863 12.145C177.681 12.0703 177.523 11.956 177.387 11.802C177.257 11.648 177.191 11.445 177.191 11.193C177.191 10.9877 177.252 10.801 177.373 10.633C177.495 10.4603 177.667 10.325 177.891 10.227C178.12 10.129 178.381 10.08 178.675 10.08C179.114 10.08 179.466 10.192 179.732 10.416C180.003 10.6353 180.148 10.9363 180.166 11.319H179.368C179.354 11.1463 179.284 11.0087 179.158 10.906C179.032 10.8033 178.862 10.752 178.647 10.752C178.437 10.752 178.276 10.7917 178.164 10.871C178.052 10.9503 177.996 11.0553 177.996 11.186C177.996 11.2887 178.034 11.375 178.108 11.445C178.183 11.515 178.274 11.571 178.381 11.613C178.489 11.6503 178.647 11.6993 178.857 11.76C179.137 11.8347 179.366 11.9117 179.543 11.991C179.725 12.0657 179.882 12.1777 180.012 12.327C180.143 12.4763 180.211 12.6747 180.215 12.922C180.215 13.1413 180.155 13.3373 180.033 13.51C179.912 13.6827 179.739 13.818 179.515 13.916C179.296 14.014 179.037 14.063 178.738 14.063ZM182.478 14.063C182.174 14.063 181.901 14.0093 181.659 13.902C181.421 13.79 181.232 13.6407 181.092 13.454C180.952 13.2627 180.877 13.0503 180.868 12.817H181.694C181.708 12.9803 181.785 13.118 181.925 13.23C182.069 13.3373 182.249 13.391 182.464 13.391C182.688 13.391 182.86 13.349 182.982 13.265C183.108 13.1763 183.171 13.0643 183.171 12.929C183.171 12.7843 183.101 12.677 182.961 12.607C182.825 12.537 182.608 12.46 182.31 12.376C182.02 12.2967 181.785 12.2197 181.603 12.145C181.421 12.0703 181.262 11.956 181.127 11.802C180.996 11.648 180.931 11.445 180.931 11.193C180.931 10.9877 180.991 10.801 181.113 10.633C181.234 10.4603 181.407 10.325 181.631 10.227C181.859 10.129 182.121 10.08 182.415 10.08C182.853 10.08 183.206 10.192 183.472 10.416C183.742 10.6353 183.887 10.9363 183.906 11.319H183.108C183.094 11.1463 183.024 11.0087 182.898 10.906C182.772 10.8033 182.601 10.752 182.387 10.752C182.177 10.752 182.016 10.7917 181.904 10.871C181.792 10.9503 181.736 11.0553 181.736 11.186C181.736 11.2887 181.773 11.375 181.848 11.445C181.922 11.515 182.013 11.571 182.121 11.613C182.228 11.6503 182.387 11.6993 182.597 11.76C182.877 11.8347 183.105 11.9117 183.283 11.991C183.465 12.0657 183.621 12.1777 183.752 12.327C183.882 12.4763 183.95 12.6747 183.955 12.922C183.955 13.1413 183.894 13.3373 183.773 13.51C183.651 13.6827 183.479 13.818 183.255 13.916C183.035 14.014 182.776 14.063 182.478 14.063ZM188.31 10.143V14H187.512V13.545C187.386 13.7037 187.22 13.8297 187.015 13.923C186.814 14.0117 186.6 14.056 186.371 14.056C186.068 14.056 185.795 13.993 185.552 13.867C185.314 13.741 185.125 13.5543 184.985 13.307C184.85 13.0597 184.782 12.761 184.782 12.411V10.143H185.573V12.292C185.573 12.6373 185.659 12.9033 185.832 13.09C186.005 13.272 186.24 13.363 186.539 13.363C186.838 13.363 187.073 13.272 187.246 13.09C187.423 12.9033 187.512 12.6373 187.512 12.292V10.143H188.31ZM192.898 11.977C192.898 12.1217 192.889 12.2523 192.87 12.369H189.923C189.946 12.677 190.061 12.9243 190.266 13.111C190.471 13.2977 190.723 13.391 191.022 13.391C191.451 13.391 191.755 13.2113 191.932 12.852H192.793C192.676 13.2067 192.464 13.4983 192.156 13.727C191.853 13.951 191.475 14.063 191.022 14.063C190.653 14.063 190.322 13.9813 190.028 13.818C189.739 13.65 189.51 13.4167 189.342 13.118C189.179 12.8147 189.097 12.4647 189.097 12.068C189.097 11.6713 189.176 11.3237 189.335 11.025C189.498 10.7217 189.725 10.4883 190.014 10.325C190.308 10.1617 190.644 10.08 191.022 10.08C191.386 10.08 191.71 10.1593 191.995 10.318C192.28 10.4767 192.501 10.7007 192.66 10.99C192.819 11.2747 192.898 11.6037 192.898 11.977ZM192.065 11.725C192.06 11.431 191.955 11.1953 191.75 11.018C191.545 10.8407 191.29 10.752 190.987 10.752C190.712 10.752 190.476 10.8407 190.28 11.018C190.084 11.1907 189.967 11.4263 189.93 11.725H192.065ZM195.824 14.049C195.679 14.049 195.558 14 195.46 13.902C195.362 13.804 195.313 13.6827 195.313 13.538C195.313 13.3933 195.362 13.272 195.46 13.174C195.558 13.076 195.679 13.027 195.824 13.027C195.964 13.027 196.083 13.076 196.181 13.174C196.279 13.272 196.328 13.3933 196.328 13.538C196.328 13.6827 196.279 13.804 196.181 13.902C196.083 14 195.964 14.049 195.824 14.049ZM195.824 11.109C195.679 11.109 195.558 11.06 195.46 10.962C195.362 10.864 195.313 10.7427 195.313 10.598C195.313 10.4533 195.362 10.332 195.46 10.234C195.558 10.136 195.679 10.087 195.824 10.087C195.964 10.087 196.083 10.136 196.181 10.234C196.279 10.332 196.328 10.4533 196.328 10.598C196.328 10.7427 196.279 10.864 196.181 10.962C196.083 11.06 195.964 11.109 195.824 11.109ZM204.216 10.143L203.019 14H202.179L201.402 11.151L200.625 14H199.785L198.581 10.143H199.393L200.198 13.244L201.017 10.143H201.85L202.634 13.23L203.432 10.143H204.216ZM205.218 9.632C205.073 9.632 204.952 9.583 204.854 9.485C204.756 9.387 204.707 9.26567 204.707 9.121C204.707 8.97633 204.756 8.855 204.854 8.757C204.952 8.659 205.073 8.61 205.218 8.61C205.358 8.61 205.477 8.659 205.575 8.757C205.673 8.855 205.722 8.97633 205.722 9.121C205.722 9.26567 205.673 9.387 205.575 9.485C205.477 9.583 205.358 9.632 205.218 9.632ZM205.61 10.143V14H204.812V10.143H205.61ZM207.456 10.71C207.591 10.5327 207.775 10.3833 208.009 10.262C208.242 10.1407 208.506 10.08 208.8 10.08C209.136 10.08 209.441 10.164 209.717 10.332C209.997 10.4953 210.216 10.7263 210.375 11.025C210.533 11.3237 210.613 11.6667 210.613 12.054C210.613 12.4413 210.533 12.789 210.375 13.097C210.216 13.4003 209.997 13.6383 209.717 13.811C209.441 13.979 209.136 14.063 208.8 14.063C208.506 14.063 208.244 14.0047 208.016 13.888C207.787 13.7667 207.6 13.6173 207.456 13.44V15.834H206.658V10.143H207.456V10.71ZM209.801 12.054C209.801 11.788 209.745 11.5593 209.633 11.368C209.525 11.172 209.381 11.025 209.199 10.927C209.021 10.8243 208.83 10.773 208.625 10.773C208.424 10.773 208.233 10.8243 208.051 10.927C207.873 11.0297 207.729 11.179 207.617 11.375C207.509 11.571 207.456 11.802 207.456 12.068C207.456 12.334 207.509 12.5673 207.617 12.768C207.729 12.964 207.873 13.1133 208.051 13.216C208.233 13.3187 208.424 13.37 208.625 13.37C208.83 13.37 209.021 13.3187 209.199 13.216C209.381 13.1087 209.525 12.9547 209.633 12.754C209.745 12.5533 209.801 12.32 209.801 12.054Z" fill="black"/>
<line x1="164.381" y1="27.6762" x2="198.381" y2="67.6762" stroke="black"/>
<line x1="116.233" y1="27.3032" x2="84.3976" y2="69.0467" stroke="black"/>
<path d="M144.5 28V102" stroke="black"/>
<path d="M201.003 85L199.925 83.096H199.463V85H198.483V80.114H200.317C200.695 80.114 201.017 80.1817 201.283 80.317C201.549 80.4477 201.747 80.6273 201.878 80.856C202.013 81.08 202.081 81.332 202.081 81.612C202.081 81.934 201.988 82.2257 201.801 82.487C201.614 82.7437 201.337 82.921 200.968 83.019L202.137 85H201.003ZM199.463 82.361H200.282C200.548 82.361 200.746 82.298 200.877 82.172C201.008 82.0413 201.073 81.8617 201.073 81.633C201.073 81.409 201.008 81.2363 200.877 81.115C200.746 80.989 200.548 80.926 200.282 80.926H199.463V82.361ZM206.572 82.977C206.572 83.117 206.563 83.243 206.544 83.355H203.709C203.733 83.635 203.831 83.8543 204.003 84.013C204.176 84.1717 204.388 84.251 204.64 84.251C205.004 84.251 205.263 84.0947 205.417 83.782H206.474C206.362 84.1553 206.148 84.4633 205.83 84.706C205.513 84.944 205.123 85.063 204.661 85.063C204.288 85.063 203.952 84.9813 203.653 84.818C203.359 84.65 203.128 84.4143 202.96 84.111C202.797 83.8077 202.715 83.4577 202.715 83.061C202.715 82.6597 202.797 82.3073 202.96 82.004C203.124 81.7007 203.352 81.4673 203.646 81.304C203.94 81.1407 204.279 81.059 204.661 81.059C205.03 81.059 205.359 81.1383 205.648 81.297C205.942 81.4557 206.169 81.682 206.327 81.976C206.491 82.2653 206.572 82.599 206.572 82.977ZM205.557 82.697C205.553 82.445 205.462 82.2443 205.284 82.095C205.107 81.941 204.89 81.864 204.633 81.864C204.391 81.864 204.185 81.9387 204.017 82.088C203.854 82.2327 203.754 82.4357 203.716 82.697H205.557ZM207.785 80.66C207.607 80.66 207.46 80.6063 207.344 80.499C207.232 80.387 207.176 80.2493 207.176 80.086C207.176 79.9227 207.232 79.7873 207.344 79.68C207.46 79.568 207.607 79.512 207.785 79.512C207.957 79.512 208.1 79.568 208.212 79.68C208.324 79.7873 208.38 79.9227 208.38 80.086C208.38 80.2493 208.324 80.387 208.212 80.499C208.1 80.6063 207.957 80.66 207.785 80.66ZM208.268 85.637C208.268 86.0663 208.16 86.3743 207.946 86.561C207.736 86.7523 207.432 86.848 207.036 86.848H206.602V86.015H206.882C207.031 86.015 207.136 85.9847 207.197 85.924C207.257 85.868 207.288 85.7747 207.288 85.644V81.122H208.268V85.637ZM212.841 82.977C212.841 83.117 212.832 83.243 212.813 83.355H209.978C210.001 83.635 210.099 83.8543 210.272 84.013C210.445 84.1717 210.657 84.251 210.909 84.251C211.273 84.251 211.532 84.0947 211.686 83.782H212.743C212.631 84.1553 212.416 84.4633 212.099 84.706C211.782 84.944 211.392 85.063 210.93 85.063C210.557 85.063 210.221 84.9813 209.922 84.818C209.628 84.65 209.397 84.4143 209.229 84.111C209.066 83.8077 208.984 83.4577 208.984 83.061C208.984 82.6597 209.066 82.3073 209.229 82.004C209.392 81.7007 209.621 81.4673 209.915 81.304C210.209 81.1407 210.547 81.059 210.93 81.059C211.299 81.059 211.628 81.1383 211.917 81.297C212.211 81.4557 212.437 81.682 212.596 81.976C212.759 82.2653 212.841 82.599 212.841 82.977ZM211.826 82.697C211.821 82.445 211.73 82.2443 211.553 82.095C211.376 81.941 211.159 81.864 210.902 81.864C210.659 81.864 210.454 81.9387 210.286 82.088C210.123 82.2327 210.022 82.4357 209.985 82.697H211.826ZM213.304 83.061C213.304 82.6597 213.386 82.3097 213.549 82.011C213.713 81.7077 213.939 81.4743 214.228 81.311C214.518 81.143 214.849 81.059 215.222 81.059C215.703 81.059 216.1 81.1803 216.412 81.423C216.73 81.661 216.942 81.997 217.049 82.431H215.992C215.936 82.263 215.841 82.1323 215.705 82.039C215.575 81.941 215.411 81.892 215.215 81.892C214.935 81.892 214.714 81.9947 214.55 82.2C214.387 82.4007 214.305 82.6877 214.305 83.061C214.305 83.4297 214.387 83.7167 214.55 83.922C214.714 84.1227 214.935 84.223 215.215 84.223C215.612 84.223 215.871 84.0457 215.992 83.691H217.049C216.942 84.111 216.73 84.4447 216.412 84.692C216.095 84.9393 215.698 85.063 215.222 85.063C214.849 85.063 214.518 84.9813 214.228 84.818C213.939 84.65 213.713 84.4167 213.549 84.118C213.386 83.8147 213.304 83.4623 213.304 83.061ZM218.908 81.927V83.803C218.908 83.9337 218.939 84.0293 218.999 84.09C219.065 84.146 219.172 84.174 219.321 84.174H219.776V85H219.16C218.334 85 217.921 84.5987 217.921 83.796V81.927H217.459V81.122H217.921V80.163H218.908V81.122H219.776V81.927H218.908ZM225.152 82.13V82.802H222.275V82.13H225.152ZM229.504 85.063C229.201 85.063 228.928 85.0093 228.685 84.902C228.447 84.79 228.258 84.6407 228.118 84.454C227.978 84.2627 227.903 84.0503 227.894 83.817H228.72C228.734 83.9803 228.811 84.118 228.951 84.23C229.096 84.3373 229.275 84.391 229.49 84.391C229.714 84.391 229.887 84.349 230.008 84.265C230.134 84.1763 230.197 84.0643 230.197 83.929C230.197 83.7843 230.127 83.677 229.987 83.607C229.852 83.537 229.635 83.46 229.336 83.376C229.047 83.2967 228.811 83.2197 228.629 83.145C228.447 83.0703 228.288 82.956 228.153 82.802C228.022 82.648 227.957 82.445 227.957 82.193C227.957 81.9877 228.018 81.801 228.139 81.633C228.26 81.4603 228.433 81.325 228.657 81.227C228.886 81.129 229.147 81.08 229.441 81.08C229.88 81.08 230.232 81.192 230.498 81.416C230.769 81.6353 230.913 81.9363 230.932 82.319H230.134C230.12 82.1463 230.05 82.0087 229.924 81.906C229.798 81.8033 229.628 81.752 229.413 81.752C229.203 81.752 229.042 81.7917 228.93 81.871C228.818 81.9503 228.762 82.0553 228.762 82.186C228.762 82.2887 228.799 82.375 228.874 82.445C228.949 82.515 229.04 82.571 229.147 82.613C229.254 82.6503 229.413 82.6993 229.623 82.76C229.903 82.8347 230.132 82.9117 230.309 82.991C230.491 83.0657 230.647 83.1777 230.778 83.327C230.909 83.4763 230.976 83.6747 230.981 83.922C230.981 84.1413 230.92 84.3373 230.799 84.51C230.678 84.6827 230.505 84.818 230.281 84.916C230.062 85.014 229.803 85.063 229.504 85.063ZM232.774 81.794V83.929C232.774 84.0737 232.807 84.1787 232.872 84.244C232.942 84.3047 233.059 84.335 233.222 84.335H233.712V85H233.082C232.723 85 232.448 84.916 232.256 84.748C232.065 84.58 231.969 84.307 231.969 83.929V81.794H231.514V81.143H231.969V80.184H232.774V81.143H233.712V81.794H232.774ZM234.182 83.054C234.182 82.6667 234.261 82.3237 234.42 82.025C234.583 81.7263 234.803 81.4953 235.078 81.332C235.358 81.164 235.666 81.08 236.002 81.08C236.305 81.08 236.569 81.1407 236.793 81.262C237.022 81.3787 237.204 81.5257 237.339 81.703V81.143H238.144V85H237.339V84.426C237.204 84.608 237.019 84.7597 236.786 84.881C236.553 85.0023 236.287 85.063 235.988 85.063C235.657 85.063 235.353 84.979 235.078 84.811C234.803 84.6383 234.583 84.4003 234.42 84.097C234.261 83.789 234.182 83.4413 234.182 83.054ZM237.339 83.068C237.339 82.802 237.283 82.571 237.171 82.375C237.064 82.179 236.921 82.0297 236.744 81.927C236.567 81.8243 236.375 81.773 236.17 81.773C235.965 81.773 235.773 81.8243 235.596 81.927C235.419 82.025 235.274 82.172 235.162 82.368C235.055 82.5593 235.001 82.788 235.001 83.054C235.001 83.32 235.055 83.5533 235.162 83.754C235.274 83.9547 235.419 84.1087 235.596 84.216C235.778 84.3187 235.969 84.37 236.17 84.37C236.375 84.37 236.567 84.3187 236.744 84.216C236.921 84.1133 237.064 83.964 237.171 83.768C237.283 83.5673 237.339 83.334 237.339 83.068ZM240.123 81.794V83.929C240.123 84.0737 240.156 84.1787 240.221 84.244C240.291 84.3047 240.408 84.335 240.571 84.335H241.061V85H240.431C240.072 85 239.796 84.916 239.605 84.748C239.414 84.58 239.318 84.307 239.318 83.929V81.794H238.863V81.143H239.318V80.184H240.123V81.143H241.061V81.794H240.123ZM245.331 82.977C245.331 83.1217 245.322 83.2523 245.303 83.369H242.356C242.38 83.677 242.494 83.9243 242.699 84.111C242.905 84.2977 243.157 84.391 243.455 84.391C243.885 84.391 244.188 84.2113 244.365 83.852H245.226C245.11 84.2067 244.897 84.4983 244.589 84.727C244.286 84.951 243.908 85.063 243.455 85.063C243.087 85.063 242.755 84.9813 242.461 84.818C242.172 84.65 241.943 84.4167 241.775 84.118C241.612 83.8147 241.53 83.4647 241.53 83.068C241.53 82.6713 241.61 82.3237 241.768 82.025C241.932 81.7217 242.158 81.4883 242.447 81.325C242.741 81.1617 243.077 81.08 243.455 81.08C243.819 81.08 244.144 81.1593 244.428 81.318C244.713 81.4767 244.935 81.7007 245.093 81.99C245.252 82.2747 245.331 82.6037 245.331 82.977ZM244.498 82.725C244.494 82.431 244.389 82.1953 244.183 82.018C243.978 81.8407 243.724 81.752 243.42 81.752C243.145 81.752 242.909 81.8407 242.713 82.018C242.517 82.1907 242.401 82.4263 242.363 82.725H244.498ZM248.257 85.049C248.112 85.049 247.991 85 247.893 84.902C247.795 84.804 247.746 84.6827 247.746 84.538C247.746 84.3933 247.795 84.272 247.893 84.174C247.991 84.076 248.112 84.027 248.257 84.027C248.397 84.027 248.516 84.076 248.614 84.174C248.712 84.272 248.761 84.3933 248.761 84.538C248.761 84.6827 248.712 84.804 248.614 84.902C248.516 85 248.397 85.049 248.257 85.049ZM248.257 82.109C248.112 82.109 247.991 82.06 247.893 81.962C247.795 81.864 247.746 81.7427 247.746 81.598C247.746 81.4533 247.795 81.332 247.893 81.234C247.991 81.136 248.112 81.087 248.257 81.087C248.397 81.087 248.516 81.136 248.614 81.234C248.712 81.332 248.761 81.4533 248.761 81.598C248.761 81.7427 248.712 81.864 248.614 81.962C248.516 82.06 248.397 82.109 248.257 82.109ZM251.875 80.632C251.731 80.632 251.609 80.583 251.511 80.485C251.413 80.387 251.364 80.2657 251.364 80.121C251.364 79.9763 251.413 79.855 251.511 79.757C251.609 79.659 251.731 79.61 251.875 79.61C252.015 79.61 252.134 79.659 252.232 79.757C252.33 79.855 252.379 79.9763 252.379 80.121C252.379 80.2657 252.33 80.387 252.232 80.485C252.134 80.583 252.015 80.632 251.875 80.632ZM252.267 81.143V85H251.469V81.143H252.267ZM254.715 85.063C254.412 85.063 254.139 85.0093 253.896 84.902C253.658 84.79 253.469 84.6407 253.329 84.454C253.189 84.2627 253.114 84.0503 253.105 83.817H253.931C253.945 83.9803 254.022 84.118 254.162 84.23C254.307 84.3373 254.486 84.391 254.701 84.391C254.925 84.391 255.098 84.349 255.219 84.265C255.345 84.1763 255.408 84.0643 255.408 83.929C255.408 83.7843 255.338 83.677 255.198 83.607C255.063 83.537 254.846 83.46 254.547 83.376C254.258 83.2967 254.022 83.2197 253.84 83.145C253.658 83.0703 253.499 82.956 253.364 82.802C253.233 82.648 253.168 82.445 253.168 82.193C253.168 81.9877 253.229 81.801 253.35 81.633C253.471 81.4603 253.644 81.325 253.868 81.227C254.097 81.129 254.358 81.08 254.652 81.08C255.091 81.08 255.443 81.192 255.709 81.416C255.98 81.6353 256.124 81.9363 256.143 82.319H255.345C255.331 82.1463 255.261 82.0087 255.135 81.906C255.009 81.8033 254.839 81.752 254.624 81.752C254.414 81.752 254.253 81.7917 254.141 81.871C254.029 81.9503 253.973 82.0553 253.973 82.186C253.973 82.2887 254.01 82.375 254.085 82.445C254.16 82.515 254.251 82.571 254.358 82.613C254.465 82.6503 254.624 82.6993 254.834 82.76C255.114 82.8347 255.343 82.9117 255.52 82.991C255.702 83.0657 255.858 83.1777 255.989 83.327C256.12 83.4763 256.187 83.6747 256.192 83.922C256.192 84.1413 256.131 84.3373 256.01 84.51C255.889 84.6827 255.716 84.818 255.492 84.916C255.273 85.014 255.014 85.063 254.715 85.063ZM258.454 85.063C258.151 85.063 257.878 85.0093 257.635 84.902C257.397 84.79 257.208 84.6407 257.068 84.454C256.928 84.2627 256.854 84.0503 256.844 83.817H257.67C257.684 83.9803 257.761 84.118 257.901 84.23C258.046 84.3373 258.226 84.391 258.44 84.391C258.664 84.391 258.837 84.349 258.958 84.265C259.084 84.1763 259.147 84.0643 259.147 83.929C259.147 83.7843 259.077 83.677 258.937 83.607C258.802 83.537 258.585 83.46 258.286 83.376C257.997 83.2967 257.761 83.2197 257.579 83.145C257.397 83.0703 257.239 82.956 257.103 82.802C256.973 82.648 256.907 82.445 256.907 82.193C256.907 81.9877 256.968 81.801 257.089 81.633C257.211 81.4603 257.383 81.325 257.607 81.227C257.836 81.129 258.097 81.08 258.391 81.08C258.83 81.08 259.182 81.192 259.448 81.416C259.719 81.6353 259.864 81.9363 259.882 82.319H259.084C259.07 82.1463 259 82.0087 258.874 81.906C258.748 81.8033 258.578 81.752 258.363 81.752C258.153 81.752 257.992 81.7917 257.88 81.871C257.768 81.9503 257.712 82.0553 257.712 82.186C257.712 82.2887 257.75 82.375 257.824 82.445C257.899 82.515 257.99 82.571 258.097 82.613C258.205 82.6503 258.363 82.6993 258.573 82.76C258.853 82.8347 259.082 82.9117 259.259 82.991C259.441 83.0657 259.598 83.1777 259.728 83.327C259.859 83.4763 259.927 83.6747 259.931 83.922C259.931 84.1413 259.871 84.3373 259.749 84.51C259.628 84.6827 259.455 84.818 259.231 84.916C259.012 85.014 258.753 85.063 258.454 85.063ZM264.287 81.143V85H263.489V84.545C263.363 84.7037 263.197 84.8297 262.992 84.923C262.791 85.0117 262.576 85.056 262.348 85.056C262.044 85.056 261.771 84.993 261.529 84.867C261.291 84.741 261.102 84.5543 260.962 84.307C260.826 84.0597 260.759 83.761 260.759 83.411V81.143H261.55V83.292C261.55 83.6373 261.636 83.9033 261.809 84.09C261.981 84.272 262.217 84.363 262.516 84.363C262.814 84.363 263.05 84.272 263.223 84.09C263.4 83.9033 263.489 83.6373 263.489 83.292V81.143H264.287ZM268.874 82.977C268.874 83.1217 268.865 83.2523 268.846 83.369H265.899C265.923 83.677 266.037 83.9243 266.242 84.111C266.448 84.2977 266.7 84.391 266.998 84.391C267.428 84.391 267.731 84.2113 267.908 83.852H268.769C268.653 84.2067 268.44 84.4983 268.132 84.727C267.829 84.951 267.451 85.063 266.998 85.063C266.63 85.063 266.298 84.9813 266.004 84.818C265.715 84.65 265.486 84.4167 265.318 84.118C265.155 83.8147 265.073 83.4647 265.073 83.068C265.073 82.6713 265.153 82.3237 265.311 82.025C265.475 81.7217 265.701 81.4883 265.99 81.325C266.284 81.1617 266.62 81.08 266.998 81.08C267.362 81.08 267.687 81.1593 267.971 81.318C268.256 81.4767 268.478 81.7007 268.636 81.99C268.795 82.2747 268.874 82.6037 268.874 82.977ZM268.041 82.725C268.037 82.431 267.932 82.1953 267.726 82.018C267.521 81.8407 267.267 81.752 266.963 81.752C266.688 81.752 266.452 81.8407 266.256 82.018C266.06 82.1907 265.944 82.4263 265.906 82.725H268.041ZM271.8 85.049C271.655 85.049 271.534 85 271.436 84.902C271.338 84.804 271.289 84.6827 271.289 84.538C271.289 84.3933 271.338 84.272 271.436 84.174C271.534 84.076 271.655 84.027 271.8 84.027C271.94 84.027 272.059 84.076 272.157 84.174C272.255 84.272 272.304 84.3933 272.304 84.538C272.304 84.6827 272.255 84.804 272.157 84.902C272.059 85 271.94 85.049 271.8 85.049ZM271.8 82.109C271.655 82.109 271.534 82.06 271.436 81.962C271.338 81.864 271.289 81.7427 271.289 81.598C271.289 81.4533 271.338 81.332 271.436 81.234C271.534 81.136 271.655 81.087 271.8 81.087C271.94 81.087 272.059 81.136 272.157 81.234C272.255 81.332 272.304 81.4533 272.304 81.598C272.304 81.7427 272.255 81.864 272.157 81.962C272.059 82.06 271.94 82.109 271.8 82.109ZM275.81 81.703C275.927 81.507 276.081 81.3553 276.272 81.248C276.468 81.136 276.699 81.08 276.965 81.08V81.906H276.762C276.45 81.906 276.212 81.9853 276.048 82.144C275.89 82.3027 275.81 82.578 275.81 82.97V85H275.012V81.143H275.81V81.703ZM281.234 82.977C281.234 83.1217 281.224 83.2523 281.206 83.369H278.259C278.282 83.677 278.396 83.9243 278.602 84.111C278.807 84.2977 279.059 84.391 279.358 84.391C279.787 84.391 280.09 84.2113 280.268 83.852H281.129C281.012 84.2067 280.8 84.4983 280.492 84.727C280.188 84.951 279.81 85.063 279.358 85.063C278.989 85.063 278.658 84.9813 278.364 84.818C278.074 84.65 277.846 84.4167 277.678 84.118C277.514 83.8147 277.433 83.4647 277.433 83.068C277.433 82.6713 277.512 82.3237 277.671 82.025C277.834 81.7217 278.06 81.4883 278.35 81.325C278.644 81.1617 278.98 81.08 279.358 81.08C279.722 81.08 280.046 81.1593 280.331 81.318C280.615 81.4767 280.837 81.7007 280.996 81.99C281.154 82.2747 281.234 82.6037 281.234 82.977ZM280.401 82.725C280.396 82.431 280.291 82.1953 280.086 82.018C279.88 81.8407 279.626 81.752 279.323 81.752C279.047 81.752 278.812 81.8407 278.616 82.018C278.42 82.1907 278.303 82.4263 278.266 82.725H280.401ZM282.425 80.632C282.28 80.632 282.159 80.583 282.061 80.485C281.963 80.387 281.914 80.2657 281.914 80.121C281.914 79.9763 281.963 79.855 282.061 79.757C282.159 79.659 282.28 79.61 282.425 79.61C282.565 79.61 282.684 79.659 282.782 79.757C282.88 79.855 282.929 79.9763 282.929 80.121C282.929 80.2657 282.88 80.387 282.782 80.485C282.684 80.583 282.565 80.632 282.425 80.632ZM282.817 85.756C282.817 86.134 282.721 86.407 282.53 86.575C282.343 86.7477 282.07 86.834 281.711 86.834H281.298V86.162H281.571C281.734 86.162 281.849 86.1293 281.914 86.064C281.984 86.0033 282.019 85.9007 282.019 85.756V81.143H282.817V85.756ZM287.4 82.977C287.4 83.1217 287.391 83.2523 287.372 83.369H284.425C284.448 83.677 284.563 83.9243 284.768 84.111C284.973 84.2977 285.225 84.391 285.524 84.391C285.953 84.391 286.257 84.2113 286.434 83.852H287.295C287.178 84.2067 286.966 84.4983 286.658 84.727C286.355 84.951 285.977 85.063 285.524 85.063C285.155 85.063 284.824 84.9813 284.53 84.818C284.241 84.65 284.012 84.4167 283.844 84.118C283.681 83.8147 283.599 83.4647 283.599 83.068C283.599 82.6713 283.678 82.3237 283.837 82.025C284 81.7217 284.227 81.4883 284.516 81.325C284.81 81.1617 285.146 81.08 285.524 81.08C285.888 81.08 286.212 81.1593 286.497 81.318C286.782 81.4767 287.003 81.7007 287.162 81.99C287.321 82.2747 287.4 82.6037 287.4 82.977ZM286.567 82.725C286.562 82.431 286.457 82.1953 286.252 82.018C286.047 81.8407 285.792 81.752 285.489 81.752C285.214 81.752 284.978 81.8407 284.782 82.018C284.586 82.1907 284.469 82.4263 284.432 82.725H286.567ZM287.919 83.068C287.919 82.6713 287.998 82.3237 288.157 82.025C288.32 81.7217 288.544 81.4883 288.829 81.325C289.114 81.1617 289.44 81.08 289.809 81.08C290.276 81.08 290.661 81.192 290.964 81.416C291.272 81.6353 291.48 81.9503 291.587 82.361H290.726C290.656 82.1697 290.544 82.0203 290.39 81.913C290.236 81.8057 290.042 81.752 289.809 81.752C289.482 81.752 289.221 81.8687 289.025 82.102C288.834 82.3307 288.738 82.6527 288.738 83.068C288.738 83.4833 288.834 83.8077 289.025 84.041C289.221 84.2743 289.482 84.391 289.809 84.391C290.271 84.391 290.577 84.188 290.726 83.782H291.587C291.475 84.174 291.265 84.4867 290.957 84.72C290.649 84.9487 290.266 85.063 289.809 85.063C289.44 85.063 289.114 84.9813 288.829 84.818C288.544 84.65 288.32 84.4167 288.157 84.118C287.998 83.8147 287.919 83.4647 287.919 83.068ZM293.313 81.794V83.929C293.313 84.0737 293.346 84.1787 293.411 84.244C293.481 84.3047 293.598 84.335 293.761 84.335H294.251V85H293.621C293.262 85 292.987 84.916 292.795 84.748C292.604 84.58 292.508 84.307 292.508 83.929V81.794H292.053V81.143H292.508V80.184H293.313V81.143H294.251V81.794H293.313Z" fill="black"/>
<path d="M10.003 79L8.925 77.096H8.463V79H7.483V74.114H9.317C9.695 74.114 10.017 74.1817 10.283 74.317C10.549 74.4477 10.7473 74.6273 10.878 74.856C11.0133 75.08 11.081 75.332 11.081 75.612C11.081 75.934 10.9877 76.2257 10.801 76.487C10.6143 76.7437 10.3367 76.921 9.968 77.019L11.137 79H10.003ZM8.463 76.361H9.282C9.548 76.361 9.74633 76.298 9.877 76.172C10.0077 76.0413 10.073 75.8617 10.073 75.633C10.073 75.409 10.0077 75.2363 9.877 75.115C9.74633 74.989 9.548 74.926 9.282 74.926H8.463V76.361ZM15.5724 76.977C15.5724 77.117 15.563 77.243 15.5444 77.355H12.7094C12.7327 77.635 12.8307 77.8543 13.0034 78.013C13.176 78.1717 13.3884 78.251 13.6404 78.251C14.0044 78.251 14.2634 78.0947 14.4174 77.782H15.4744C15.3624 78.1553 15.1477 78.4633 14.8304 78.706C14.513 78.944 14.1234 79.063 13.6614 79.063C13.288 79.063 12.952 78.9813 12.6534 78.818C12.3594 78.65 12.1284 78.4143 11.9604 78.111C11.797 77.8077 11.7154 77.4577 11.7154 77.061C11.7154 76.6597 11.797 76.3073 11.9604 76.004C12.1237 75.7007 12.3524 75.4673 12.6464 75.304C12.9404 75.1407 13.2787 75.059 13.6614 75.059C14.03 75.059 14.359 75.1383 14.6484 75.297C14.9424 75.4557 15.1687 75.682 15.3274 75.976C15.4907 76.2653 15.5724 76.599 15.5724 76.977ZM14.5574 76.697C14.5527 76.445 14.4617 76.2443 14.2844 76.095C14.107 75.941 13.89 75.864 13.6334 75.864C13.3907 75.864 13.1854 75.9387 13.0174 76.088C12.854 76.2327 12.7537 76.4357 12.7164 76.697H14.5574ZM17.7717 79.063C17.4544 79.063 17.1697 79.007 16.9177 78.895C16.6657 78.7783 16.465 78.622 16.3157 78.426C16.171 78.23 16.0917 78.013 16.0777 77.775H17.0647C17.0834 77.9243 17.1557 78.048 17.2817 78.146C17.4124 78.244 17.5734 78.293 17.7647 78.293C17.9514 78.293 18.096 78.2557 18.1987 78.181C18.306 78.1063 18.3597 78.0107 18.3597 77.894C18.3597 77.768 18.2944 77.6747 18.1637 77.614C18.0377 77.5487 17.8347 77.4787 17.5547 77.404C17.2654 77.334 17.0274 77.2617 16.8407 77.187C16.6587 77.1123 16.5 76.998 16.3647 76.844C16.234 76.69 16.1687 76.4823 16.1687 76.221C16.1687 76.0063 16.2294 75.8103 16.3507 75.633C16.4767 75.4557 16.654 75.3157 16.8827 75.213C17.116 75.1103 17.389 75.059 17.7017 75.059C18.1637 75.059 18.5324 75.1757 18.8077 75.409C19.083 75.6377 19.2347 75.948 19.2627 76.34H18.3247C18.3107 76.186 18.2454 76.0647 18.1287 75.976C18.0167 75.8827 17.865 75.836 17.6737 75.836C17.4964 75.836 17.3587 75.8687 17.2607 75.934C17.1674 75.9993 17.1207 76.0903 17.1207 76.207C17.1207 76.3377 17.186 76.438 17.3167 76.508C17.4474 76.5733 17.6504 76.641 17.9257 76.711C18.2057 76.781 18.4367 76.8533 18.6187 76.928C18.8007 77.0027 18.957 77.1193 19.0877 77.278C19.223 77.432 19.293 77.6373 19.2977 77.894C19.2977 78.118 19.2347 78.3187 19.1087 78.496C18.9874 78.6733 18.81 78.8133 18.5767 78.916C18.348 79.014 18.0797 79.063 17.7717 79.063ZM21.8241 79.063C21.4508 79.063 21.1148 78.9813 20.8161 78.818C20.5175 78.65 20.2818 78.4143 20.1091 78.111C19.9411 77.8077 19.8571 77.4577 19.8571 77.061C19.8571 76.6643 19.9435 76.3143 20.1161 76.011C20.2935 75.7077 20.5338 75.4743 20.8371 75.311C21.1405 75.143 21.4788 75.059 21.8521 75.059C22.2255 75.059 22.5638 75.143 22.8671 75.311C23.1705 75.4743 23.4085 75.7077 23.5811 76.011C23.7585 76.3143 23.8471 76.6643 23.8471 77.061C23.8471 77.4577 23.7561 77.8077 23.5741 78.111C23.3968 78.4143 23.1541 78.65 22.8461 78.818C22.5428 78.9813 22.2021 79.063 21.8241 79.063ZM21.8241 78.209C22.0015 78.209 22.1671 78.167 22.3211 78.083C22.4798 77.9943 22.6058 77.8637 22.6991 77.691C22.7925 77.5183 22.8391 77.3083 22.8391 77.061C22.8391 76.6923 22.7411 76.41 22.5451 76.214C22.3538 76.0133 22.1181 75.913 21.8381 75.913C21.5581 75.913 21.3225 76.0133 21.1311 76.214C20.9445 76.41 20.8511 76.6923 20.8511 77.061C20.8511 77.4297 20.9421 77.7143 21.1241 77.915C21.3108 78.111 21.5441 78.209 21.8241 78.209ZM25.546 73.82V79H24.566V73.82H25.546ZM28.1313 78.097L29.1113 75.122H30.1543L28.7193 79H27.5293L26.1013 75.122H27.1513L28.1313 78.097ZM34.3097 76.977C34.3097 77.117 34.3003 77.243 34.2817 77.355H31.4467C31.47 77.635 31.568 77.8543 31.7407 78.013C31.9133 78.1717 32.1257 78.251 32.3777 78.251C32.7417 78.251 33.0007 78.0947 33.1547 77.782H34.2117C34.0997 78.1553 33.885 78.4633 33.5677 78.706C33.2503 78.944 32.8607 79.063 32.3987 79.063C32.0253 79.063 31.6893 78.9813 31.3907 78.818C31.0967 78.65 30.8657 78.4143 30.6977 78.111C30.5343 77.8077 30.4527 77.4577 30.4527 77.061C30.4527 76.6597 30.5343 76.3073 30.6977 76.004C30.861 75.7007 31.0897 75.4673 31.3837 75.304C31.6777 75.1407 32.016 75.059 32.3987 75.059C32.7673 75.059 33.0963 75.1383 33.3857 75.297C33.6797 75.4557 33.906 75.682 34.0647 75.976C34.228 76.2653 34.3097 76.599 34.3097 76.977ZM33.2947 76.697C33.29 76.445 33.199 76.2443 33.0217 76.095C32.8443 75.941 32.6273 75.864 32.3707 75.864C32.128 75.864 31.9227 75.9387 31.7547 76.088C31.5913 76.2327 31.491 76.4357 31.4537 76.697H33.2947ZM34.773 77.047C34.773 76.655 34.85 76.3073 35.004 76.004C35.1627 75.7007 35.3773 75.4673 35.648 75.304C35.9187 75.1407 36.2197 75.059 36.551 75.059C36.803 75.059 37.0433 75.115 37.272 75.227C37.5007 75.3343 37.6827 75.479 37.818 75.661V73.82H38.812V79H37.818V78.426C37.6967 78.6173 37.5263 78.7713 37.307 78.888C37.0877 79.0047 36.8333 79.063 36.544 79.063C36.2173 79.063 35.9187 78.979 35.648 78.811C35.3773 78.643 35.1627 78.4073 35.004 78.104C34.85 77.796 34.773 77.4437 34.773 77.047ZM37.825 77.061C37.825 76.823 37.7783 76.62 37.685 76.452C37.5917 76.2793 37.4657 76.1487 37.307 76.06C37.1483 75.9667 36.978 75.92 36.796 75.92C36.614 75.92 36.446 75.9643 36.292 76.053C36.138 76.1417 36.012 76.2723 35.914 76.445C35.8207 76.613 35.774 76.8137 35.774 77.047C35.774 77.2803 35.8207 77.4857 35.914 77.663C36.012 77.8357 36.138 77.9687 36.292 78.062C36.4507 78.1553 36.6187 78.202 36.796 78.202C36.978 78.202 37.1483 78.1577 37.307 78.069C37.4657 77.9757 37.5917 77.845 37.685 77.677C37.7783 77.5043 37.825 77.299 37.825 77.061ZM44.5905 76.13V76.802H41.7135V76.13H44.5905ZM48.9426 79.063C48.6392 79.063 48.3662 79.0093 48.1236 78.902C47.8856 78.79 47.6966 78.6407 47.5566 78.454C47.4166 78.2627 47.3419 78.0503 47.3326 77.817H48.1586C48.1726 77.9803 48.2496 78.118 48.3896 78.23C48.5342 78.3373 48.7139 78.391 48.9286 78.391C49.1526 78.391 49.3252 78.349 49.4466 78.265C49.5726 78.1763 49.6356 78.0643 49.6356 77.929C49.6356 77.7843 49.5656 77.677 49.4256 77.607C49.2902 77.537 49.0732 77.46 48.7746 77.376C48.4852 77.2967 48.2496 77.2197 48.0676 77.145C47.8856 77.0703 47.7269 76.956 47.5916 76.802C47.4609 76.648 47.3956 76.445 47.3956 76.193C47.3956 75.9877 47.4562 75.801 47.5776 75.633C47.6989 75.4603 47.8716 75.325 48.0956 75.227C48.3242 75.129 48.5856 75.08 48.8796 75.08C49.3182 75.08 49.6706 75.192 49.9366 75.416C50.2072 75.6353 50.3519 75.9363 50.3706 76.319H49.5726C49.5586 76.1463 49.4886 76.0087 49.3626 75.906C49.2366 75.8033 49.0662 75.752 48.8516 75.752C48.6416 75.752 48.4806 75.7917 48.3686 75.871C48.2566 75.9503 48.2006 76.0553 48.2006 76.186C48.2006 76.2887 48.2379 76.375 48.3126 76.445C48.3872 76.515 48.4782 76.571 48.5856 76.613C48.6929 76.6503 48.8516 76.6993 49.0616 76.76C49.3416 76.8347 49.5702 76.9117 49.7476 76.991C49.9296 77.0657 50.0859 77.1777 50.2166 77.327C50.3472 77.4763 50.4149 77.6747 50.4196 77.922C50.4196 78.1413 50.3589 78.3373 50.2376 78.51C50.1162 78.6827 49.9436 78.818 49.7196 78.916C49.5002 79.014 49.2412 79.063 48.9426 79.063ZM52.2128 75.794V77.929C52.2128 78.0737 52.2455 78.1787 52.3108 78.244C52.3808 78.3047 52.4975 78.335 52.6608 78.335H53.1508V79H52.5208C52.1615 79 51.8862 78.916 51.6948 78.748C51.5035 78.58 51.4078 78.307 51.4078 77.929V75.794H50.9528V75.143H51.4078V74.184H52.2128V75.143H53.1508V75.794H52.2128ZM53.6203 77.054C53.6203 76.6667 53.6997 76.3237 53.8583 76.025C54.0217 75.7263 54.241 75.4953 54.5163 75.332C54.7963 75.164 55.1043 75.08 55.4403 75.08C55.7437 75.08 56.0073 75.1407 56.2313 75.262C56.46 75.3787 56.642 75.5257 56.7773 75.703V75.143H57.5823V79H56.7773V78.426C56.642 78.608 56.4577 78.7597 56.2243 78.881C55.991 79.0023 55.725 79.063 55.4263 79.063C55.095 79.063 54.7917 78.979 54.5163 78.811C54.241 78.6383 54.0217 78.4003 53.8583 78.097C53.6997 77.789 53.6203 77.4413 53.6203 77.054ZM56.7773 77.068C56.7773 76.802 56.7213 76.571 56.6093 76.375C56.502 76.179 56.3597 76.0297 56.1823 75.927C56.005 75.8243 55.8137 75.773 55.6083 75.773C55.403 75.773 55.2117 75.8243 55.0343 75.927C54.857 76.025 54.7123 76.172 54.6003 76.368C54.493 76.5593 54.4393 76.788 54.4393 77.054C54.4393 77.32 54.493 77.5533 54.6003 77.754C54.7123 77.9547 54.857 78.1087 55.0343 78.216C55.2163 78.3187 55.4077 78.37 55.6083 78.37C55.8137 78.37 56.005 78.3187 56.1823 78.216C56.3597 78.1133 56.502 77.964 56.6093 77.768C56.7213 77.5673 56.7773 77.334 56.7773 77.068ZM59.5615 75.794V77.929C59.5615 78.0737 59.5941 78.1787 59.6595 78.244C59.7295 78.3047 59.8461 78.335 60.0095 78.335H60.4995V79H59.8695C59.5101 79 59.2348 78.916 59.0435 78.748C58.8521 78.58 58.7565 78.307 58.7565 77.929V75.794H58.3015V75.143H58.7565V74.184H59.5615V75.143H60.4995V75.794H59.5615ZM64.77 76.977C64.77 77.1217 64.7606 77.2523 64.742 77.369H61.795C61.8183 77.677 61.9326 77.9243 62.138 78.111C62.3433 78.2977 62.5953 78.391 62.894 78.391C63.3233 78.391 63.6266 78.2113 63.804 77.852H64.665C64.5483 78.2067 64.336 78.4983 64.028 78.727C63.7246 78.951 63.3466 79.063 62.894 79.063C62.5253 79.063 62.194 78.9813 61.9 78.818C61.6106 78.65 61.382 78.4167 61.214 78.118C61.0506 77.8147 60.969 77.4647 60.969 77.068C60.969 76.6713 61.0483 76.3237 61.207 76.025C61.3703 75.7217 61.5966 75.4883 61.886 75.325C62.18 75.1617 62.516 75.08 62.894 75.08C63.258 75.08 63.5823 75.1593 63.867 75.318C64.1516 75.4767 64.3733 75.7007 64.532 75.99C64.6906 76.2747 64.77 76.6037 64.77 76.977ZM63.937 76.725C63.9323 76.431 63.8273 76.1953 63.622 76.018C63.4166 75.8407 63.1623 75.752 62.859 75.752C62.5836 75.752 62.348 75.8407 62.152 76.018C61.956 76.1907 61.8393 76.4263 61.802 76.725H63.937ZM67.6956 79.049C67.551 79.049 67.4296 79 67.3316 78.902C67.2336 78.804 67.1846 78.6827 67.1846 78.538C67.1846 78.3933 67.2336 78.272 67.3316 78.174C67.4296 78.076 67.551 78.027 67.6956 78.027C67.8356 78.027 67.9546 78.076 68.0526 78.174C68.1506 78.272 68.1996 78.3933 68.1996 78.538C68.1996 78.6827 68.1506 78.804 68.0526 78.902C67.9546 79 67.8356 79.049 67.6956 79.049ZM67.6956 76.109C67.551 76.109 67.4296 76.06 67.3316 75.962C67.2336 75.864 67.1846 75.7427 67.1846 75.598C67.1846 75.4533 67.2336 75.332 67.3316 75.234C67.4296 75.136 67.551 75.087 67.6956 75.087C67.8356 75.087 67.9546 75.136 68.0526 75.234C68.1506 75.332 68.1996 75.4533 68.1996 75.598C68.1996 75.7427 68.1506 75.864 68.0526 75.962C67.9546 76.06 67.8356 76.109 67.6956 76.109ZM71.3138 74.632C71.1691 74.632 71.0478 74.583 70.9498 74.485C70.8518 74.387 70.8028 74.2657 70.8028 74.121C70.8028 73.9763 70.8518 73.855 70.9498 73.757C71.0478 73.659 71.1691 73.61 71.3138 73.61C71.4538 73.61 71.5728 73.659 71.6708 73.757C71.7688 73.855 71.8178 73.9763 71.8178 74.121C71.8178 74.2657 71.7688 74.387 71.6708 74.485C71.5728 74.583 71.4538 74.632 71.3138 74.632ZM71.7058 75.143V79H70.9078V75.143H71.7058ZM74.1535 79.063C73.8502 79.063 73.5772 79.0093 73.3345 78.902C73.0965 78.79 72.9075 78.6407 72.7675 78.454C72.6275 78.2627 72.5528 78.0503 72.5435 77.817H73.3695C73.3835 77.9803 73.4605 78.118 73.6005 78.23C73.7452 78.3373 73.9248 78.391 74.1395 78.391C74.3635 78.391 74.5362 78.349 74.6575 78.265C74.7835 78.1763 74.8465 78.0643 74.8465 77.929C74.8465 77.7843 74.7765 77.677 74.6365 77.607C74.5012 77.537 74.2842 77.46 73.9855 77.376C73.6962 77.2967 73.4605 77.2197 73.2785 77.145C73.0965 77.0703 72.9378 76.956 72.8025 76.802C72.6718 76.648 72.6065 76.445 72.6065 76.193C72.6065 75.9877 72.6672 75.801 72.7885 75.633C72.9098 75.4603 73.0825 75.325 73.3065 75.227C73.5352 75.129 73.7965 75.08 74.0905 75.08C74.5292 75.08 74.8815 75.192 75.1475 75.416C75.4182 75.6353 75.5628 75.9363 75.5815 76.319H74.7835C74.7695 76.1463 74.6995 76.0087 74.5735 75.906C74.4475 75.8033 74.2772 75.752 74.0625 75.752C73.8525 75.752 73.6915 75.7917 73.5795 75.871C73.4675 75.9503 73.4115 76.0553 73.4115 76.186C73.4115 76.2887 73.4488 76.375 73.5235 76.445C73.5982 76.515 73.6892 76.571 73.7965 76.613C73.9038 76.6503 74.0625 76.6993 74.2725 76.76C74.5525 76.8347 74.7812 76.9117 74.9585 76.991C75.1405 77.0657 75.2968 77.1777 75.4275 77.327C75.5582 77.4763 75.6258 77.6747 75.6305 77.922C75.6305 78.1413 75.5698 78.3373 75.4485 78.51C75.3272 78.6827 75.1545 78.818 74.9305 78.916C74.7112 79.014 74.4522 79.063 74.1535 79.063ZM77.8928 79.063C77.5894 79.063 77.3164 79.0093 77.0738 78.902C76.8358 78.79 76.6468 78.6407 76.5068 78.454C76.3668 78.2627 76.2921 78.0503 76.2828 77.817H77.1088C77.1228 77.9803 77.1998 78.118 77.3398 78.23C77.4844 78.3373 77.6641 78.391 77.8788 78.391C78.1028 78.391 78.2754 78.349 78.3968 78.265C78.5228 78.1763 78.5858 78.0643 78.5858 77.929C78.5858 77.7843 78.5158 77.677 78.3758 77.607C78.2404 77.537 78.0234 77.46 77.7248 77.376C77.4354 77.2967 77.1998 77.2197 77.0178 77.145C76.8358 77.0703 76.6771 76.956 76.5418 76.802C76.4111 76.648 76.3458 76.445 76.3458 76.193C76.3458 75.9877 76.4064 75.801 76.5278 75.633C76.6491 75.4603 76.8218 75.325 77.0458 75.227C77.2744 75.129 77.5358 75.08 77.8298 75.08C78.2684 75.08 78.6208 75.192 78.8868 75.416C79.1574 75.6353 79.3021 75.9363 79.3208 76.319H78.5228C78.5088 76.1463 78.4388 76.0087 78.3128 75.906C78.1868 75.8033 78.0164 75.752 77.8018 75.752C77.5918 75.752 77.4308 75.7917 77.3188 75.871C77.2068 75.9503 77.1508 76.0553 77.1508 76.186C77.1508 76.2887 77.1881 76.375 77.2628 76.445C77.3374 76.515 77.4284 76.571 77.5358 76.613C77.6431 76.6503 77.8018 76.6993 78.0118 76.76C78.2918 76.8347 78.5204 76.9117 78.6978 76.991C78.8798 77.0657 79.0361 77.1777 79.1668 77.327C79.2974 77.4763 79.3651 77.6747 79.3698 77.922C79.3698 78.1413 79.3091 78.3373 79.1878 78.51C79.0664 78.6827 78.8938 78.818 78.6698 78.916C78.4504 79.014 78.1914 79.063 77.8928 79.063ZM83.725 75.143V79H82.927V78.545C82.801 78.7037 82.6354 78.8297 82.43 78.923C82.2294 79.0117 82.0147 79.056 81.786 79.056C81.4827 79.056 81.2097 78.993 80.967 78.867C80.729 78.741 80.54 78.5543 80.4 78.307C80.2647 78.0597 80.197 77.761 80.197 77.411V75.143H80.988V77.292C80.988 77.6373 81.0744 77.9033 81.247 78.09C81.4197 78.272 81.6554 78.363 81.954 78.363C82.2527 78.363 82.4884 78.272 82.661 78.09C82.8384 77.9033 82.927 77.6373 82.927 77.292V75.143H83.725ZM88.3129 76.977C88.3129 77.1217 88.3036 77.2523 88.2849 77.369H85.3379C85.3613 77.677 85.4756 77.9243 85.6809 78.111C85.8863 78.2977 86.1383 78.391 86.4369 78.391C86.8663 78.391 87.1696 78.2113 87.3469 77.852H88.2079C88.0913 78.2067 87.8789 78.4983 87.5709 78.727C87.2676 78.951 86.8896 79.063 86.4369 79.063C86.0683 79.063 85.7369 78.9813 85.4429 78.818C85.1536 78.65 84.9249 78.4167 84.7569 78.118C84.5936 77.8147 84.5119 77.4647 84.5119 77.068C84.5119 76.6713 84.5913 76.3237 84.7499 76.025C84.9133 75.7217 85.1396 75.4883 85.4289 75.325C85.7229 75.1617 86.0589 75.08 86.4369 75.08C86.8009 75.08 87.1253 75.1593 87.4099 75.318C87.6946 75.4767 87.9163 75.7007 88.0749 75.99C88.2336 76.2747 88.3129 76.6037 88.3129 76.977ZM87.4799 76.725C87.4753 76.431 87.3703 76.1953 87.1649 76.018C86.9596 75.8407 86.7053 75.752 86.4019 75.752C86.1266 75.752 85.8909 75.8407 85.6949 76.018C85.4989 76.1907 85.3823 76.4263 85.3449 76.725H87.4799ZM91.2386 79.049C91.0939 79.049 90.9726 79 90.8746 78.902C90.7766 78.804 90.7276 78.6827 90.7276 78.538C90.7276 78.3933 90.7766 78.272 90.8746 78.174C90.9726 78.076 91.0939 78.027 91.2386 78.027C91.3786 78.027 91.4976 78.076 91.5956 78.174C91.6936 78.272 91.7426 78.3933 91.7426 78.538C91.7426 78.6827 91.6936 78.804 91.5956 78.902C91.4976 79 91.3786 79.049 91.2386 79.049ZM91.2386 76.109C91.0939 76.109 90.9726 76.06 90.8746 75.962C90.7766 75.864 90.7276 75.7427 90.7276 75.598C90.7276 75.4533 90.7766 75.332 90.8746 75.234C90.9726 75.136 91.0939 75.087 91.2386 75.087C91.3786 75.087 91.4976 75.136 91.5956 75.234C91.6936 75.332 91.7426 75.4533 91.7426 75.598C91.7426 75.7427 91.6936 75.864 91.5956 75.962C91.4976 76.06 91.3786 76.109 91.2386 76.109ZM95.2488 75.703C95.3654 75.507 95.5194 75.3553 95.7108 75.248C95.9068 75.136 96.1378 75.08 96.4038 75.08V75.906H96.2008C95.8881 75.906 95.6501 75.9853 95.4868 76.144C95.3281 76.3027 95.2488 76.578 95.2488 76.97V79H94.4508V75.143H95.2488V75.703ZM100.672 76.977C100.672 77.1217 100.663 77.2523 100.644 77.369H97.6973C97.7206 77.677 97.835 77.9243 98.0403 78.111C98.2456 78.2977 98.4976 78.391 98.7963 78.391C99.2256 78.391 99.529 78.2113 99.7063 77.852H100.567C100.451 78.2067 100.238 78.4983 99.9303 78.727C99.627 78.951 99.249 79.063 98.7963 79.063C98.4276 79.063 98.0963 78.9813 97.8023 78.818C97.513 78.65 97.2843 78.4167 97.1163 78.118C96.953 77.8147 96.8713 77.4647 96.8713 77.068C96.8713 76.6713 96.9506 76.3237 97.1093 76.025C97.2726 75.7217 97.499 75.4883 97.7883 75.325C98.0823 75.1617 98.4183 75.08 98.7963 75.08C99.1603 75.08 99.4846 75.1593 99.7693 75.318C100.054 75.4767 100.276 75.7007 100.434 75.99C100.593 76.2747 100.672 76.6037 100.672 76.977ZM99.8393 76.725C99.8346 76.431 99.7296 76.1953 99.5243 76.018C99.319 75.8407 99.0646 75.752 98.7613 75.752C98.486 75.752 98.2503 75.8407 98.0543 76.018C97.8583 76.1907 97.7416 76.4263 97.7043 76.725H99.8393ZM102.858 79.063C102.554 79.063 102.281 79.0093 102.039 78.902C101.801 78.79 101.612 78.6407 101.472 78.454C101.332 78.2627 101.257 78.0503 101.248 77.817H102.074C102.088 77.9803 102.165 78.118 102.305 78.23C102.449 78.3373 102.629 78.391 102.844 78.391C103.068 78.391 103.24 78.349 103.362 78.265C103.488 78.1763 103.551 78.0643 103.551 77.929C103.551 77.7843 103.481 77.677 103.341 77.607C103.205 77.537 102.988 77.46 102.69 77.376C102.4 77.2967 102.165 77.2197 101.983 77.145C101.801 77.0703 101.642 76.956 101.507 76.802C101.376 76.648 101.311 76.445 101.311 76.193C101.311 75.9877 101.371 75.801 101.493 75.633C101.614 75.4603 101.787 75.325 102.011 75.227C102.239 75.129 102.501 75.08 102.795 75.08C103.233 75.08 103.586 75.192 103.852 75.416C104.122 75.6353 104.267 75.9363 104.286 76.319H103.488C103.474 76.1463 103.404 76.0087 103.278 75.906C103.152 75.8033 102.981 75.752 102.767 75.752C102.557 75.752 102.396 75.7917 102.284 75.871C102.172 75.9503 102.116 76.0553 102.116 76.186C102.116 76.2887 102.153 76.375 102.228 76.445C102.302 76.515 102.393 76.571 102.501 76.613C102.608 76.6503 102.767 76.6993 102.977 76.76C103.257 76.8347 103.485 76.9117 103.663 76.991C103.845 77.0657 104.001 77.1777 104.132 77.327C104.262 77.4763 104.33 77.6747 104.335 77.922C104.335 78.1413 104.274 78.3373 104.153 78.51C104.031 78.6827 103.859 78.818 103.635 78.916C103.415 79.014 103.156 79.063 102.858 79.063ZM106.87 79.063C106.506 79.063 106.177 78.9813 105.883 78.818C105.589 78.65 105.358 78.4167 105.19 78.118C105.022 77.8147 104.938 77.4647 104.938 77.068C104.938 76.676 105.024 76.3283 105.197 76.025C105.37 75.7217 105.605 75.4883 105.904 75.325C106.203 75.1617 106.536 75.08 106.905 75.08C107.274 75.08 107.607 75.1617 107.906 75.325C108.205 75.4883 108.44 75.7217 108.613 76.025C108.786 76.3283 108.872 76.676 108.872 77.068C108.872 77.46 108.783 77.8077 108.606 78.111C108.429 78.4143 108.186 78.65 107.878 78.818C107.575 78.9813 107.239 79.063 106.87 79.063ZM106.87 78.37C107.075 78.37 107.267 78.321 107.444 78.223C107.626 78.125 107.773 77.978 107.885 77.782C107.997 77.586 108.053 77.348 108.053 77.068C108.053 76.788 107.999 76.5523 107.892 76.361C107.785 76.165 107.642 76.018 107.465 75.92C107.288 75.822 107.096 75.773 106.891 75.773C106.686 75.773 106.494 75.822 106.317 75.92C106.144 76.018 106.007 76.165 105.904 76.361C105.801 76.5523 105.75 76.788 105.75 77.068C105.75 77.4833 105.855 77.8053 106.065 78.034C106.28 78.258 106.548 78.37 106.87 78.37ZM110.459 73.82V79H109.661V73.82H110.459ZM112.997 78.286L114.089 75.143H114.936L113.466 79H112.514L111.051 75.143H111.905L112.997 78.286ZM119.075 76.977C119.075 77.1217 119.065 77.2523 119.047 77.369H116.1C116.123 77.677 116.237 77.9243 116.443 78.111C116.648 78.2977 116.9 78.391 117.199 78.391C117.628 78.391 117.931 78.2113 118.109 77.852H118.97C118.853 78.2067 118.641 78.4983 118.333 78.727C118.029 78.951 117.651 79.063 117.199 79.063C116.83 79.063 116.499 78.9813 116.205 78.818C115.915 78.65 115.687 78.4167 115.519 78.118C115.355 77.8147 115.274 77.4647 115.274 77.068C115.274 76.6713 115.353 76.3237 115.512 76.025C115.675 75.7217 115.901 75.4883 116.191 75.325C116.485 75.1617 116.821 75.08 117.199 75.08C117.563 75.08 117.887 75.1593 118.172 75.318C118.456 75.4767 118.678 75.7007 118.837 75.99C118.995 76.2747 119.075 76.6037 119.075 76.977ZM118.242 76.725C118.237 76.431 118.132 76.1953 117.927 76.018C117.721 75.8407 117.467 75.752 117.164 75.752C116.888 75.752 116.653 75.8407 116.457 76.018C116.261 76.1907 116.144 76.4263 116.107 76.725H118.242ZM119.594 77.054C119.594 76.6667 119.673 76.3237 119.832 76.025C119.995 75.7263 120.215 75.4953 120.49 75.332C120.77 75.164 121.08 75.08 121.421 75.08C121.673 75.08 121.92 75.136 122.163 75.248C122.41 75.3553 122.606 75.5 122.751 75.682V73.82H123.556V79H122.751V78.419C122.62 78.6057 122.438 78.7597 122.205 78.881C121.976 79.0023 121.713 79.063 121.414 79.063C121.078 79.063 120.77 78.979 120.49 78.811C120.215 78.6383 119.995 78.4003 119.832 78.097C119.673 77.789 119.594 77.4413 119.594 77.054ZM122.751 77.068C122.751 76.802 122.695 76.571 122.583 76.375C122.476 76.179 122.333 76.0297 122.156 75.927C121.979 75.8243 121.787 75.773 121.582 75.773C121.377 75.773 121.185 75.8243 121.008 75.927C120.831 76.025 120.686 76.172 120.574 76.368C120.467 76.5593 120.413 76.788 120.413 77.054C120.413 77.32 120.467 77.5533 120.574 77.754C120.686 77.9547 120.831 78.1087 121.008 78.216C121.19 78.3187 121.381 78.37 121.582 78.37C121.787 78.37 121.979 78.3187 122.156 78.216C122.333 78.1133 122.476 77.964 122.583 77.768C122.695 77.5673 122.751 77.334 122.751 77.068Z" fill="black"/>
<line x1="127.24" y1="105.259" x2="93.7864" y2="89.4521" stroke="black"/>
<path d="M118.255 117.494C118.53 117.545 118.757 117.683 118.934 117.907C119.111 118.131 119.2 118.388 119.2 118.677C119.2 118.938 119.135 119.169 119.004 119.37C118.878 119.566 118.694 119.72 118.451 119.832C118.208 119.944 117.921 120 117.59 120H115.483V115.114H117.499C117.83 115.114 118.115 115.168 118.353 115.275C118.596 115.382 118.778 115.532 118.899 115.723C119.025 115.914 119.088 116.131 119.088 116.374C119.088 116.659 119.011 116.897 118.857 117.088C118.708 117.279 118.507 117.415 118.255 117.494ZM116.463 117.13H117.359C117.592 117.13 117.772 117.079 117.898 116.976C118.024 116.869 118.087 116.717 118.087 116.521C118.087 116.325 118.024 116.173 117.898 116.066C117.772 115.959 117.592 115.905 117.359 115.905H116.463V117.13ZM117.45 119.202C117.688 119.202 117.872 119.146 118.003 119.034C118.138 118.922 118.206 118.763 118.206 118.558C118.206 118.348 118.136 118.185 117.996 118.068C117.856 117.947 117.667 117.886 117.429 117.886H116.463V119.202H117.45ZM120.961 114.82V120H119.981V114.82H120.961ZM123.651 120.063C123.278 120.063 122.942 119.981 122.643 119.818C122.345 119.65 122.109 119.414 121.936 119.111C121.768 118.808 121.684 118.458 121.684 118.061C121.684 117.664 121.771 117.314 121.943 117.011C122.121 116.708 122.361 116.474 122.664 116.311C122.968 116.143 123.306 116.059 123.679 116.059C124.053 116.059 124.391 116.143 124.694 116.311C124.998 116.474 125.236 116.708 125.408 117.011C125.586 117.314 125.674 117.664 125.674 118.061C125.674 118.458 125.583 118.808 125.401 119.111C125.224 119.414 124.981 119.65 124.673 119.818C124.37 119.981 124.029 120.063 123.651 120.063ZM123.651 119.209C123.829 119.209 123.994 119.167 124.148 119.083C124.307 118.994 124.433 118.864 124.526 118.691C124.62 118.518 124.666 118.308 124.666 118.061C124.666 117.692 124.568 117.41 124.372 117.214C124.181 117.013 123.945 116.913 123.665 116.913C123.385 116.913 123.15 117.013 122.958 117.214C122.772 117.41 122.678 117.692 122.678 118.061C122.678 118.43 122.769 118.714 122.951 118.915C123.138 119.111 123.371 119.209 123.651 119.209ZM126.141 118.061C126.141 117.66 126.223 117.31 126.386 117.011C126.549 116.708 126.776 116.474 127.065 116.311C127.354 116.143 127.686 116.059 128.059 116.059C128.54 116.059 128.936 116.18 129.249 116.423C129.566 116.661 129.779 116.997 129.886 117.431H128.829C128.773 117.263 128.677 117.132 128.542 117.039C128.411 116.941 128.248 116.892 128.052 116.892C127.772 116.892 127.55 116.995 127.387 117.2C127.224 117.401 127.142 117.688 127.142 118.061C127.142 118.43 127.224 118.717 127.387 118.922C127.55 119.123 127.772 119.223 128.052 119.223C128.449 119.223 128.708 119.046 128.829 118.691H129.886C129.779 119.111 129.566 119.445 129.249 119.692C128.932 119.939 128.535 120.063 128.059 120.063C127.686 120.063 127.354 119.981 127.065 119.818C126.776 119.65 126.549 119.417 126.386 119.118C126.223 118.815 126.141 118.462 126.141 118.061ZM132.9 120L131.584 118.348V120H130.604V114.82H131.584V117.767L132.886 116.122H134.16L132.452 118.068L134.174 120H132.9ZM138.297 117.977C138.297 118.117 138.288 118.243 138.269 118.355H135.434C135.457 118.635 135.555 118.854 135.728 119.013C135.901 119.172 136.113 119.251 136.365 119.251C136.729 119.251 136.988 119.095 137.142 118.782H138.199C138.087 119.155 137.872 119.463 137.555 119.706C137.238 119.944 136.848 120.063 136.386 120.063C136.013 120.063 135.677 119.981 135.378 119.818C135.084 119.65 134.853 119.414 134.685 119.111C134.522 118.808 134.44 118.458 134.44 118.061C134.44 117.66 134.522 117.307 134.685 117.004C134.848 116.701 135.077 116.467 135.371 116.304C135.665 116.141 136.003 116.059 136.386 116.059C136.755 116.059 137.084 116.138 137.373 116.297C137.667 116.456 137.893 116.682 138.052 116.976C138.215 117.265 138.297 117.599 138.297 117.977ZM137.282 117.697C137.277 117.445 137.186 117.244 137.009 117.095C136.832 116.941 136.615 116.864 136.358 116.864C136.115 116.864 135.91 116.939 135.742 117.088C135.579 117.233 135.478 117.436 135.441 117.697H137.282ZM138.76 118.047C138.76 117.655 138.837 117.307 138.991 117.004C139.15 116.701 139.365 116.467 139.635 116.304C139.906 116.141 140.207 116.059 140.538 116.059C140.79 116.059 141.031 116.115 141.259 116.227C141.488 116.334 141.67 116.479 141.805 116.661V114.82H142.799V120H141.805V119.426C141.684 119.617 141.514 119.771 141.294 119.888C141.075 120.005 140.821 120.063 140.531 120.063C140.205 120.063 139.906 119.979 139.635 119.811C139.365 119.643 139.15 119.407 138.991 119.104C138.837 118.796 138.76 118.444 138.76 118.047ZM141.812 118.061C141.812 117.823 141.766 117.62 141.672 117.452C141.579 117.279 141.453 117.149 141.294 117.06C141.136 116.967 140.965 116.92 140.783 116.92C140.601 116.92 140.433 116.964 140.279 117.053C140.125 117.142 139.999 117.272 139.901 117.445C139.808 117.613 139.761 117.814 139.761 118.047C139.761 118.28 139.808 118.486 139.901 118.663C139.999 118.836 140.125 118.969 140.279 119.062C140.438 119.155 140.606 119.202 140.783 119.202C140.965 119.202 141.136 119.158 141.294 119.069C141.453 118.976 141.579 118.845 141.672 118.677C141.766 118.504 141.812 118.299 141.812 118.061ZM148.578 117.13V117.802H145.701V117.13H148.578ZM152.93 120.063C152.627 120.063 152.354 120.009 152.111 119.902C151.873 119.79 151.684 119.641 151.544 119.454C151.404 119.263 151.329 119.05 151.32 118.817H152.146C152.16 118.98 152.237 119.118 152.377 119.23C152.522 119.337 152.701 119.391 152.916 119.391C153.14 119.391 153.313 119.349 153.434 119.265C153.56 119.176 153.623 119.064 153.623 118.929C153.623 118.784 153.553 118.677 153.413 118.607C153.278 118.537 153.061 118.46 152.762 118.376C152.473 118.297 152.237 118.22 152.055 118.145C151.873 118.07 151.714 117.956 151.579 117.802C151.448 117.648 151.383 117.445 151.383 117.193C151.383 116.988 151.444 116.801 151.565 116.633C151.686 116.46 151.859 116.325 152.083 116.227C152.312 116.129 152.573 116.08 152.867 116.08C153.306 116.08 153.658 116.192 153.924 116.416C154.195 116.635 154.339 116.936 154.358 117.319H153.56C153.546 117.146 153.476 117.009 153.35 116.906C153.224 116.803 153.054 116.752 152.839 116.752C152.629 116.752 152.468 116.792 152.356 116.871C152.244 116.95 152.188 117.055 152.188 117.186C152.188 117.289 152.225 117.375 152.3 117.445C152.375 117.515 152.466 117.571 152.573 117.613C152.68 117.65 152.839 117.699 153.049 117.76C153.329 117.835 153.558 117.912 153.735 117.991C153.917 118.066 154.073 118.178 154.204 118.327C154.335 118.476 154.402 118.675 154.407 118.922C154.407 119.141 154.346 119.337 154.225 119.51C154.104 119.683 153.931 119.818 153.707 119.916C153.488 120.014 153.229 120.063 152.93 120.063ZM156.2 116.794V118.929C156.2 119.074 156.233 119.179 156.298 119.244C156.368 119.305 156.485 119.335 156.648 119.335H157.138V120H156.508C156.149 120 155.873 119.916 155.682 119.748C155.491 119.58 155.395 119.307 155.395 118.929V116.794H154.94V116.143H155.395V115.184H156.2V116.143H157.138V116.794H156.2ZM157.608 118.054C157.608 117.667 157.687 117.324 157.846 117.025C158.009 116.726 158.228 116.495 158.504 116.332C158.784 116.164 159.092 116.08 159.428 116.08C159.731 116.08 159.995 116.141 160.219 116.262C160.447 116.379 160.629 116.526 160.765 116.703V116.143H161.57V120H160.765V119.426C160.629 119.608 160.445 119.76 160.212 119.881C159.978 120.002 159.712 120.063 159.414 120.063C159.082 120.063 158.779 119.979 158.504 119.811C158.228 119.638 158.009 119.4 157.846 119.097C157.687 118.789 157.608 118.441 157.608 118.054ZM160.765 118.068C160.765 117.802 160.709 117.571 160.597 117.375C160.489 117.179 160.347 117.03 160.17 116.927C159.992 116.824 159.801 116.773 159.596 116.773C159.39 116.773 159.199 116.824 159.022 116.927C158.844 117.025 158.7 117.172 158.588 117.368C158.48 117.559 158.427 117.788 158.427 118.054C158.427 118.32 158.48 118.553 158.588 118.754C158.7 118.955 158.844 119.109 159.022 119.216C159.204 119.319 159.395 119.37 159.596 119.37C159.801 119.37 159.992 119.319 160.17 119.216C160.347 119.113 160.489 118.964 160.597 118.768C160.709 118.567 160.765 118.334 160.765 118.068ZM163.549 116.794V118.929C163.549 119.074 163.581 119.179 163.647 119.244C163.717 119.305 163.833 119.335 163.997 119.335H164.487V120H163.857C163.497 120 163.222 119.916 163.031 119.748C162.839 119.58 162.744 119.307 162.744 118.929V116.794H162.289V116.143H162.744V115.184H163.549V116.143H164.487V116.794H163.549ZM168.757 117.977C168.757 118.122 168.748 118.252 168.729 118.369H165.782C165.806 118.677 165.92 118.924 166.125 119.111C166.331 119.298 166.583 119.391 166.881 119.391C167.311 119.391 167.614 119.211 167.791 118.852H168.652C168.536 119.207 168.323 119.498 168.015 119.727C167.712 119.951 167.334 120.063 166.881 120.063C166.513 120.063 166.181 119.981 165.887 119.818C165.598 119.65 165.369 119.417 165.201 119.118C165.038 118.815 164.956 118.465 164.956 118.068C164.956 117.671 165.036 117.324 165.194 117.025C165.358 116.722 165.584 116.488 165.873 116.325C166.167 116.162 166.503 116.08 166.881 116.08C167.245 116.08 167.57 116.159 167.854 116.318C168.139 116.477 168.361 116.701 168.519 116.99C168.678 117.275 168.757 117.604 168.757 117.977ZM167.924 117.725C167.92 117.431 167.815 117.195 167.609 117.018C167.404 116.841 167.15 116.752 166.846 116.752C166.571 116.752 166.335 116.841 166.139 117.018C165.943 117.191 165.827 117.426 165.789 117.725H167.924ZM171.683 120.049C171.538 120.049 171.417 120 171.319 119.902C171.221 119.804 171.172 119.683 171.172 119.538C171.172 119.393 171.221 119.272 171.319 119.174C171.417 119.076 171.538 119.027 171.683 119.027C171.823 119.027 171.942 119.076 172.04 119.174C172.138 119.272 172.187 119.393 172.187 119.538C172.187 119.683 172.138 119.804 172.04 119.902C171.942 120 171.823 120.049 171.683 120.049ZM171.683 117.109C171.538 117.109 171.417 117.06 171.319 116.962C171.221 116.864 171.172 116.743 171.172 116.598C171.172 116.453 171.221 116.332 171.319 116.234C171.417 116.136 171.538 116.087 171.683 116.087C171.823 116.087 171.942 116.136 172.04 116.234C172.138 116.332 172.187 116.453 172.187 116.598C172.187 116.743 172.138 116.864 172.04 116.962C171.942 117.06 171.823 117.109 171.683 117.109ZM175.693 116.717C175.828 116.53 176.013 116.379 176.246 116.262C176.484 116.141 176.748 116.08 177.037 116.08C177.378 116.08 177.686 116.162 177.961 116.325C178.236 116.488 178.453 116.722 178.612 117.025C178.771 117.324 178.85 117.667 178.85 118.054C178.85 118.441 178.771 118.789 178.612 119.097C178.453 119.4 178.234 119.638 177.954 119.811C177.679 119.979 177.373 120.063 177.037 120.063C176.738 120.063 176.472 120.005 176.239 119.888C176.01 119.771 175.828 119.622 175.693 119.44V120H174.895V114.82H175.693V116.717ZM178.038 118.054C178.038 117.788 177.982 117.559 177.87 117.368C177.763 117.172 177.618 117.025 177.436 116.927C177.259 116.824 177.067 116.773 176.862 116.773C176.661 116.773 176.47 116.824 176.288 116.927C176.111 117.03 175.966 117.179 175.854 117.375C175.747 117.571 175.693 117.802 175.693 118.068C175.693 118.334 175.747 118.567 175.854 118.768C175.966 118.964 176.111 119.113 176.288 119.216C176.47 119.319 176.661 119.37 176.862 119.37C177.067 119.37 177.259 119.319 177.436 119.216C177.618 119.109 177.763 118.955 177.87 118.754C177.982 118.553 178.038 118.32 178.038 118.054ZM180.437 114.82V120H179.639V114.82H180.437ZM183.158 120.063C182.794 120.063 182.465 119.981 182.171 119.818C181.877 119.65 181.646 119.417 181.478 119.118C181.31 118.815 181.226 118.465 181.226 118.068C181.226 117.676 181.312 117.328 181.485 117.025C181.658 116.722 181.893 116.488 182.192 116.325C182.491 116.162 182.824 116.08 183.193 116.08C183.562 116.08 183.895 116.162 184.194 116.325C184.493 116.488 184.728 116.722 184.901 117.025C185.074 117.328 185.16 117.676 185.16 118.068C185.16 118.46 185.071 118.808 184.894 119.111C184.717 119.414 184.474 119.65 184.166 119.818C183.863 119.981 183.527 120.063 183.158 120.063ZM183.158 119.37C183.363 119.37 183.555 119.321 183.732 119.223C183.914 119.125 184.061 118.978 184.173 118.782C184.285 118.586 184.341 118.348 184.341 118.068C184.341 117.788 184.287 117.552 184.18 117.361C184.073 117.165 183.93 117.018 183.753 116.92C183.576 116.822 183.384 116.773 183.179 116.773C182.974 116.773 182.782 116.822 182.605 116.92C182.432 117.018 182.295 117.165 182.192 117.361C182.089 117.552 182.038 117.788 182.038 118.068C182.038 118.483 182.143 118.805 182.353 119.034C182.568 119.258 182.836 119.37 183.158 119.37ZM185.683 118.068C185.683 117.671 185.762 117.324 185.921 117.025C186.084 116.722 186.308 116.488 186.593 116.325C186.877 116.162 187.204 116.08 187.573 116.08C188.039 116.08 188.424 116.192 188.728 116.416C189.036 116.635 189.243 116.95 189.351 117.361H188.49C188.42 117.17 188.308 117.02 188.154 116.913C188 116.806 187.806 116.752 187.573 116.752C187.246 116.752 186.985 116.869 186.789 117.102C186.597 117.331 186.502 117.653 186.502 118.068C186.502 118.483 186.597 118.808 186.789 119.041C186.985 119.274 187.246 119.391 187.573 119.391C188.035 119.391 188.34 119.188 188.49 118.782H189.351C189.239 119.174 189.029 119.487 188.721 119.72C188.413 119.949 188.03 120.063 187.573 120.063C187.204 120.063 186.877 119.981 186.593 119.818C186.308 119.65 186.084 119.417 185.921 119.118C185.762 118.815 185.683 118.465 185.683 118.068ZM191.672 118.075L193.45 120H192.372L190.944 118.341V120H190.146V114.82H190.944V117.83L192.344 116.143H193.45L191.672 118.075ZM197.557 117.977C197.557 118.122 197.548 118.252 197.529 118.369H194.582C194.605 118.677 194.72 118.924 194.925 119.111C195.13 119.298 195.382 119.391 195.681 119.391C196.11 119.391 196.414 119.211 196.591 118.852H197.452C197.335 119.207 197.123 119.498 196.815 119.727C196.512 119.951 196.134 120.063 195.681 120.063C195.312 120.063 194.981 119.981 194.687 119.818C194.398 119.65 194.169 119.417 194.001 119.118C193.838 118.815 193.756 118.465 193.756 118.068C193.756 117.671 193.835 117.324 193.994 117.025C194.157 116.722 194.384 116.488 194.673 116.325C194.967 116.162 195.303 116.08 195.681 116.08C196.045 116.08 196.369 116.159 196.654 116.318C196.939 116.477 197.16 116.701 197.319 116.99C197.478 117.275 197.557 117.604 197.557 117.977ZM196.724 117.725C196.719 117.431 196.614 117.195 196.409 117.018C196.204 116.841 195.949 116.752 195.646 116.752C195.371 116.752 195.135 116.841 194.939 117.018C194.743 117.191 194.626 117.426 194.589 117.725H196.724ZM198.076 118.054C198.076 117.667 198.156 117.324 198.314 117.025C198.478 116.726 198.697 116.495 198.972 116.332C199.252 116.164 199.563 116.08 199.903 116.08C200.155 116.08 200.403 116.136 200.645 116.248C200.893 116.355 201.089 116.5 201.233 116.682V114.82H202.038V120H201.233V119.419C201.103 119.606 200.921 119.76 200.687 119.881C200.459 120.002 200.195 120.063 199.896 120.063C199.56 120.063 199.252 119.979 198.972 119.811C198.697 119.638 198.478 119.4 198.314 119.097C198.156 118.789 198.076 118.441 198.076 118.054ZM201.233 118.068C201.233 117.802 201.177 117.571 201.065 117.375C200.958 117.179 200.816 117.03 200.638 116.927C200.461 116.824 200.27 116.773 200.064 116.773C199.859 116.773 199.668 116.824 199.49 116.927C199.313 117.025 199.168 117.172 199.056 117.368C198.949 117.559 198.895 117.788 198.895 118.054C198.895 118.32 198.949 118.553 199.056 118.754C199.168 118.955 199.313 119.109 199.49 119.216C199.672 119.319 199.864 119.37 200.064 119.37C200.27 119.37 200.461 119.319 200.638 119.216C200.816 119.113 200.958 118.964 201.065 118.768C201.177 118.567 201.233 118.334 201.233 118.068Z" fill="black"/>
</svg>
