<svg width="52" height="21" viewBox="0 0 52 21" fill="none" xmlns="http://www.w3.org/2000/svg">
<g filter="url(#filter0_d_17_145)">
<rect x="5.00391" y="1.00391" width="41" height="10" rx="1" fill="#8C0D10" fill-opacity="0.67" style="mix-blend-mode:darken" shape-rendering="crispEdges"/>
<rect x="4.50391" y="0.503906" width="42" height="11" rx="1.5" stroke="#8C0D10" shape-rendering="crispEdges"/>
</g>
<path d="M9.37891 8.04891C9.16224 8.04891 8.96724 8.01057 8.79391 7.93391C8.62391 7.85391 8.48891 7.74724 8.38891 7.61391C8.28891 7.47724 8.23557 7.32557 8.22891 7.15891H8.81891C8.82891 7.27557 8.88391 7.37391 8.98391 7.45391C9.08724 7.53057 9.21557 7.56891 9.36891 7.56891C9.52891 7.56891 9.65224 7.53891 9.73891 7.47891C9.82891 7.41557 9.87391 7.33557 9.87391 7.23891C9.87391 7.13557 9.82391 7.05891 9.72391 7.00891C9.62724 6.95891 9.47224 6.90391 9.25891 6.84391C9.05224 6.78724 8.88391 6.73224 8.75391 6.67891C8.62391 6.62557 8.51057 6.54391 8.41391 6.43391C8.32057 6.32391 8.27391 6.17891 8.27391 5.99891C8.27391 5.85224 8.31724 5.71891 8.40391 5.59891C8.49057 5.47557 8.61391 5.37891 8.77391 5.30891C8.93724 5.23891 9.12391 5.20391 9.33391 5.20391C9.64724 5.20391 9.89891 5.28391 10.0889 5.44391C10.2822 5.60057 10.3856 5.81557 10.3989 6.08891H9.82891C9.81891 5.96557 9.76891 5.86724 9.67891 5.79391C9.58891 5.72057 9.46724 5.68391 9.31391 5.68391C9.16391 5.68391 9.04891 5.71224 8.96891 5.76891C8.88891 5.82557 8.84891 5.90057 8.84891 5.99391C8.84891 6.06724 8.87557 6.12891 8.92891 6.17891C8.98224 6.22891 9.04724 6.26891 9.12391 6.29891C9.20057 6.32557 9.31391 6.36057 9.46391 6.40391C9.66391 6.45724 9.82724 6.51224 9.95391 6.56891C10.0839 6.62224 10.1956 6.70224 10.2889 6.80891C10.3822 6.91557 10.4306 7.05724 10.4339 7.23391C10.4339 7.39057 10.3906 7.53057 10.3039 7.65391C10.2172 7.77724 10.0939 7.87391 9.93391 7.94391C9.77724 8.01391 9.59224 8.04891 9.37891 8.04891ZM11.7148 5.71391V7.23891C11.7148 7.34224 11.7381 7.41724 11.7848 7.46391C11.8348 7.50724 11.9181 7.52891 12.0348 7.52891H12.3848V8.00391H11.9348C11.6781 8.00391 11.4815 7.94391 11.3448 7.82391C11.2081 7.70391 11.1398 7.50891 11.1398 7.23891V5.71391H10.8148V5.24891H11.1398V4.56391H11.7148V5.24891H12.3848V5.71391H11.7148ZM12.7202 6.61391C12.7202 6.33724 12.7768 6.09224 12.8902 5.87891C13.0068 5.66557 13.1635 5.50057 13.3602 5.38391C13.5602 5.26391 13.7802 5.20391 14.0202 5.20391C14.2368 5.20391 14.4252 5.24724 14.5852 5.33391C14.7485 5.41724 14.8785 5.52224 14.9752 5.64891V5.24891H15.5502V8.00391H14.9752V7.59391C14.8785 7.72391 14.7468 7.83224 14.5802 7.91891C14.4135 8.00557 14.2235 8.04891 14.0102 8.04891C13.7735 8.04891 13.5568 7.98891 13.3602 7.86891C13.1635 7.74557 13.0068 7.57557 12.8902 7.35891C12.7768 7.13891 12.7202 6.89057 12.7202 6.61391ZM14.9752 6.62391C14.9752 6.43391 14.9352 6.26891 14.8552 6.12891C14.7785 5.98891 14.6768 5.88224 14.5502 5.80891C14.4235 5.73557 14.2868 5.69891 14.1402 5.69891C13.9935 5.69891 13.8568 5.73557 13.7302 5.80891C13.6035 5.87891 13.5002 5.98391 13.4202 6.12391C13.3435 6.26057 13.3052 6.42391 13.3052 6.61391C13.3052 6.80391 13.3435 6.97057 13.4202 7.11391C13.5002 7.25724 13.6035 7.36724 13.7302 7.44391C13.8602 7.51724 13.9968 7.55391 14.1402 7.55391C14.2868 7.55391 14.4235 7.51724 14.5502 7.44391C14.6768 7.37057 14.7785 7.26391 14.8552 7.12391C14.9352 6.98057 14.9752 6.81391 14.9752 6.62391ZM16.9638 5.71391V7.23891C16.9638 7.34224 16.9872 7.41724 17.0338 7.46391C17.0838 7.50724 17.1672 7.52891 17.2838 7.52891H17.6338V8.00391H17.1838C16.9272 8.00391 16.7305 7.94391 16.5938 7.82391C16.4572 7.70391 16.3888 7.50891 16.3888 7.23891V5.71391H16.0638V5.24891H16.3888V4.56391H16.9638V5.24891H17.6338V5.71391H16.9638ZM20.6842 6.55891C20.6842 6.66224 20.6775 6.75557 20.6642 6.83891H18.5592C18.5758 7.05891 18.6575 7.23557 18.8042 7.36891C18.9508 7.50224 19.1308 7.56891 19.3442 7.56891C19.6508 7.56891 19.8675 7.44057 19.9942 7.18391H20.6092C20.5258 7.43724 20.3742 7.64557 20.1542 7.80891C19.9375 7.96891 19.6675 8.04891 19.3442 8.04891C19.0808 8.04891 18.8442 7.99057 18.6342 7.87391C18.4275 7.75391 18.2642 7.58724 18.1442 7.37391C18.0275 7.15724 17.9692 6.90724 17.9692 6.62391C17.9692 6.34057 18.0258 6.09224 18.1392 5.87891C18.2558 5.66224 18.4175 5.49557 18.6242 5.37891C18.8342 5.26224 19.0742 5.20391 19.3442 5.20391C19.6042 5.20391 19.8358 5.26057 20.0392 5.37391C20.2425 5.48724 20.4008 5.64724 20.5142 5.85391C20.6275 6.05724 20.6842 6.29224 20.6842 6.55891ZM20.0892 6.37891C20.0858 6.16891 20.0108 6.00057 19.8642 5.87391C19.7175 5.74724 19.5358 5.68391 19.3192 5.68391C19.1225 5.68391 18.9542 5.74724 18.8142 5.87391C18.6742 5.99724 18.5908 6.16557 18.5642 6.37891H20.0892ZM22.7739 8.03891C22.6706 8.03891 22.5839 8.00391 22.5139 7.93391C22.4439 7.86391 22.4089 7.77724 22.4089 7.67391C22.4089 7.57057 22.4439 7.48391 22.5139 7.41391C22.5839 7.34391 22.6706 7.30891 22.7739 7.30891C22.8739 7.30891 22.9589 7.34391 23.0289 7.41391C23.0989 7.48391 23.1339 7.57057 23.1339 7.67391C23.1339 7.77724 23.0989 7.86391 23.0289 7.93391C22.9589 8.00391 22.8739 8.03891 22.7739 8.03891ZM22.7739 5.93891C22.6706 5.93891 22.5839 5.90391 22.5139 5.83391C22.4439 5.76391 22.4089 5.67724 22.4089 5.57391C22.4089 5.47057 22.4439 5.38391 22.5139 5.31391C22.5839 5.24391 22.6706 5.20891 22.7739 5.20891C22.8739 5.20891 22.9589 5.24391 23.0289 5.31391C23.0989 5.38391 23.1339 5.47057 23.1339 5.57391C23.1339 5.67724 23.0989 5.76391 23.0289 5.83391C22.9589 5.90391 22.8739 5.93891 22.7739 5.93891ZM25.6384 5.65891C25.735 5.52557 25.8667 5.41724 26.0334 5.33391C26.2034 5.24724 26.3917 5.20391 26.5984 5.20391C26.8417 5.20391 27.0617 5.26224 27.2584 5.37891C27.455 5.49557 27.61 5.66224 27.7234 5.87891C27.8367 6.09224 27.8934 6.33724 27.8934 6.61391C27.8934 6.89057 27.8367 7.13891 27.7234 7.35891C27.61 7.57557 27.4534 7.74557 27.2534 7.86891C27.0567 7.98891 26.8384 8.04891 26.5984 8.04891C26.385 8.04891 26.195 8.00724 26.0284 7.92391C25.865 7.84057 25.735 7.73391 25.6384 7.60391V8.00391H25.0684V4.30391H25.6384V5.65891ZM27.3134 6.61391C27.3134 6.42391 27.2734 6.26057 27.1934 6.12391C27.1167 5.98391 27.0134 5.87891 26.8834 5.80891C26.7567 5.73557 26.62 5.69891 26.4734 5.69891C26.33 5.69891 26.1934 5.73557 26.0634 5.80891C25.9367 5.88224 25.8334 5.98891 25.7534 6.12891C25.6767 6.26891 25.6384 6.43391 25.6384 6.62391C25.6384 6.81391 25.6767 6.98057 25.7534 7.12391C25.8334 7.26391 25.9367 7.37057 26.0634 7.44391C26.1934 7.51724 26.33 7.55391 26.4734 7.55391C26.62 7.55391 26.7567 7.51724 26.8834 7.44391C27.0134 7.36724 27.1167 7.25724 27.1934 7.11391C27.2734 6.97057 27.3134 6.80391 27.3134 6.61391ZM29.027 4.30391V8.00391H28.457V4.30391H29.027ZM30.9704 8.04891C30.7104 8.04891 30.4754 7.99057 30.2654 7.87391C30.0554 7.75391 29.8904 7.58724 29.7704 7.37391C29.6504 7.15724 29.5904 6.90724 29.5904 6.62391C29.5904 6.34391 29.6521 6.09557 29.7754 5.87891C29.8987 5.66224 30.0671 5.49557 30.2804 5.37891C30.4937 5.26224 30.7321 5.20391 30.9954 5.20391C31.2587 5.20391 31.4971 5.26224 31.7104 5.37891C31.9237 5.49557 32.0921 5.66224 32.2154 5.87891C32.3387 6.09557 32.4004 6.34391 32.4004 6.62391C32.4004 6.90391 32.3371 7.15224 32.2104 7.36891C32.0837 7.58557 31.9104 7.75391 31.6904 7.87391C31.4737 7.99057 31.2337 8.04891 30.9704 8.04891ZM30.9704 7.55391C31.1171 7.55391 31.2537 7.51891 31.3804 7.44891C31.5104 7.37891 31.6154 7.27391 31.6954 7.13391C31.7754 6.99391 31.8154 6.82391 31.8154 6.62391C31.8154 6.42391 31.7771 6.25557 31.7004 6.11891C31.6237 5.97891 31.5221 5.87391 31.3954 5.80391C31.2687 5.73391 31.1321 5.69891 30.9854 5.69891C30.8387 5.69891 30.7021 5.73391 30.5754 5.80391C30.4521 5.87391 30.3537 5.97891 30.2804 6.11891C30.2071 6.25557 30.1704 6.42391 30.1704 6.62391C30.1704 6.92057 30.2454 7.15057 30.3954 7.31391C30.5487 7.47391 30.7404 7.55391 30.9704 7.55391ZM32.7739 6.62391C32.7739 6.34057 32.8305 6.09224 32.9439 5.87891C33.0605 5.66224 33.2205 5.49557 33.4239 5.37891C33.6272 5.26224 33.8605 5.20391 34.1239 5.20391C34.4572 5.20391 34.7322 5.28391 34.9489 5.44391C35.1689 5.60057 35.3172 5.82557 35.3939 6.11891H34.7789C34.7289 5.98224 34.6489 5.87557 34.5389 5.79891C34.4289 5.72224 34.2905 5.68391 34.1239 5.68391C33.8905 5.68391 33.7039 5.76724 33.5639 5.93391C33.4272 6.09724 33.3589 6.32724 33.3589 6.62391C33.3589 6.92057 33.4272 7.15224 33.5639 7.31891C33.7039 7.48557 33.8905 7.56891 34.1239 7.56891C34.4539 7.56891 34.6722 7.42391 34.7789 7.13391H35.3939C35.3139 7.41391 35.1639 7.63724 34.9439 7.80391C34.7239 7.96724 34.4505 8.04891 34.1239 8.04891C33.8605 8.04891 33.6272 7.99057 33.4239 7.87391C33.2205 7.75391 33.0605 7.58724 32.9439 7.37391C32.8305 7.15724 32.7739 6.90724 32.7739 6.62391ZM37.0519 6.62891L38.3219 8.00391H37.5519L36.5319 6.81891V8.00391H35.9619V4.30391H36.5319V6.45391L37.5319 5.24891H38.3219L37.0519 6.62891ZM41.2555 6.55891C41.2555 6.66224 41.2488 6.75557 41.2355 6.83891H39.1305C39.1471 7.05891 39.2288 7.23557 39.3755 7.36891C39.5221 7.50224 39.7021 7.56891 39.9155 7.56891C40.2221 7.56891 40.4388 7.44057 40.5655 7.18391H41.1805C41.0971 7.43724 40.9455 7.64557 40.7255 7.80891C40.5088 7.96891 40.2388 8.04891 39.9155 8.04891C39.6521 8.04891 39.4155 7.99057 39.2055 7.87391C38.9988 7.75391 38.8355 7.58724 38.7155 7.37391C38.5988 7.15724 38.5405 6.90724 38.5405 6.62391C38.5405 6.34057 38.5971 6.09224 38.7105 5.87891C38.8271 5.66224 38.9888 5.49557 39.1955 5.37891C39.4055 5.26224 39.6455 5.20391 39.9155 5.20391C40.1755 5.20391 40.4071 5.26057 40.6105 5.37391C40.8138 5.48724 40.9721 5.64724 41.0855 5.85391C41.1988 6.05724 41.2555 6.29224 41.2555 6.55891ZM40.6605 6.37891C40.6571 6.16891 40.5821 6.00057 40.4355 5.87391C40.2888 5.74724 40.1071 5.68391 39.8905 5.68391C39.6938 5.68391 39.5255 5.74724 39.3855 5.87391C39.2455 5.99724 39.1621 6.16557 39.1355 6.37891H40.6605ZM41.6264 6.61391C41.6264 6.33724 41.6831 6.09224 41.7964 5.87891C41.9131 5.66557 42.0697 5.50057 42.2664 5.38391C42.4664 5.26391 42.6881 5.20391 42.9314 5.20391C43.1114 5.20391 43.2881 5.24391 43.4614 5.32391C43.6381 5.40057 43.7781 5.50391 43.8814 5.63391V4.30391H44.4564V8.00391H43.8814V7.58891C43.7881 7.72224 43.6581 7.83224 43.4914 7.91891C43.3281 8.00557 43.1397 8.04891 42.9264 8.04891C42.6864 8.04891 42.4664 7.98891 42.2664 7.86891C42.0697 7.74557 41.9131 7.57557 41.7964 7.35891C41.6831 7.13891 41.6264 6.89057 41.6264 6.61391ZM43.8814 6.62391C43.8814 6.43391 43.8414 6.26891 43.7614 6.12891C43.6847 5.98891 43.5831 5.88224 43.4564 5.80891C43.3297 5.73557 43.1931 5.69891 43.0464 5.69891C42.8997 5.69891 42.7631 5.73557 42.6364 5.80891C42.5097 5.87891 42.4064 5.98391 42.3264 6.12391C42.2497 6.26057 42.2114 6.42391 42.2114 6.61391C42.2114 6.80391 42.2497 6.97057 42.3264 7.11391C42.4064 7.25724 42.5097 7.36724 42.6364 7.44391C42.7664 7.51724 42.9031 7.55391 43.0464 7.55391C43.1931 7.55391 43.3297 7.51724 43.4564 7.44391C43.5831 7.37057 43.6847 7.26391 43.7614 7.12391C43.8414 6.98057 43.8814 6.81391 43.8814 6.62391Z" fill="black"/>
<defs>
<filter id="filter0_d_17_145" x="0.00390625" y="0.00390625" width="51" height="20" filterUnits="userSpaceOnUse" color-interpolation-filters="sRGB">
<feFlood flood-opacity="0" result="BackgroundImageFix"/>
<feColorMatrix in="SourceAlpha" type="matrix" values="0 0 0 0 0 0 0 0 0 0 0 0 0 0 0 0 0 0 127 0" result="hardAlpha"/>
<feOffset dy="4"/>
<feGaussianBlur stdDeviation="2"/>
<feComposite in2="hardAlpha" operator="out"/>
<feColorMatrix type="matrix" values="0 0 0 0 0 0 0 0 0 0 0 0 0 0 0 0 0 0 0.25 0"/>
<feBlend mode="normal" in2="BackgroundImageFix" result="effect1_dropShadow_17_145"/>
<feBlend mode="normal" in="SourceGraphic" in2="effect1_dropShadow_17_145" result="shape"/>
</filter>
</defs>
</svg>
