<svg width="150" height="50" viewBox="0 0 150 50" fill="none" xmlns="http://www.w3.org/2000/svg">
<rect width="150" height="50" fill="#FEF2C0"/>
<path d="M57.3313 29.108C56.8113 29.108 56.3433 29.016 55.9273 28.832C55.5193 28.64 55.1953 28.384 54.9553 28.064C54.7153 27.736 54.5873 27.372 54.5713 26.972H55.9873C56.0113 27.252 56.1433 27.488 56.3833 27.68C56.6313 27.864 56.9393 27.956 57.3073 27.956C57.6913 27.956 57.9873 27.884 58.1953 27.74C58.4113 27.588 58.5193 27.396 58.5193 27.164C58.5193 26.916 58.3993 26.732 58.1593 26.612C57.9273 26.492 57.5553 26.36 57.0433 26.216C56.5473 26.08 56.1433 25.948 55.8313 25.82C55.5193 25.692 55.2473 25.496 55.0153 25.232C54.7913 24.968 54.6793 24.62 54.6793 24.188C54.6793 23.836 54.7833 23.516 54.9913 23.228C55.1993 22.932 55.4953 22.7 55.8793 22.532C56.2713 22.364 56.7193 22.28 57.2233 22.28C57.9753 22.28 58.5793 22.472 59.0353 22.856C59.4993 23.232 59.7473 23.748 59.7793 24.404H58.4113C58.3873 24.108 58.2673 23.872 58.0513 23.696C57.8353 23.52 57.5433 23.432 57.1753 23.432C56.8153 23.432 56.5393 23.5 56.3473 23.636C56.1553 23.772 56.0593 23.952 56.0593 24.176C56.0593 24.352 56.1233 24.5 56.2513 24.62C56.3793 24.74 56.5353 24.836 56.7193 24.908C56.9033 24.972 57.1753 25.056 57.5353 25.16C58.0153 25.288 58.4073 25.42 58.7113 25.556C59.0233 25.684 59.2913 25.876 59.5153 26.132C59.7393 26.388 59.8553 26.728 59.8633 27.152C59.8633 27.528 59.7593 27.864 59.5513 28.16C59.3433 28.456 59.0473 28.688 58.6633 28.856C58.2873 29.024 57.8433 29.108 57.3313 29.108ZM62.9374 23.504V27.164C62.9374 27.412 62.9934 27.592 63.1054 27.704C63.2254 27.808 63.4254 27.86 63.7054 27.86H64.5454V29H63.4654C62.8494 29 62.3774 28.856 62.0494 28.568C61.7214 28.28 61.5574 27.812 61.5574 27.164V23.504H60.7774V22.388H61.5574V20.744H62.9374V22.388H64.5454V23.504H62.9374ZM65.3503 25.664C65.3503 25 65.4863 24.412 65.7583 23.9C66.0383 23.388 66.4143 22.992 66.8863 22.712C67.3663 22.424 67.8943 22.28 68.4703 22.28C68.9903 22.28 69.4423 22.384 69.8263 22.592C70.2183 22.792 70.5303 23.044 70.7623 23.348V22.388H72.1423V29H70.7623V28.016C70.5303 28.328 70.2143 28.588 69.8143 28.796C69.4143 29.004 68.9583 29.108 68.4463 29.108C67.8783 29.108 67.3583 28.964 66.8863 28.676C66.4143 28.38 66.0383 27.972 65.7583 27.452C65.4863 26.924 65.3503 26.328 65.3503 25.664ZM70.7623 25.688C70.7623 25.232 70.6663 24.836 70.4743 24.5C70.2903 24.164 70.0463 23.908 69.7423 23.732C69.4383 23.556 69.1103 23.468 68.7583 23.468C68.4063 23.468 68.0783 23.556 67.7743 23.732C67.4703 23.9 67.2223 24.152 67.0303 24.488C66.8463 24.816 66.7543 25.208 66.7543 25.664C66.7543 26.12 66.8463 26.52 67.0303 26.864C67.2223 27.208 67.4703 27.472 67.7743 27.656C68.0863 27.832 68.4143 27.92 68.7583 27.92C69.1103 27.92 69.4383 27.832 69.7423 27.656C70.0463 27.48 70.2903 27.224 70.4743 26.888C70.6663 26.544 70.7623 26.144 70.7623 25.688ZM75.5351 23.504V27.164C75.5351 27.412 75.5911 27.592 75.7031 27.704C75.8231 27.808 76.0231 27.86 76.3031 27.86H77.1431V29H76.0631C75.4471 29 74.9751 28.856 74.6471 28.568C74.3191 28.28 74.1551 27.812 74.1551 27.164V23.504H73.3751V22.388H74.1551V20.744H75.5351V22.388H77.1431V23.504H75.5351ZM84.4639 25.532C84.4639 25.78 84.4479 26.004 84.4159 26.204H79.3639C79.4039 26.732 79.5999 27.156 79.9519 27.476C80.3039 27.796 80.7359 27.956 81.2479 27.956C81.9839 27.956 82.5039 27.648 82.8079 27.032H84.2839C84.0839 27.64 83.7199 28.14 83.1919 28.532C82.6719 28.916 82.0239 29.108 81.2479 29.108C80.6159 29.108 80.0479 28.968 79.5439 28.688C79.0479 28.4 78.6559 28 78.3679 27.488C78.0879 26.968 77.9479 26.368 77.9479 25.688C77.9479 25.008 78.0839 24.412 78.3559 23.9C78.6359 23.38 79.0239 22.98 79.5199 22.7C80.0239 22.42 80.5999 22.28 81.2479 22.28C81.8719 22.28 82.4279 22.416 82.9159 22.688C83.4039 22.96 83.7839 23.344 84.0559 23.84C84.3279 24.328 84.4639 24.892 84.4639 25.532ZM83.0359 25.1C83.0279 24.596 82.8479 24.192 82.4959 23.888C82.1439 23.584 81.7079 23.432 81.1879 23.432C80.7159 23.432 80.3119 23.584 79.9759 23.888C79.6399 24.184 79.4399 24.588 79.3759 25.1H83.0359ZM89.4793 29.084C89.2313 29.084 89.0233 29 88.8553 28.832C88.6873 28.664 88.6033 28.456 88.6033 28.208C88.6033 27.96 88.6873 27.752 88.8553 27.584C89.0233 27.416 89.2313 27.332 89.4793 27.332C89.7193 27.332 89.9233 27.416 90.0913 27.584C90.2593 27.752 90.3433 27.96 90.3433 28.208C90.3433 28.456 90.2593 28.664 90.0913 28.832C89.9233 29 89.7193 29.084 89.4793 29.084ZM89.4793 24.044C89.2313 24.044 89.0233 23.96 88.8553 23.792C88.6873 23.624 88.6033 23.416 88.6033 23.168C88.6033 22.92 88.6873 22.712 88.8553 22.544C89.0233 22.376 89.2313 22.292 89.4793 22.292C89.7193 22.292 89.9233 22.376 90.0913 22.544C90.2593 22.712 90.3433 22.92 90.3433 23.168C90.3433 23.416 90.2593 23.624 90.0913 23.792C89.9233 23.96 89.7193 24.044 89.4793 24.044Z" fill="#010101"/>
</svg>
