<svg width="51" height="20" viewBox="0 0 51 20" fill="none" xmlns="http://www.w3.org/2000/svg">
<g filter="url(#filter0_d_17_166)">
<rect x="5" y="1" width="41" height="10" rx="1" fill="#FBC901" fill-opacity="0.67" style="mix-blend-mode:darken" shape-rendering="crispEdges"/>
<rect x="4.5" y="0.5" width="42" height="11" rx="1.5" stroke="#FBC901" shape-rendering="crispEdges"/>
</g>
<path d="M9.375 8.045C9.15833 8.045 8.96333 8.00667 8.79 7.93C8.62 7.85 8.485 7.74333 8.385 7.61C8.285 7.47333 8.23167 7.32167 8.225 7.155H8.815C8.825 7.27167 8.88 7.37 8.98 7.45C9.08333 7.52667 9.21167 7.565 9.365 7.565C9.525 7.565 9.64833 7.535 9.735 7.475C9.825 7.41167 9.87 7.33167 9.87 7.235C9.87 7.13167 9.82 7.055 9.72 7.005C9.62333 6.955 9.46833 6.9 9.255 6.84C9.04833 6.78333 8.88 6.72833 8.75 6.675C8.62 6.62167 8.50667 6.54 8.41 6.43C8.31667 6.32 8.27 6.175 8.27 5.995C8.27 5.84833 8.31333 5.715 8.4 5.595C8.48667 5.47167 8.61 5.375 8.77 5.305C8.93333 5.235 9.12 5.2 9.33 5.2C9.64333 5.2 9.895 5.28 10.085 5.44C10.2783 5.59667 10.3817 5.81167 10.395 6.085H9.825C9.815 5.96167 9.765 5.86333 9.675 5.79C9.585 5.71667 9.46333 5.68 9.31 5.68C9.16 5.68 9.045 5.70833 8.965 5.765C8.885 5.82167 8.845 5.89667 8.845 5.99C8.845 6.06333 8.87167 6.125 8.925 6.175C8.97833 6.225 9.04333 6.265 9.12 6.295C9.19667 6.32167 9.31 6.35667 9.46 6.4C9.66 6.45333 9.82333 6.50833 9.95 6.565C10.08 6.61833 10.1917 6.69833 10.285 6.805C10.3783 6.91167 10.4267 7.05333 10.43 7.23C10.43 7.38667 10.3867 7.52667 10.3 7.65C10.2133 7.77333 10.09 7.87 9.93 7.94C9.77333 8.01 9.58833 8.045 9.375 8.045ZM11.7109 5.71V7.235C11.7109 7.33833 11.7342 7.41333 11.7809 7.46C11.8309 7.50333 11.9142 7.525 12.0309 7.525H12.3809V8H11.9309C11.6742 8 11.4776 7.94 11.3409 7.82C11.2042 7.7 11.1359 7.505 11.1359 7.235V5.71H10.8109V5.245H11.1359V4.56H11.7109V5.245H12.3809V5.71H11.7109ZM12.7163 6.61C12.7163 6.33333 12.7729 6.08833 12.8863 5.875C13.0029 5.66167 13.1596 5.49667 13.3563 5.38C13.5563 5.26 13.7763 5.2 14.0163 5.2C14.2329 5.2 14.4213 5.24333 14.5813 5.33C14.7446 5.41333 14.8746 5.51833 14.9713 5.645V5.245H15.5463V8H14.9713V7.59C14.8746 7.72 14.7429 7.82833 14.5763 7.915C14.4096 8.00167 14.2196 8.045 14.0063 8.045C13.7696 8.045 13.5529 7.985 13.3563 7.865C13.1596 7.74167 13.0029 7.57167 12.8863 7.355C12.7729 7.135 12.7163 6.88667 12.7163 6.61ZM14.9713 6.62C14.9713 6.43 14.9313 6.265 14.8513 6.125C14.7746 5.985 14.6729 5.87833 14.5463 5.805C14.4196 5.73167 14.2829 5.695 14.1363 5.695C13.9896 5.695 13.8529 5.73167 13.7263 5.805C13.5996 5.875 13.4963 5.98 13.4163 6.12C13.3396 6.25667 13.3013 6.42 13.3013 6.61C13.3013 6.8 13.3396 6.96667 13.4163 7.11C13.4963 7.25333 13.5996 7.36333 13.7263 7.44C13.8563 7.51333 13.9929 7.55 14.1363 7.55C14.2829 7.55 14.4196 7.51333 14.5463 7.44C14.6729 7.36667 14.7746 7.26 14.8513 7.12C14.9313 6.97667 14.9713 6.81 14.9713 6.62ZM16.9599 5.71V7.235C16.9599 7.33833 16.9833 7.41333 17.0299 7.46C17.0799 7.50333 17.1633 7.525 17.2799 7.525H17.6299V8H17.1799C16.9233 8 16.7266 7.94 16.5899 7.82C16.4533 7.7 16.3849 7.505 16.3849 7.235V5.71H16.0599V5.245H16.3849V4.56H16.9599V5.245H17.6299V5.71H16.9599ZM20.6803 6.555C20.6803 6.65833 20.6736 6.75167 20.6603 6.835H18.5553C18.5719 7.055 18.6536 7.23167 18.8003 7.365C18.9469 7.49833 19.1269 7.565 19.3403 7.565C19.6469 7.565 19.8636 7.43667 19.9903 7.18H20.6053C20.5219 7.43333 20.3703 7.64167 20.1503 7.805C19.9336 7.965 19.6636 8.045 19.3403 8.045C19.0769 8.045 18.8403 7.98667 18.6303 7.87C18.4236 7.75 18.2603 7.58333 18.1403 7.37C18.0236 7.15333 17.9653 6.90333 17.9653 6.62C17.9653 6.33667 18.0219 6.08833 18.1353 5.875C18.2519 5.65833 18.4136 5.49167 18.6203 5.375C18.8303 5.25833 19.0703 5.2 19.3403 5.2C19.6003 5.2 19.8319 5.25667 20.0353 5.37C20.2386 5.48333 20.3969 5.64333 20.5103 5.85C20.6236 6.05333 20.6803 6.28833 20.6803 6.555ZM20.0853 6.375C20.0819 6.165 20.0069 5.99667 19.8603 5.87C19.7136 5.74333 19.5319 5.68 19.3153 5.68C19.1186 5.68 18.9503 5.74333 18.8103 5.87C18.6703 5.99333 18.5869 6.16167 18.5603 6.375H20.0853ZM22.77 8.035C22.6667 8.035 22.58 8 22.51 7.93C22.44 7.86 22.405 7.77333 22.405 7.67C22.405 7.56667 22.44 7.48 22.51 7.41C22.58 7.34 22.6667 7.305 22.77 7.305C22.87 7.305 22.955 7.34 23.025 7.41C23.095 7.48 23.13 7.56667 23.13 7.67C23.13 7.77333 23.095 7.86 23.025 7.93C22.955 8 22.87 8.035 22.77 8.035ZM22.77 5.935C22.6667 5.935 22.58 5.9 22.51 5.83C22.44 5.76 22.405 5.67333 22.405 5.57C22.405 5.46667 22.44 5.38 22.51 5.31C22.58 5.24 22.6667 5.205 22.77 5.205C22.87 5.205 22.955 5.24 23.025 5.31C23.095 5.38 23.13 5.46667 23.13 5.57C23.13 5.67333 23.095 5.76 23.025 5.83C22.955 5.9 22.87 5.935 22.77 5.935ZM25.6345 5.65C25.7311 5.52333 25.8628 5.41667 26.0295 5.33C26.1961 5.24333 26.3845 5.2 26.5945 5.2C26.8345 5.2 27.0528 5.26 27.2495 5.38C27.4495 5.49667 27.6061 5.66167 27.7195 5.875C27.8328 6.08833 27.8895 6.33333 27.8895 6.61C27.8895 6.88667 27.8328 7.135 27.7195 7.355C27.6061 7.57167 27.4495 7.74167 27.2495 7.865C27.0528 7.985 26.8345 8.045 26.5945 8.045C26.3845 8.045 26.1978 8.00333 26.0345 7.92C25.8711 7.83333 25.7378 7.72667 25.6345 7.6V9.31H25.0645V5.245H25.6345V5.65ZM27.3095 6.61C27.3095 6.42 27.2695 6.25667 27.1895 6.12C27.1128 5.98 27.0095 5.875 26.8795 5.805C26.7528 5.73167 26.6161 5.695 26.4695 5.695C26.3261 5.695 26.1895 5.73167 26.0595 5.805C25.9328 5.87833 25.8295 5.985 25.7495 6.125C25.6728 6.265 25.6345 6.43 25.6345 6.62C25.6345 6.81 25.6728 6.97667 25.7495 7.12C25.8295 7.26 25.9328 7.36667 26.0595 7.44C26.1895 7.51333 26.3261 7.55 26.4695 7.55C26.6161 7.55 26.7528 7.51333 26.8795 7.44C27.0095 7.36333 27.1128 7.25333 27.1895 7.11C27.2695 6.96667 27.3095 6.8 27.3095 6.61ZM29.0231 5.645C29.1065 5.505 29.2165 5.39667 29.3531 5.32C29.4931 5.24 29.6581 5.2 29.8481 5.2V5.79H29.7031C29.4798 5.79 29.3098 5.84667 29.1931 5.96C29.0798 6.07333 29.0231 6.27 29.0231 6.55V8H28.4531V5.245H29.0231V5.645ZM31.9009 8.035C31.7976 8.035 31.7109 8 31.6409 7.93C31.5709 7.86 31.5359 7.77333 31.5359 7.67C31.5359 7.56667 31.5709 7.48 31.6409 7.41C31.7109 7.34 31.7976 7.305 31.9009 7.305C32.0009 7.305 32.0859 7.34 32.1559 7.41C32.2259 7.48 32.2609 7.56667 32.2609 7.67C32.2609 7.77333 32.2259 7.86 32.1559 7.93C32.0859 8 32.0009 8.035 31.9009 8.035ZM31.9009 5.935C31.7976 5.935 31.7109 5.9 31.6409 5.83C31.5709 5.76 31.5359 5.67333 31.5359 5.57C31.5359 5.46667 31.5709 5.38 31.6409 5.31C31.7109 5.24 31.7976 5.205 31.9009 5.205C32.0009 5.205 32.0859 5.24 32.1559 5.31C32.2259 5.38 32.2609 5.46667 32.2609 5.57C32.2609 5.67333 32.2259 5.76 32.1559 5.83C32.0859 5.9 32.0009 5.935 31.9009 5.935ZM35.5853 5.2C35.802 5.2 35.9953 5.245 36.1653 5.335C36.3386 5.425 36.4736 5.55833 36.5703 5.735C36.667 5.91167 36.7153 6.125 36.7153 6.375V8H36.1503V6.46C36.1503 6.21333 36.0886 6.025 35.9653 5.895C35.842 5.76167 35.6736 5.695 35.4603 5.695C35.247 5.695 35.077 5.76167 34.9503 5.895C34.827 6.025 34.7653 6.21333 34.7653 6.46V8H34.1953V5.245H34.7653V5.56C34.8586 5.44667 34.977 5.35833 35.1203 5.295C35.267 5.23167 35.422 5.2 35.5853 5.2ZM37.2524 6.62C37.2524 6.33667 37.309 6.08833 37.4224 5.875C37.539 5.65833 37.699 5.49167 37.9024 5.375C38.1057 5.25833 38.339 5.2 38.6024 5.2C38.9357 5.2 39.2107 5.28 39.4274 5.44C39.6474 5.59667 39.7957 5.82167 39.8724 6.115H39.2574C39.2074 5.97833 39.1274 5.87167 39.0174 5.795C38.9074 5.71833 38.769 5.68 38.6024 5.68C38.369 5.68 38.1824 5.76333 38.0424 5.93C37.9057 6.09333 37.8374 6.32333 37.8374 6.62C37.8374 6.91667 37.9057 7.14833 38.0424 7.315C38.1824 7.48167 38.369 7.565 38.6024 7.565C38.9324 7.565 39.1507 7.42 39.2574 7.13H39.8724C39.7924 7.41 39.6424 7.63333 39.4224 7.8C39.2024 7.96333 38.929 8.045 38.6024 8.045C38.339 8.045 38.1057 7.98667 37.9024 7.87C37.699 7.75 37.539 7.58333 37.4224 7.37C37.309 7.15333 37.2524 6.90333 37.2524 6.62Z" fill="black"/>
<defs>
<filter id="filter0_d_17_166" x="0" y="0" width="51" height="20" filterUnits="userSpaceOnUse" color-interpolation-filters="sRGB">
<feFlood flood-opacity="0" result="BackgroundImageFix"/>
<feColorMatrix in="SourceAlpha" type="matrix" values="0 0 0 0 0 0 0 0 0 0 0 0 0 0 0 0 0 0 127 0" result="hardAlpha"/>
<feOffset dy="4"/>
<feGaussianBlur stdDeviation="2"/>
<feComposite in2="hardAlpha" operator="out"/>
<feColorMatrix type="matrix" values="0 0 0 0 0 0 0 0 0 0 0 0 0 0 0 0 0 0 0.25 0"/>
<feBlend mode="normal" in2="BackgroundImageFix" result="effect1_dropShadow_17_166"/>
<feBlend mode="normal" in="SourceGraphic" in2="effect1_dropShadow_17_166" result="shape"/>
</filter>
</defs>
</svg>
