<svg width="72" height="20" viewBox="0 0 72 20" fill="none" xmlns="http://www.w3.org/2000/svg">
<g filter="url(#filter0_d_17_148)">
<rect x="5" y="1" width="62" height="10" rx="1" fill="#11C87B" fill-opacity="0.67" style="mix-blend-mode:darken" shape-rendering="crispEdges"/>
<rect x="4.5" y="0.5" width="63" height="11" rx="1.5" stroke="#11C87B" shape-rendering="crispEdges"/>
</g>
<path d="M9.375 8.045C9.15833 8.045 8.96333 8.00667 8.79 7.93C8.62 7.85 8.485 7.74333 8.385 7.61C8.285 7.47333 8.23167 7.32167 8.225 7.155H8.815C8.825 7.27167 8.88 7.37 8.98 7.45C9.08333 7.52667 9.21167 7.565 9.365 7.565C9.525 7.565 9.64833 7.535 9.735 7.475C9.825 7.41167 9.87 7.33167 9.87 7.235C9.87 7.13167 9.82 7.055 9.72 7.005C9.62333 6.955 9.46833 6.9 9.255 6.84C9.04833 6.78333 8.88 6.72833 8.75 6.675C8.62 6.62167 8.50667 6.54 8.41 6.43C8.31667 6.32 8.27 6.175 8.27 5.995C8.27 5.84833 8.31333 5.715 8.4 5.595C8.48667 5.47167 8.61 5.375 8.77 5.305C8.93333 5.235 9.12 5.2 9.33 5.2C9.64333 5.2 9.895 5.28 10.085 5.44C10.2783 5.59667 10.3817 5.81167 10.395 6.085H9.825C9.815 5.96167 9.765 5.86333 9.675 5.79C9.585 5.71667 9.46333 5.68 9.31 5.68C9.16 5.68 9.045 5.70833 8.965 5.765C8.885 5.82167 8.845 5.89667 8.845 5.99C8.845 6.06333 8.87167 6.125 8.925 6.175C8.97833 6.225 9.04333 6.265 9.12 6.295C9.19667 6.32167 9.31 6.35667 9.46 6.4C9.66 6.45333 9.82333 6.50833 9.95 6.565C10.08 6.61833 10.1917 6.69833 10.285 6.805C10.3783 6.91167 10.4267 7.05333 10.43 7.23C10.43 7.38667 10.3867 7.52667 10.3 7.65C10.2133 7.77333 10.09 7.87 9.93 7.94C9.77333 8.01 9.58833 8.045 9.375 8.045ZM11.7109 5.71V7.235C11.7109 7.33833 11.7342 7.41333 11.7809 7.46C11.8309 7.50333 11.9142 7.525 12.0309 7.525H12.3809V8H11.9309C11.6742 8 11.4776 7.94 11.3409 7.82C11.2042 7.7 11.1359 7.505 11.1359 7.235V5.71H10.8109V5.245H11.1359V4.56H11.7109V5.245H12.3809V5.71H11.7109ZM12.7163 6.61C12.7163 6.33333 12.7729 6.08833 12.8863 5.875C13.0029 5.66167 13.1596 5.49667 13.3563 5.38C13.5563 5.26 13.7763 5.2 14.0163 5.2C14.2329 5.2 14.4213 5.24333 14.5813 5.33C14.7446 5.41333 14.8746 5.51833 14.9713 5.645V5.245H15.5463V8H14.9713V7.59C14.8746 7.72 14.7429 7.82833 14.5763 7.915C14.4096 8.00167 14.2196 8.045 14.0063 8.045C13.7696 8.045 13.5529 7.985 13.3563 7.865C13.1596 7.74167 13.0029 7.57167 12.8863 7.355C12.7729 7.135 12.7163 6.88667 12.7163 6.61ZM14.9713 6.62C14.9713 6.43 14.9313 6.265 14.8513 6.125C14.7746 5.985 14.6729 5.87833 14.5463 5.805C14.4196 5.73167 14.2829 5.695 14.1363 5.695C13.9896 5.695 13.8529 5.73167 13.7263 5.805C13.5996 5.875 13.4963 5.98 13.4163 6.12C13.3396 6.25667 13.3013 6.42 13.3013 6.61C13.3013 6.8 13.3396 6.96667 13.4163 7.11C13.4963 7.25333 13.5996 7.36333 13.7263 7.44C13.8563 7.51333 13.9929 7.55 14.1363 7.55C14.2829 7.55 14.4196 7.51333 14.5463 7.44C14.6729 7.36667 14.7746 7.26 14.8513 7.12C14.9313 6.97667 14.9713 6.81 14.9713 6.62ZM16.9599 5.71V7.235C16.9599 7.33833 16.9833 7.41333 17.0299 7.46C17.0799 7.50333 17.1633 7.525 17.2799 7.525H17.6299V8H17.1799C16.9233 8 16.7266 7.94 16.5899 7.82C16.4533 7.7 16.3849 7.505 16.3849 7.235V5.71H16.0599V5.245H16.3849V4.56H16.9599V5.245H17.6299V5.71H16.9599ZM20.6803 6.555C20.6803 6.65833 20.6736 6.75167 20.6603 6.835H18.5553C18.5719 7.055 18.6536 7.23167 18.8003 7.365C18.9469 7.49833 19.1269 7.565 19.3403 7.565C19.6469 7.565 19.8636 7.43667 19.9903 7.18H20.6053C20.5219 7.43333 20.3703 7.64167 20.1503 7.805C19.9336 7.965 19.6636 8.045 19.3403 8.045C19.0769 8.045 18.8403 7.98667 18.6303 7.87C18.4236 7.75 18.2603 7.58333 18.1403 7.37C18.0236 7.15333 17.9653 6.90333 17.9653 6.62C17.9653 6.33667 18.0219 6.08833 18.1353 5.875C18.2519 5.65833 18.4136 5.49167 18.6203 5.375C18.8303 5.25833 19.0703 5.2 19.3403 5.2C19.6003 5.2 19.8319 5.25667 20.0353 5.37C20.2386 5.48333 20.3969 5.64333 20.5103 5.85C20.6236 6.05333 20.6803 6.28833 20.6803 6.555ZM20.0853 6.375C20.0819 6.165 20.0069 5.99667 19.8603 5.87C19.7136 5.74333 19.5319 5.68 19.3153 5.68C19.1186 5.68 18.9503 5.74333 18.8103 5.87C18.6703 5.99333 18.5869 6.16167 18.5603 6.375H20.0853ZM22.77 8.035C22.6667 8.035 22.58 8 22.51 7.93C22.44 7.86 22.405 7.77333 22.405 7.67C22.405 7.56667 22.44 7.48 22.51 7.41C22.58 7.34 22.6667 7.305 22.77 7.305C22.87 7.305 22.955 7.34 23.025 7.41C23.095 7.48 23.13 7.56667 23.13 7.67C23.13 7.77333 23.095 7.86 23.025 7.93C22.955 8 22.87 8.035 22.77 8.035ZM22.77 5.935C22.6667 5.935 22.58 5.9 22.51 5.83C22.44 5.76 22.405 5.67333 22.405 5.57C22.405 5.46667 22.44 5.38 22.51 5.31C22.58 5.24 22.6667 5.205 22.77 5.205C22.87 5.205 22.955 5.24 23.025 5.31C23.095 5.38 23.13 5.46667 23.13 5.57C23.13 5.67333 23.095 5.76 23.025 5.83C22.955 5.9 22.87 5.935 22.77 5.935ZM25.3545 4.88C25.2511 4.88 25.1645 4.845 25.0945 4.775C25.0245 4.705 24.9895 4.61833 24.9895 4.515C24.9895 4.41167 25.0245 4.325 25.0945 4.255C25.1645 4.185 25.2511 4.15 25.3545 4.15C25.4545 4.15 25.5395 4.185 25.6095 4.255C25.6795 4.325 25.7145 4.41167 25.7145 4.515C25.7145 4.61833 25.6795 4.705 25.6095 4.775C25.5395 4.845 25.4545 4.88 25.3545 4.88ZM25.6345 5.245V8H25.0645V5.245H25.6345ZM27.3828 8.045C27.1661 8.045 26.9711 8.00667 26.7978 7.93C26.6278 7.85 26.4928 7.74333 26.3928 7.61C26.2928 7.47333 26.2395 7.32167 26.2328 7.155H26.8228C26.8328 7.27167 26.8878 7.37 26.9878 7.45C27.0911 7.52667 27.2195 7.565 27.3728 7.565C27.5328 7.565 27.6561 7.535 27.7428 7.475C27.8328 7.41167 27.8778 7.33167 27.8778 7.235C27.8778 7.13167 27.8278 7.055 27.7278 7.005C27.6311 6.955 27.4761 6.9 27.2628 6.84C27.0561 6.78333 26.8878 6.72833 26.7578 6.675C26.6278 6.62167 26.5145 6.54 26.4178 6.43C26.3245 6.32 26.2778 6.175 26.2778 5.995C26.2778 5.84833 26.3211 5.715 26.4078 5.595C26.4945 5.47167 26.6178 5.375 26.7778 5.305C26.9411 5.235 27.1278 5.2 27.3378 5.2C27.6511 5.2 27.9028 5.28 28.0928 5.44C28.2861 5.59667 28.3895 5.81167 28.4028 6.085H27.8328C27.8228 5.96167 27.7728 5.86333 27.6828 5.79C27.5928 5.71667 27.4711 5.68 27.3178 5.68C27.1678 5.68 27.0528 5.70833 26.9728 5.765C26.8928 5.82167 26.8528 5.89667 26.8528 5.99C26.8528 6.06333 26.8795 6.125 26.9328 6.175C26.9861 6.225 27.0511 6.265 27.1278 6.295C27.2045 6.32167 27.3178 6.35667 27.4678 6.4C27.6678 6.45333 27.8311 6.50833 27.9578 6.565C28.0878 6.61833 28.1995 6.69833 28.2928 6.805C28.3861 6.91167 28.4345 7.05333 28.4378 7.23C28.4378 7.38667 28.3945 7.52667 28.3078 7.65C28.2211 7.77333 28.0978 7.87 27.9378 7.94C27.7811 8.01 27.5961 8.045 27.3828 8.045ZM30.0537 8.045C29.837 8.045 29.642 8.00667 29.4687 7.93C29.2987 7.85 29.1637 7.74333 29.0637 7.61C28.9637 7.47333 28.9104 7.32167 28.9037 7.155H29.4937C29.5037 7.27167 29.5587 7.37 29.6587 7.45C29.762 7.52667 29.8904 7.565 30.0437 7.565C30.2037 7.565 30.327 7.535 30.4137 7.475C30.5037 7.41167 30.5487 7.33167 30.5487 7.235C30.5487 7.13167 30.4987 7.055 30.3987 7.005C30.302 6.955 30.147 6.9 29.9337 6.84C29.727 6.78333 29.5587 6.72833 29.4287 6.675C29.2987 6.62167 29.1854 6.54 29.0887 6.43C28.9954 6.32 28.9487 6.175 28.9487 5.995C28.9487 5.84833 28.992 5.715 29.0787 5.595C29.1654 5.47167 29.2887 5.375 29.4487 5.305C29.612 5.235 29.7987 5.2 30.0087 5.2C30.322 5.2 30.5737 5.28 30.7637 5.44C30.957 5.59667 31.0604 5.81167 31.0737 6.085H30.5037C30.4937 5.96167 30.4437 5.86333 30.3537 5.79C30.2637 5.71667 30.142 5.68 29.9887 5.68C29.8387 5.68 29.7237 5.70833 29.6437 5.765C29.5637 5.82167 29.5237 5.89667 29.5237 5.99C29.5237 6.06333 29.5504 6.125 29.6037 6.175C29.657 6.225 29.722 6.265 29.7987 6.295C29.8754 6.32167 29.9887 6.35667 30.1387 6.4C30.3387 6.45333 30.502 6.50833 30.6287 6.565C30.7587 6.61833 30.8704 6.69833 30.9637 6.805C31.057 6.91167 31.1054 7.05333 31.1087 7.23C31.1087 7.38667 31.0654 7.52667 30.9787 7.65C30.892 7.77333 30.7687 7.87 30.6087 7.94C30.452 8.01 30.267 8.045 30.0537 8.045ZM34.2196 5.245V8H33.6496V7.675C33.5596 7.78833 33.4413 7.87833 33.2946 7.945C33.1513 8.00833 32.9979 8.04 32.8346 8.04C32.6179 8.04 32.4229 7.995 32.2496 7.905C32.0796 7.815 31.9446 7.68167 31.8446 7.505C31.7479 7.32833 31.6996 7.115 31.6996 6.865V5.245H32.2646V6.78C32.2646 7.02667 32.3263 7.21667 32.4496 7.35C32.5729 7.48 32.7413 7.545 32.9546 7.545C33.1679 7.545 33.3363 7.48 33.4596 7.35C33.5863 7.21667 33.6496 7.02667 33.6496 6.78V5.245H34.2196ZM37.4967 6.555C37.4967 6.65833 37.49 6.75167 37.4767 6.835H35.3717C35.3883 7.055 35.47 7.23167 35.6167 7.365C35.7633 7.49833 35.9433 7.565 36.1567 7.565C36.4633 7.565 36.68 7.43667 36.8067 7.18H37.4217C37.3383 7.43333 37.1867 7.64167 36.9667 7.805C36.75 7.965 36.48 8.045 36.1567 8.045C35.8933 8.045 35.6567 7.98667 35.4467 7.87C35.24 7.75 35.0767 7.58333 34.9567 7.37C34.84 7.15333 34.7817 6.90333 34.7817 6.62C34.7817 6.33667 34.8383 6.08833 34.9517 5.875C35.0683 5.65833 35.23 5.49167 35.4367 5.375C35.6467 5.25833 35.8867 5.2 36.1567 5.2C36.4167 5.2 36.6483 5.25667 36.8517 5.37C37.055 5.48333 37.2133 5.64333 37.3267 5.85C37.44 6.05333 37.4967 6.28833 37.4967 6.555ZM36.9017 6.375C36.8983 6.165 36.8233 5.99667 36.6767 5.87C36.53 5.74333 36.3483 5.68 36.1317 5.68C35.935 5.68 35.7667 5.74333 35.6267 5.87C35.4867 5.99333 35.4033 6.16167 35.3767 6.375H36.9017ZM39.5864 8.035C39.4831 8.035 39.3964 8 39.3264 7.93C39.2564 7.86 39.2214 7.77333 39.2214 7.67C39.2214 7.56667 39.2564 7.48 39.3264 7.41C39.3964 7.34 39.4831 7.305 39.5864 7.305C39.6864 7.305 39.7714 7.34 39.8414 7.41C39.9114 7.48 39.9464 7.56667 39.9464 7.67C39.9464 7.77333 39.9114 7.86 39.8414 7.93C39.7714 8 39.6864 8.035 39.5864 8.035ZM39.5864 5.935C39.4831 5.935 39.3964 5.9 39.3264 5.83C39.2564 5.76 39.2214 5.67333 39.2214 5.57C39.2214 5.46667 39.2564 5.38 39.3264 5.31C39.3964 5.24 39.4831 5.205 39.5864 5.205C39.6864 5.205 39.7714 5.24 39.8414 5.31C39.9114 5.38 39.9464 5.46667 39.9464 5.57C39.9464 5.67333 39.9114 5.76 39.8414 5.83C39.7714 5.9 39.6864 5.935 39.5864 5.935ZM42.4509 5.645C42.5342 5.505 42.6442 5.39667 42.7809 5.32C42.9209 5.24 43.0859 5.2 43.2759 5.2V5.79H43.1309C42.9075 5.79 42.7375 5.84667 42.6209 5.96C42.5075 6.07333 42.4509 6.27 42.4509 6.55V8H41.8809V5.245H42.4509V5.645ZM46.3248 6.555C46.3248 6.65833 46.3181 6.75167 46.3048 6.835H44.1998C44.2165 7.055 44.2981 7.23167 44.4448 7.365C44.5915 7.49833 44.7715 7.565 44.9848 7.565C45.2915 7.565 45.5081 7.43667 45.6348 7.18H46.2498C46.1665 7.43333 46.0148 7.64167 45.7948 7.805C45.5781 7.965 45.3081 8.045 44.9848 8.045C44.7215 8.045 44.4848 7.98667 44.2748 7.87C44.0681 7.75 43.9048 7.58333 43.7848 7.37C43.6681 7.15333 43.6098 6.90333 43.6098 6.62C43.6098 6.33667 43.6665 6.08833 43.7798 5.875C43.8965 5.65833 44.0581 5.49167 44.2648 5.375C44.4748 5.25833 44.7148 5.2 44.9848 5.2C45.2448 5.2 45.4765 5.25667 45.6798 5.37C45.8831 5.48333 46.0415 5.64333 46.1548 5.85C46.2681 6.05333 46.3248 6.28833 46.3248 6.555ZM45.7298 6.375C45.7265 6.165 45.6515 5.99667 45.5048 5.87C45.3581 5.74333 45.1765 5.68 44.9598 5.68C44.7631 5.68 44.5948 5.74333 44.4548 5.87C44.3148 5.99333 44.2315 6.16167 44.2048 6.375H45.7298ZM47.8857 8.045C47.6691 8.045 47.4741 8.00667 47.3007 7.93C47.1307 7.85 46.9957 7.74333 46.8957 7.61C46.7957 7.47333 46.7424 7.32167 46.7357 7.155H47.3257C47.3357 7.27167 47.3907 7.37 47.4907 7.45C47.5941 7.52667 47.7224 7.565 47.8757 7.565C48.0357 7.565 48.1591 7.535 48.2457 7.475C48.3357 7.41167 48.3807 7.33167 48.3807 7.235C48.3807 7.13167 48.3307 7.055 48.2307 7.005C48.1341 6.955 47.9791 6.9 47.7657 6.84C47.5591 6.78333 47.3907 6.72833 47.2607 6.675C47.1307 6.62167 47.0174 6.54 46.9207 6.43C46.8274 6.32 46.7807 6.175 46.7807 5.995C46.7807 5.84833 46.8241 5.715 46.9107 5.595C46.9974 5.47167 47.1207 5.375 47.2807 5.305C47.4441 5.235 47.6307 5.2 47.8407 5.2C48.1541 5.2 48.4057 5.28 48.5957 5.44C48.7891 5.59667 48.8924 5.81167 48.9057 6.085H48.3357C48.3257 5.96167 48.2757 5.86333 48.1857 5.79C48.0957 5.71667 47.9741 5.68 47.8207 5.68C47.6707 5.68 47.5557 5.70833 47.4757 5.765C47.3957 5.82167 47.3557 5.89667 47.3557 5.99C47.3557 6.06333 47.3824 6.125 47.4357 6.175C47.4891 6.225 47.5541 6.265 47.6307 6.295C47.7074 6.32167 47.8207 6.35667 47.9707 6.4C48.1707 6.45333 48.3341 6.50833 48.4607 6.565C48.5907 6.61833 48.7024 6.69833 48.7957 6.805C48.8891 6.91167 48.9374 7.05333 48.9407 7.23C48.9407 7.38667 48.8974 7.52667 48.8107 7.65C48.7241 7.77333 48.6007 7.87 48.4407 7.94C48.2841 8.01 48.0991 8.045 47.8857 8.045ZM50.7516 8.045C50.4916 8.045 50.2566 7.98667 50.0466 7.87C49.8366 7.75 49.6716 7.58333 49.5516 7.37C49.4316 7.15333 49.3716 6.90333 49.3716 6.62C49.3716 6.34 49.4333 6.09167 49.5566 5.875C49.68 5.65833 49.8483 5.49167 50.0616 5.375C50.275 5.25833 50.5133 5.2 50.7766 5.2C51.04 5.2 51.2783 5.25833 51.4916 5.375C51.705 5.49167 51.8733 5.65833 51.9966 5.875C52.12 6.09167 52.1816 6.34 52.1816 6.62C52.1816 6.9 52.1183 7.14833 51.9916 7.365C51.865 7.58167 51.6916 7.75 51.4716 7.87C51.255 7.98667 51.015 8.045 50.7516 8.045ZM50.7516 7.55C50.8983 7.55 51.035 7.515 51.1616 7.445C51.2916 7.375 51.3966 7.27 51.4766 7.13C51.5566 6.99 51.5966 6.82 51.5966 6.62C51.5966 6.42 51.5583 6.25167 51.4816 6.115C51.405 5.975 51.3033 5.87 51.1766 5.8C51.05 5.73 50.9133 5.695 50.7666 5.695C50.62 5.695 50.4833 5.73 50.3566 5.8C50.2333 5.87 50.135 5.975 50.0616 6.115C49.9883 6.25167 49.9516 6.42 49.9516 6.62C49.9516 6.91667 50.0266 7.14667 50.1766 7.31C50.33 7.47 50.5216 7.55 50.7516 7.55ZM53.3151 4.3V8H52.7451V4.3H53.3151ZM55.1285 7.49L55.9085 5.245H56.5135L55.4635 8H54.7835L53.7385 5.245H54.3485L55.1285 7.49ZM59.4693 6.555C59.4693 6.65833 59.4627 6.75167 59.4493 6.835H57.3443C57.361 7.055 57.4427 7.23167 57.5893 7.365C57.736 7.49833 57.916 7.565 58.1293 7.565C58.436 7.565 58.6527 7.43667 58.7793 7.18H59.3943C59.311 7.43333 59.1593 7.64167 58.9393 7.805C58.7227 7.965 58.4527 8.045 58.1293 8.045C57.866 8.045 57.6293 7.98667 57.4193 7.87C57.2127 7.75 57.0493 7.58333 56.9293 7.37C56.8127 7.15333 56.7543 6.90333 56.7543 6.62C56.7543 6.33667 56.811 6.08833 56.9243 5.875C57.041 5.65833 57.2027 5.49167 57.4093 5.375C57.6193 5.25833 57.8593 5.2 58.1293 5.2C58.3893 5.2 58.621 5.25667 58.8243 5.37C59.0277 5.48333 59.186 5.64333 59.2993 5.85C59.4127 6.05333 59.4693 6.28833 59.4693 6.555ZM58.8743 6.375C58.871 6.165 58.796 5.99667 58.6493 5.87C58.5027 5.74333 58.321 5.68 58.1043 5.68C57.9077 5.68 57.7393 5.74333 57.5993 5.87C57.4593 5.99333 57.376 6.16167 57.3493 6.375H58.8743ZM59.8403 6.61C59.8403 6.33333 59.8969 6.08833 60.0103 5.875C60.1269 5.66167 60.2836 5.49667 60.4803 5.38C60.6803 5.26 60.9019 5.2 61.1453 5.2C61.3253 5.2 61.5019 5.24 61.6753 5.32C61.8519 5.39667 61.9919 5.5 62.0953 5.63V4.3H62.6703V8H62.0953V7.585C62.0019 7.71833 61.8719 7.82833 61.7053 7.915C61.5419 8.00167 61.3536 8.045 61.1403 8.045C60.9003 8.045 60.6803 7.985 60.4803 7.865C60.2836 7.74167 60.1269 7.57167 60.0103 7.355C59.8969 7.135 59.8403 6.88667 59.8403 6.61ZM62.0953 6.62C62.0953 6.43 62.0553 6.265 61.9753 6.125C61.8986 5.985 61.7969 5.87833 61.6703 5.805C61.5436 5.73167 61.4069 5.695 61.2603 5.695C61.1136 5.695 60.9769 5.73167 60.8503 5.805C60.7236 5.875 60.6203 5.98 60.5403 6.12C60.4636 6.25667 60.4253 6.42 60.4253 6.61C60.4253 6.8 60.4636 6.96667 60.5403 7.11C60.6203 7.25333 60.7236 7.36333 60.8503 7.44C60.9803 7.51333 61.1169 7.55 61.2603 7.55C61.4069 7.55 61.5436 7.51333 61.6703 7.44C61.7969 7.36667 61.8986 7.26 61.9753 7.12C62.0553 6.97667 62.0953 6.81 62.0953 6.62Z" fill="black"/>
<defs>
<filter id="filter0_d_17_148" x="0" y="0" width="72" height="20" filterUnits="userSpaceOnUse" color-interpolation-filters="sRGB">
<feFlood flood-opacity="0" result="BackgroundImageFix"/>
<feColorMatrix in="SourceAlpha" type="matrix" values="0 0 0 0 0 0 0 0 0 0 0 0 0 0 0 0 0 0 127 0" result="hardAlpha"/>
<feOffset dy="4"/>
<feGaussianBlur stdDeviation="2"/>
<feComposite in2="hardAlpha" operator="out"/>
<feColorMatrix type="matrix" values="0 0 0 0 0 0 0 0 0 0 0 0 0 0 0 0 0 0 0.25 0"/>
<feBlend mode="normal" in2="BackgroundImageFix" result="effect1_dropShadow_17_148"/>
<feBlend mode="normal" in="SourceGraphic" in2="effect1_dropShadow_17_148" result="shape"/>
</filter>
</defs>
</svg>
