<svg width="58" height="21" viewBox="0 0 58 21" fill="none" xmlns="http://www.w3.org/2000/svg">
<g filter="url(#filter0_d_17_171)">
<rect x="5.00391" y="1.00391" width="47" height="10" rx="1" fill="#D4C4F9" fill-opacity="0.67" style="mix-blend-mode:darken" shape-rendering="crispEdges"/>
<rect x="4.50391" y="0.503906" width="48" height="11" rx="1.5" stroke="#D4C4F9" shape-rendering="crispEdges"/>
</g>
<path d="M9.04391 5.71391V7.23891C9.04391 7.34224 9.06724 7.41724 9.11391 7.46391C9.16391 7.50724 9.24724 7.52891 9.36391 7.52891H9.71391V8.00391H9.26391C9.00724 8.00391 8.81057 7.94391 8.67391 7.82391C8.53724 7.70391 8.46891 7.50891 8.46891 7.23891V5.71391H8.14391V5.24891H8.46891V4.56391H9.04391V5.24891H9.71391V5.71391H9.04391ZM12.7193 5.24891L11.0293 9.29891H10.4393L10.9993 7.95891L9.91426 5.24891H10.5493L11.3243 7.34891L12.1293 5.24891H12.7193ZM13.7194 5.65391C13.8161 5.52724 13.9477 5.42057 14.1144 5.33391C14.2811 5.24724 14.4694 5.20391 14.6794 5.20391C14.9194 5.20391 15.1377 5.26391 15.3344 5.38391C15.5344 5.50057 15.6911 5.66557 15.8044 5.87891C15.9177 6.09224 15.9744 6.33724 15.9744 6.61391C15.9744 6.89057 15.9177 7.13891 15.8044 7.35891C15.6911 7.57557 15.5344 7.74557 15.3344 7.86891C15.1377 7.98891 14.9194 8.04891 14.6794 8.04891C14.4694 8.04891 14.2827 8.00724 14.1194 7.92391C13.9561 7.83724 13.8227 7.73057 13.7194 7.60391V9.31391H13.1494V5.24891H13.7194V5.65391ZM15.3944 6.61391C15.3944 6.42391 15.3544 6.26057 15.2744 6.12391C15.1977 5.98391 15.0944 5.87891 14.9644 5.80891C14.8377 5.73557 14.7011 5.69891 14.5544 5.69891C14.4111 5.69891 14.2744 5.73557 14.1444 5.80891C14.0177 5.88224 13.9144 5.98891 13.8344 6.12891C13.7577 6.26891 13.7194 6.43391 13.7194 6.62391C13.7194 6.81391 13.7577 6.98057 13.8344 7.12391C13.9144 7.26391 14.0177 7.37057 14.1444 7.44391C14.2744 7.51724 14.4111 7.55391 14.5544 7.55391C14.7011 7.55391 14.8377 7.51724 14.9644 7.44391C15.0944 7.36724 15.1977 7.25724 15.2744 7.11391C15.3544 6.97057 15.3944 6.80391 15.3944 6.61391ZM19.0631 6.55891C19.0631 6.66224 19.0564 6.75557 19.0431 6.83891H16.9381C16.9548 7.05891 17.0364 7.23557 17.1831 7.36891C17.3298 7.50224 17.5098 7.56891 17.7231 7.56891C18.0298 7.56891 18.2464 7.44057 18.3731 7.18391H18.9881C18.9048 7.43724 18.7531 7.64557 18.5331 7.80891C18.3164 7.96891 18.0464 8.04891 17.7231 8.04891C17.4598 8.04891 17.2231 7.99057 17.0131 7.87391C16.8064 7.75391 16.6431 7.58724 16.5231 7.37391C16.4064 7.15724 16.3481 6.90724 16.3481 6.62391C16.3481 6.34057 16.4048 6.09224 16.5181 5.87891C16.6348 5.66224 16.7964 5.49557 17.0031 5.37891C17.2131 5.26224 17.4531 5.20391 17.7231 5.20391C17.9831 5.20391 18.2148 5.26057 18.4181 5.37391C18.6214 5.48724 18.7798 5.64724 18.8931 5.85391C19.0064 6.05724 19.0631 6.29224 19.0631 6.55891ZM18.4681 6.37891C18.4648 6.16891 18.3898 6.00057 18.2431 5.87391C18.0964 5.74724 17.9148 5.68391 17.6981 5.68391C17.5014 5.68391 17.3331 5.74724 17.1931 5.87391C17.0531 5.99724 16.9698 6.16557 16.9431 6.37891H18.4681ZM21.1529 8.03891C21.0495 8.03891 20.9629 8.00391 20.8929 7.93391C20.8229 7.86391 20.7879 7.77724 20.7879 7.67391C20.7879 7.57057 20.8229 7.48391 20.8929 7.41391C20.9629 7.34391 21.0495 7.30891 21.1529 7.30891C21.2529 7.30891 21.3379 7.34391 21.4079 7.41391C21.4779 7.48391 21.5129 7.57057 21.5129 7.67391C21.5129 7.77724 21.4779 7.86391 21.4079 7.93391C21.3379 8.00391 21.2529 8.03891 21.1529 8.03891ZM21.1529 5.93891C21.0495 5.93891 20.9629 5.90391 20.8929 5.83391C20.8229 5.76391 20.7879 5.67724 20.7879 5.57391C20.7879 5.47057 20.8229 5.38391 20.8929 5.31391C20.9629 5.24391 21.0495 5.20891 21.1529 5.20891C21.2529 5.20891 21.3379 5.24391 21.4079 5.31391C21.4779 5.38391 21.5129 5.47057 21.5129 5.57391C21.5129 5.67724 21.4779 5.76391 21.4079 5.83391C21.3379 5.90391 21.2529 5.93891 21.1529 5.93891ZM23.2573 6.61391C23.2573 6.33724 23.3139 6.09224 23.4273 5.87891C23.5439 5.66557 23.7006 5.50057 23.8973 5.38391C24.0973 5.26391 24.3189 5.20391 24.5623 5.20391C24.7423 5.20391 24.9189 5.24391 25.0923 5.32391C25.2689 5.40057 25.4089 5.50391 25.5123 5.63391V4.30391H26.0873V8.00391H25.5123V7.58891C25.4189 7.72224 25.2889 7.83224 25.1223 7.91891C24.9589 8.00557 24.7706 8.04891 24.5573 8.04891C24.3173 8.04891 24.0973 7.98891 23.8973 7.86891C23.7006 7.74557 23.5439 7.57557 23.4273 7.35891C23.3139 7.13891 23.2573 6.89057 23.2573 6.61391ZM25.5123 6.62391C25.5123 6.43391 25.4723 6.26891 25.3923 6.12891C25.3156 5.98891 25.2139 5.88224 25.0873 5.80891C24.9606 5.73557 24.8239 5.69891 24.6773 5.69891C24.5306 5.69891 24.3939 5.73557 24.2673 5.80891C24.1406 5.87891 24.0373 5.98391 23.9573 6.12391C23.8806 6.26057 23.8423 6.42391 23.8423 6.61391C23.8423 6.80391 23.8806 6.97057 23.9573 7.11391C24.0373 7.25724 24.1406 7.36724 24.2673 7.44391C24.3973 7.51724 24.5339 7.55391 24.6773 7.55391C24.8239 7.55391 24.9606 7.51724 25.0873 7.44391C25.2139 7.37057 25.3156 7.26391 25.3923 7.12391C25.4723 6.98057 25.5123 6.81391 25.5123 6.62391ZM27.1259 4.88391C27.0226 4.88391 26.9359 4.84891 26.8659 4.77891C26.7959 4.70891 26.7609 4.62224 26.7609 4.51891C26.7609 4.41557 26.7959 4.32891 26.8659 4.25891C26.9359 4.18891 27.0226 4.15391 27.1259 4.15391C27.2259 4.15391 27.3109 4.18891 27.3809 4.25891C27.4509 4.32891 27.4859 4.41557 27.4859 4.51891C27.4859 4.62224 27.4509 4.70891 27.3809 4.77891C27.3109 4.84891 27.2259 4.88391 27.1259 4.88391ZM27.4059 5.24891V8.00391H26.8359V5.24891H27.4059ZM29.1543 8.04891C28.9376 8.04891 28.7426 8.01057 28.5693 7.93391C28.3993 7.85391 28.2643 7.74724 28.1643 7.61391C28.0643 7.47724 28.011 7.32557 28.0043 7.15891H28.5943C28.6043 7.27557 28.6593 7.37391 28.7593 7.45391C28.8626 7.53057 28.991 7.56891 29.1443 7.56891C29.3043 7.56891 29.4276 7.53891 29.5143 7.47891C29.6043 7.41557 29.6493 7.33557 29.6493 7.23891C29.6493 7.13557 29.5993 7.05891 29.4993 7.00891C29.4026 6.95891 29.2476 6.90391 29.0343 6.84391C28.8276 6.78724 28.6593 6.73224 28.5293 6.67891C28.3993 6.62557 28.286 6.54391 28.1893 6.43391C28.096 6.32391 28.0493 6.17891 28.0493 5.99891C28.0493 5.85224 28.0926 5.71891 28.1793 5.59891C28.266 5.47557 28.3893 5.37891 28.5493 5.30891C28.7126 5.23891 28.8993 5.20391 29.1093 5.20391C29.4226 5.20391 29.6743 5.28391 29.8643 5.44391C30.0576 5.60057 30.161 5.81557 30.1743 6.08891H29.6043C29.5943 5.96557 29.5443 5.86724 29.4543 5.79391C29.3643 5.72057 29.2426 5.68391 29.0893 5.68391C28.9393 5.68391 28.8243 5.71224 28.7443 5.76891C28.6643 5.82557 28.6243 5.90057 28.6243 5.99391C28.6243 6.06724 28.651 6.12891 28.7043 6.17891C28.7576 6.22891 28.8226 6.26891 28.8993 6.29891C28.976 6.32557 29.0893 6.36057 29.2393 6.40391C29.4393 6.45724 29.6026 6.51224 29.7293 6.56891C29.8593 6.62224 29.971 6.70224 30.0643 6.80891C30.1576 6.91557 30.206 7.05724 30.2093 7.23391C30.2093 7.39057 30.166 7.53057 30.0793 7.65391C29.9926 7.77724 29.8693 7.87391 29.7093 7.94391C29.5526 8.01391 29.3676 8.04891 29.1543 8.04891ZM30.6352 6.62391C30.6352 6.34057 30.6919 6.09224 30.8052 5.87891C30.9219 5.66224 31.0819 5.49557 31.2852 5.37891C31.4885 5.26224 31.7219 5.20391 31.9852 5.20391C32.3185 5.20391 32.5935 5.28391 32.8102 5.44391C33.0302 5.60057 33.1785 5.82557 33.2552 6.11891H32.6402C32.5902 5.98224 32.5102 5.87557 32.4002 5.79891C32.2902 5.72224 32.1519 5.68391 31.9852 5.68391C31.7519 5.68391 31.5652 5.76724 31.4252 5.93391C31.2885 6.09724 31.2202 6.32724 31.2202 6.62391C31.2202 6.92057 31.2885 7.15224 31.4252 7.31891C31.5652 7.48557 31.7519 7.56891 31.9852 7.56891C32.3152 7.56891 32.5335 7.42391 32.6402 7.13391H33.2552C33.1752 7.41391 33.0252 7.63724 32.8052 7.80391C32.5852 7.96724 32.3119 8.04891 31.9852 8.04891C31.7219 8.04891 31.4885 7.99057 31.2852 7.87391C31.0819 7.75391 30.9219 7.58724 30.8052 7.37391C30.6919 7.15724 30.6352 6.90724 30.6352 6.62391ZM36.3182 5.24891V8.00391H35.7482V7.67891C35.6582 7.79224 35.5399 7.88224 35.3932 7.94891C35.2499 8.01224 35.0966 8.04391 34.9332 8.04391C34.7166 8.04391 34.5216 7.99891 34.3482 7.90891C34.1782 7.81891 34.0432 7.68557 33.9432 7.50891C33.8466 7.33224 33.7982 7.11891 33.7982 6.86891V5.24891H34.3632V6.78391C34.3632 7.03057 34.4249 7.22057 34.5482 7.35391C34.6716 7.48391 34.8399 7.54891 35.0532 7.54891C35.2666 7.54891 35.4349 7.48391 35.5582 7.35391C35.6849 7.22057 35.7482 7.03057 35.7482 6.78391V5.24891H36.3182ZM38.0703 8.04891C37.8536 8.04891 37.6586 8.01057 37.4853 7.93391C37.3153 7.85391 37.1803 7.74724 37.0803 7.61391C36.9803 7.47724 36.927 7.32557 36.9203 7.15891H37.5103C37.5203 7.27557 37.5753 7.37391 37.6753 7.45391C37.7786 7.53057 37.907 7.56891 38.0603 7.56891C38.2203 7.56891 38.3436 7.53891 38.4303 7.47891C38.5203 7.41557 38.5653 7.33557 38.5653 7.23891C38.5653 7.13557 38.5153 7.05891 38.4153 7.00891C38.3186 6.95891 38.1636 6.90391 37.9503 6.84391C37.7436 6.78724 37.5753 6.73224 37.4453 6.67891C37.3153 6.62557 37.202 6.54391 37.1053 6.43391C37.012 6.32391 36.9653 6.17891 36.9653 5.99891C36.9653 5.85224 37.0086 5.71891 37.0953 5.59891C37.182 5.47557 37.3053 5.37891 37.4653 5.30891C37.6286 5.23891 37.8153 5.20391 38.0253 5.20391C38.3386 5.20391 38.5903 5.28391 38.7803 5.44391C38.9736 5.60057 39.077 5.81557 39.0903 6.08891H38.5203C38.5103 5.96557 38.4603 5.86724 38.3703 5.79391C38.2803 5.72057 38.1586 5.68391 38.0053 5.68391C37.8553 5.68391 37.7403 5.71224 37.6603 5.76891C37.5803 5.82557 37.5403 5.90057 37.5403 5.99391C37.5403 6.06724 37.567 6.12891 37.6203 6.17891C37.6736 6.22891 37.7386 6.26891 37.8153 6.29891C37.892 6.32557 38.0053 6.36057 38.1553 6.40391C38.3553 6.45724 38.5186 6.51224 38.6453 6.56891C38.7753 6.62224 38.887 6.70224 38.9803 6.80891C39.0736 6.91557 39.122 7.05724 39.1253 7.23391C39.1253 7.39057 39.082 7.53057 38.9953 7.65391C38.9086 7.77724 38.7853 7.87391 38.6253 7.94391C38.4686 8.01391 38.2836 8.04891 38.0703 8.04891ZM40.7412 8.04891C40.5245 8.04891 40.3295 8.01057 40.1562 7.93391C39.9862 7.85391 39.8512 7.74724 39.7512 7.61391C39.6512 7.47724 39.5979 7.32557 39.5912 7.15891H40.1812C40.1912 7.27557 40.2462 7.37391 40.3462 7.45391C40.4495 7.53057 40.5779 7.56891 40.7312 7.56891C40.8912 7.56891 41.0145 7.53891 41.1012 7.47891C41.1912 7.41557 41.2362 7.33557 41.2362 7.23891C41.2362 7.13557 41.1862 7.05891 41.0862 7.00891C40.9895 6.95891 40.8345 6.90391 40.6212 6.84391C40.4145 6.78724 40.2462 6.73224 40.1162 6.67891C39.9862 6.62557 39.8729 6.54391 39.7762 6.43391C39.6829 6.32391 39.6362 6.17891 39.6362 5.99891C39.6362 5.85224 39.6795 5.71891 39.7662 5.59891C39.8529 5.47557 39.9762 5.37891 40.1362 5.30891C40.2995 5.23891 40.4862 5.20391 40.6962 5.20391C41.0095 5.20391 41.2612 5.28391 41.4512 5.44391C41.6445 5.60057 41.7479 5.81557 41.7612 6.08891H41.1912C41.1812 5.96557 41.1312 5.86724 41.0412 5.79391C40.9512 5.72057 40.8295 5.68391 40.6762 5.68391C40.5262 5.68391 40.4112 5.71224 40.3312 5.76891C40.2512 5.82557 40.2112 5.90057 40.2112 5.99391C40.2112 6.06724 40.2379 6.12891 40.2912 6.17891C40.3445 6.22891 40.4095 6.26891 40.4862 6.29891C40.5629 6.32557 40.6762 6.36057 40.8262 6.40391C41.0262 6.45724 41.1895 6.51224 41.3162 6.56891C41.4462 6.62224 41.5579 6.70224 41.6512 6.80891C41.7445 6.91557 41.7929 7.05724 41.7962 7.23391C41.7962 7.39057 41.7529 7.53057 41.6662 7.65391C41.5795 7.77724 41.4562 7.87391 41.2962 7.94391C41.1395 8.01391 40.9545 8.04891 40.7412 8.04891ZM42.7021 4.88391C42.5988 4.88391 42.5121 4.84891 42.4421 4.77891C42.3721 4.70891 42.3371 4.62224 42.3371 4.51891C42.3371 4.41557 42.3721 4.32891 42.4421 4.25891C42.5121 4.18891 42.5988 4.15391 42.7021 4.15391C42.8021 4.15391 42.8871 4.18891 42.9571 4.25891C43.0271 4.32891 43.0621 4.41557 43.0621 4.51891C43.0621 4.62224 43.0271 4.70891 42.9571 4.77891C42.8871 4.84891 42.8021 4.88391 42.7021 4.88391ZM42.9821 5.24891V8.00391H42.4121V5.24891H42.9821ZM44.9255 8.04891C44.6655 8.04891 44.4305 7.99057 44.2205 7.87391C44.0105 7.75391 43.8455 7.58724 43.7255 7.37391C43.6055 7.15724 43.5455 6.90724 43.5455 6.62391C43.5455 6.34391 43.6071 6.09557 43.7305 5.87891C43.8538 5.66224 44.0221 5.49557 44.2355 5.37891C44.4488 5.26224 44.6871 5.20391 44.9505 5.20391C45.2138 5.20391 45.4521 5.26224 45.6655 5.37891C45.8788 5.49557 46.0471 5.66224 46.1705 5.87891C46.2938 6.09557 46.3555 6.34391 46.3555 6.62391C46.3555 6.90391 46.2921 7.15224 46.1655 7.36891C46.0388 7.58557 45.8655 7.75391 45.6455 7.87391C45.4288 7.99057 45.1888 8.04891 44.9255 8.04891ZM44.9255 7.55391C45.0721 7.55391 45.2088 7.51891 45.3355 7.44891C45.4655 7.37891 45.5705 7.27391 45.6505 7.13391C45.7305 6.99391 45.7705 6.82391 45.7705 6.62391C45.7705 6.42391 45.7321 6.25557 45.6555 6.11891C45.5788 5.97891 45.4771 5.87391 45.3505 5.80391C45.2238 5.73391 45.0871 5.69891 44.9405 5.69891C44.7938 5.69891 44.6571 5.73391 44.5305 5.80391C44.4071 5.87391 44.3088 5.97891 44.2355 6.11891C44.1621 6.25557 44.1255 6.42391 44.1255 6.62391C44.1255 6.92057 44.2005 7.15057 44.3505 7.31391C44.5038 7.47391 44.6955 7.55391 44.9255 7.55391ZM48.3089 5.20391C48.5256 5.20391 48.7189 5.24891 48.8889 5.33891C49.0623 5.42891 49.1973 5.56224 49.2939 5.73891C49.3906 5.91557 49.4389 6.12891 49.4389 6.37891V8.00391H48.8739V6.46391C48.8739 6.21724 48.8123 6.02891 48.6889 5.89891C48.5656 5.76557 48.3973 5.69891 48.1839 5.69891C47.9706 5.69891 47.8006 5.76557 47.6739 5.89891C47.5506 6.02891 47.4889 6.21724 47.4889 6.46391V8.00391H46.9189V5.24891H47.4889V5.56391C47.5823 5.45057 47.7006 5.36224 47.8439 5.29891C47.9906 5.23557 48.1456 5.20391 48.3089 5.20391Z" fill="black"/>
<defs>
<filter id="filter0_d_17_171" x="0.00390625" y="0.00390625" width="57" height="20" filterUnits="userSpaceOnUse" color-interpolation-filters="sRGB">
<feFlood flood-opacity="0" result="BackgroundImageFix"/>
<feColorMatrix in="SourceAlpha" type="matrix" values="0 0 0 0 0 0 0 0 0 0 0 0 0 0 0 0 0 0 127 0" result="hardAlpha"/>
<feOffset dy="4"/>
<feGaussianBlur stdDeviation="2"/>
<feComposite in2="hardAlpha" operator="out"/>
<feColorMatrix type="matrix" values="0 0 0 0 0 0 0 0 0 0 0 0 0 0 0 0 0 0 0.25 0"/>
<feBlend mode="normal" in2="BackgroundImageFix" result="effect1_dropShadow_17_171"/>
<feBlend mode="normal" in="SourceGraphic" in2="effect1_dropShadow_17_171" result="shape"/>
</filter>
</defs>
</svg>
