<svg width="53" height="21" viewBox="0 0 53 21" fill="none" xmlns="http://www.w3.org/2000/svg">
<g filter="url(#filter0_d_17_193)">
<rect x="5.00391" y="1.00391" width="42" height="10" rx="1" fill="#8C0D10" fill-opacity="0.67" style="mix-blend-mode:darken" shape-rendering="crispEdges"/>
<rect x="4.50391" y="0.503906" width="43" height="11" rx="1.5" stroke="#8C0D10" shape-rendering="crispEdges"/>
</g>
<path d="M9.04391 5.71391V7.23891C9.04391 7.34224 9.06724 7.41724 9.11391 7.46391C9.16391 7.50724 9.24724 7.52891 9.36391 7.52891H9.71391V8.00391H9.26391C9.00724 8.00391 8.81057 7.94391 8.67391 7.82391C8.53724 7.70391 8.46891 7.50891 8.46891 7.23891V5.71391H8.14391V5.24891H8.46891V4.56391H9.04391V5.24891H9.71391V5.71391H9.04391ZM12.7193 5.24891L11.0293 9.29891H10.4393L10.9993 7.95891L9.91426 5.24891H10.5493L11.3243 7.34891L12.1293 5.24891H12.7193ZM13.7194 5.65391C13.8161 5.52724 13.9477 5.42057 14.1144 5.33391C14.2811 5.24724 14.4694 5.20391 14.6794 5.20391C14.9194 5.20391 15.1377 5.26391 15.3344 5.38391C15.5344 5.50057 15.6911 5.66557 15.8044 5.87891C15.9177 6.09224 15.9744 6.33724 15.9744 6.61391C15.9744 6.89057 15.9177 7.13891 15.8044 7.35891C15.6911 7.57557 15.5344 7.74557 15.3344 7.86891C15.1377 7.98891 14.9194 8.04891 14.6794 8.04891C14.4694 8.04891 14.2827 8.00724 14.1194 7.92391C13.9561 7.83724 13.8227 7.73057 13.7194 7.60391V9.31391H13.1494V5.24891H13.7194V5.65391ZM15.3944 6.61391C15.3944 6.42391 15.3544 6.26057 15.2744 6.12391C15.1977 5.98391 15.0944 5.87891 14.9644 5.80891C14.8377 5.73557 14.7011 5.69891 14.5544 5.69891C14.4111 5.69891 14.2744 5.73557 14.1444 5.80891C14.0177 5.88224 13.9144 5.98891 13.8344 6.12891C13.7577 6.26891 13.7194 6.43391 13.7194 6.62391C13.7194 6.81391 13.7577 6.98057 13.8344 7.12391C13.9144 7.26391 14.0177 7.37057 14.1444 7.44391C14.2744 7.51724 14.4111 7.55391 14.5544 7.55391C14.7011 7.55391 14.8377 7.51724 14.9644 7.44391C15.0944 7.36724 15.1977 7.25724 15.2744 7.11391C15.3544 6.97057 15.3944 6.80391 15.3944 6.61391ZM19.0631 6.55891C19.0631 6.66224 19.0564 6.75557 19.0431 6.83891H16.9381C16.9548 7.05891 17.0364 7.23557 17.1831 7.36891C17.3298 7.50224 17.5098 7.56891 17.7231 7.56891C18.0298 7.56891 18.2464 7.44057 18.3731 7.18391H18.9881C18.9048 7.43724 18.7531 7.64557 18.5331 7.80891C18.3164 7.96891 18.0464 8.04891 17.7231 8.04891C17.4598 8.04891 17.2231 7.99057 17.0131 7.87391C16.8064 7.75391 16.6431 7.58724 16.5231 7.37391C16.4064 7.15724 16.3481 6.90724 16.3481 6.62391C16.3481 6.34057 16.4048 6.09224 16.5181 5.87891C16.6348 5.66224 16.7964 5.49557 17.0031 5.37891C17.2131 5.26224 17.4531 5.20391 17.7231 5.20391C17.9831 5.20391 18.2148 5.26057 18.4181 5.37391C18.6214 5.48724 18.7798 5.64724 18.8931 5.85391C19.0064 6.05724 19.0631 6.29224 19.0631 6.55891ZM18.4681 6.37891C18.4648 6.16891 18.3898 6.00057 18.2431 5.87391C18.0964 5.74724 17.9148 5.68391 17.6981 5.68391C17.5014 5.68391 17.3331 5.74724 17.1931 5.87391C17.0531 5.99724 16.9698 6.16557 16.9431 6.37891H18.4681ZM21.1529 8.03891C21.0495 8.03891 20.9629 8.00391 20.8929 7.93391C20.8229 7.86391 20.7879 7.77724 20.7879 7.67391C20.7879 7.57057 20.8229 7.48391 20.8929 7.41391C20.9629 7.34391 21.0495 7.30891 21.1529 7.30891C21.2529 7.30891 21.3379 7.34391 21.4079 7.41391C21.4779 7.48391 21.5129 7.57057 21.5129 7.67391C21.5129 7.77724 21.4779 7.86391 21.4079 7.93391C21.3379 8.00391 21.2529 8.03891 21.1529 8.03891ZM21.1529 5.93891C21.0495 5.93891 20.9629 5.90391 20.8929 5.83391C20.8229 5.76391 20.7879 5.67724 20.7879 5.57391C20.7879 5.47057 20.8229 5.38391 20.8929 5.31391C20.9629 5.24391 21.0495 5.20891 21.1529 5.20891C21.2529 5.20891 21.3379 5.24391 21.4079 5.31391C21.4779 5.38391 21.5129 5.47057 21.5129 5.57391C21.5129 5.67724 21.4779 5.76391 21.4079 5.83391C21.3379 5.90391 21.2529 5.93891 21.1529 5.93891ZM24.4473 8.04891C24.2306 8.04891 24.0356 8.01057 23.8623 7.93391C23.6923 7.85391 23.5573 7.74724 23.4573 7.61391C23.3573 7.47724 23.3039 7.32557 23.2973 7.15891H23.8873C23.8973 7.27557 23.9523 7.37391 24.0523 7.45391C24.1556 7.53057 24.2839 7.56891 24.4373 7.56891C24.5973 7.56891 24.7206 7.53891 24.8073 7.47891C24.8973 7.41557 24.9423 7.33557 24.9423 7.23891C24.9423 7.13557 24.8923 7.05891 24.7923 7.00891C24.6956 6.95891 24.5406 6.90391 24.3273 6.84391C24.1206 6.78724 23.9523 6.73224 23.8223 6.67891C23.6923 6.62557 23.5789 6.54391 23.4823 6.43391C23.3889 6.32391 23.3423 6.17891 23.3423 5.99891C23.3423 5.85224 23.3856 5.71891 23.4723 5.59891C23.5589 5.47557 23.6823 5.37891 23.8423 5.30891C24.0056 5.23891 24.1923 5.20391 24.4023 5.20391C24.7156 5.20391 24.9673 5.28391 25.1573 5.44391C25.3506 5.60057 25.4539 5.81557 25.4673 6.08891H24.8973C24.8873 5.96557 24.8373 5.86724 24.7473 5.79391C24.6573 5.72057 24.5356 5.68391 24.3823 5.68391C24.2323 5.68391 24.1173 5.71224 24.0373 5.76891C23.9573 5.82557 23.9173 5.90057 23.9173 5.99391C23.9173 6.06724 23.9439 6.12891 23.9973 6.17891C24.0506 6.22891 24.1156 6.26891 24.1923 6.29891C24.2689 6.32557 24.3823 6.36057 24.5323 6.40391C24.7323 6.45724 24.8956 6.51224 25.0223 6.56891C25.1523 6.62224 25.2639 6.70224 25.3573 6.80891C25.4506 6.91557 25.4989 7.05724 25.5023 7.23391C25.5023 7.39057 25.4589 7.53057 25.3723 7.65391C25.2856 7.77724 25.1623 7.87391 25.0023 7.94391C24.8456 8.01391 24.6606 8.04891 24.4473 8.04891ZM28.6432 6.55891C28.6432 6.66224 28.6365 6.75557 28.6232 6.83891H26.5182C26.5348 7.05891 26.6165 7.23557 26.7632 7.36891C26.9098 7.50224 27.0898 7.56891 27.3032 7.56891C27.6098 7.56891 27.8265 7.44057 27.9532 7.18391H28.5682C28.4848 7.43724 28.3332 7.64557 28.1132 7.80891C27.8965 7.96891 27.6265 8.04891 27.3032 8.04891C27.0398 8.04891 26.8032 7.99057 26.5932 7.87391C26.3865 7.75391 26.2232 7.58724 26.1032 7.37391C25.9865 7.15724 25.9282 6.90724 25.9282 6.62391C25.9282 6.34057 25.9848 6.09224 26.0982 5.87891C26.2148 5.66224 26.3765 5.49557 26.5832 5.37891C26.7932 5.26224 27.0332 5.20391 27.3032 5.20391C27.5632 5.20391 27.7948 5.26057 27.9982 5.37391C28.2015 5.48724 28.3598 5.64724 28.4732 5.85391C28.5865 6.05724 28.6432 6.29224 28.6432 6.55891ZM28.0482 6.37891C28.0448 6.16891 27.9698 6.00057 27.8232 5.87391C27.6765 5.74724 27.4948 5.68391 27.2782 5.68391C27.0815 5.68391 26.9132 5.74724 26.7732 5.87391C26.6332 5.99724 26.5498 6.16557 26.5232 6.37891H28.0482ZM29.0141 6.62391C29.0141 6.34057 29.0708 6.09224 29.1841 5.87891C29.3008 5.66224 29.4608 5.49557 29.6641 5.37891C29.8674 5.26224 30.1008 5.20391 30.3641 5.20391C30.6974 5.20391 30.9724 5.28391 31.1891 5.44391C31.4091 5.60057 31.5574 5.82557 31.6341 6.11891H31.0191C30.9691 5.98224 30.8891 5.87557 30.7791 5.79891C30.6691 5.72224 30.5308 5.68391 30.3641 5.68391C30.1308 5.68391 29.9441 5.76724 29.8041 5.93391C29.6674 6.09724 29.5991 6.32724 29.5991 6.62391C29.5991 6.92057 29.6674 7.15224 29.8041 7.31891C29.9441 7.48557 30.1308 7.56891 30.3641 7.56891C30.6941 7.56891 30.9124 7.42391 31.0191 7.13391H31.6341C31.5541 7.41391 31.4041 7.63724 31.1841 7.80391C30.9641 7.96724 30.6908 8.04891 30.3641 8.04891C30.1008 8.04891 29.8674 7.99057 29.6641 7.87391C29.4608 7.75391 29.3008 7.58724 29.1841 7.37391C29.0708 7.15724 29.0141 6.90724 29.0141 6.62391ZM34.6971 5.24891V8.00391H34.1271V7.67891C34.0371 7.79224 33.9188 7.88224 33.7721 7.94891C33.6288 8.01224 33.4755 8.04391 33.3121 8.04391C33.0955 8.04391 32.9005 7.99891 32.7271 7.90891C32.5571 7.81891 32.4221 7.68557 32.3221 7.50891C32.2255 7.33224 32.1771 7.11891 32.1771 6.86891V5.24891H32.7421V6.78391C32.7421 7.03057 32.8038 7.22057 32.9271 7.35391C33.0505 7.48391 33.2188 7.54891 33.4321 7.54891C33.6455 7.54891 33.8138 7.48391 33.9371 7.35391C34.0638 7.22057 34.1271 7.03057 34.1271 6.78391V5.24891H34.6971ZM36.0192 5.64891C36.1026 5.50891 36.2126 5.40057 36.3492 5.32391C36.4892 5.24391 36.6542 5.20391 36.8442 5.20391V5.79391H36.6992C36.4759 5.79391 36.3059 5.85057 36.1892 5.96391C36.0759 6.07724 36.0192 6.27391 36.0192 6.55391V8.00391H35.4492V5.24891H36.0192V5.64891ZM37.6582 4.88391C37.5548 4.88391 37.4682 4.84891 37.3982 4.77891C37.3282 4.70891 37.2932 4.62224 37.2932 4.51891C37.2932 4.41557 37.3282 4.32891 37.3982 4.25891C37.4682 4.18891 37.5548 4.15391 37.6582 4.15391C37.7582 4.15391 37.8432 4.18891 37.9132 4.25891C37.9832 4.32891 38.0182 4.41557 38.0182 4.51891C38.0182 4.62224 37.9832 4.70891 37.9132 4.77891C37.8432 4.84891 37.7582 4.88391 37.6582 4.88391ZM37.9382 5.24891V8.00391H37.3682V5.24891H37.9382ZM39.3515 5.71391V7.23891C39.3515 7.34224 39.3749 7.41724 39.4215 7.46391C39.4715 7.50724 39.5549 7.52891 39.6715 7.52891H40.0215V8.00391H39.5715C39.3149 8.00391 39.1182 7.94391 38.9815 7.82391C38.8449 7.70391 38.7765 7.50891 38.7765 7.23891V5.71391H38.4515V5.24891H38.7765V4.56391H39.3515V5.24891H40.0215V5.71391H39.3515ZM43.0269 5.24891L41.3369 9.29891H40.7469L41.3069 7.95891L40.2219 5.24891H40.8569L41.6319 7.34891L42.4369 5.24891H43.0269Z" fill="black"/>
<defs>
<filter id="filter0_d_17_193" x="0.00390625" y="0.00390625" width="52" height="20" filterUnits="userSpaceOnUse" color-interpolation-filters="sRGB">
<feFlood flood-opacity="0" result="BackgroundImageFix"/>
<feColorMatrix in="SourceAlpha" type="matrix" values="0 0 0 0 0 0 0 0 0 0 0 0 0 0 0 0 0 0 127 0" result="hardAlpha"/>
<feOffset dy="4"/>
<feGaussianBlur stdDeviation="2"/>
<feComposite in2="hardAlpha" operator="out"/>
<feColorMatrix type="matrix" values="0 0 0 0 0 0 0 0 0 0 0 0 0 0 0 0 0 0 0.25 0"/>
<feBlend mode="normal" in2="BackgroundImageFix" result="effect1_dropShadow_17_193"/>
<feBlend mode="normal" in="SourceGraphic" in2="effect1_dropShadow_17_193" result="shape"/>
</filter>
</defs>
</svg>
