<svg width="45" height="21" viewBox="0 0 45 21" fill="none" xmlns="http://www.w3.org/2000/svg">
<g filter="url(#filter0_d_17_172)">
<rect x="5.00391" y="1.00391" width="34" height="10" rx="1" fill="#FEF2C0" fill-opacity="0.67" style="mix-blend-mode:darken" shape-rendering="crispEdges"/>
<rect x="4.50391" y="0.503906" width="35" height="11" rx="1.5" stroke="#FEF2C0" shape-rendering="crispEdges"/>
</g>
<path d="M9.04391 5.71391V7.23891C9.04391 7.34224 9.06724 7.41724 9.11391 7.46391C9.16391 7.50724 9.24724 7.52891 9.36391 7.52891H9.71391V8.00391H9.26391C9.00724 8.00391 8.81057 7.94391 8.67391 7.82391C8.53724 7.70391 8.46891 7.50891 8.46891 7.23891V5.71391H8.14391V5.24891H8.46891V4.56391H9.04391V5.24891H9.71391V5.71391H9.04391ZM12.7193 5.24891L11.0293 9.29891H10.4393L10.9993 7.95891L9.91426 5.24891H10.5493L11.3243 7.34891L12.1293 5.24891H12.7193ZM13.7194 5.65391C13.8161 5.52724 13.9477 5.42057 14.1144 5.33391C14.2811 5.24724 14.4694 5.20391 14.6794 5.20391C14.9194 5.20391 15.1377 5.26391 15.3344 5.38391C15.5344 5.50057 15.6911 5.66557 15.8044 5.87891C15.9177 6.09224 15.9744 6.33724 15.9744 6.61391C15.9744 6.89057 15.9177 7.13891 15.8044 7.35891C15.6911 7.57557 15.5344 7.74557 15.3344 7.86891C15.1377 7.98891 14.9194 8.04891 14.6794 8.04891C14.4694 8.04891 14.2827 8.00724 14.1194 7.92391C13.9561 7.83724 13.8227 7.73057 13.7194 7.60391V9.31391H13.1494V5.24891H13.7194V5.65391ZM15.3944 6.61391C15.3944 6.42391 15.3544 6.26057 15.2744 6.12391C15.1977 5.98391 15.0944 5.87891 14.9644 5.80891C14.8377 5.73557 14.7011 5.69891 14.5544 5.69891C14.4111 5.69891 14.2744 5.73557 14.1444 5.80891C14.0177 5.88224 13.9144 5.98891 13.8344 6.12891C13.7577 6.26891 13.7194 6.43391 13.7194 6.62391C13.7194 6.81391 13.7577 6.98057 13.8344 7.12391C13.9144 7.26391 14.0177 7.37057 14.1444 7.44391C14.2744 7.51724 14.4111 7.55391 14.5544 7.55391C14.7011 7.55391 14.8377 7.51724 14.9644 7.44391C15.0944 7.36724 15.1977 7.25724 15.2744 7.11391C15.3544 6.97057 15.3944 6.80391 15.3944 6.61391ZM19.0631 6.55891C19.0631 6.66224 19.0564 6.75557 19.0431 6.83891H16.9381C16.9548 7.05891 17.0364 7.23557 17.1831 7.36891C17.3298 7.50224 17.5098 7.56891 17.7231 7.56891C18.0298 7.56891 18.2464 7.44057 18.3731 7.18391H18.9881C18.9048 7.43724 18.7531 7.64557 18.5331 7.80891C18.3164 7.96891 18.0464 8.04891 17.7231 8.04891C17.4598 8.04891 17.2231 7.99057 17.0131 7.87391C16.8064 7.75391 16.6431 7.58724 16.5231 7.37391C16.4064 7.15724 16.3481 6.90724 16.3481 6.62391C16.3481 6.34057 16.4048 6.09224 16.5181 5.87891C16.6348 5.66224 16.7964 5.49557 17.0031 5.37891C17.2131 5.26224 17.4531 5.20391 17.7231 5.20391C17.9831 5.20391 18.2148 5.26057 18.4181 5.37391C18.6214 5.48724 18.7798 5.64724 18.8931 5.85391C19.0064 6.05724 19.0631 6.29224 19.0631 6.55891ZM18.4681 6.37891C18.4648 6.16891 18.3898 6.00057 18.2431 5.87391C18.0964 5.74724 17.9148 5.68391 17.6981 5.68391C17.5014 5.68391 17.3331 5.74724 17.1931 5.87391C17.0531 5.99724 16.9698 6.16557 16.9431 6.37891H18.4681ZM21.1529 8.03891C21.0495 8.03891 20.9629 8.00391 20.8929 7.93391C20.8229 7.86391 20.7879 7.77724 20.7879 7.67391C20.7879 7.57057 20.8229 7.48391 20.8929 7.41391C20.9629 7.34391 21.0495 7.30891 21.1529 7.30891C21.2529 7.30891 21.3379 7.34391 21.4079 7.41391C21.4779 7.48391 21.5129 7.57057 21.5129 7.67391C21.5129 7.77724 21.4779 7.86391 21.4079 7.93391C21.3379 8.00391 21.2529 8.03891 21.1529 8.03891ZM21.1529 5.93891C21.0495 5.93891 20.9629 5.90391 20.8929 5.83391C20.8229 5.76391 20.7879 5.67724 20.7879 5.57391C20.7879 5.47057 20.8229 5.38391 20.8929 5.31391C20.9629 5.24391 21.0495 5.20891 21.1529 5.20891C21.2529 5.20891 21.3379 5.24391 21.4079 5.31391C21.4779 5.38391 21.5129 5.47057 21.5129 5.57391C21.5129 5.67724 21.4779 5.76391 21.4079 5.83391C21.3379 5.90391 21.2529 5.93891 21.1529 5.93891ZM23.2573 6.61391C23.2573 6.33724 23.3139 6.09224 23.4273 5.87891C23.5439 5.66557 23.7006 5.50057 23.8973 5.38391C24.0973 5.26391 24.3189 5.20391 24.5623 5.20391C24.7423 5.20391 24.9189 5.24391 25.0923 5.32391C25.2689 5.40057 25.4089 5.50391 25.5123 5.63391V4.30391H26.0873V8.00391H25.5123V7.58891C25.4189 7.72224 25.2889 7.83224 25.1223 7.91891C24.9589 8.00557 24.7706 8.04891 24.5573 8.04891C24.3173 8.04891 24.0973 7.98891 23.8973 7.86891C23.7006 7.74557 23.5439 7.57557 23.4273 7.35891C23.3139 7.13891 23.2573 6.89057 23.2573 6.61391ZM25.5123 6.62391C25.5123 6.43391 25.4723 6.26891 25.3923 6.12891C25.3156 5.98891 25.2139 5.88224 25.0873 5.80891C24.9606 5.73557 24.8239 5.69891 24.6773 5.69891C24.5306 5.69891 24.3939 5.73557 24.2673 5.80891C24.1406 5.87891 24.0373 5.98391 23.9573 6.12391C23.8806 6.26057 23.8423 6.42391 23.8423 6.61391C23.8423 6.80391 23.8806 6.97057 23.9573 7.11391C24.0373 7.25724 24.1406 7.36724 24.2673 7.44391C24.3973 7.51724 24.5339 7.55391 24.6773 7.55391C24.8239 7.55391 24.9606 7.51724 25.0873 7.44391C25.2139 7.37057 25.3156 7.26391 25.3923 7.12391C25.4723 6.98057 25.5123 6.81391 25.5123 6.62391ZM28.0309 8.04891C27.7709 8.04891 27.5359 7.99057 27.3259 7.87391C27.1159 7.75391 26.9509 7.58724 26.8309 7.37391C26.7109 7.15724 26.6509 6.90724 26.6509 6.62391C26.6509 6.34391 26.7126 6.09557 26.8359 5.87891C26.9593 5.66224 27.1276 5.49557 27.3409 5.37891C27.5543 5.26224 27.7926 5.20391 28.0559 5.20391C28.3193 5.20391 28.5576 5.26224 28.7709 5.37891C28.9843 5.49557 29.1526 5.66224 29.2759 5.87891C29.3993 6.09557 29.4609 6.34391 29.4609 6.62391C29.4609 6.90391 29.3976 7.15224 29.2709 7.36891C29.1443 7.58557 28.9709 7.75391 28.7509 7.87391C28.5343 7.99057 28.2943 8.04891 28.0309 8.04891ZM28.0309 7.55391C28.1776 7.55391 28.3143 7.51891 28.4409 7.44891C28.5709 7.37891 28.6759 7.27391 28.7559 7.13391C28.8359 6.99391 28.8759 6.82391 28.8759 6.62391C28.8759 6.42391 28.8376 6.25557 28.7609 6.11891C28.6843 5.97891 28.5826 5.87391 28.4559 5.80391C28.3293 5.73391 28.1926 5.69891 28.0459 5.69891C27.8993 5.69891 27.7626 5.73391 27.6359 5.80391C27.5126 5.87391 27.4143 5.97891 27.3409 6.11891C27.2676 6.25557 27.2309 6.42391 27.2309 6.62391C27.2309 6.92057 27.3059 7.15057 27.4559 7.31391C27.6093 7.47391 27.8009 7.55391 28.0309 7.55391ZM29.8344 6.62391C29.8344 6.34057 29.8911 6.09224 30.0044 5.87891C30.1211 5.66224 30.2811 5.49557 30.4844 5.37891C30.6877 5.26224 30.9211 5.20391 31.1844 5.20391C31.5177 5.20391 31.7927 5.28391 32.0094 5.44391C32.2294 5.60057 32.3777 5.82557 32.4544 6.11891H31.8394C31.7894 5.98224 31.7094 5.87557 31.5994 5.79891C31.4894 5.72224 31.3511 5.68391 31.1844 5.68391C30.9511 5.68391 30.7644 5.76724 30.6244 5.93391C30.4877 6.09724 30.4194 6.32724 30.4194 6.62391C30.4194 6.92057 30.4877 7.15224 30.6244 7.31891C30.7644 7.48557 30.9511 7.56891 31.1844 7.56891C31.5144 7.56891 31.7327 7.42391 31.8394 7.13391H32.4544C32.3744 7.41391 32.2244 7.63724 32.0044 7.80391C31.7844 7.96724 31.5111 8.04891 31.1844 8.04891C30.9211 8.04891 30.6877 7.99057 30.4844 7.87391C30.2811 7.75391 30.1211 7.58724 30.0044 7.37391C29.8911 7.15724 29.8344 6.90724 29.8344 6.62391ZM34.0225 8.04891C33.8058 8.04891 33.6108 8.01057 33.4375 7.93391C33.2675 7.85391 33.1325 7.74724 33.0325 7.61391C32.9325 7.47724 32.8791 7.32557 32.8725 7.15891H33.4625C33.4725 7.27557 33.5275 7.37391 33.6275 7.45391C33.7308 7.53057 33.8591 7.56891 34.0125 7.56891C34.1725 7.56891 34.2958 7.53891 34.3825 7.47891C34.4725 7.41557 34.5175 7.33557 34.5175 7.23891C34.5175 7.13557 34.4675 7.05891 34.3675 7.00891C34.2708 6.95891 34.1158 6.90391 33.9025 6.84391C33.6958 6.78724 33.5275 6.73224 33.3975 6.67891C33.2675 6.62557 33.1541 6.54391 33.0575 6.43391C32.9641 6.32391 32.9175 6.17891 32.9175 5.99891C32.9175 5.85224 32.9608 5.71891 33.0475 5.59891C33.1341 5.47557 33.2575 5.37891 33.4175 5.30891C33.5808 5.23891 33.7675 5.20391 33.9775 5.20391C34.2908 5.20391 34.5425 5.28391 34.7325 5.44391C34.9258 5.60057 35.0291 5.81557 35.0425 6.08891H34.4725C34.4625 5.96557 34.4125 5.86724 34.3225 5.79391C34.2325 5.72057 34.1108 5.68391 33.9575 5.68391C33.8075 5.68391 33.6925 5.71224 33.6125 5.76891C33.5325 5.82557 33.4925 5.90057 33.4925 5.99391C33.4925 6.06724 33.5191 6.12891 33.5725 6.17891C33.6258 6.22891 33.6908 6.26891 33.7675 6.29891C33.8441 6.32557 33.9575 6.36057 34.1075 6.40391C34.3075 6.45724 34.4708 6.51224 34.5975 6.56891C34.7275 6.62224 34.8391 6.70224 34.9325 6.80891C35.0258 6.91557 35.0741 7.05724 35.0775 7.23391C35.0775 7.39057 35.0341 7.53057 34.9475 7.65391C34.8608 7.77724 34.7375 7.87391 34.5775 7.94391C34.4208 8.01391 34.2358 8.04891 34.0225 8.04891Z" fill="black"/>
<defs>
<filter id="filter0_d_17_172" x="0.00390625" y="0.00390625" width="44" height="20" filterUnits="userSpaceOnUse" color-interpolation-filters="sRGB">
<feFlood flood-opacity="0" result="BackgroundImageFix"/>
<feColorMatrix in="SourceAlpha" type="matrix" values="0 0 0 0 0 0 0 0 0 0 0 0 0 0 0 0 0 0 127 0" result="hardAlpha"/>
<feOffset dy="4"/>
<feGaussianBlur stdDeviation="2"/>
<feComposite in2="hardAlpha" operator="out"/>
<feColorMatrix type="matrix" values="0 0 0 0 0 0 0 0 0 0 0 0 0 0 0 0 0 0 0.25 0"/>
<feBlend mode="normal" in2="BackgroundImageFix" result="effect1_dropShadow_17_172"/>
<feBlend mode="normal" in="SourceGraphic" in2="effect1_dropShadow_17_172" result="shape"/>
</filter>
</defs>
</svg>
