<svg width="53" height="21" viewBox="0 0 53 21" fill="none" xmlns="http://www.w3.org/2000/svg">
<g filter="url(#filter0_d_17_175)">
<rect x="5.00391" y="1.00391" width="42" height="10" rx="1" fill="#15AA6B" fill-opacity="0.67" style="mix-blend-mode:darken" shape-rendering="crispEdges"/>
<rect x="4.50391" y="0.503906" width="43" height="11" rx="1.5" stroke="#15AA6B" shape-rendering="crispEdges"/>
</g>
<path d="M9.04391 5.71391V7.23891C9.04391 7.34224 9.06724 7.41724 9.11391 7.46391C9.16391 7.50724 9.24724 7.52891 9.36391 7.52891H9.71391V8.00391H9.26391C9.00724 8.00391 8.81057 7.94391 8.67391 7.82391C8.53724 7.70391 8.46891 7.50891 8.46891 7.23891V5.71391H8.14391V5.24891H8.46891V4.56391H9.04391V5.24891H9.71391V5.71391H9.04391ZM12.7193 5.24891L11.0293 9.29891H10.4393L10.9993 7.95891L9.91426 5.24891H10.5493L11.3243 7.34891L12.1293 5.24891H12.7193ZM13.7194 5.65391C13.8161 5.52724 13.9477 5.42057 14.1144 5.33391C14.2811 5.24724 14.4694 5.20391 14.6794 5.20391C14.9194 5.20391 15.1377 5.26391 15.3344 5.38391C15.5344 5.50057 15.6911 5.66557 15.8044 5.87891C15.9177 6.09224 15.9744 6.33724 15.9744 6.61391C15.9744 6.89057 15.9177 7.13891 15.8044 7.35891C15.6911 7.57557 15.5344 7.74557 15.3344 7.86891C15.1377 7.98891 14.9194 8.04891 14.6794 8.04891C14.4694 8.04891 14.2827 8.00724 14.1194 7.92391C13.9561 7.83724 13.8227 7.73057 13.7194 7.60391V9.31391H13.1494V5.24891H13.7194V5.65391ZM15.3944 6.61391C15.3944 6.42391 15.3544 6.26057 15.2744 6.12391C15.1977 5.98391 15.0944 5.87891 14.9644 5.80891C14.8377 5.73557 14.7011 5.69891 14.5544 5.69891C14.4111 5.69891 14.2744 5.73557 14.1444 5.80891C14.0177 5.88224 13.9144 5.98891 13.8344 6.12891C13.7577 6.26891 13.7194 6.43391 13.7194 6.62391C13.7194 6.81391 13.7577 6.98057 13.8344 7.12391C13.9144 7.26391 14.0177 7.37057 14.1444 7.44391C14.2744 7.51724 14.4111 7.55391 14.5544 7.55391C14.7011 7.55391 14.8377 7.51724 14.9644 7.44391C15.0944 7.36724 15.1977 7.25724 15.2744 7.11391C15.3544 6.97057 15.3944 6.80391 15.3944 6.61391ZM19.0631 6.55891C19.0631 6.66224 19.0564 6.75557 19.0431 6.83891H16.9381C16.9548 7.05891 17.0364 7.23557 17.1831 7.36891C17.3298 7.50224 17.5098 7.56891 17.7231 7.56891C18.0298 7.56891 18.2464 7.44057 18.3731 7.18391H18.9881C18.9048 7.43724 18.7531 7.64557 18.5331 7.80891C18.3164 7.96891 18.0464 8.04891 17.7231 8.04891C17.4598 8.04891 17.2231 7.99057 17.0131 7.87391C16.8064 7.75391 16.6431 7.58724 16.5231 7.37391C16.4064 7.15724 16.3481 6.90724 16.3481 6.62391C16.3481 6.34057 16.4048 6.09224 16.5181 5.87891C16.6348 5.66224 16.7964 5.49557 17.0031 5.37891C17.2131 5.26224 17.4531 5.20391 17.7231 5.20391C17.9831 5.20391 18.2148 5.26057 18.4181 5.37391C18.6214 5.48724 18.7798 5.64724 18.8931 5.85391C19.0064 6.05724 19.0631 6.29224 19.0631 6.55891ZM18.4681 6.37891C18.4648 6.16891 18.3898 6.00057 18.2431 5.87391C18.0964 5.74724 17.9148 5.68391 17.6981 5.68391C17.5014 5.68391 17.3331 5.74724 17.1931 5.87391C17.0531 5.99724 16.9698 6.16557 16.9431 6.37891H18.4681ZM21.1529 8.03891C21.0495 8.03891 20.9629 8.00391 20.8929 7.93391C20.8229 7.86391 20.7879 7.77724 20.7879 7.67391C20.7879 7.57057 20.8229 7.48391 20.8929 7.41391C20.9629 7.34391 21.0495 7.30891 21.1529 7.30891C21.2529 7.30891 21.3379 7.34391 21.4079 7.41391C21.4779 7.48391 21.5129 7.57057 21.5129 7.67391C21.5129 7.77724 21.4779 7.86391 21.4079 7.93391C21.3379 8.00391 21.2529 8.03891 21.1529 8.03891ZM21.1529 5.93891C21.0495 5.93891 20.9629 5.90391 20.8929 5.83391C20.8229 5.76391 20.7879 5.67724 20.7879 5.57391C20.7879 5.47057 20.8229 5.38391 20.8929 5.31391C20.9629 5.24391 21.0495 5.20891 21.1529 5.20891C21.2529 5.20891 21.3379 5.24391 21.4079 5.31391C21.4779 5.38391 21.5129 5.47057 21.5129 5.57391C21.5129 5.67724 21.4779 5.76391 21.4079 5.83391C21.3379 5.90391 21.2529 5.93891 21.1529 5.93891ZM24.0173 5.64891C24.1006 5.50891 24.2106 5.40057 24.3473 5.32391C24.4873 5.24391 24.6523 5.20391 24.8423 5.20391V5.79391H24.6973C24.4739 5.79391 24.3039 5.85057 24.1873 5.96391C24.0739 6.07724 24.0173 6.27391 24.0173 6.55391V8.00391H23.4473V5.24891H24.0173V5.64891ZM27.8912 6.55891C27.8912 6.66224 27.8845 6.75557 27.8712 6.83891H25.7662C25.7829 7.05891 25.8645 7.23557 26.0112 7.36891C26.1579 7.50224 26.3379 7.56891 26.5512 7.56891C26.8579 7.56891 27.0745 7.44057 27.2012 7.18391H27.8162C27.7329 7.43724 27.5812 7.64557 27.3612 7.80891C27.1445 7.96891 26.8745 8.04891 26.5512 8.04891C26.2879 8.04891 26.0512 7.99057 25.8412 7.87391C25.6345 7.75391 25.4712 7.58724 25.3512 7.37391C25.2345 7.15724 25.1762 6.90724 25.1762 6.62391C25.1762 6.34057 25.2329 6.09224 25.3462 5.87891C25.4629 5.66224 25.6245 5.49557 25.8312 5.37891C26.0412 5.26224 26.2812 5.20391 26.5512 5.20391C26.8112 5.20391 27.0429 5.26057 27.2462 5.37391C27.4495 5.48724 27.6079 5.64724 27.7212 5.85391C27.8345 6.05724 27.8912 6.29224 27.8912 6.55891ZM27.2962 6.37891C27.2929 6.16891 27.2179 6.00057 27.0712 5.87391C26.9245 5.74724 26.7429 5.68391 26.5262 5.68391C26.3295 5.68391 26.1612 5.74724 26.0212 5.87391C25.8812 5.99724 25.7979 6.16557 25.7712 6.37891H27.2962ZM29.6071 5.71391H29.0971V8.00391H28.5221V5.71391H28.1971V5.24891H28.5221V5.05391C28.5221 4.73724 28.6055 4.50724 28.7721 4.36391C28.9421 4.21724 29.2071 4.14391 29.5671 4.14391V4.61891C29.3938 4.61891 29.2721 4.65224 29.2021 4.71891C29.1321 4.78224 29.0971 4.89391 29.0971 5.05391V5.24891H29.6071V5.71391ZM29.9223 6.61391C29.9223 6.33724 29.979 6.09224 30.0923 5.87891C30.209 5.66557 30.3656 5.50057 30.5623 5.38391C30.7623 5.26391 30.9823 5.20391 31.2223 5.20391C31.439 5.20391 31.6273 5.24724 31.7873 5.33391C31.9506 5.41724 32.0806 5.52224 32.1773 5.64891V5.24891H32.7523V8.00391H32.1773V7.59391C32.0806 7.72391 31.949 7.83224 31.7823 7.91891C31.6156 8.00557 31.4256 8.04891 31.2123 8.04891C30.9756 8.04891 30.759 7.98891 30.5623 7.86891C30.3656 7.74557 30.209 7.57557 30.0923 7.35891C29.979 7.13891 29.9223 6.89057 29.9223 6.61391ZM32.1773 6.62391C32.1773 6.43391 32.1373 6.26891 32.0573 6.12891C31.9806 5.98891 31.879 5.88224 31.7523 5.80891C31.6256 5.73557 31.489 5.69891 31.3423 5.69891C31.1956 5.69891 31.059 5.73557 30.9323 5.80891C30.8056 5.87891 30.7023 5.98391 30.6223 6.12391C30.5456 6.26057 30.5073 6.42391 30.5073 6.61391C30.5073 6.80391 30.5456 6.97057 30.6223 7.11391C30.7023 7.25724 30.8056 7.36724 30.9323 7.44391C31.0623 7.51724 31.199 7.55391 31.3423 7.55391C31.489 7.55391 31.6256 7.51724 31.7523 7.44391C31.879 7.37057 31.9806 7.26391 32.0573 7.12391C32.1373 6.98057 32.1773 6.81391 32.1773 6.62391ZM33.311 6.62391C33.311 6.34057 33.3676 6.09224 33.481 5.87891C33.5976 5.66224 33.7576 5.49557 33.961 5.37891C34.1643 5.26224 34.3976 5.20391 34.661 5.20391C34.9943 5.20391 35.2693 5.28391 35.486 5.44391C35.706 5.60057 35.8543 5.82557 35.931 6.11891H35.316C35.266 5.98224 35.186 5.87557 35.076 5.79891C34.966 5.72224 34.8276 5.68391 34.661 5.68391C34.4276 5.68391 34.241 5.76724 34.101 5.93391C33.9643 6.09724 33.896 6.32724 33.896 6.62391C33.896 6.92057 33.9643 7.15224 34.101 7.31891C34.241 7.48557 34.4276 7.56891 34.661 7.56891C34.991 7.56891 35.2093 7.42391 35.316 7.13391H35.931C35.851 7.41391 35.701 7.63724 35.481 7.80391C35.261 7.96724 34.9876 8.04891 34.661 8.04891C34.3976 8.04891 34.1643 7.99057 33.961 7.87391C33.7576 7.75391 33.5976 7.58724 33.481 7.37391C33.3676 7.15724 33.311 6.90724 33.311 6.62391ZM37.164 5.71391V7.23891C37.164 7.34224 37.1874 7.41724 37.234 7.46391C37.284 7.50724 37.3674 7.52891 37.484 7.52891H37.834V8.00391H37.384C37.1274 8.00391 36.9307 7.94391 36.794 7.82391C36.6574 7.70391 36.589 7.50891 36.589 7.23891V5.71391H36.264V5.24891H36.589V4.56391H37.164V5.24891H37.834V5.71391H37.164ZM39.5544 8.04891C39.2944 8.04891 39.0594 7.99057 38.8494 7.87391C38.6394 7.75391 38.4744 7.58724 38.3544 7.37391C38.2344 7.15724 38.1744 6.90724 38.1744 6.62391C38.1744 6.34391 38.236 6.09557 38.3594 5.87891C38.4827 5.66224 38.651 5.49557 38.8644 5.37891C39.0777 5.26224 39.316 5.20391 39.5794 5.20391C39.8427 5.20391 40.081 5.26224 40.2944 5.37891C40.5077 5.49557 40.676 5.66224 40.7994 5.87891C40.9227 6.09557 40.9844 6.34391 40.9844 6.62391C40.9844 6.90391 40.921 7.15224 40.7944 7.36891C40.6677 7.58557 40.4944 7.75391 40.2744 7.87391C40.0577 7.99057 39.8177 8.04891 39.5544 8.04891ZM39.5544 7.55391C39.701 7.55391 39.8377 7.51891 39.9644 7.44891C40.0944 7.37891 40.1994 7.27391 40.2794 7.13391C40.3594 6.99391 40.3994 6.82391 40.3994 6.62391C40.3994 6.42391 40.361 6.25557 40.2844 6.11891C40.2077 5.97891 40.106 5.87391 39.9794 5.80391C39.8527 5.73391 39.716 5.69891 39.5694 5.69891C39.4227 5.69891 39.286 5.73391 39.1594 5.80391C39.036 5.87391 38.9377 5.97891 38.8644 6.11891C38.791 6.25557 38.7544 6.42391 38.7544 6.62391C38.7544 6.92057 38.8294 7.15057 38.9794 7.31391C39.1327 7.47391 39.3244 7.55391 39.5544 7.55391ZM42.1179 5.64891C42.2012 5.50891 42.3112 5.40057 42.4479 5.32391C42.5879 5.24391 42.7529 5.20391 42.9429 5.20391V5.79391H42.7979C42.5745 5.79391 42.4045 5.85057 42.2879 5.96391C42.1745 6.07724 42.1179 6.27391 42.1179 6.55391V8.00391H41.5479V5.24891H42.1179V5.64891Z" fill="black"/>
<defs>
<filter id="filter0_d_17_175" x="0.00390625" y="0.00390625" width="52" height="20" filterUnits="userSpaceOnUse" color-interpolation-filters="sRGB">
<feFlood flood-opacity="0" result="BackgroundImageFix"/>
<feColorMatrix in="SourceAlpha" type="matrix" values="0 0 0 0 0 0 0 0 0 0 0 0 0 0 0 0 0 0 127 0" result="hardAlpha"/>
<feOffset dy="4"/>
<feGaussianBlur stdDeviation="2"/>
<feComposite in2="hardAlpha" operator="out"/>
<feColorMatrix type="matrix" values="0 0 0 0 0 0 0 0 0 0 0 0 0 0 0 0 0 0 0.25 0"/>
<feBlend mode="normal" in2="BackgroundImageFix" result="effect1_dropShadow_17_175"/>
<feBlend mode="normal" in="SourceGraphic" in2="effect1_dropShadow_17_175" result="shape"/>
</filter>
</defs>
</svg>
