<svg width="49" height="21" viewBox="0 0 49 21" fill="none" xmlns="http://www.w3.org/2000/svg">
<g filter="url(#filter0_d_17_173)">
<rect x="5.00391" y="1.00391" width="38" height="10" rx="1" fill="#5EBEFF" fill-opacity="0.67" style="mix-blend-mode:darken" shape-rendering="crispEdges"/>
<rect x="4.50391" y="0.503906" width="39" height="11" rx="1.5" stroke="#5EBEFF" shape-rendering="crispEdges"/>
</g>
<path d="M9.04391 5.71391V7.23891C9.04391 7.34224 9.06724 7.41724 9.11391 7.46391C9.16391 7.50724 9.24724 7.52891 9.36391 7.52891H9.71391V8.00391H9.26391C9.00724 8.00391 8.81057 7.94391 8.67391 7.82391C8.53724 7.70391 8.46891 7.50891 8.46891 7.23891V5.71391H8.14391V5.24891H8.46891V4.56391H9.04391V5.24891H9.71391V5.71391H9.04391ZM12.7193 5.24891L11.0293 9.29891H10.4393L10.9993 7.95891L9.91426 5.24891H10.5493L11.3243 7.34891L12.1293 5.24891H12.7193ZM13.7194 5.65391C13.8161 5.52724 13.9477 5.42057 14.1144 5.33391C14.2811 5.24724 14.4694 5.20391 14.6794 5.20391C14.9194 5.20391 15.1377 5.26391 15.3344 5.38391C15.5344 5.50057 15.6911 5.66557 15.8044 5.87891C15.9177 6.09224 15.9744 6.33724 15.9744 6.61391C15.9744 6.89057 15.9177 7.13891 15.8044 7.35891C15.6911 7.57557 15.5344 7.74557 15.3344 7.86891C15.1377 7.98891 14.9194 8.04891 14.6794 8.04891C14.4694 8.04891 14.2827 8.00724 14.1194 7.92391C13.9561 7.83724 13.8227 7.73057 13.7194 7.60391V9.31391H13.1494V5.24891H13.7194V5.65391ZM15.3944 6.61391C15.3944 6.42391 15.3544 6.26057 15.2744 6.12391C15.1977 5.98391 15.0944 5.87891 14.9644 5.80891C14.8377 5.73557 14.7011 5.69891 14.5544 5.69891C14.4111 5.69891 14.2744 5.73557 14.1444 5.80891C14.0177 5.88224 13.9144 5.98891 13.8344 6.12891C13.7577 6.26891 13.7194 6.43391 13.7194 6.62391C13.7194 6.81391 13.7577 6.98057 13.8344 7.12391C13.9144 7.26391 14.0177 7.37057 14.1444 7.44391C14.2744 7.51724 14.4111 7.55391 14.5544 7.55391C14.7011 7.55391 14.8377 7.51724 14.9644 7.44391C15.0944 7.36724 15.1977 7.25724 15.2744 7.11391C15.3544 6.97057 15.3944 6.80391 15.3944 6.61391ZM19.0631 6.55891C19.0631 6.66224 19.0564 6.75557 19.0431 6.83891H16.9381C16.9548 7.05891 17.0364 7.23557 17.1831 7.36891C17.3298 7.50224 17.5098 7.56891 17.7231 7.56891C18.0298 7.56891 18.2464 7.44057 18.3731 7.18391H18.9881C18.9048 7.43724 18.7531 7.64557 18.5331 7.80891C18.3164 7.96891 18.0464 8.04891 17.7231 8.04891C17.4598 8.04891 17.2231 7.99057 17.0131 7.87391C16.8064 7.75391 16.6431 7.58724 16.5231 7.37391C16.4064 7.15724 16.3481 6.90724 16.3481 6.62391C16.3481 6.34057 16.4048 6.09224 16.5181 5.87891C16.6348 5.66224 16.7964 5.49557 17.0031 5.37891C17.2131 5.26224 17.4531 5.20391 17.7231 5.20391C17.9831 5.20391 18.2148 5.26057 18.4181 5.37391C18.6214 5.48724 18.7798 5.64724 18.8931 5.85391C19.0064 6.05724 19.0631 6.29224 19.0631 6.55891ZM18.4681 6.37891C18.4648 6.16891 18.3898 6.00057 18.2431 5.87391C18.0964 5.74724 17.9148 5.68391 17.6981 5.68391C17.5014 5.68391 17.3331 5.74724 17.1931 5.87391C17.0531 5.99724 16.9698 6.16557 16.9431 6.37891H18.4681ZM21.1529 8.03891C21.0495 8.03891 20.9629 8.00391 20.8929 7.93391C20.8229 7.86391 20.7879 7.77724 20.7879 7.67391C20.7879 7.57057 20.8229 7.48391 20.8929 7.41391C20.9629 7.34391 21.0495 7.30891 21.1529 7.30891C21.2529 7.30891 21.3379 7.34391 21.4079 7.41391C21.4779 7.48391 21.5129 7.57057 21.5129 7.67391C21.5129 7.77724 21.4779 7.86391 21.4079 7.93391C21.3379 8.00391 21.2529 8.03891 21.1529 8.03891ZM21.1529 5.93891C21.0495 5.93891 20.9629 5.90391 20.8929 5.83391C20.8229 5.76391 20.7879 5.67724 20.7879 5.57391C20.7879 5.47057 20.8229 5.38391 20.8929 5.31391C20.9629 5.24391 21.0495 5.20891 21.1529 5.20891C21.2529 5.20891 21.3379 5.24391 21.4079 5.31391C21.4779 5.38391 21.5129 5.47057 21.5129 5.57391C21.5129 5.67724 21.4779 5.76391 21.4079 5.83391C21.3379 5.90391 21.2529 5.93891 21.1529 5.93891ZM24.6023 5.71391H24.0923V8.00391H23.5173V5.71391H23.1923V5.24891H23.5173V5.05391C23.5173 4.73724 23.6006 4.50724 23.7673 4.36391C23.9373 4.21724 24.2023 4.14391 24.5623 4.14391V4.61891C24.3889 4.61891 24.2673 4.65224 24.1973 4.71891C24.1273 4.78224 24.0923 4.89391 24.0923 5.05391V5.24891H24.6023V5.71391ZM27.6324 6.55891C27.6324 6.66224 27.6258 6.75557 27.6124 6.83891H25.5074C25.5241 7.05891 25.6058 7.23557 25.7524 7.36891C25.8991 7.50224 26.0791 7.56891 26.2924 7.56891C26.5991 7.56891 26.8158 7.44057 26.9424 7.18391H27.5574C27.4741 7.43724 27.3224 7.64557 27.1024 7.80891C26.8858 7.96891 26.6158 8.04891 26.2924 8.04891C26.0291 8.04891 25.7924 7.99057 25.5824 7.87391C25.3758 7.75391 25.2124 7.58724 25.0924 7.37391C24.9758 7.15724 24.9174 6.90724 24.9174 6.62391C24.9174 6.34057 24.9741 6.09224 25.0874 5.87891C25.2041 5.66224 25.3658 5.49557 25.5724 5.37891C25.7824 5.26224 26.0224 5.20391 26.2924 5.20391C26.5524 5.20391 26.7841 5.26057 26.9874 5.37391C27.1908 5.48724 27.3491 5.64724 27.4624 5.85391C27.5758 6.05724 27.6324 6.29224 27.6324 6.55891ZM27.0374 6.37891C27.0341 6.16891 26.9591 6.00057 26.8124 5.87391C26.6658 5.74724 26.4841 5.68391 26.2674 5.68391C26.0708 5.68391 25.9024 5.74724 25.7624 5.87391C25.6224 5.99724 25.5391 6.16557 25.5124 6.37891H27.0374ZM28.0034 6.61391C28.0034 6.33724 28.06 6.09224 28.1734 5.87891C28.29 5.66557 28.4467 5.50057 28.6434 5.38391C28.8434 5.26391 29.0634 5.20391 29.3034 5.20391C29.52 5.20391 29.7084 5.24724 29.8684 5.33391C30.0317 5.41724 30.1617 5.52224 30.2584 5.64891V5.24891H30.8334V8.00391H30.2584V7.59391C30.1617 7.72391 30.03 7.83224 29.8634 7.91891C29.6967 8.00557 29.5067 8.04891 29.2934 8.04891C29.0567 8.04891 28.84 7.98891 28.6434 7.86891C28.4467 7.74557 28.29 7.57557 28.1734 7.35891C28.06 7.13891 28.0034 6.89057 28.0034 6.61391ZM30.2584 6.62391C30.2584 6.43391 30.2184 6.26891 30.1384 6.12891C30.0617 5.98891 29.96 5.88224 29.8334 5.80891C29.7067 5.73557 29.57 5.69891 29.4234 5.69891C29.2767 5.69891 29.14 5.73557 29.0134 5.80891C28.8867 5.87891 28.7834 5.98391 28.7034 6.12391C28.6267 6.26057 28.5884 6.42391 28.5884 6.61391C28.5884 6.80391 28.6267 6.97057 28.7034 7.11391C28.7834 7.25724 28.8867 7.36724 29.0134 7.44391C29.1434 7.51724 29.28 7.55391 29.4234 7.55391C29.57 7.55391 29.7067 7.51724 29.8334 7.44391C29.96 7.37057 30.0617 7.26391 30.1384 7.12391C30.2184 6.98057 30.2584 6.81391 30.2584 6.62391ZM32.247 5.71391V7.23891C32.247 7.34224 32.2704 7.41724 32.317 7.46391C32.367 7.50724 32.4504 7.52891 32.567 7.52891H32.917V8.00391H32.467C32.2104 8.00391 32.0137 7.94391 31.877 7.82391C31.7404 7.70391 31.672 7.50891 31.672 7.23891V5.71391H31.347V5.24891H31.672V4.56391H32.247V5.24891H32.917V5.71391H32.247ZM35.9374 5.24891V8.00391H35.3674V7.67891C35.2774 7.79224 35.159 7.88224 35.0124 7.94891C34.869 8.01224 34.7157 8.04391 34.5524 8.04391C34.3357 8.04391 34.1407 7.99891 33.9674 7.90891C33.7974 7.81891 33.6624 7.68557 33.5624 7.50891C33.4657 7.33224 33.4174 7.11891 33.4174 6.86891V5.24891H33.9824V6.78391C33.9824 7.03057 34.044 7.22057 34.1674 7.35391C34.2907 7.48391 34.459 7.54891 34.6724 7.54891C34.8857 7.54891 35.054 7.48391 35.1774 7.35391C35.304 7.22057 35.3674 7.03057 35.3674 6.78391V5.24891H35.9374ZM37.2595 5.64891C37.3428 5.50891 37.4528 5.40057 37.5895 5.32391C37.7295 5.24391 37.8945 5.20391 38.0845 5.20391V5.79391H37.9395C37.7161 5.79391 37.5461 5.85057 37.4295 5.96391C37.3161 6.07724 37.2595 6.27391 37.2595 6.55391V8.00391H36.6895V5.24891H37.2595V5.64891ZM41.1334 6.55891C41.1334 6.66224 41.1267 6.75557 41.1134 6.83891H39.0084C39.0251 7.05891 39.1067 7.23557 39.2534 7.36891C39.4001 7.50224 39.5801 7.56891 39.7934 7.56891C40.1001 7.56891 40.3167 7.44057 40.4434 7.18391H41.0584C40.9751 7.43724 40.8234 7.64557 40.6034 7.80891C40.3867 7.96891 40.1167 8.04891 39.7934 8.04891C39.5301 8.04891 39.2934 7.99057 39.0834 7.87391C38.8767 7.75391 38.7134 7.58724 38.5934 7.37391C38.4767 7.15724 38.4184 6.90724 38.4184 6.62391C38.4184 6.34057 38.4751 6.09224 38.5884 5.87891C38.7051 5.66224 38.8667 5.49557 39.0734 5.37891C39.2834 5.26224 39.5234 5.20391 39.7934 5.20391C40.0534 5.20391 40.2851 5.26057 40.4884 5.37391C40.6917 5.48724 40.8501 5.64724 40.9634 5.85391C41.0767 6.05724 41.1334 6.29224 41.1334 6.55891ZM40.5384 6.37891C40.5351 6.16891 40.4601 6.00057 40.3134 5.87391C40.1667 5.74724 39.9851 5.68391 39.7684 5.68391C39.5717 5.68391 39.4034 5.74724 39.2634 5.87391C39.1234 5.99724 39.0401 6.16557 39.0134 6.37891H40.5384Z" fill="black"/>
<defs>
<filter id="filter0_d_17_173" x="0.00390625" y="0.00390625" width="48" height="20" filterUnits="userSpaceOnUse" color-interpolation-filters="sRGB">
<feFlood flood-opacity="0" result="BackgroundImageFix"/>
<feColorMatrix in="SourceAlpha" type="matrix" values="0 0 0 0 0 0 0 0 0 0 0 0 0 0 0 0 0 0 127 0" result="hardAlpha"/>
<feOffset dy="4"/>
<feGaussianBlur stdDeviation="2"/>
<feComposite in2="hardAlpha" operator="out"/>
<feColorMatrix type="matrix" values="0 0 0 0 0 0 0 0 0 0 0 0 0 0 0 0 0 0 0.25 0"/>
<feBlend mode="normal" in2="BackgroundImageFix" result="effect1_dropShadow_17_173"/>
<feBlend mode="normal" in="SourceGraphic" in2="effect1_dropShadow_17_173" result="shape"/>
</filter>
</defs>
</svg>
