<svg width="44" height="20" viewBox="0 0 44 20" fill="none" xmlns="http://www.w3.org/2000/svg">
<g filter="url(#filter0_d_17_174)">
<rect x="5" y="1" width="34" height="10" rx="1" fill="#272954" fill-opacity="0.67" style="mix-blend-mode:darken" shape-rendering="crispEdges"/>
<rect x="4.5" y="0.5" width="35" height="11" rx="1.5" stroke="#272954" shape-rendering="crispEdges"/>
</g>
<path d="M9.04 5.71V7.235C9.04 7.33833 9.06333 7.41333 9.11 7.46C9.16 7.50333 9.24333 7.525 9.36 7.525H9.71V8H9.26C9.00333 8 8.80667 7.94 8.67 7.82C8.53333 7.7 8.465 7.505 8.465 7.235V5.71H8.14V5.245H8.465V4.56H9.04V5.245H9.71V5.71H9.04ZM12.7154 5.245L11.0254 9.295H10.4354L10.9954 7.955L9.91035 5.245H10.5454L11.3204 7.345L12.1254 5.245H12.7154ZM13.7155 5.65C13.8122 5.52333 13.9438 5.41667 14.1105 5.33C14.2772 5.24333 14.4655 5.2 14.6755 5.2C14.9155 5.2 15.1338 5.26 15.3305 5.38C15.5305 5.49667 15.6872 5.66167 15.8005 5.875C15.9138 6.08833 15.9705 6.33333 15.9705 6.61C15.9705 6.88667 15.9138 7.135 15.8005 7.355C15.6872 7.57167 15.5305 7.74167 15.3305 7.865C15.1338 7.985 14.9155 8.045 14.6755 8.045C14.4655 8.045 14.2788 8.00333 14.1155 7.92C13.9522 7.83333 13.8188 7.72667 13.7155 7.6V9.31H13.1455V5.245H13.7155V5.65ZM15.3905 6.61C15.3905 6.42 15.3505 6.25667 15.2705 6.12C15.1938 5.98 15.0905 5.875 14.9605 5.805C14.8338 5.73167 14.6972 5.695 14.5505 5.695C14.4072 5.695 14.2705 5.73167 14.1405 5.805C14.0138 5.87833 13.9105 5.985 13.8305 6.125C13.7538 6.265 13.7155 6.43 13.7155 6.62C13.7155 6.81 13.7538 6.97667 13.8305 7.12C13.9105 7.26 14.0138 7.36667 14.1405 7.44C14.2705 7.51333 14.4072 7.55 14.5505 7.55C14.6972 7.55 14.8338 7.51333 14.9605 7.44C15.0905 7.36333 15.1938 7.25333 15.2705 7.11C15.3505 6.96667 15.3905 6.8 15.3905 6.61ZM19.0592 6.555C19.0592 6.65833 19.0525 6.75167 19.0392 6.835H16.9342C16.9508 7.055 17.0325 7.23167 17.1792 7.365C17.3258 7.49833 17.5058 7.565 17.7192 7.565C18.0258 7.565 18.2425 7.43667 18.3692 7.18H18.9842C18.9008 7.43333 18.7492 7.64167 18.5292 7.805C18.3125 7.965 18.0425 8.045 17.7192 8.045C17.4558 8.045 17.2192 7.98667 17.0092 7.87C16.8025 7.75 16.6392 7.58333 16.5192 7.37C16.4025 7.15333 16.3442 6.90333 16.3442 6.62C16.3442 6.33667 16.4008 6.08833 16.5142 5.875C16.6308 5.65833 16.7925 5.49167 16.9992 5.375C17.2092 5.25833 17.4492 5.2 17.7192 5.2C17.9792 5.2 18.2108 5.25667 18.4142 5.37C18.6175 5.48333 18.7758 5.64333 18.8892 5.85C19.0025 6.05333 19.0592 6.28833 19.0592 6.555ZM18.4642 6.375C18.4608 6.165 18.3858 5.99667 18.2392 5.87C18.0925 5.74333 17.9108 5.68 17.6942 5.68C17.4975 5.68 17.3292 5.74333 17.1892 5.87C17.0492 5.99333 16.9658 6.16167 16.9392 6.375H18.4642ZM21.1489 8.035C21.0456 8.035 20.9589 8 20.8889 7.93C20.8189 7.86 20.7839 7.77333 20.7839 7.67C20.7839 7.56667 20.8189 7.48 20.8889 7.41C20.9589 7.34 21.0456 7.305 21.1489 7.305C21.2489 7.305 21.3339 7.34 21.4039 7.41C21.4739 7.48 21.5089 7.56667 21.5089 7.67C21.5089 7.77333 21.4739 7.86 21.4039 7.93C21.3339 8 21.2489 8.035 21.1489 8.035ZM21.1489 5.935C21.0456 5.935 20.9589 5.9 20.8889 5.83C20.8189 5.76 20.7839 5.67333 20.7839 5.57C20.7839 5.46667 20.8189 5.38 20.8889 5.31C20.9589 5.24 21.0456 5.205 21.1489 5.205C21.2489 5.205 21.3339 5.24 21.4039 5.31C21.4739 5.38 21.5089 5.46667 21.5089 5.57C21.5089 5.67333 21.4739 5.76 21.4039 5.83C21.3339 5.9 21.2489 5.935 21.1489 5.935ZM23.7334 4.88C23.63 4.88 23.5434 4.845 23.4734 4.775C23.4034 4.705 23.3684 4.61833 23.3684 4.515C23.3684 4.41167 23.4034 4.325 23.4734 4.255C23.5434 4.185 23.63 4.15 23.7334 4.15C23.8334 4.15 23.9184 4.185 23.9884 4.255C24.0584 4.325 24.0934 4.41167 24.0934 4.515C24.0934 4.61833 24.0584 4.705 23.9884 4.775C23.9184 4.845 23.8334 4.88 23.7334 4.88ZM24.0134 5.245V8H23.4434V5.245H24.0134ZM24.5717 6.61C24.5717 6.33333 24.6284 6.08833 24.7417 5.875C24.8584 5.66167 25.0151 5.49667 25.2117 5.38C25.4117 5.26 25.6334 5.2 25.8767 5.2C26.0567 5.2 26.2334 5.24 26.4067 5.32C26.5834 5.39667 26.7234 5.5 26.8267 5.63V4.3H27.4017V8H26.8267V7.585C26.7334 7.71833 26.6034 7.82833 26.4367 7.915C26.2734 8.00167 26.0851 8.045 25.8717 8.045C25.6317 8.045 25.4117 7.985 25.2117 7.865C25.0151 7.74167 24.8584 7.57167 24.7417 7.355C24.6284 7.135 24.5717 6.88667 24.5717 6.61ZM26.8267 6.62C26.8267 6.43 26.7867 6.265 26.7067 6.125C26.6301 5.985 26.5284 5.87833 26.4017 5.805C26.2751 5.73167 26.1384 5.695 25.9917 5.695C25.8451 5.695 25.7084 5.73167 25.5817 5.805C25.4551 5.875 25.3517 5.98 25.2717 6.12C25.1951 6.25667 25.1567 6.42 25.1567 6.61C25.1567 6.8 25.1951 6.96667 25.2717 7.11C25.3517 7.25333 25.4551 7.36333 25.5817 7.44C25.7117 7.51333 25.8484 7.55 25.9917 7.55C26.1384 7.55 26.2751 7.51333 26.4017 7.44C26.5284 7.36667 26.6301 7.26 26.7067 7.12C26.7867 6.97667 26.8267 6.81 26.8267 6.62ZM30.6754 6.555C30.6754 6.65833 30.6687 6.75167 30.6554 6.835H28.5504C28.5671 7.055 28.6487 7.23167 28.7954 7.365C28.9421 7.49833 29.1221 7.565 29.3354 7.565C29.6421 7.565 29.8587 7.43667 29.9854 7.18H30.6004C30.5171 7.43333 30.3654 7.64167 30.1454 7.805C29.9287 7.965 29.6587 8.045 29.3354 8.045C29.0721 8.045 28.8354 7.98667 28.6254 7.87C28.4187 7.75 28.2554 7.58333 28.1354 7.37C28.0187 7.15333 27.9604 6.90333 27.9604 6.62C27.9604 6.33667 28.0171 6.08833 28.1304 5.875C28.2471 5.65833 28.4087 5.49167 28.6154 5.375C28.8254 5.25833 29.0654 5.2 29.3354 5.2C29.5954 5.2 29.8271 5.25667 30.0304 5.37C30.2337 5.48333 30.3921 5.64333 30.5054 5.85C30.6187 6.05333 30.6754 6.28833 30.6754 6.555ZM30.0804 6.375C30.0771 6.165 30.0021 5.99667 29.8554 5.87C29.7087 5.74333 29.5271 5.68 29.3104 5.68C29.1137 5.68 28.9454 5.74333 28.8054 5.87C28.6654 5.99333 28.5821 6.16167 28.5554 6.375H30.0804ZM31.0463 6.61C31.0463 6.33333 31.103 6.08833 31.2163 5.875C31.333 5.66167 31.4897 5.49667 31.6863 5.38C31.8863 5.26 32.1063 5.2 32.3463 5.2C32.563 5.2 32.7513 5.24333 32.9113 5.33C33.0747 5.41333 33.2047 5.51833 33.3013 5.645V5.245H33.8763V8H33.3013V7.59C33.2047 7.72 33.073 7.82833 32.9063 7.915C32.7397 8.00167 32.5497 8.045 32.3363 8.045C32.0997 8.045 31.883 7.985 31.6863 7.865C31.4897 7.74167 31.333 7.57167 31.2163 7.355C31.103 7.135 31.0463 6.88667 31.0463 6.61ZM33.3013 6.62C33.3013 6.43 33.2613 6.265 33.1813 6.125C33.1047 5.985 33.003 5.87833 32.8763 5.805C32.7497 5.73167 32.613 5.695 32.4663 5.695C32.3197 5.695 32.183 5.73167 32.0563 5.805C31.9297 5.875 31.8263 5.98 31.7463 6.12C31.6697 6.25667 31.6313 6.42 31.6313 6.61C31.6313 6.8 31.6697 6.96667 31.7463 7.11C31.8263 7.25333 31.9297 7.36333 32.0563 7.44C32.1863 7.51333 32.323 7.55 32.4663 7.55C32.613 7.55 32.7497 7.51333 32.8763 7.44C33.003 7.36667 33.1047 7.26 33.1813 7.12C33.2613 6.97667 33.3013 6.81 33.3013 6.62Z" fill="black"/>
<defs>
<filter id="filter0_d_17_174" x="0" y="0" width="44" height="20" filterUnits="userSpaceOnUse" color-interpolation-filters="sRGB">
<feFlood flood-opacity="0" result="BackgroundImageFix"/>
<feColorMatrix in="SourceAlpha" type="matrix" values="0 0 0 0 0 0 0 0 0 0 0 0 0 0 0 0 0 0 127 0" result="hardAlpha"/>
<feOffset dy="4"/>
<feGaussianBlur stdDeviation="2"/>
<feComposite in2="hardAlpha" operator="out"/>
<feColorMatrix type="matrix" values="0 0 0 0 0 0 0 0 0 0 0 0 0 0 0 0 0 0 0.25 0"/>
<feBlend mode="normal" in2="BackgroundImageFix" result="effect1_dropShadow_17_174"/>
<feBlend mode="normal" in="SourceGraphic" in2="effect1_dropShadow_17_174" result="shape"/>
</filter>
</defs>
</svg>
