<svg width="41" height="21" viewBox="0 0 41 21" fill="none" xmlns="http://www.w3.org/2000/svg">
<g filter="url(#filter0_d_17_169)">
<rect x="5.00391" y="1.00391" width="30" height="10" rx="1" fill="#EF4444" fill-opacity="0.67" style="mix-blend-mode:darken" shape-rendering="crispEdges"/>
<rect x="4.50391" y="0.503906" width="31" height="11" rx="1.5" stroke="#EF4444" shape-rendering="crispEdges"/>
</g>
<path d="M9.04391 5.71391V7.23891C9.04391 7.34224 9.06724 7.41724 9.11391 7.46391C9.16391 7.50724 9.24724 7.52891 9.36391 7.52891H9.71391V8.00391H9.26391C9.00724 8.00391 8.81057 7.94391 8.67391 7.82391C8.53724 7.70391 8.46891 7.50891 8.46891 7.23891V5.71391H8.14391V5.24891H8.46891V4.56391H9.04391V5.24891H9.71391V5.71391H9.04391ZM12.7193 5.24891L11.0293 9.29891H10.4393L10.9993 7.95891L9.91426 5.24891H10.5493L11.3243 7.34891L12.1293 5.24891H12.7193ZM13.7194 5.65391C13.8161 5.52724 13.9477 5.42057 14.1144 5.33391C14.2811 5.24724 14.4694 5.20391 14.6794 5.20391C14.9194 5.20391 15.1377 5.26391 15.3344 5.38391C15.5344 5.50057 15.6911 5.66557 15.8044 5.87891C15.9177 6.09224 15.9744 6.33724 15.9744 6.61391C15.9744 6.89057 15.9177 7.13891 15.8044 7.35891C15.6911 7.57557 15.5344 7.74557 15.3344 7.86891C15.1377 7.98891 14.9194 8.04891 14.6794 8.04891C14.4694 8.04891 14.2827 8.00724 14.1194 7.92391C13.9561 7.83724 13.8227 7.73057 13.7194 7.60391V9.31391H13.1494V5.24891H13.7194V5.65391ZM15.3944 6.61391C15.3944 6.42391 15.3544 6.26057 15.2744 6.12391C15.1977 5.98391 15.0944 5.87891 14.9644 5.80891C14.8377 5.73557 14.7011 5.69891 14.5544 5.69891C14.4111 5.69891 14.2744 5.73557 14.1444 5.80891C14.0177 5.88224 13.9144 5.98891 13.8344 6.12891C13.7577 6.26891 13.7194 6.43391 13.7194 6.62391C13.7194 6.81391 13.7577 6.98057 13.8344 7.12391C13.9144 7.26391 14.0177 7.37057 14.1444 7.44391C14.2744 7.51724 14.4111 7.55391 14.5544 7.55391C14.7011 7.55391 14.8377 7.51724 14.9644 7.44391C15.0944 7.36724 15.1977 7.25724 15.2744 7.11391C15.3544 6.97057 15.3944 6.80391 15.3944 6.61391ZM19.0631 6.55891C19.0631 6.66224 19.0564 6.75557 19.0431 6.83891H16.9381C16.9548 7.05891 17.0364 7.23557 17.1831 7.36891C17.3298 7.50224 17.5098 7.56891 17.7231 7.56891C18.0298 7.56891 18.2464 7.44057 18.3731 7.18391H18.9881C18.9048 7.43724 18.7531 7.64557 18.5331 7.80891C18.3164 7.96891 18.0464 8.04891 17.7231 8.04891C17.4598 8.04891 17.2231 7.99057 17.0131 7.87391C16.8064 7.75391 16.6431 7.58724 16.5231 7.37391C16.4064 7.15724 16.3481 6.90724 16.3481 6.62391C16.3481 6.34057 16.4048 6.09224 16.5181 5.87891C16.6348 5.66224 16.7964 5.49557 17.0031 5.37891C17.2131 5.26224 17.4531 5.20391 17.7231 5.20391C17.9831 5.20391 18.2148 5.26057 18.4181 5.37391C18.6214 5.48724 18.7798 5.64724 18.8931 5.85391C19.0064 6.05724 19.0631 6.29224 19.0631 6.55891ZM18.4681 6.37891C18.4648 6.16891 18.3898 6.00057 18.2431 5.87391C18.0964 5.74724 17.9148 5.68391 17.6981 5.68391C17.5014 5.68391 17.3331 5.74724 17.1931 5.87391C17.0531 5.99724 16.9698 6.16557 16.9431 6.37891H18.4681ZM21.1529 8.03891C21.0495 8.03891 20.9629 8.00391 20.8929 7.93391C20.8229 7.86391 20.7879 7.77724 20.7879 7.67391C20.7879 7.57057 20.8229 7.48391 20.8929 7.41391C20.9629 7.34391 21.0495 7.30891 21.1529 7.30891C21.2529 7.30891 21.3379 7.34391 21.4079 7.41391C21.4779 7.48391 21.5129 7.57057 21.5129 7.67391C21.5129 7.77724 21.4779 7.86391 21.4079 7.93391C21.3379 8.00391 21.2529 8.03891 21.1529 8.03891ZM21.1529 5.93891C21.0495 5.93891 20.9629 5.90391 20.8929 5.83391C20.8229 5.76391 20.7879 5.67724 20.7879 5.57391C20.7879 5.47057 20.8229 5.38391 20.8929 5.31391C20.9629 5.24391 21.0495 5.20891 21.1529 5.20891C21.2529 5.20891 21.3379 5.24391 21.4079 5.31391C21.4779 5.38391 21.5129 5.47057 21.5129 5.57391C21.5129 5.67724 21.4779 5.76391 21.4079 5.83391C21.3379 5.90391 21.2529 5.93891 21.1529 5.93891ZM24.0173 5.65891C24.1139 5.52557 24.2456 5.41724 24.4123 5.33391C24.5823 5.24724 24.7706 5.20391 24.9773 5.20391C25.2206 5.20391 25.4406 5.26224 25.6373 5.37891C25.8339 5.49557 25.9889 5.66224 26.1023 5.87891C26.2156 6.09224 26.2723 6.33724 26.2723 6.61391C26.2723 6.89057 26.2156 7.13891 26.1023 7.35891C25.9889 7.57557 25.8323 7.74557 25.6323 7.86891C25.4356 7.98891 25.2173 8.04891 24.9773 8.04891C24.7639 8.04891 24.5739 8.00724 24.4073 7.92391C24.2439 7.84057 24.1139 7.73391 24.0173 7.60391V8.00391H23.4473V4.30391H24.0173V5.65891ZM25.6923 6.61391C25.6923 6.42391 25.6523 6.26057 25.5723 6.12391C25.4956 5.98391 25.3923 5.87891 25.2623 5.80891C25.1356 5.73557 24.9989 5.69891 24.8523 5.69891C24.7089 5.69891 24.5723 5.73557 24.4423 5.80891C24.3156 5.88224 24.2123 5.98891 24.1323 6.12891C24.0556 6.26891 24.0173 6.43391 24.0173 6.62391C24.0173 6.81391 24.0556 6.98057 24.1323 7.12391C24.2123 7.26391 24.3156 7.37057 24.4423 7.44391C24.5723 7.51724 24.7089 7.55391 24.8523 7.55391C24.9989 7.55391 25.1356 7.51724 25.2623 7.44391C25.3923 7.36724 25.4956 7.25724 25.5723 7.11391C25.6523 6.97057 25.6923 6.80391 25.6923 6.61391ZM29.3309 5.24891V8.00391H28.7609V7.67891C28.6709 7.79224 28.5526 7.88224 28.4059 7.94891C28.2626 8.01224 28.1093 8.04391 27.9459 8.04391C27.7293 8.04391 27.5343 7.99891 27.3609 7.90891C27.1909 7.81891 27.0559 7.68557 26.9559 7.50891C26.8593 7.33224 26.8109 7.11891 26.8109 6.86891V5.24891H27.3759V6.78391C27.3759 7.03057 27.4376 7.22057 27.5609 7.35391C27.6843 7.48391 27.8526 7.54891 28.0659 7.54891C28.2793 7.54891 28.4476 7.48391 28.5709 7.35391C28.6976 7.22057 28.7609 7.03057 28.7609 6.78391V5.24891H29.3309ZM31.193 5.20391C31.4063 5.20391 31.5947 5.24724 31.758 5.33391C31.9247 5.41724 32.0547 5.52224 32.148 5.64891V5.24891H32.723V8.04891C32.723 8.30224 32.6697 8.52724 32.563 8.72391C32.4563 8.92391 32.3013 9.08057 32.098 9.19391C31.898 9.30724 31.658 9.36391 31.378 9.36391C31.0047 9.36391 30.6947 9.27557 30.448 9.09891C30.2013 8.92557 30.0613 8.68891 30.028 8.38891H30.593C30.6363 8.53224 30.728 8.64724 30.868 8.73391C31.0113 8.82391 31.1813 8.86891 31.378 8.86891C31.608 8.86891 31.793 8.79891 31.933 8.65891C32.0763 8.51891 32.148 8.31557 32.148 8.04891V7.58891C32.0513 7.71891 31.9197 7.82891 31.753 7.91891C31.5897 8.00557 31.403 8.04891 31.193 8.04891C30.953 8.04891 30.733 7.98891 30.533 7.86891C30.3363 7.74557 30.1797 7.57557 30.063 7.35891C29.9497 7.13891 29.893 6.89057 29.893 6.61391C29.893 6.33724 29.9497 6.09224 30.063 5.87891C30.1797 5.66557 30.3363 5.50057 30.533 5.38391C30.733 5.26391 30.953 5.20391 31.193 5.20391ZM32.148 6.62391C32.148 6.43391 32.108 6.26891 32.028 6.12891C31.9513 5.98891 31.8497 5.88224 31.723 5.80891C31.5963 5.73557 31.4597 5.69891 31.313 5.69891C31.1663 5.69891 31.0297 5.73557 30.903 5.80891C30.7763 5.87891 30.673 5.98391 30.593 6.12391C30.5163 6.26057 30.478 6.42391 30.478 6.61391C30.478 6.80391 30.5163 6.97057 30.593 7.11391C30.673 7.25724 30.7763 7.36724 30.903 7.44391C31.033 7.51724 31.1697 7.55391 31.313 7.55391C31.4597 7.55391 31.5963 7.51724 31.723 7.44391C31.8497 7.37057 31.9513 7.26391 32.028 7.12391C32.108 6.98057 32.148 6.81391 32.148 6.62391Z" fill="black"/>
<defs>
<filter id="filter0_d_17_169" x="0.00390625" y="0.00390625" width="40" height="20" filterUnits="userSpaceOnUse" color-interpolation-filters="sRGB">
<feFlood flood-opacity="0" result="BackgroundImageFix"/>
<feColorMatrix in="SourceAlpha" type="matrix" values="0 0 0 0 0 0 0 0 0 0 0 0 0 0 0 0 0 0 127 0" result="hardAlpha"/>
<feOffset dy="4"/>
<feGaussianBlur stdDeviation="2"/>
<feComposite in2="hardAlpha" operator="out"/>
<feColorMatrix type="matrix" values="0 0 0 0 0 0 0 0 0 0 0 0 0 0 0 0 0 0 0.25 0"/>
<feBlend mode="normal" in2="BackgroundImageFix" result="effect1_dropShadow_17_169"/>
<feBlend mode="normal" in="SourceGraphic" in2="effect1_dropShadow_17_169" result="shape"/>
</filter>
</defs>
</svg>
