<svg width="45" height="21" viewBox="0 0 45 21" fill="none" xmlns="http://www.w3.org/2000/svg">
<g filter="url(#filter0_d_17_170)">
<rect x="5.00391" y="1.00391" width="34" height="10" rx="1" fill="#FEF2C0" fill-opacity="0.67" style="mix-blend-mode:darken" shape-rendering="crispEdges"/>
<rect x="4.50391" y="0.503906" width="35" height="11" rx="1.5" stroke="#FEF2C0" shape-rendering="crispEdges"/>
</g>
<path d="M9.04391 5.71391V7.23891C9.04391 7.34224 9.06724 7.41724 9.11391 7.46391C9.16391 7.50724 9.24724 7.52891 9.36391 7.52891H9.71391V8.00391H9.26391C9.00724 8.00391 8.81057 7.94391 8.67391 7.82391C8.53724 7.70391 8.46891 7.50891 8.46891 7.23891V5.71391H8.14391V5.24891H8.46891V4.56391H9.04391V5.24891H9.71391V5.71391H9.04391ZM12.7193 5.24891L11.0293 9.29891H10.4393L10.9993 7.95891L9.91426 5.24891H10.5493L11.3243 7.34891L12.1293 5.24891H12.7193ZM13.7194 5.65391C13.8161 5.52724 13.9477 5.42057 14.1144 5.33391C14.2811 5.24724 14.4694 5.20391 14.6794 5.20391C14.9194 5.20391 15.1377 5.26391 15.3344 5.38391C15.5344 5.50057 15.6911 5.66557 15.8044 5.87891C15.9177 6.09224 15.9744 6.33724 15.9744 6.61391C15.9744 6.89057 15.9177 7.13891 15.8044 7.35891C15.6911 7.57557 15.5344 7.74557 15.3344 7.86891C15.1377 7.98891 14.9194 8.04891 14.6794 8.04891C14.4694 8.04891 14.2827 8.00724 14.1194 7.92391C13.9561 7.83724 13.8227 7.73057 13.7194 7.60391V9.31391H13.1494V5.24891H13.7194V5.65391ZM15.3944 6.61391C15.3944 6.42391 15.3544 6.26057 15.2744 6.12391C15.1977 5.98391 15.0944 5.87891 14.9644 5.80891C14.8377 5.73557 14.7011 5.69891 14.5544 5.69891C14.4111 5.69891 14.2744 5.73557 14.1444 5.80891C14.0177 5.88224 13.9144 5.98891 13.8344 6.12891C13.7577 6.26891 13.7194 6.43391 13.7194 6.62391C13.7194 6.81391 13.7577 6.98057 13.8344 7.12391C13.9144 7.26391 14.0177 7.37057 14.1444 7.44391C14.2744 7.51724 14.4111 7.55391 14.5544 7.55391C14.7011 7.55391 14.8377 7.51724 14.9644 7.44391C15.0944 7.36724 15.1977 7.25724 15.2744 7.11391C15.3544 6.97057 15.3944 6.80391 15.3944 6.61391ZM19.0631 6.55891C19.0631 6.66224 19.0564 6.75557 19.0431 6.83891H16.9381C16.9548 7.05891 17.0364 7.23557 17.1831 7.36891C17.3298 7.50224 17.5098 7.56891 17.7231 7.56891C18.0298 7.56891 18.2464 7.44057 18.3731 7.18391H18.9881C18.9048 7.43724 18.7531 7.64557 18.5331 7.80891C18.3164 7.96891 18.0464 8.04891 17.7231 8.04891C17.4598 8.04891 17.2231 7.99057 17.0131 7.87391C16.8064 7.75391 16.6431 7.58724 16.5231 7.37391C16.4064 7.15724 16.3481 6.90724 16.3481 6.62391C16.3481 6.34057 16.4048 6.09224 16.5181 5.87891C16.6348 5.66224 16.7964 5.49557 17.0031 5.37891C17.2131 5.26224 17.4531 5.20391 17.7231 5.20391C17.9831 5.20391 18.2148 5.26057 18.4181 5.37391C18.6214 5.48724 18.7798 5.64724 18.8931 5.85391C19.0064 6.05724 19.0631 6.29224 19.0631 6.55891ZM18.4681 6.37891C18.4648 6.16891 18.3898 6.00057 18.2431 5.87391C18.0964 5.74724 17.9148 5.68391 17.6981 5.68391C17.5014 5.68391 17.3331 5.74724 17.1931 5.87391C17.0531 5.99724 16.9698 6.16557 16.9431 6.37891H18.4681ZM21.1529 8.03891C21.0495 8.03891 20.9629 8.00391 20.8929 7.93391C20.8229 7.86391 20.7879 7.77724 20.7879 7.67391C20.7879 7.57057 20.8229 7.48391 20.8929 7.41391C20.9629 7.34391 21.0495 7.30891 21.1529 7.30891C21.2529 7.30891 21.3379 7.34391 21.4079 7.41391C21.4779 7.48391 21.5129 7.57057 21.5129 7.67391C21.5129 7.77724 21.4779 7.86391 21.4079 7.93391C21.3379 8.00391 21.2529 8.03891 21.1529 8.03891ZM21.1529 5.93891C21.0495 5.93891 20.9629 5.90391 20.8929 5.83391C20.8229 5.76391 20.7879 5.67724 20.7879 5.57391C20.7879 5.47057 20.8229 5.38391 20.8929 5.31391C20.9629 5.24391 21.0495 5.20891 21.1529 5.20891C21.2529 5.20891 21.3379 5.24391 21.4079 5.31391C21.4779 5.38391 21.5129 5.47057 21.5129 5.57391C21.5129 5.67724 21.4779 5.76391 21.4079 5.83391C21.3379 5.90391 21.2529 5.93891 21.1529 5.93891ZM23.2573 6.62391C23.2573 6.34057 23.3139 6.09224 23.4273 5.87891C23.5439 5.66224 23.7039 5.49557 23.9073 5.37891C24.1106 5.26224 24.3439 5.20391 24.6073 5.20391C24.9406 5.20391 25.2156 5.28391 25.4323 5.44391C25.6523 5.60057 25.8006 5.82557 25.8773 6.11891H25.2623C25.2123 5.98224 25.1323 5.87557 25.0223 5.79891C24.9123 5.72224 24.7739 5.68391 24.6073 5.68391C24.3739 5.68391 24.1873 5.76724 24.0473 5.93391C23.9106 6.09724 23.8423 6.32724 23.8423 6.62391C23.8423 6.92057 23.9106 7.15224 24.0473 7.31891C24.1873 7.48557 24.3739 7.56891 24.6073 7.56891C24.9373 7.56891 25.1556 7.42391 25.2623 7.13391H25.8773C25.7973 7.41391 25.6473 7.63724 25.4273 7.80391C25.2073 7.96724 24.9339 8.04891 24.6073 8.04891C24.3439 8.04891 24.1106 7.99057 23.9073 7.87391C23.7039 7.75391 23.5439 7.58724 23.4273 7.37391C23.3139 7.15724 23.2573 6.90724 23.2573 6.62391ZM27.8703 5.20391C28.0803 5.20391 28.267 5.24891 28.4303 5.33891C28.597 5.42891 28.727 5.56224 28.8203 5.73891C28.917 5.91557 28.9653 6.12891 28.9653 6.37891V8.00391H28.4003V6.46391C28.4003 6.21724 28.3386 6.02891 28.2153 5.89891C28.092 5.76557 27.9236 5.69891 27.7103 5.69891C27.497 5.69891 27.327 5.76557 27.2003 5.89891C27.077 6.02891 27.0153 6.21724 27.0153 6.46391V8.00391H26.4453V4.30391H27.0153V5.56891C27.112 5.45224 27.2336 5.36224 27.3803 5.29891C27.5303 5.23557 27.6936 5.20391 27.8703 5.20391ZM30.8874 8.04891C30.6274 8.04891 30.3924 7.99057 30.1824 7.87391C29.9724 7.75391 29.8074 7.58724 29.6874 7.37391C29.5674 7.15724 29.5074 6.90724 29.5074 6.62391C29.5074 6.34391 29.569 6.09557 29.6924 5.87891C29.8157 5.66224 29.984 5.49557 30.1974 5.37891C30.4107 5.26224 30.649 5.20391 30.9124 5.20391C31.1757 5.20391 31.414 5.26224 31.6274 5.37891C31.8407 5.49557 32.009 5.66224 32.1324 5.87891C32.2557 6.09557 32.3174 6.34391 32.3174 6.62391C32.3174 6.90391 32.254 7.15224 32.1274 7.36891C32.0007 7.58557 31.8274 7.75391 31.6074 7.87391C31.3907 7.99057 31.1507 8.04891 30.8874 8.04891ZM30.8874 7.55391C31.034 7.55391 31.1707 7.51891 31.2974 7.44891C31.4274 7.37891 31.5324 7.27391 31.6124 7.13391C31.6924 6.99391 31.7324 6.82391 31.7324 6.62391C31.7324 6.42391 31.694 6.25557 31.6174 6.11891C31.5407 5.97891 31.439 5.87391 31.3124 5.80391C31.1857 5.73391 31.049 5.69891 30.9024 5.69891C30.7557 5.69891 30.619 5.73391 30.4924 5.80391C30.369 5.87391 30.2707 5.97891 30.1974 6.11891C30.124 6.25557 30.0874 6.42391 30.0874 6.62391C30.0874 6.92057 30.1624 7.15057 30.3124 7.31391C30.4657 7.47391 30.6574 7.55391 30.8874 7.55391ZM33.4509 5.64891C33.5342 5.50891 33.6442 5.40057 33.7809 5.32391C33.9209 5.24391 34.0859 5.20391 34.2759 5.20391V5.79391H34.1309C33.9075 5.79391 33.7375 5.85057 33.6209 5.96391C33.5075 6.07724 33.4509 6.27391 33.4509 6.55391V8.00391H32.8809V5.24891H33.4509V5.64891ZM37.3248 6.55891C37.3248 6.66224 37.3181 6.75557 37.3048 6.83891H35.1998C35.2165 7.05891 35.2981 7.23557 35.4448 7.36891C35.5915 7.50224 35.7715 7.56891 35.9848 7.56891C36.2915 7.56891 36.5081 7.44057 36.6348 7.18391H37.2498C37.1665 7.43724 37.0148 7.64557 36.7948 7.80891C36.5781 7.96891 36.3081 8.04891 35.9848 8.04891C35.7215 8.04891 35.4848 7.99057 35.2748 7.87391C35.0681 7.75391 34.9048 7.58724 34.7848 7.37391C34.6681 7.15724 34.6098 6.90724 34.6098 6.62391C34.6098 6.34057 34.6665 6.09224 34.7798 5.87891C34.8965 5.66224 35.0581 5.49557 35.2648 5.37891C35.4748 5.26224 35.7148 5.20391 35.9848 5.20391C36.2448 5.20391 36.4765 5.26057 36.6798 5.37391C36.8831 5.48724 37.0415 5.64724 37.1548 5.85391C37.2681 6.05724 37.3248 6.29224 37.3248 6.55891ZM36.7298 6.37891C36.7265 6.16891 36.6515 6.00057 36.5048 5.87391C36.3581 5.74724 36.1765 5.68391 35.9598 5.68391C35.7631 5.68391 35.5948 5.74724 35.4548 5.87391C35.3148 5.99724 35.2315 6.16557 35.2048 6.37891H36.7298Z" fill="black"/>
<defs>
<filter id="filter0_d_17_170" x="0.00390625" y="0.00390625" width="44" height="20" filterUnits="userSpaceOnUse" color-interpolation-filters="sRGB">
<feFlood flood-opacity="0" result="BackgroundImageFix"/>
<feColorMatrix in="SourceAlpha" type="matrix" values="0 0 0 0 0 0 0 0 0 0 0 0 0 0 0 0 0 0 127 0" result="hardAlpha"/>
<feOffset dy="4"/>
<feGaussianBlur stdDeviation="2"/>
<feComposite in2="hardAlpha" operator="out"/>
<feColorMatrix type="matrix" values="0 0 0 0 0 0 0 0 0 0 0 0 0 0 0 0 0 0 0.25 0"/>
<feBlend mode="normal" in2="BackgroundImageFix" result="effect1_dropShadow_17_170"/>
<feBlend mode="normal" in="SourceGraphic" in2="effect1_dropShadow_17_170" result="shape"/>
</filter>
</defs>
</svg>
