<svg width="150" height="50" viewBox="0 0 150 50" fill="none" xmlns="http://www.w3.org/2000/svg">
<rect width="150" height="50" fill="#D4C4F9"/>
<path d="M57.9726 23.504V27.164C57.9726 27.412 58.0286 27.592 58.1406 27.704C58.2606 27.808 58.4606 27.86 58.7406 27.86H59.5806V29H58.5006C57.8846 29 57.4126 28.856 57.0846 28.568C56.7566 28.28 56.5926 27.812 56.5926 27.164V23.504H55.8126V22.388H56.5926V20.744H57.9726V22.388H59.5806V23.504H57.9726ZM66.7934 22.388L62.7374 32.108H61.3214L62.6654 28.892L60.0614 22.388H61.5854L63.4454 27.428L65.3774 22.388H66.7934ZM69.1938 23.36C69.4258 23.056 69.7418 22.8 70.1418 22.592C70.5418 22.384 70.9938 22.28 71.4978 22.28C72.0738 22.28 72.5978 22.424 73.0698 22.712C73.5498 22.992 73.9258 23.388 74.1978 23.9C74.4698 24.412 74.6058 25 74.6058 25.664C74.6058 26.328 74.4698 26.924 74.1978 27.452C73.9258 27.972 73.5498 28.38 73.0698 28.676C72.5978 28.964 72.0738 29.108 71.4978 29.108C70.9938 29.108 70.5458 29.008 70.1538 28.808C69.7618 28.6 69.4418 28.344 69.1938 28.04V32.144H67.8258V22.388H69.1938V23.36ZM73.2138 25.664C73.2138 25.208 73.1178 24.816 72.9258 24.488C72.7418 24.152 72.4938 23.9 72.1818 23.732C71.8778 23.556 71.5498 23.468 71.1978 23.468C70.8538 23.468 70.5258 23.556 70.2138 23.732C69.9098 23.908 69.6618 24.164 69.4698 24.5C69.2858 24.836 69.1938 25.232 69.1938 25.688C69.1938 26.144 69.2858 26.544 69.4698 26.888C69.6618 27.224 69.9098 27.48 70.2138 27.656C70.5258 27.832 70.8538 27.92 71.1978 27.92C71.5498 27.92 71.8778 27.832 72.1818 27.656C72.4938 27.472 72.7418 27.208 72.9258 26.864C73.1178 26.52 73.2138 26.12 73.2138 25.664ZM82.0186 25.532C82.0186 25.78 82.0026 26.004 81.9706 26.204H76.9186C76.9586 26.732 77.1546 27.156 77.5066 27.476C77.8586 27.796 78.2906 27.956 78.8026 27.956C79.5386 27.956 80.0586 27.648 80.3626 27.032H81.8386C81.6386 27.64 81.2746 28.14 80.7466 28.532C80.2266 28.916 79.5786 29.108 78.8026 29.108C78.1706 29.108 77.6026 28.968 77.0986 28.688C76.6026 28.4 76.2106 28 75.9226 27.488C75.6426 26.968 75.5026 26.368 75.5026 25.688C75.5026 25.008 75.6386 24.412 75.9106 23.9C76.1906 23.38 76.5786 22.98 77.0746 22.7C77.5786 22.42 78.1546 22.28 78.8026 22.28C79.4266 22.28 79.9826 22.416 80.4706 22.688C80.9586 22.96 81.3386 23.344 81.6106 23.84C81.8826 24.328 82.0186 24.892 82.0186 25.532ZM80.5906 25.1C80.5826 24.596 80.4026 24.192 80.0506 23.888C79.6986 23.584 79.2626 23.432 78.7426 23.432C78.2706 23.432 77.8666 23.584 77.5306 23.888C77.1946 24.184 76.9946 24.588 76.9306 25.1H80.5906ZM87.034 29.084C86.786 29.084 86.578 29 86.41 28.832C86.242 28.664 86.158 28.456 86.158 28.208C86.158 27.96 86.242 27.752 86.41 27.584C86.578 27.416 86.786 27.332 87.034 27.332C87.274 27.332 87.478 27.416 87.646 27.584C87.814 27.752 87.898 27.96 87.898 28.208C87.898 28.456 87.814 28.664 87.646 28.832C87.478 29 87.274 29.084 87.034 29.084ZM87.034 24.044C86.786 24.044 86.578 23.96 86.41 23.792C86.242 23.624 86.158 23.416 86.158 23.168C86.158 22.92 86.242 22.712 86.41 22.544C86.578 22.376 86.786 22.292 87.034 22.292C87.274 22.292 87.478 22.376 87.646 22.544C87.814 22.712 87.898 22.92 87.898 23.168C87.898 23.416 87.814 23.624 87.646 23.792C87.478 23.96 87.274 24.044 87.034 24.044Z" fill="#010101"/>
</svg>
