<svg width="49" height="21" viewBox="0 0 49 21" fill="none" xmlns="http://www.w3.org/2000/svg">
<g filter="url(#filter0_d_17_176)">
<rect x="5.00391" y="1.00391" width="38" height="10" rx="1" fill="#E73A16" fill-opacity="0.67" style="mix-blend-mode:darken" shape-rendering="crispEdges"/>
<rect x="4.50391" y="0.503906" width="39" height="11" rx="1.5" stroke="#E73A16" shape-rendering="crispEdges"/>
</g>
<path d="M9.04391 5.71391V7.23891C9.04391 7.34224 9.06724 7.41724 9.11391 7.46391C9.16391 7.50724 9.24724 7.52891 9.36391 7.52891H9.71391V8.00391H9.26391C9.00724 8.00391 8.81057 7.94391 8.67391 7.82391C8.53724 7.70391 8.46891 7.50891 8.46891 7.23891V5.71391H8.14391V5.24891H8.46891V4.56391H9.04391V5.24891H9.71391V5.71391H9.04391ZM12.7193 5.24891L11.0293 9.29891H10.4393L10.9993 7.95891L9.91426 5.24891H10.5493L11.3243 7.34891L12.1293 5.24891H12.7193ZM13.7194 5.65391C13.8161 5.52724 13.9477 5.42057 14.1144 5.33391C14.2811 5.24724 14.4694 5.20391 14.6794 5.20391C14.9194 5.20391 15.1377 5.26391 15.3344 5.38391C15.5344 5.50057 15.6911 5.66557 15.8044 5.87891C15.9177 6.09224 15.9744 6.33724 15.9744 6.61391C15.9744 6.89057 15.9177 7.13891 15.8044 7.35891C15.6911 7.57557 15.5344 7.74557 15.3344 7.86891C15.1377 7.98891 14.9194 8.04891 14.6794 8.04891C14.4694 8.04891 14.2827 8.00724 14.1194 7.92391C13.9561 7.83724 13.8227 7.73057 13.7194 7.60391V9.31391H13.1494V5.24891H13.7194V5.65391ZM15.3944 6.61391C15.3944 6.42391 15.3544 6.26057 15.2744 6.12391C15.1977 5.98391 15.0944 5.87891 14.9644 5.80891C14.8377 5.73557 14.7011 5.69891 14.5544 5.69891C14.4111 5.69891 14.2744 5.73557 14.1444 5.80891C14.0177 5.88224 13.9144 5.98891 13.8344 6.12891C13.7577 6.26891 13.7194 6.43391 13.7194 6.62391C13.7194 6.81391 13.7577 6.98057 13.8344 7.12391C13.9144 7.26391 14.0177 7.37057 14.1444 7.44391C14.2744 7.51724 14.4111 7.55391 14.5544 7.55391C14.7011 7.55391 14.8377 7.51724 14.9644 7.44391C15.0944 7.36724 15.1977 7.25724 15.2744 7.11391C15.3544 6.97057 15.3944 6.80391 15.3944 6.61391ZM19.0631 6.55891C19.0631 6.66224 19.0564 6.75557 19.0431 6.83891H16.9381C16.9548 7.05891 17.0364 7.23557 17.1831 7.36891C17.3298 7.50224 17.5098 7.56891 17.7231 7.56891C18.0298 7.56891 18.2464 7.44057 18.3731 7.18391H18.9881C18.9048 7.43724 18.7531 7.64557 18.5331 7.80891C18.3164 7.96891 18.0464 8.04891 17.7231 8.04891C17.4598 8.04891 17.2231 7.99057 17.0131 7.87391C16.8064 7.75391 16.6431 7.58724 16.5231 7.37391C16.4064 7.15724 16.3481 6.90724 16.3481 6.62391C16.3481 6.34057 16.4048 6.09224 16.5181 5.87891C16.6348 5.66224 16.7964 5.49557 17.0031 5.37891C17.2131 5.26224 17.4531 5.20391 17.7231 5.20391C17.9831 5.20391 18.2148 5.26057 18.4181 5.37391C18.6214 5.48724 18.7798 5.64724 18.8931 5.85391C19.0064 6.05724 19.0631 6.29224 19.0631 6.55891ZM18.4681 6.37891C18.4648 6.16891 18.3898 6.00057 18.2431 5.87391C18.0964 5.74724 17.9148 5.68391 17.6981 5.68391C17.5014 5.68391 17.3331 5.74724 17.1931 5.87391C17.0531 5.99724 16.9698 6.16557 16.9431 6.37891H18.4681ZM21.1529 8.03891C21.0495 8.03891 20.9629 8.00391 20.8929 7.93391C20.8229 7.86391 20.7879 7.77724 20.7879 7.67391C20.7879 7.57057 20.8229 7.48391 20.8929 7.41391C20.9629 7.34391 21.0495 7.30891 21.1529 7.30891C21.2529 7.30891 21.3379 7.34391 21.4079 7.41391C21.4779 7.48391 21.5129 7.57057 21.5129 7.67391C21.5129 7.77724 21.4779 7.86391 21.4079 7.93391C21.3379 8.00391 21.2529 8.03891 21.1529 8.03891ZM21.1529 5.93891C21.0495 5.93891 20.9629 5.90391 20.8929 5.83391C20.8229 5.76391 20.7879 5.67724 20.7879 5.57391C20.7879 5.47057 20.8229 5.38391 20.8929 5.31391C20.9629 5.24391 21.0495 5.20891 21.1529 5.20891C21.2529 5.20891 21.3379 5.24391 21.4079 5.31391C21.4779 5.38391 21.5129 5.47057 21.5129 5.57391C21.5129 5.67724 21.4779 5.76391 21.4079 5.83391C21.3379 5.90391 21.2529 5.93891 21.1529 5.93891ZM24.0173 5.65391C24.1139 5.52724 24.2456 5.42057 24.4123 5.33391C24.5789 5.24724 24.7673 5.20391 24.9773 5.20391C25.2173 5.20391 25.4356 5.26391 25.6323 5.38391C25.8323 5.50057 25.9889 5.66557 26.1023 5.87891C26.2156 6.09224 26.2723 6.33724 26.2723 6.61391C26.2723 6.89057 26.2156 7.13891 26.1023 7.35891C25.9889 7.57557 25.8323 7.74557 25.6323 7.86891C25.4356 7.98891 25.2173 8.04891 24.9773 8.04891C24.7673 8.04891 24.5806 8.00724 24.4173 7.92391C24.2539 7.83724 24.1206 7.73057 24.0173 7.60391V9.31391H23.4473V5.24891H24.0173V5.65391ZM25.6923 6.61391C25.6923 6.42391 25.6523 6.26057 25.5723 6.12391C25.4956 5.98391 25.3923 5.87891 25.2623 5.80891C25.1356 5.73557 24.9989 5.69891 24.8523 5.69891C24.7089 5.69891 24.5723 5.73557 24.4423 5.80891C24.3156 5.88224 24.2123 5.98891 24.1323 6.12891C24.0556 6.26891 24.0173 6.43391 24.0173 6.62391C24.0173 6.81391 24.0556 6.98057 24.1323 7.12391C24.2123 7.26391 24.3156 7.37057 24.4423 7.44391C24.5723 7.51724 24.7089 7.55391 24.8523 7.55391C24.9989 7.55391 25.1356 7.51724 25.2623 7.44391C25.3923 7.36724 25.4956 7.25724 25.5723 7.11391C25.6523 6.97057 25.6923 6.80391 25.6923 6.61391ZM27.4059 5.64891C27.4893 5.50891 27.5993 5.40057 27.7359 5.32391C27.8759 5.24391 28.0409 5.20391 28.2309 5.20391V5.79391H28.0859C27.8626 5.79391 27.6926 5.85057 27.5759 5.96391C27.4626 6.07724 27.4059 6.27391 27.4059 6.55391V8.00391H26.8359V5.24891H27.4059V5.64891ZM29.9499 8.04891C29.6899 8.04891 29.4549 7.99057 29.2449 7.87391C29.0349 7.75391 28.8699 7.58724 28.7499 7.37391C28.6299 7.15724 28.5699 6.90724 28.5699 6.62391C28.5699 6.34391 28.6315 6.09557 28.7549 5.87891C28.8782 5.66224 29.0465 5.49557 29.2599 5.37891C29.4732 5.26224 29.7115 5.20391 29.9749 5.20391C30.2382 5.20391 30.4765 5.26224 30.6899 5.37891C30.9032 5.49557 31.0715 5.66224 31.1949 5.87891C31.3182 6.09557 31.3799 6.34391 31.3799 6.62391C31.3799 6.90391 31.3165 7.15224 31.1899 7.36891C31.0632 7.58557 30.8899 7.75391 30.6699 7.87391C30.4532 7.99057 30.2132 8.04891 29.9499 8.04891ZM29.9499 7.55391C30.0965 7.55391 30.2332 7.51891 30.3599 7.44891C30.4899 7.37891 30.5949 7.27391 30.6749 7.13391C30.7549 6.99391 30.7949 6.82391 30.7949 6.62391C30.7949 6.42391 30.7565 6.25557 30.6799 6.11891C30.6032 5.97891 30.5015 5.87391 30.3749 5.80391C30.2482 5.73391 30.1115 5.69891 29.9649 5.69891C29.8182 5.69891 29.6815 5.73391 29.5549 5.80391C29.4315 5.87391 29.3332 5.97891 29.2599 6.11891C29.1865 6.25557 29.1499 6.42391 29.1499 6.62391C29.1499 6.92057 29.2249 7.15057 29.3749 7.31391C29.5282 7.47391 29.7199 7.55391 29.9499 7.55391ZM32.2334 4.88391C32.13 4.88391 32.0434 4.84891 31.9734 4.77891C31.9034 4.70891 31.8684 4.62224 31.8684 4.51891C31.8684 4.41557 31.9034 4.32891 31.9734 4.25891C32.0434 4.18891 32.13 4.15391 32.2334 4.15391C32.3334 4.15391 32.4184 4.18891 32.4884 4.25891C32.5584 4.32891 32.5934 4.41557 32.5934 4.51891C32.5934 4.62224 32.5584 4.70891 32.4884 4.77891C32.4184 4.84891 32.3334 4.88391 32.2334 4.88391ZM32.5134 8.54391C32.5134 8.81391 32.445 9.00891 32.3084 9.12891C32.175 9.25224 31.98 9.31391 31.7234 9.31391H31.4284V8.83391H31.6234C31.74 8.83391 31.8217 8.81057 31.8684 8.76391C31.9184 8.72057 31.9434 8.64724 31.9434 8.54391V5.24891H32.5134V8.54391ZM35.7867 6.55891C35.7867 6.66224 35.7801 6.75557 35.7667 6.83891H33.6617C33.6784 7.05891 33.7601 7.23557 33.9067 7.36891C34.0534 7.50224 34.2334 7.56891 34.4467 7.56891C34.7534 7.56891 34.9701 7.44057 35.0967 7.18391H35.7117C35.6284 7.43724 35.4767 7.64557 35.2567 7.80891C35.0401 7.96891 34.7701 8.04891 34.4467 8.04891C34.1834 8.04891 33.9467 7.99057 33.7367 7.87391C33.5301 7.75391 33.3667 7.58724 33.2467 7.37391C33.1301 7.15724 33.0717 6.90724 33.0717 6.62391C33.0717 6.34057 33.1284 6.09224 33.2417 5.87891C33.3584 5.66224 33.5201 5.49557 33.7267 5.37891C33.9367 5.26224 34.1767 5.20391 34.4467 5.20391C34.7067 5.20391 34.9384 5.26057 35.1417 5.37391C35.3451 5.48724 35.5034 5.64724 35.6167 5.85391C35.7301 6.05724 35.7867 6.29224 35.7867 6.55891ZM35.1917 6.37891C35.1884 6.16891 35.1134 6.00057 34.9667 5.87391C34.8201 5.74724 34.6384 5.68391 34.4217 5.68391C34.2251 5.68391 34.0567 5.74724 33.9167 5.87391C33.7767 5.99724 33.6934 6.16557 33.6667 6.37891H35.1917ZM36.1577 6.62391C36.1577 6.34057 36.2143 6.09224 36.3277 5.87891C36.4443 5.66224 36.6043 5.49557 36.8077 5.37891C37.011 5.26224 37.2443 5.20391 37.5077 5.20391C37.841 5.20391 38.116 5.28391 38.3327 5.44391C38.5527 5.60057 38.701 5.82557 38.7777 6.11891H38.1627C38.1127 5.98224 38.0327 5.87557 37.9227 5.79891C37.8127 5.72224 37.6743 5.68391 37.5077 5.68391C37.2743 5.68391 37.0877 5.76724 36.9477 5.93391C36.811 6.09724 36.7427 6.32724 36.7427 6.62391C36.7427 6.92057 36.811 7.15224 36.9477 7.31891C37.0877 7.48557 37.2743 7.56891 37.5077 7.56891C37.8377 7.56891 38.056 7.42391 38.1627 7.13391H38.7777C38.6977 7.41391 38.5477 7.63724 38.3277 7.80391C38.1077 7.96724 37.8343 8.04891 37.5077 8.04891C37.2443 8.04891 37.011 7.99057 36.8077 7.87391C36.6043 7.75391 36.4443 7.58724 36.3277 7.37391C36.2143 7.15724 36.1577 6.90724 36.1577 6.62391ZM40.0107 5.71391V7.23891C40.0107 7.34224 40.034 7.41724 40.0807 7.46391C40.1307 7.50724 40.214 7.52891 40.3307 7.52891H40.6807V8.00391H40.2307C39.974 8.00391 39.7774 7.94391 39.6407 7.82391C39.504 7.70391 39.4357 7.50891 39.4357 7.23891V5.71391H39.1107V5.24891H39.4357V4.56391H40.0107V5.24891H40.6807V5.71391H40.0107Z" fill="black"/>
<defs>
<filter id="filter0_d_17_176" x="0.00390625" y="0.00390625" width="48" height="20" filterUnits="userSpaceOnUse" color-interpolation-filters="sRGB">
<feFlood flood-opacity="0" result="BackgroundImageFix"/>
<feColorMatrix in="SourceAlpha" type="matrix" values="0 0 0 0 0 0 0 0 0 0 0 0 0 0 0 0 0 0 127 0" result="hardAlpha"/>
<feOffset dy="4"/>
<feGaussianBlur stdDeviation="2"/>
<feComposite in2="hardAlpha" operator="out"/>
<feColorMatrix type="matrix" values="0 0 0 0 0 0 0 0 0 0 0 0 0 0 0 0 0 0 0.25 0"/>
<feBlend mode="normal" in2="BackgroundImageFix" result="effect1_dropShadow_17_176"/>
<feBlend mode="normal" in="SourceGraphic" in2="effect1_dropShadow_17_176" result="shape"/>
</filter>
</defs>
</svg>
