<svg width="150" height="50" viewBox="0 0 150 50" fill="none" xmlns="http://www.w3.org/2000/svg">
<rect width="150" height="50" fill="#FFB8C5"/>
<path d="M64.8484 22.388L62.7964 29H61.3564L60.0244 24.116L58.6924 29H57.2524L55.1884 22.388H56.5804L57.9604 27.704L59.3644 22.388H60.7924L62.1364 27.68L63.5044 22.388H64.8484ZM68.7387 29.108C68.1147 29.108 67.5507 28.968 67.0467 28.688C66.5427 28.4 66.1467 28 65.8587 27.488C65.5707 26.968 65.4267 26.368 65.4267 25.688C65.4267 25.016 65.5747 24.42 65.8707 23.9C66.1667 23.38 66.5707 22.98 67.0827 22.7C67.5947 22.42 68.1667 22.28 68.7987 22.28C69.4307 22.28 70.0027 22.42 70.5147 22.7C71.0267 22.98 71.4307 23.38 71.7267 23.9C72.0227 24.42 72.1707 25.016 72.1707 25.688C72.1707 26.36 72.0187 26.956 71.7147 27.476C71.4107 27.996 70.9947 28.4 70.4667 28.688C69.9467 28.968 69.3707 29.108 68.7387 29.108ZM68.7387 27.92C69.0907 27.92 69.4187 27.836 69.7227 27.668C70.0347 27.5 70.2867 27.248 70.4787 26.912C70.6707 26.576 70.7667 26.168 70.7667 25.688C70.7667 25.208 70.6747 24.804 70.4907 24.476C70.3067 24.14 70.0627 23.888 69.7587 23.72C69.4547 23.552 69.1267 23.468 68.7747 23.468C68.4227 23.468 68.0947 23.552 67.7907 23.72C67.4947 23.888 67.2587 24.14 67.0827 24.476C66.9067 24.804 66.8187 25.208 66.8187 25.688C66.8187 26.4 66.9987 26.952 67.3587 27.344C67.7267 27.728 68.1867 27.92 68.7387 27.92ZM74.891 23.348C75.091 23.012 75.355 22.752 75.683 22.568C76.019 22.376 76.415 22.28 76.871 22.28V23.696H76.523C75.987 23.696 75.579 23.832 75.299 24.104C75.027 24.376 74.891 24.848 74.891 25.52V29H73.523V22.388H74.891V23.348ZM80.7445 25.7L83.7925 29H81.9445L79.4965 26.156V29H78.1285V20.12H79.4965V25.28L81.8965 22.388H83.7925L80.7445 25.7ZM88.4422 29.084C88.1942 29.084 87.9862 29 87.8182 28.832C87.6502 28.664 87.5662 28.456 87.5662 28.208C87.5662 27.96 87.6502 27.752 87.8182 27.584C87.9862 27.416 88.1942 27.332 88.4422 27.332C88.6822 27.332 88.8862 27.416 89.0542 27.584C89.2222 27.752 89.3062 27.96 89.3062 28.208C89.3062 28.456 89.2222 28.664 89.0542 28.832C88.8862 29 88.6822 29.084 88.4422 29.084ZM88.4422 24.044C88.1942 24.044 87.9862 23.96 87.8182 23.792C87.6502 23.624 87.5662 23.416 87.5662 23.168C87.5662 22.92 87.6502 22.712 87.8182 22.544C87.9862 22.376 88.1942 22.292 88.4422 22.292C88.6822 22.292 88.8862 22.376 89.0542 22.544C89.2222 22.712 89.3062 22.92 89.3062 23.168C89.3062 23.416 89.2222 23.624 89.0542 23.792C88.8862 23.96 88.6822 24.044 88.4422 24.044Z" fill="#010101"/>
</svg>
