<svg width="53" height="21" viewBox="0 0 53 21" fill="none" xmlns="http://www.w3.org/2000/svg">
<g filter="url(#filter0_d_17_247)">
<rect x="5.00391" y="1.00391" width="42" height="10" rx="1" fill="#11C87B" fill-opacity="0.67" style="mix-blend-mode:darken" shape-rendering="crispEdges"/>
<rect x="4.50391" y="0.503906" width="43" height="11" rx="1.5" stroke="#11C87B" shape-rendering="crispEdges"/>
</g>
<path d="M12.0789 5.24891L11.2239 8.00391H10.6239L10.0689 5.96891L9.51391 8.00391H8.91391L8.05391 5.24891H8.63391L9.20891 7.46391L9.79391 5.24891H10.3889L10.9489 7.45391L11.5189 5.24891H12.0789ZM13.6999 8.04891C13.4399 8.04891 13.2049 7.99057 12.9949 7.87391C12.7849 7.75391 12.6199 7.58724 12.4999 7.37391C12.3799 7.15724 12.3199 6.90724 12.3199 6.62391C12.3199 6.34391 12.3815 6.09557 12.5049 5.87891C12.6282 5.66224 12.7965 5.49557 13.0099 5.37891C13.2232 5.26224 13.4615 5.20391 13.7249 5.20391C13.9882 5.20391 14.2265 5.26224 14.4399 5.37891C14.6532 5.49557 14.8215 5.66224 14.9449 5.87891C15.0682 6.09557 15.1299 6.34391 15.1299 6.62391C15.1299 6.90391 15.0665 7.15224 14.9399 7.36891C14.8132 7.58557 14.6399 7.75391 14.4199 7.87391C14.2032 7.99057 13.9632 8.04891 13.6999 8.04891ZM13.6999 7.55391C13.8465 7.55391 13.9832 7.51891 14.1099 7.44891C14.2399 7.37891 14.3449 7.27391 14.4249 7.13391C14.5049 6.99391 14.5449 6.82391 14.5449 6.62391C14.5449 6.42391 14.5065 6.25557 14.4299 6.11891C14.3532 5.97891 14.2515 5.87391 14.1249 5.80391C13.9982 5.73391 13.8615 5.69891 13.7149 5.69891C13.5682 5.69891 13.4315 5.73391 13.3049 5.80391C13.1815 5.87391 13.0832 5.97891 13.0099 6.11891C12.9365 6.25557 12.8999 6.42391 12.8999 6.62391C12.8999 6.92057 12.9749 7.15057 13.1249 7.31391C13.2782 7.47391 13.4699 7.55391 13.6999 7.55391ZM16.2634 5.64891C16.3467 5.50891 16.4567 5.40057 16.5934 5.32391C16.7334 5.24391 16.8984 5.20391 17.0884 5.20391V5.79391H16.9434C16.72 5.79391 16.55 5.85057 16.4334 5.96391C16.32 6.07724 16.2634 6.27391 16.2634 6.55391V8.00391H15.6934V5.24891H16.2634V5.64891ZM18.7023 6.62891L19.9723 8.00391H19.2023L18.1823 6.81891V8.00391H17.6123V4.30391H18.1823V6.45391L19.1823 5.24891H19.9723L18.7023 6.62891ZM21.9097 8.03891C21.8064 8.03891 21.7197 8.00391 21.6497 7.93391C21.5797 7.86391 21.5447 7.77724 21.5447 7.67391C21.5447 7.57057 21.5797 7.48391 21.6497 7.41391C21.7197 7.34391 21.8064 7.30891 21.9097 7.30891C22.0097 7.30891 22.0947 7.34391 22.1647 7.41391C22.2347 7.48391 22.2697 7.57057 22.2697 7.67391C22.2697 7.77724 22.2347 7.86391 22.1647 7.93391C22.0947 8.00391 22.0097 8.03891 21.9097 8.03891ZM21.9097 5.93891C21.8064 5.93891 21.7197 5.90391 21.6497 5.83391C21.5797 5.76391 21.5447 5.67724 21.5447 5.57391C21.5447 5.47057 21.5797 5.38391 21.6497 5.31391C21.7197 5.24391 21.8064 5.20891 21.9097 5.20891C22.0097 5.20891 22.0947 5.24391 22.1647 5.31391C22.2347 5.38391 22.2697 5.47057 22.2697 5.57391C22.2697 5.67724 22.2347 5.76391 22.1647 5.83391C22.0947 5.90391 22.0097 5.93891 21.9097 5.93891ZM25.3991 8.04891C25.1391 8.04891 24.9041 7.99057 24.6941 7.87391C24.4841 7.75391 24.3191 7.58724 24.1991 7.37391C24.0791 7.15724 24.0191 6.90724 24.0191 6.62391C24.0191 6.34391 24.0808 6.09557 24.2041 5.87891C24.3274 5.66224 24.4958 5.49557 24.7091 5.37891C24.9224 5.26224 25.1608 5.20391 25.4241 5.20391C25.6874 5.20391 25.9258 5.26224 26.1391 5.37891C26.3524 5.49557 26.5208 5.66224 26.6441 5.87891C26.7674 6.09557 26.8291 6.34391 26.8291 6.62391C26.8291 6.90391 26.7658 7.15224 26.6391 7.36891C26.5124 7.58557 26.3391 7.75391 26.1191 7.87391C25.9024 7.99057 25.6624 8.04891 25.3991 8.04891ZM25.3991 7.55391C25.5458 7.55391 25.6824 7.51891 25.8091 7.44891C25.9391 7.37891 26.0441 7.27391 26.1241 7.13391C26.2041 6.99391 26.2441 6.82391 26.2441 6.62391C26.2441 6.42391 26.2058 6.25557 26.1291 6.11891C26.0524 5.97891 25.9508 5.87391 25.8241 5.80391C25.6974 5.73391 25.5608 5.69891 25.4141 5.69891C25.2674 5.69891 25.1308 5.73391 25.0041 5.80391C24.8808 5.87391 24.7824 5.97891 24.7091 6.11891C24.6358 6.25557 24.5991 6.42391 24.5991 6.62391C24.5991 6.92057 24.6741 7.15057 24.8241 7.31391C24.9774 7.47391 25.1691 7.55391 25.3991 7.55391ZM27.9626 5.65891C28.0592 5.52557 28.1909 5.41724 28.3576 5.33391C28.5276 5.24724 28.7159 5.20391 28.9226 5.20391C29.1659 5.20391 29.3859 5.26224 29.5826 5.37891C29.7792 5.49557 29.9342 5.66224 30.0476 5.87891C30.1609 6.09224 30.2176 6.33724 30.2176 6.61391C30.2176 6.89057 30.1609 7.13891 30.0476 7.35891C29.9342 7.57557 29.7776 7.74557 29.5776 7.86891C29.3809 7.98891 29.1626 8.04891 28.9226 8.04891C28.7092 8.04891 28.5192 8.00724 28.3526 7.92391C28.1892 7.84057 28.0592 7.73391 27.9626 7.60391V8.00391H27.3926V4.30391H27.9626V5.65891ZM29.6376 6.61391C29.6376 6.42391 29.5976 6.26057 29.5176 6.12391C29.4409 5.98391 29.3376 5.87891 29.2076 5.80891C29.0809 5.73557 28.9442 5.69891 28.7976 5.69891C28.6542 5.69891 28.5176 5.73557 28.3876 5.80891C28.2609 5.88224 28.1576 5.98891 28.0776 6.12891C28.0009 6.26891 27.9626 6.43391 27.9626 6.62391C27.9626 6.81391 28.0009 6.98057 28.0776 7.12391C28.1576 7.26391 28.2609 7.37057 28.3876 7.44391C28.5176 7.51724 28.6542 7.55391 28.7976 7.55391C28.9442 7.55391 29.0809 7.51724 29.2076 7.44391C29.3376 7.36724 29.4409 7.25724 29.5176 7.11391C29.5976 6.97057 29.6376 6.80391 29.6376 6.61391ZM31.8463 7.49391L32.6263 5.24891H33.2312L32.1813 8.00391H31.5013L30.4563 5.24891H31.0662L31.8463 7.49391ZM33.9521 4.88391C33.8488 4.88391 33.7621 4.84891 33.6921 4.77891C33.6221 4.70891 33.5871 4.62224 33.5871 4.51891C33.5871 4.41557 33.6221 4.32891 33.6921 4.25891C33.7621 4.18891 33.8488 4.15391 33.9521 4.15391C34.0521 4.15391 34.1371 4.18891 34.2071 4.25891C34.2771 4.32891 34.3121 4.41557 34.3121 4.51891C34.3121 4.62224 34.2771 4.70891 34.2071 4.77891C34.1371 4.84891 34.0521 4.88391 33.9521 4.88391ZM34.2321 5.24891V8.00391H33.6621V5.24891H34.2321ZM36.1755 8.04891C35.9155 8.04891 35.6805 7.99057 35.4705 7.87391C35.2605 7.75391 35.0955 7.58724 34.9755 7.37391C34.8555 7.15724 34.7955 6.90724 34.7955 6.62391C34.7955 6.34391 34.8571 6.09557 34.9805 5.87891C35.1038 5.66224 35.2721 5.49557 35.4855 5.37891C35.6988 5.26224 35.9371 5.20391 36.2005 5.20391C36.4638 5.20391 36.7021 5.26224 36.9155 5.37891C37.1288 5.49557 37.2971 5.66224 37.4205 5.87891C37.5438 6.09557 37.6055 6.34391 37.6055 6.62391C37.6055 6.90391 37.5421 7.15224 37.4155 7.36891C37.2888 7.58557 37.1155 7.75391 36.8955 7.87391C36.6788 7.99057 36.4388 8.04891 36.1755 8.04891ZM36.1755 7.55391C36.3221 7.55391 36.4588 7.51891 36.5855 7.44891C36.7155 7.37891 36.8205 7.27391 36.9005 7.13391C36.9805 6.99391 37.0205 6.82391 37.0205 6.62391C37.0205 6.42391 36.9821 6.25557 36.9055 6.11891C36.8288 5.97891 36.7271 5.87391 36.6005 5.80391C36.4738 5.73391 36.3371 5.69891 36.1905 5.69891C36.0438 5.69891 35.9071 5.73391 35.7805 5.80391C35.6571 5.87391 35.5588 5.97891 35.4855 6.11891C35.4121 6.25557 35.3755 6.42391 35.3755 6.62391C35.3755 6.92057 35.4505 7.15057 35.6005 7.31391C35.7538 7.47391 35.9455 7.55391 36.1755 7.55391ZM40.6639 5.24891V8.00391H40.0939V7.67891C40.0039 7.79224 39.8856 7.88224 39.7389 7.94891C39.5956 8.01224 39.4423 8.04391 39.2789 8.04391C39.0623 8.04391 38.8673 7.99891 38.6939 7.90891C38.5239 7.81891 38.3889 7.68557 38.2889 7.50891C38.1923 7.33224 38.1439 7.11891 38.1439 6.86891V5.24891H38.7089V6.78391C38.7089 7.03057 38.7706 7.22057 38.8939 7.35391C39.0173 7.48391 39.1856 7.54891 39.3989 7.54891C39.6123 7.54891 39.7806 7.48391 39.9039 7.35391C40.0306 7.22057 40.0939 7.03057 40.0939 6.78391V5.24891H40.6639ZM42.416 8.04891C42.1993 8.04891 42.0043 8.01057 41.831 7.93391C41.661 7.85391 41.526 7.74724 41.426 7.61391C41.326 7.47724 41.2727 7.32557 41.266 7.15891H41.856C41.866 7.27557 41.921 7.37391 42.021 7.45391C42.1243 7.53057 42.2527 7.56891 42.406 7.56891C42.566 7.56891 42.6893 7.53891 42.776 7.47891C42.866 7.41557 42.911 7.33557 42.911 7.23891C42.911 7.13557 42.861 7.05891 42.761 7.00891C42.6643 6.95891 42.5093 6.90391 42.296 6.84391C42.0893 6.78724 41.921 6.73224 41.791 6.67891C41.661 6.62557 41.5477 6.54391 41.451 6.43391C41.3577 6.32391 41.311 6.17891 41.311 5.99891C41.311 5.85224 41.3543 5.71891 41.441 5.59891C41.5277 5.47557 41.651 5.37891 41.811 5.30891C41.9743 5.23891 42.161 5.20391 42.371 5.20391C42.6843 5.20391 42.936 5.28391 43.126 5.44391C43.3193 5.60057 43.4227 5.81557 43.436 6.08891H42.866C42.856 5.96557 42.806 5.86724 42.716 5.79391C42.626 5.72057 42.5043 5.68391 42.351 5.68391C42.201 5.68391 42.086 5.71224 42.006 5.76891C41.926 5.82557 41.886 5.90057 41.886 5.99391C41.886 6.06724 41.9127 6.12891 41.966 6.17891C42.0193 6.22891 42.0843 6.26891 42.161 6.29891C42.2377 6.32557 42.351 6.36057 42.501 6.40391C42.701 6.45724 42.8643 6.51224 42.991 6.56891C43.121 6.62224 43.2327 6.70224 43.326 6.80891C43.4193 6.91557 43.4677 7.05724 43.471 7.23391C43.471 7.39057 43.4277 7.53057 43.341 7.65391C43.2543 7.77724 43.131 7.87391 42.971 7.94391C42.8143 8.01391 42.6293 8.04891 42.416 8.04891Z" fill="black"/>
<defs>
<filter id="filter0_d_17_247" x="0.00390625" y="0.00390625" width="52" height="20" filterUnits="userSpaceOnUse" color-interpolation-filters="sRGB">
<feFlood flood-opacity="0" result="BackgroundImageFix"/>
<feColorMatrix in="SourceAlpha" type="matrix" values="0 0 0 0 0 0 0 0 0 0 0 0 0 0 0 0 0 0 127 0" result="hardAlpha"/>
<feOffset dy="4"/>
<feGaussianBlur stdDeviation="2"/>
<feComposite in2="hardAlpha" operator="out"/>
<feColorMatrix type="matrix" values="0 0 0 0 0 0 0 0 0 0 0 0 0 0 0 0 0 0 0.25 0"/>
<feBlend mode="normal" in2="BackgroundImageFix" result="effect1_dropShadow_17_247"/>
<feBlend mode="normal" in="SourceGraphic" in2="effect1_dropShadow_17_247" result="shape"/>
</filter>
</defs>
</svg>
