<svg width="65" height="21" viewBox="0 0 65 21" fill="none" xmlns="http://www.w3.org/2000/svg">
<g filter="url(#filter0_d_17_240)">
<rect x="5.00391" y="1.00391" width="54" height="10" rx="1" fill="#FFB8C5" fill-opacity="0.67" style="mix-blend-mode:darken" shape-rendering="crispEdges"/>
<rect x="4.50391" y="0.503906" width="55" height="11" rx="1.5" stroke="#FFB8C5" shape-rendering="crispEdges"/>
</g>
<path d="M12.0789 5.24891L11.2239 8.00391H10.6239L10.0689 5.96891L9.51391 8.00391H8.91391L8.05391 5.24891H8.63391L9.20891 7.46391L9.79391 5.24891H10.3889L10.9489 7.45391L11.5189 5.24891H12.0789ZM13.6999 8.04891C13.4399 8.04891 13.2049 7.99057 12.9949 7.87391C12.7849 7.75391 12.6199 7.58724 12.4999 7.37391C12.3799 7.15724 12.3199 6.90724 12.3199 6.62391C12.3199 6.34391 12.3815 6.09557 12.5049 5.87891C12.6282 5.66224 12.7965 5.49557 13.0099 5.37891C13.2232 5.26224 13.4615 5.20391 13.7249 5.20391C13.9882 5.20391 14.2265 5.26224 14.4399 5.37891C14.6532 5.49557 14.8215 5.66224 14.9449 5.87891C15.0682 6.09557 15.1299 6.34391 15.1299 6.62391C15.1299 6.90391 15.0665 7.15224 14.9399 7.36891C14.8132 7.58557 14.6399 7.75391 14.4199 7.87391C14.2032 7.99057 13.9632 8.04891 13.6999 8.04891ZM13.6999 7.55391C13.8465 7.55391 13.9832 7.51891 14.1099 7.44891C14.2399 7.37891 14.3449 7.27391 14.4249 7.13391C14.5049 6.99391 14.5449 6.82391 14.5449 6.62391C14.5449 6.42391 14.5065 6.25557 14.4299 6.11891C14.3532 5.97891 14.2515 5.87391 14.1249 5.80391C13.9982 5.73391 13.8615 5.69891 13.7149 5.69891C13.5682 5.69891 13.4315 5.73391 13.3049 5.80391C13.1815 5.87391 13.0832 5.97891 13.0099 6.11891C12.9365 6.25557 12.8999 6.42391 12.8999 6.62391C12.8999 6.92057 12.9749 7.15057 13.1249 7.31391C13.2782 7.47391 13.4699 7.55391 13.6999 7.55391ZM16.2634 5.64891C16.3467 5.50891 16.4567 5.40057 16.5934 5.32391C16.7334 5.24391 16.8984 5.20391 17.0884 5.20391V5.79391H16.9434C16.72 5.79391 16.55 5.85057 16.4334 5.96391C16.32 6.07724 16.2634 6.27391 16.2634 6.55391V8.00391H15.6934V5.24891H16.2634V5.64891ZM18.7023 6.62891L19.9723 8.00391H19.2023L18.1823 6.81891V8.00391H17.6123V4.30391H18.1823V6.45391L19.1823 5.24891H19.9723L18.7023 6.62891ZM21.9097 8.03891C21.8064 8.03891 21.7197 8.00391 21.6497 7.93391C21.5797 7.86391 21.5447 7.77724 21.5447 7.67391C21.5447 7.57057 21.5797 7.48391 21.6497 7.41391C21.7197 7.34391 21.8064 7.30891 21.9097 7.30891C22.0097 7.30891 22.0947 7.34391 22.1647 7.41391C22.2347 7.48391 22.2697 7.57057 22.2697 7.67391C22.2697 7.77724 22.2347 7.86391 22.1647 7.93391C22.0947 8.00391 22.0097 8.03891 21.9097 8.03891ZM21.9097 5.93891C21.8064 5.93891 21.7197 5.90391 21.6497 5.83391C21.5797 5.76391 21.5447 5.67724 21.5447 5.57391C21.5447 5.47057 21.5797 5.38391 21.6497 5.31391C21.7197 5.24391 21.8064 5.20891 21.9097 5.20891C22.0097 5.20891 22.0947 5.24391 22.1647 5.31391C22.2347 5.38391 22.2697 5.47057 22.2697 5.57391C22.2697 5.67724 22.2347 5.76391 22.1647 5.83391C22.0947 5.90391 22.0097 5.93891 21.9097 5.93891ZM24.0141 6.62391C24.0141 6.34057 24.0708 6.09224 24.1841 5.87891C24.3008 5.66224 24.4608 5.49557 24.6641 5.37891C24.8674 5.26224 25.1008 5.20391 25.3641 5.20391C25.6974 5.20391 25.9724 5.28391 26.1891 5.44391C26.4091 5.60057 26.5574 5.82557 26.6341 6.11891H26.0191C25.9691 5.98224 25.8891 5.87557 25.7791 5.79891C25.6691 5.72224 25.5308 5.68391 25.3641 5.68391C25.1308 5.68391 24.9441 5.76724 24.8041 5.93391C24.6674 6.09724 24.5991 6.32724 24.5991 6.62391C24.5991 6.92057 24.6674 7.15224 24.8041 7.31891C24.9441 7.48557 25.1308 7.56891 25.3641 7.56891C25.6941 7.56891 25.9124 7.42391 26.0191 7.13391H26.6341C26.5541 7.41391 26.4041 7.63724 26.1841 7.80391C25.9641 7.96724 25.6908 8.04891 25.3641 8.04891C25.1008 8.04891 24.8674 7.99057 24.6641 7.87391C24.4608 7.75391 24.3008 7.58724 24.1841 7.37391C24.0708 7.15724 24.0141 6.90724 24.0141 6.62391ZM28.3971 8.04891C28.1371 8.04891 27.9021 7.99057 27.6921 7.87391C27.4821 7.75391 27.3171 7.58724 27.1971 7.37391C27.0771 7.15724 27.0171 6.90724 27.0171 6.62391C27.0171 6.34391 27.0788 6.09557 27.2021 5.87891C27.3255 5.66224 27.4938 5.49557 27.7071 5.37891C27.9205 5.26224 28.1588 5.20391 28.4221 5.20391C28.6855 5.20391 28.9238 5.26224 29.1371 5.37891C29.3505 5.49557 29.5188 5.66224 29.6421 5.87891C29.7655 6.09557 29.8271 6.34391 29.8271 6.62391C29.8271 6.90391 29.7638 7.15224 29.6371 7.36891C29.5105 7.58557 29.3371 7.75391 29.1171 7.87391C28.9005 7.99057 28.6605 8.04891 28.3971 8.04891ZM28.3971 7.55391C28.5438 7.55391 28.6805 7.51891 28.8071 7.44891C28.9371 7.37891 29.0421 7.27391 29.1221 7.13391C29.2021 6.99391 29.2421 6.82391 29.2421 6.62391C29.2421 6.42391 29.2038 6.25557 29.1271 6.11891C29.0505 5.97891 28.9488 5.87391 28.8221 5.80391C28.6955 5.73391 28.5588 5.69891 28.4121 5.69891C28.2655 5.69891 28.1288 5.73391 28.0021 5.80391C27.8788 5.87391 27.7805 5.97891 27.7071 6.11891C27.6338 6.25557 27.5971 6.42391 27.5971 6.62391C27.5971 6.92057 27.6721 7.15057 27.8221 7.31391C27.9755 7.47391 28.1671 7.55391 28.3971 7.55391ZM33.7256 5.20391C33.9423 5.20391 34.1356 5.24891 34.3056 5.33891C34.479 5.42891 34.614 5.56224 34.7106 5.73891C34.8106 5.91557 34.8606 6.12891 34.8606 6.37891V8.00391H34.2956V6.46391C34.2956 6.21724 34.234 6.02891 34.1106 5.89891C33.9873 5.76557 33.819 5.69891 33.6056 5.69891C33.3923 5.69891 33.2223 5.76557 33.0956 5.89891C32.9723 6.02891 32.9106 6.21724 32.9106 6.46391V8.00391H32.3456V6.46391C32.3456 6.21724 32.284 6.02891 32.1606 5.89891C32.0373 5.76557 31.869 5.69891 31.6556 5.69891C31.4423 5.69891 31.2723 5.76557 31.1456 5.89891C31.0223 6.02891 30.9606 6.21724 30.9606 6.46391V8.00391H30.3906V5.24891H30.9606V5.56391C31.054 5.45057 31.1723 5.36224 31.3156 5.29891C31.459 5.23557 31.6123 5.20391 31.7756 5.20391C31.9956 5.20391 32.1923 5.25057 32.3656 5.34391C32.539 5.43724 32.6723 5.57224 32.7656 5.74891C32.849 5.58224 32.979 5.45057 33.1556 5.35391C33.3323 5.25391 33.5223 5.20391 33.7256 5.20391ZM36.1559 5.65391C36.2526 5.52724 36.3843 5.42057 36.5509 5.33391C36.7176 5.24724 36.9059 5.20391 37.1159 5.20391C37.3559 5.20391 37.5743 5.26391 37.7709 5.38391C37.9709 5.50057 38.1276 5.66557 38.2409 5.87891C38.3543 6.09224 38.4109 6.33724 38.4109 6.61391C38.4109 6.89057 38.3543 7.13891 38.2409 7.35891C38.1276 7.57557 37.9709 7.74557 37.7709 7.86891C37.5743 7.98891 37.3559 8.04891 37.1159 8.04891C36.9059 8.04891 36.7193 8.00724 36.5559 7.92391C36.3926 7.83724 36.2593 7.73057 36.1559 7.60391V9.31391H35.5859V5.24891H36.1559V5.65391ZM37.8309 6.61391C37.8309 6.42391 37.7909 6.26057 37.7109 6.12391C37.6343 5.98391 37.5309 5.87891 37.4009 5.80891C37.2743 5.73557 37.1376 5.69891 36.9909 5.69891C36.8476 5.69891 36.7109 5.73557 36.5809 5.80891C36.4543 5.88224 36.3509 5.98891 36.2709 6.12891C36.1943 6.26891 36.1559 6.43391 36.1559 6.62391C36.1559 6.81391 36.1943 6.98057 36.2709 7.12391C36.3509 7.26391 36.4543 7.37057 36.5809 7.44391C36.7109 7.51724 36.8476 7.55391 36.9909 7.55391C37.1376 7.55391 37.2743 7.51724 37.4009 7.44391C37.5309 7.36724 37.6343 7.25724 37.7109 7.11391C37.7909 6.97057 37.8309 6.80391 37.8309 6.61391ZM39.5446 4.30391V8.00391H38.9746V4.30391H39.5446ZM40.583 4.88391C40.4796 4.88391 40.393 4.84891 40.323 4.77891C40.253 4.70891 40.218 4.62224 40.218 4.51891C40.218 4.41557 40.253 4.32891 40.323 4.25891C40.393 4.18891 40.4796 4.15391 40.583 4.15391C40.683 4.15391 40.768 4.18891 40.838 4.25891C40.908 4.32891 40.943 4.41557 40.943 4.51891C40.943 4.62224 40.908 4.70891 40.838 4.77891C40.768 4.84891 40.683 4.88391 40.583 4.88391ZM40.863 5.24891V8.00391H40.293V5.24891H40.863ZM41.4213 6.62391C41.4213 6.34057 41.478 6.09224 41.5913 5.87891C41.708 5.66224 41.868 5.49557 42.0713 5.37891C42.2747 5.26224 42.508 5.20391 42.7713 5.20391C43.1047 5.20391 43.3797 5.28391 43.5963 5.44391C43.8163 5.60057 43.9647 5.82557 44.0413 6.11891H43.4263C43.3763 5.98224 43.2963 5.87557 43.1863 5.79891C43.0763 5.72224 42.938 5.68391 42.7713 5.68391C42.538 5.68391 42.3513 5.76724 42.2113 5.93391C42.0747 6.09724 42.0063 6.32724 42.0063 6.62391C42.0063 6.92057 42.0747 7.15224 42.2113 7.31891C42.3513 7.48557 42.538 7.56891 42.7713 7.56891C43.1013 7.56891 43.3197 7.42391 43.4263 7.13391H44.0413C43.9613 7.41391 43.8113 7.63724 43.5913 7.80391C43.3713 7.96724 43.098 8.04891 42.7713 8.04891C42.508 8.04891 42.2747 7.99057 42.0713 7.87391C41.868 7.75391 41.708 7.58724 41.5913 7.37391C41.478 7.15724 41.4213 6.90724 41.4213 6.62391ZM44.4194 6.61391C44.4194 6.33724 44.476 6.09224 44.5894 5.87891C44.706 5.66557 44.8627 5.50057 45.0594 5.38391C45.2594 5.26391 45.4794 5.20391 45.7194 5.20391C45.936 5.20391 46.1244 5.24724 46.2844 5.33391C46.4477 5.41724 46.5777 5.52224 46.6744 5.64891V5.24891H47.2494V8.00391H46.6744V7.59391C46.5777 7.72391 46.446 7.83224 46.2794 7.91891C46.1127 8.00557 45.9227 8.04891 45.7094 8.04891C45.4727 8.04891 45.256 7.98891 45.0594 7.86891C44.8627 7.74557 44.706 7.57557 44.5894 7.35891C44.476 7.13891 44.4194 6.89057 44.4194 6.61391ZM46.6744 6.62391C46.6744 6.43391 46.6344 6.26891 46.5544 6.12891C46.4777 5.98891 46.376 5.88224 46.2494 5.80891C46.1227 5.73557 45.986 5.69891 45.8394 5.69891C45.6927 5.69891 45.556 5.73557 45.4294 5.80891C45.3027 5.87891 45.1994 5.98391 45.1194 6.12391C45.0427 6.26057 45.0044 6.42391 45.0044 6.61391C45.0044 6.80391 45.0427 6.97057 45.1194 7.11391C45.1994 7.25724 45.3027 7.36724 45.4294 7.44391C45.5594 7.51724 45.696 7.55391 45.8394 7.55391C45.986 7.55391 46.1227 7.51724 46.2494 7.44391C46.376 7.37057 46.4777 7.26391 46.5544 7.12391C46.6344 6.98057 46.6744 6.81391 46.6744 6.62391ZM48.663 5.71391V7.23891C48.663 7.34224 48.6864 7.41724 48.733 7.46391C48.783 7.50724 48.8664 7.52891 48.983 7.52891H49.333V8.00391H48.883C48.6264 8.00391 48.4297 7.94391 48.293 7.82391C48.1564 7.70391 48.088 7.50891 48.088 7.23891V5.71391H47.763V5.24891H48.088V4.56391H48.663V5.24891H49.333V5.71391H48.663ZM52.3834 6.55891C52.3834 6.66224 52.3767 6.75557 52.3634 6.83891H50.2584C50.2751 7.05891 50.3567 7.23557 50.5034 7.36891C50.6501 7.50224 50.8301 7.56891 51.0434 7.56891C51.3501 7.56891 51.5667 7.44057 51.6934 7.18391H52.3084C52.2251 7.43724 52.0734 7.64557 51.8534 7.80891C51.6367 7.96891 51.3667 8.04891 51.0434 8.04891C50.7801 8.04891 50.5434 7.99057 50.3334 7.87391C50.1267 7.75391 49.9634 7.58724 49.8434 7.37391C49.7267 7.15724 49.6684 6.90724 49.6684 6.62391C49.6684 6.34057 49.7251 6.09224 49.8384 5.87891C49.9551 5.66224 50.1167 5.49557 50.3234 5.37891C50.5334 5.26224 50.7734 5.20391 51.0434 5.20391C51.3034 5.20391 51.5351 5.26057 51.7384 5.37391C51.9417 5.48724 52.1001 5.64724 52.2134 5.85391C52.3267 6.05724 52.3834 6.29224 52.3834 6.55891ZM51.7884 6.37891C51.7851 6.16891 51.7101 6.00057 51.5634 5.87391C51.4167 5.74724 51.2351 5.68391 51.0184 5.68391C50.8217 5.68391 50.6534 5.74724 50.5134 5.87391C50.3734 5.99724 50.2901 6.16557 50.2634 6.37891H51.7884ZM52.7543 6.61391C52.7543 6.33724 52.811 6.09224 52.9243 5.87891C53.041 5.66557 53.1977 5.50057 53.3943 5.38391C53.5943 5.26391 53.816 5.20391 54.0593 5.20391C54.2393 5.20391 54.416 5.24391 54.5893 5.32391C54.766 5.40057 54.906 5.50391 55.0093 5.63391V4.30391H55.5843V8.00391H55.0093V7.58891C54.916 7.72224 54.786 7.83224 54.6193 7.91891C54.456 8.00557 54.2677 8.04891 54.0543 8.04891C53.8143 8.04891 53.5943 7.98891 53.3943 7.86891C53.1977 7.74557 53.041 7.57557 52.9243 7.35891C52.811 7.13891 52.7543 6.89057 52.7543 6.61391ZM55.0093 6.62391C55.0093 6.43391 54.9693 6.26891 54.8893 6.12891C54.8127 5.98891 54.711 5.88224 54.5843 5.80891C54.4577 5.73557 54.321 5.69891 54.1743 5.69891C54.0277 5.69891 53.891 5.73557 53.7643 5.80891C53.6377 5.87891 53.5343 5.98391 53.4543 6.12391C53.3777 6.26057 53.3393 6.42391 53.3393 6.61391C53.3393 6.80391 53.3777 6.97057 53.4543 7.11391C53.5343 7.25724 53.6377 7.36724 53.7643 7.44391C53.8943 7.51724 54.031 7.55391 54.1743 7.55391C54.321 7.55391 54.4577 7.51724 54.5843 7.44391C54.711 7.37057 54.8127 7.26391 54.8893 7.12391C54.9693 6.98057 55.0093 6.81391 55.0093 6.62391Z" fill="black"/>
<defs>
<filter id="filter0_d_17_240" x="0.00390625" y="0.00390625" width="64" height="20" filterUnits="userSpaceOnUse" color-interpolation-filters="sRGB">
<feFlood flood-opacity="0" result="BackgroundImageFix"/>
<feColorMatrix in="SourceAlpha" type="matrix" values="0 0 0 0 0 0 0 0 0 0 0 0 0 0 0 0 0 0 127 0" result="hardAlpha"/>
<feOffset dy="4"/>
<feGaussianBlur stdDeviation="2"/>
<feComposite in2="hardAlpha" operator="out"/>
<feColorMatrix type="matrix" values="0 0 0 0 0 0 0 0 0 0 0 0 0 0 0 0 0 0 0.25 0"/>
<feBlend mode="normal" in2="BackgroundImageFix" result="effect1_dropShadow_17_240"/>
<feBlend mode="normal" in="SourceGraphic" in2="effect1_dropShadow_17_240" result="shape"/>
</filter>
</defs>
</svg>
