<svg width="53" height="21" viewBox="0 0 53 21" fill="none" xmlns="http://www.w3.org/2000/svg">
<g filter="url(#filter0_d_17_238)">
<rect x="5.00391" y="1.00391" width="42" height="10" rx="1" fill="#FBC901" fill-opacity="0.67" style="mix-blend-mode:darken" shape-rendering="crispEdges"/>
<rect x="4.50391" y="0.503906" width="43" height="11" rx="1.5" stroke="#FBC901" shape-rendering="crispEdges"/>
</g>
<path d="M12.0789 5.24891L11.2239 8.00391H10.6239L10.0689 5.96891L9.51391 8.00391H8.91391L8.05391 5.24891H8.63391L9.20891 7.46391L9.79391 5.24891H10.3889L10.9489 7.45391L11.5189 5.24891H12.0789ZM13.6999 8.04891C13.4399 8.04891 13.2049 7.99057 12.9949 7.87391C12.7849 7.75391 12.6199 7.58724 12.4999 7.37391C12.3799 7.15724 12.3199 6.90724 12.3199 6.62391C12.3199 6.34391 12.3815 6.09557 12.5049 5.87891C12.6282 5.66224 12.7965 5.49557 13.0099 5.37891C13.2232 5.26224 13.4615 5.20391 13.7249 5.20391C13.9882 5.20391 14.2265 5.26224 14.4399 5.37891C14.6532 5.49557 14.8215 5.66224 14.9449 5.87891C15.0682 6.09557 15.1299 6.34391 15.1299 6.62391C15.1299 6.90391 15.0665 7.15224 14.9399 7.36891C14.8132 7.58557 14.6399 7.75391 14.4199 7.87391C14.2032 7.99057 13.9632 8.04891 13.6999 8.04891ZM13.6999 7.55391C13.8465 7.55391 13.9832 7.51891 14.1099 7.44891C14.2399 7.37891 14.3449 7.27391 14.4249 7.13391C14.5049 6.99391 14.5449 6.82391 14.5449 6.62391C14.5449 6.42391 14.5065 6.25557 14.4299 6.11891C14.3532 5.97891 14.2515 5.87391 14.1249 5.80391C13.9982 5.73391 13.8615 5.69891 13.7149 5.69891C13.5682 5.69891 13.4315 5.73391 13.3049 5.80391C13.1815 5.87391 13.0832 5.97891 13.0099 6.11891C12.9365 6.25557 12.8999 6.42391 12.8999 6.62391C12.8999 6.92057 12.9749 7.15057 13.1249 7.31391C13.2782 7.47391 13.4699 7.55391 13.6999 7.55391ZM16.2634 5.64891C16.3467 5.50891 16.4567 5.40057 16.5934 5.32391C16.7334 5.24391 16.8984 5.20391 17.0884 5.20391V5.79391H16.9434C16.72 5.79391 16.55 5.85057 16.4334 5.96391C16.32 6.07724 16.2634 6.27391 16.2634 6.55391V8.00391H15.6934V5.24891H16.2634V5.64891ZM18.7023 6.62891L19.9723 8.00391H19.2023L18.1823 6.81891V8.00391H17.6123V4.30391H18.1823V6.45391L19.1823 5.24891H19.9723L18.7023 6.62891ZM21.9097 8.03891C21.8064 8.03891 21.7197 8.00391 21.6497 7.93391C21.5797 7.86391 21.5447 7.77724 21.5447 7.67391C21.5447 7.57057 21.5797 7.48391 21.6497 7.41391C21.7197 7.34391 21.8064 7.30891 21.9097 7.30891C22.0097 7.30891 22.0947 7.34391 22.1647 7.41391C22.2347 7.48391 22.2697 7.57057 22.2697 7.67391C22.2697 7.77724 22.2347 7.86391 22.1647 7.93391C22.0947 8.00391 22.0097 8.03891 21.9097 8.03891ZM21.9097 5.93891C21.8064 5.93891 21.7197 5.90391 21.6497 5.83391C21.5797 5.76391 21.5447 5.67724 21.5447 5.57391C21.5447 5.47057 21.5797 5.38391 21.6497 5.31391C21.7197 5.24391 21.8064 5.20891 21.9097 5.20891C22.0097 5.20891 22.0947 5.24391 22.1647 5.31391C22.2347 5.38391 22.2697 5.47057 22.2697 5.57391C22.2697 5.67724 22.2347 5.76391 22.1647 5.83391C22.0947 5.90391 22.0097 5.93891 21.9097 5.93891ZM24.0141 6.62391C24.0141 6.34057 24.0708 6.09224 24.1841 5.87891C24.3008 5.66224 24.4608 5.49557 24.6641 5.37891C24.8674 5.26224 25.1008 5.20391 25.3641 5.20391C25.6974 5.20391 25.9724 5.28391 26.1891 5.44391C26.4091 5.60057 26.5574 5.82557 26.6341 6.11891H26.0191C25.9691 5.98224 25.8891 5.87557 25.7791 5.79891C25.6691 5.72224 25.5308 5.68391 25.3641 5.68391C25.1308 5.68391 24.9441 5.76724 24.8041 5.93391C24.6674 6.09724 24.5991 6.32724 24.5991 6.62391C24.5991 6.92057 24.6674 7.15224 24.8041 7.31891C24.9441 7.48557 25.1308 7.56891 25.3641 7.56891C25.6941 7.56891 25.9124 7.42391 26.0191 7.13391H26.6341C26.5541 7.41391 26.4041 7.63724 26.1841 7.80391C25.9641 7.96724 25.6908 8.04891 25.3641 8.04891C25.1008 8.04891 24.8674 7.99057 24.6641 7.87391C24.4608 7.75391 24.3008 7.58724 24.1841 7.37391C24.0708 7.15724 24.0141 6.90724 24.0141 6.62391ZM28.6271 5.20391C28.8371 5.20391 29.0238 5.24891 29.1871 5.33891C29.3538 5.42891 29.4838 5.56224 29.5771 5.73891C29.6738 5.91557 29.7221 6.12891 29.7221 6.37891V8.00391H29.1571V6.46391C29.1571 6.21724 29.0955 6.02891 28.9721 5.89891C28.8488 5.76557 28.6805 5.69891 28.4671 5.69891C28.2538 5.69891 28.0838 5.76557 27.9571 5.89891C27.8338 6.02891 27.7721 6.21724 27.7721 6.46391V8.00391H27.2021V4.30391H27.7721V5.56891C27.8688 5.45224 27.9905 5.36224 28.1371 5.29891C28.2871 5.23557 28.4505 5.20391 28.6271 5.20391ZM30.2592 6.61391C30.2592 6.33724 30.3159 6.09224 30.4292 5.87891C30.5459 5.66557 30.7026 5.50057 30.8992 5.38391C31.0992 5.26391 31.3192 5.20391 31.5592 5.20391C31.7759 5.20391 31.9642 5.24724 32.1242 5.33391C32.2876 5.41724 32.4176 5.52224 32.5142 5.64891V5.24891H33.0892V8.00391H32.5142V7.59391C32.4176 7.72391 32.2859 7.83224 32.1192 7.91891C31.9526 8.00557 31.7626 8.04891 31.5492 8.04891C31.3126 8.04891 31.0959 7.98891 30.8992 7.86891C30.7026 7.74557 30.5459 7.57557 30.4292 7.35891C30.3159 7.13891 30.2592 6.89057 30.2592 6.61391ZM32.5142 6.62391C32.5142 6.43391 32.4742 6.26891 32.3942 6.12891C32.3176 5.98891 32.2159 5.88224 32.0892 5.80891C31.9626 5.73557 31.8259 5.69891 31.6792 5.69891C31.5326 5.69891 31.3959 5.73557 31.2692 5.80891C31.1426 5.87891 31.0392 5.98391 30.9592 6.12391C30.8826 6.26057 30.8442 6.42391 30.8442 6.61391C30.8442 6.80391 30.8826 6.97057 30.9592 7.11391C31.0392 7.25724 31.1426 7.36724 31.2692 7.44391C31.3992 7.51724 31.5359 7.55391 31.6792 7.55391C31.8259 7.55391 31.9626 7.51724 32.0892 7.44391C32.2159 7.37057 32.3176 7.26391 32.3942 7.12391C32.4742 6.98057 32.5142 6.81391 32.5142 6.62391ZM35.0329 8.04891C34.7729 8.04891 34.5379 7.99057 34.3279 7.87391C34.1179 7.75391 33.9529 7.58724 33.8329 7.37391C33.7129 7.15724 33.6529 6.90724 33.6529 6.62391C33.6529 6.34391 33.7146 6.09557 33.8379 5.87891C33.9612 5.66224 34.1296 5.49557 34.3429 5.37891C34.5562 5.26224 34.7946 5.20391 35.0579 5.20391C35.3212 5.20391 35.5596 5.26224 35.7729 5.37891C35.9862 5.49557 36.1546 5.66224 36.2779 5.87891C36.4012 6.09557 36.4629 6.34391 36.4629 6.62391C36.4629 6.90391 36.3996 7.15224 36.2729 7.36891C36.1462 7.58557 35.9729 7.75391 35.7529 7.87391C35.5362 7.99057 35.2962 8.04891 35.0329 8.04891ZM35.0329 7.55391C35.1796 7.55391 35.3162 7.51891 35.4429 7.44891C35.5729 7.37891 35.6779 7.27391 35.7579 7.13391C35.8379 6.99391 35.8779 6.82391 35.8779 6.62391C35.8779 6.42391 35.8396 6.25557 35.7629 6.11891C35.6862 5.97891 35.5846 5.87391 35.4579 5.80391C35.3312 5.73391 35.1946 5.69891 35.0479 5.69891C34.9012 5.69891 34.7646 5.73391 34.6379 5.80391C34.5146 5.87391 34.4162 5.97891 34.3429 6.11891C34.2696 6.25557 34.2329 6.42391 34.2329 6.62391C34.2329 6.92057 34.3079 7.15057 34.4579 7.31391C34.6112 7.47391 34.8029 7.55391 35.0329 7.55391ZM37.6914 5.71391V7.23891C37.6914 7.34224 37.7147 7.41724 37.7614 7.46391C37.8114 7.50724 37.8947 7.52891 38.0114 7.52891H38.3614V8.00391H37.9114C37.6547 8.00391 37.458 7.94391 37.3214 7.82391C37.1847 7.70391 37.1164 7.50891 37.1164 7.23891V5.71391H36.7914V5.24891H37.1164V4.56391H37.6914V5.24891H38.3614V5.71391H37.6914ZM39.1767 4.88391C39.0734 4.88391 38.9867 4.84891 38.9167 4.77891C38.8467 4.70891 38.8117 4.62224 38.8117 4.51891C38.8117 4.41557 38.8467 4.32891 38.9167 4.25891C38.9867 4.18891 39.0734 4.15391 39.1767 4.15391C39.2767 4.15391 39.3617 4.18891 39.4317 4.25891C39.5017 4.32891 39.5367 4.41557 39.5367 4.51891C39.5367 4.62224 39.5017 4.70891 39.4317 4.77891C39.3617 4.84891 39.2767 4.88391 39.1767 4.88391ZM39.4567 5.24891V8.00391H38.8867V5.24891H39.4567ZM40.0151 6.62391C40.0151 6.34057 40.0717 6.09224 40.1851 5.87891C40.3017 5.66224 40.4617 5.49557 40.6651 5.37891C40.8684 5.26224 41.1017 5.20391 41.3651 5.20391C41.6984 5.20391 41.9734 5.28391 42.1901 5.44391C42.4101 5.60057 42.5584 5.82557 42.6351 6.11891H42.0201C41.9701 5.98224 41.8901 5.87557 41.7801 5.79891C41.6701 5.72224 41.5317 5.68391 41.3651 5.68391C41.1317 5.68391 40.9451 5.76724 40.8051 5.93391C40.6684 6.09724 40.6001 6.32724 40.6001 6.62391C40.6001 6.92057 40.6684 7.15224 40.8051 7.31891C40.9451 7.48557 41.1317 7.56891 41.3651 7.56891C41.6951 7.56891 41.9134 7.42391 42.0201 7.13391H42.6351C42.5551 7.41391 42.4051 7.63724 42.1851 7.80391C41.9651 7.96724 41.6917 8.04891 41.3651 8.04891C41.1017 8.04891 40.8684 7.99057 40.6651 7.87391C40.4617 7.75391 40.3017 7.58724 40.1851 7.37391C40.0717 7.15724 40.0151 6.90724 40.0151 6.62391Z" fill="black"/>
<defs>
<filter id="filter0_d_17_238" x="0.00390625" y="0.00390625" width="52" height="20" filterUnits="userSpaceOnUse" color-interpolation-filters="sRGB">
<feFlood flood-opacity="0" result="BackgroundImageFix"/>
<feColorMatrix in="SourceAlpha" type="matrix" values="0 0 0 0 0 0 0 0 0 0 0 0 0 0 0 0 0 0 127 0" result="hardAlpha"/>
<feOffset dy="4"/>
<feGaussianBlur stdDeviation="2"/>
<feComposite in2="hardAlpha" operator="out"/>
<feColorMatrix type="matrix" values="0 0 0 0 0 0 0 0 0 0 0 0 0 0 0 0 0 0 0.25 0"/>
<feBlend mode="normal" in2="BackgroundImageFix" result="effect1_dropShadow_17_238"/>
<feBlend mode="normal" in="SourceGraphic" in2="effect1_dropShadow_17_238" result="shape"/>
</filter>
</defs>
</svg>
