<svg width="55" height="20" viewBox="0 0 55 20" fill="none" xmlns="http://www.w3.org/2000/svg">
<g filter="url(#filter0_d_17_239)">
<rect x="5" y="1" width="45" height="10" rx="1" fill="#E611B4" fill-opacity="0.67" style="mix-blend-mode:darken" shape-rendering="crispEdges"/>
<rect x="4.5" y="0.5" width="46" height="11" rx="1.5" stroke="#E611B4" shape-rendering="crispEdges"/>
</g>
<path d="M12.075 5.245L11.22 8H10.62L10.065 5.965L9.51 8H8.91L8.05 5.245H8.63L9.205 7.46L9.79 5.245H10.385L10.945 7.45L11.515 5.245H12.075ZM13.696 8.045C13.436 8.045 13.201 7.98667 12.991 7.87C12.781 7.75 12.616 7.58333 12.496 7.37C12.376 7.15333 12.316 6.90333 12.316 6.62C12.316 6.34 12.3776 6.09167 12.501 5.875C12.6243 5.65833 12.7926 5.49167 13.006 5.375C13.2193 5.25833 13.4576 5.2 13.721 5.2C13.9843 5.2 14.2226 5.25833 14.436 5.375C14.6493 5.49167 14.8176 5.65833 14.941 5.875C15.0643 6.09167 15.126 6.34 15.126 6.62C15.126 6.9 15.0626 7.14833 14.936 7.365C14.8093 7.58167 14.636 7.75 14.416 7.87C14.1993 7.98667 13.9593 8.045 13.696 8.045ZM13.696 7.55C13.8426 7.55 13.9793 7.515 14.106 7.445C14.236 7.375 14.341 7.27 14.421 7.13C14.501 6.99 14.541 6.82 14.541 6.62C14.541 6.42 14.5026 6.25167 14.426 6.115C14.3493 5.975 14.2476 5.87 14.121 5.8C13.9943 5.73 13.8576 5.695 13.711 5.695C13.5643 5.695 13.4276 5.73 13.301 5.8C13.1776 5.87 13.0793 5.975 13.006 6.115C12.9326 6.25167 12.896 6.42 12.896 6.62C12.896 6.91667 12.971 7.14667 13.121 7.31C13.2743 7.47 13.466 7.55 13.696 7.55ZM16.2595 5.645C16.3428 5.505 16.4528 5.39667 16.5895 5.32C16.7295 5.24 16.8945 5.2 17.0845 5.2V5.79H16.9395C16.7161 5.79 16.5461 5.84667 16.4295 5.96C16.3161 6.07333 16.2595 6.27 16.2595 6.55V8H15.6895V5.245H16.2595V5.645ZM18.6984 6.625L19.9684 8H19.1984L18.1784 6.815V8H17.6084V4.3H18.1784V6.45L19.1784 5.245H19.9684L18.6984 6.625ZM21.9058 8.035C21.8024 8.035 21.7158 8 21.6458 7.93C21.5758 7.86 21.5408 7.77333 21.5408 7.67C21.5408 7.56667 21.5758 7.48 21.6458 7.41C21.7158 7.34 21.8024 7.305 21.9058 7.305C22.0058 7.305 22.0908 7.34 22.1608 7.41C22.2308 7.48 22.2658 7.56667 22.2658 7.67C22.2658 7.77333 22.2308 7.86 22.1608 7.93C22.0908 8 22.0058 8.035 21.9058 8.035ZM21.9058 5.935C21.8024 5.935 21.7158 5.9 21.6458 5.83C21.5758 5.76 21.5408 5.67333 21.5408 5.57C21.5408 5.46667 21.5758 5.38 21.6458 5.31C21.7158 5.24 21.8024 5.205 21.9058 5.205C22.0058 5.205 22.0908 5.24 22.1608 5.31C22.2308 5.38 22.2658 5.46667 22.2658 5.57C22.2658 5.67333 22.2308 5.76 22.1608 5.83C22.0908 5.9 22.0058 5.935 21.9058 5.935ZM24.0102 6.62C24.0102 6.33667 24.0669 6.08833 24.1802 5.875C24.2969 5.65833 24.4569 5.49167 24.6602 5.375C24.8635 5.25833 25.0969 5.2 25.3602 5.2C25.6935 5.2 25.9685 5.28 26.1852 5.44C26.4052 5.59667 26.5535 5.82167 26.6302 6.115H26.0152C25.9652 5.97833 25.8852 5.87167 25.7752 5.795C25.6652 5.71833 25.5269 5.68 25.3602 5.68C25.1269 5.68 24.9402 5.76333 24.8002 5.93C24.6635 6.09333 24.5952 6.32333 24.5952 6.62C24.5952 6.91667 24.6635 7.14833 24.8002 7.315C24.9402 7.48167 25.1269 7.565 25.3602 7.565C25.6902 7.565 25.9085 7.42 26.0152 7.13H26.6302C26.5502 7.41 26.4002 7.63333 26.1802 7.8C25.9602 7.96333 25.6869 8.045 25.3602 8.045C25.0969 8.045 24.8635 7.98667 24.6602 7.87C24.4569 7.75 24.2969 7.58333 24.1802 7.37C24.0669 7.15333 24.0102 6.90333 24.0102 6.62ZM28.3932 8.045C28.1332 8.045 27.8982 7.98667 27.6882 7.87C27.4782 7.75 27.3132 7.58333 27.1932 7.37C27.0732 7.15333 27.0132 6.90333 27.0132 6.62C27.0132 6.34 27.0749 6.09167 27.1982 5.875C27.3216 5.65833 27.4899 5.49167 27.7032 5.375C27.9166 5.25833 28.1549 5.2 28.4182 5.2C28.6816 5.2 28.9199 5.25833 29.1332 5.375C29.3466 5.49167 29.5149 5.65833 29.6382 5.875C29.7616 6.09167 29.8232 6.34 29.8232 6.62C29.8232 6.9 29.7599 7.14833 29.6332 7.365C29.5066 7.58167 29.3332 7.75 29.1132 7.87C28.8966 7.98667 28.6566 8.045 28.3932 8.045ZM28.3932 7.55C28.5399 7.55 28.6766 7.515 28.8032 7.445C28.9332 7.375 29.0382 7.27 29.1182 7.13C29.1982 6.99 29.2382 6.82 29.2382 6.62C29.2382 6.42 29.1999 6.25167 29.1232 6.115C29.0466 5.975 28.9449 5.87 28.8182 5.8C28.6916 5.73 28.5549 5.695 28.4082 5.695C28.2616 5.695 28.1249 5.73 27.9982 5.8C27.8749 5.87 27.7766 5.975 27.7032 6.115C27.6299 6.25167 27.5932 6.42 27.5932 6.62C27.5932 6.91667 27.6682 7.14667 27.8182 7.31C27.9716 7.47 28.1632 7.55 28.3932 7.55ZM33.7217 5.2C33.9384 5.2 34.1317 5.245 34.3017 5.335C34.4751 5.425 34.6101 5.55833 34.7067 5.735C34.8067 5.91167 34.8567 6.125 34.8567 6.375V8H34.2917V6.46C34.2917 6.21333 34.2301 6.025 34.1067 5.895C33.9834 5.76167 33.8151 5.695 33.6017 5.695C33.3884 5.695 33.2184 5.76167 33.0917 5.895C32.9684 6.025 32.9067 6.21333 32.9067 6.46V8H32.3417V6.46C32.3417 6.21333 32.2801 6.025 32.1567 5.895C32.0334 5.76167 31.8651 5.695 31.6517 5.695C31.4384 5.695 31.2684 5.76167 31.1417 5.895C31.0184 6.025 30.9567 6.21333 30.9567 6.46V8H30.3867V5.245H30.9567V5.56C31.0501 5.44667 31.1684 5.35833 31.3117 5.295C31.4551 5.23167 31.6084 5.2 31.7717 5.2C31.9917 5.2 32.1884 5.24667 32.3617 5.34C32.5351 5.43333 32.6684 5.56833 32.7617 5.745C32.8451 5.57833 32.9751 5.44667 33.1517 5.35C33.3284 5.25 33.5184 5.2 33.7217 5.2ZM36.152 5.65C36.2487 5.52333 36.3804 5.41667 36.547 5.33C36.7137 5.24333 36.902 5.2 37.112 5.2C37.352 5.2 37.5704 5.26 37.767 5.38C37.967 5.49667 38.1237 5.66167 38.237 5.875C38.3504 6.08833 38.407 6.33333 38.407 6.61C38.407 6.88667 38.3504 7.135 38.237 7.355C38.1237 7.57167 37.967 7.74167 37.767 7.865C37.5704 7.985 37.352 8.045 37.112 8.045C36.902 8.045 36.7154 8.00333 36.552 7.92C36.3887 7.83333 36.2554 7.72667 36.152 7.6V9.31H35.582V5.245H36.152V5.65ZM37.827 6.61C37.827 6.42 37.787 6.25667 37.707 6.12C37.6304 5.98 37.527 5.875 37.397 5.805C37.2704 5.73167 37.1337 5.695 36.987 5.695C36.8437 5.695 36.707 5.73167 36.577 5.805C36.4504 5.87833 36.347 5.985 36.267 6.125C36.1904 6.265 36.152 6.43 36.152 6.62C36.152 6.81 36.1904 6.97667 36.267 7.12C36.347 7.26 36.4504 7.36667 36.577 7.44C36.707 7.51333 36.8437 7.55 36.987 7.55C37.1337 7.55 37.2704 7.51333 37.397 7.44C37.527 7.36333 37.6304 7.25333 37.707 7.11C37.787 6.96667 37.827 6.8 37.827 6.61ZM39.5407 4.3V8H38.9707V4.3H39.5407ZM42.8141 6.555C42.8141 6.65833 42.8074 6.75167 42.7941 6.835H40.6891C40.7057 7.055 40.7874 7.23167 40.9341 7.365C41.0807 7.49833 41.2607 7.565 41.4741 7.565C41.7807 7.565 41.9974 7.43667 42.1241 7.18H42.7391C42.6557 7.43333 42.5041 7.64167 42.2841 7.805C42.0674 7.965 41.7974 8.045 41.4741 8.045C41.2107 8.045 40.9741 7.98667 40.7641 7.87C40.5574 7.75 40.3941 7.58333 40.2741 7.37C40.1574 7.15333 40.0991 6.90333 40.0991 6.62C40.0991 6.33667 40.1557 6.08833 40.2691 5.875C40.3857 5.65833 40.5474 5.49167 40.7541 5.375C40.9641 5.25833 41.2041 5.2 41.4741 5.2C41.7341 5.2 41.9657 5.25667 42.1691 5.37C42.3724 5.48333 42.5307 5.64333 42.6441 5.85C42.7574 6.05333 42.8141 6.28833 42.8141 6.555ZM42.2191 6.375C42.2157 6.165 42.1407 5.99667 41.9941 5.87C41.8474 5.74333 41.6657 5.68 41.4491 5.68C41.2524 5.68 41.0841 5.74333 40.9441 5.87C40.8041 5.99333 40.7207 6.16167 40.6941 6.375H42.2191ZM44.555 6.605L45.445 8H44.8L44.205 7.065L43.645 8H43.05L43.94 6.645L43.05 5.245H43.695L44.29 6.18L44.85 5.245H45.445L44.555 6.605Z" fill="black"/>
<defs>
<filter id="filter0_d_17_239" x="0" y="0" width="55" height="20" filterUnits="userSpaceOnUse" color-interpolation-filters="sRGB">
<feFlood flood-opacity="0" result="BackgroundImageFix"/>
<feColorMatrix in="SourceAlpha" type="matrix" values="0 0 0 0 0 0 0 0 0 0 0 0 0 0 0 0 0 0 127 0" result="hardAlpha"/>
<feOffset dy="4"/>
<feGaussianBlur stdDeviation="2"/>
<feComposite in2="hardAlpha" operator="out"/>
<feColorMatrix type="matrix" values="0 0 0 0 0 0 0 0 0 0 0 0 0 0 0 0 0 0 0.25 0"/>
<feBlend mode="normal" in2="BackgroundImageFix" result="effect1_dropShadow_17_239"/>
<feBlend mode="normal" in="SourceGraphic" in2="effect1_dropShadow_17_239" result="shape"/>
</filter>
</defs>
</svg>
